<?xml version="1.0" encoding="UTF-8"?>
<svg width="35px" height="52px" viewBox="0 0 35 52" version="1.1" xmlns="http://www.w3.org/2000/svg" xmlns:xlink="http://www.w3.org/1999/xlink">
    <!-- Generator: sketchtool 56.2 (101010) - https://sketch.com -->
    <g id="pinn" stroke="none" stroke-width="1" fill="none" fill-rule="evenodd">
        <g id="gpcl_patient_coordination" transform="translate(-422.000000, -558.000000)" fill-rule="nonzero">
            <g id="content" transform="translate(-2.000000, 142.000000)">
                <g id="map" transform="translate(249.000000, 265.000000)">
                    <g id="icon_pin" transform="translate(175.000000, 151.000000)">
                        <path d="M17.1000003,0 C7.68960011,0 0.0333000005,7.65630011 0.0333000005,17.0667003 C0.0333000005,19.8917003 0.739600011,22.6927003 2.08230003,25.1771004 L16.1667002,50.6500008 C16.3542002,50.9896008 16.7115002,51.2000008 17.1000003,51.2000008 C17.4885003,51.2000008 17.8458003,50.9896008 18.0333,50.6500008 L32.1229005,25.1687004 C33.4604005,22.6927003 34.1667005,19.8916003 34.1667005,17.0666003 C34.1667005,7.65630011 26.5104004,0 17.1000003,0 Z" id="Shape" fill="#0BA6BF"></path>
                        <g id="Group" transform="translate(8.000000, 8.000000)" fill="#FFFFFF">
                            <path d="M9.03201706,9.8785456 C7.91582832,9.8785456 7.01604351,8.96703044 7.01604351,7.8618183 C7.01604351,6.75660616 7.927218,5.845091 9.03201706,5.845091 C10.1368161,5.845091 11.0479906,6.74521222 11.0479906,7.8618183 C11.0479906,8.97842438 10.1482058,9.8785456 9.03201706,9.8785456 L9.03201706,9.8785456 Z M12.2211277,4.6943031 L9.03201706,4.6943031 C7.3235649,4.6943031 5.93402382,6.1641213 5.93402382,7.87321224 C5.93402382,9.58230317 7.35773395,11.0065456 9.0661861,11.0065456 C9.07757578,11.0065456 10.9340938,10.9609699 10.9113144,11.9978184 C10.8999247,12.6472729 8.84978216,13.9803638 8.84978216,13.9803638 L8.84978216,15.1881214 C8.84978216,15.1881214 11.8452683,13.4562426 12.1300103,12.0889699 C12.391973,10.8584244 11.1846668,10.4596365 10.9796525,10.3570911 C11.6858127,9.78739409 12.1300103,8.81890922 12.1300103,7.85042436 C12.1300103,7.05284859 11.8224889,6.47175767 11.3327326,5.68557584 L12.2211277,5.68557584 L12.2211277,4.6943031 L12.2211277,4.6943031 Z" id="Shape"></path>
                            <path d="M3.84971219,3.29284853 C4.03194708,3.12193944 4.22557166,2.96242429 4.43058592,2.80290913 L3.79276378,1.92557579 C3.55358048,2.10787882 3.32578686,2.30157579 3.09799324,2.5066667 L3.84971219,3.29284853 Z" id="Path"></path>
                            <path d="M4.74949699,2.57503034 C4.95451125,2.42690913 5.17091519,2.30157579 5.38731913,2.17624246 L4.87478348,1.21915153 C4.61282082,1.36727275 4.36224783,1.5267879 4.11167485,1.69769699 L4.74949699,2.57503034 Z" id="Path"></path>
                            <path d="M2.8815893,4.36387885 C3.09799324,4.0904243 3.32578686,3.82836369 3.56497016,3.57769702 L2.81325121,2.79151519 C2.52850919,3.08775762 2.25515684,3.39539399 2.00458386,3.7144243 L2.8815893,4.36387885 Z" id="Path"></path>
                            <path d="M1.23008555,8.44290922 C1.27564428,8.02133345 1.35537204,7.59975769 1.46926885,7.18957586 L0.421418198,6.87054556 C0.284742026,7.34909102 0.193624578,7.82763648 0.136676172,8.32896982 L1.23008555,8.44290922 Z" id="Path"></path>
                            <path d="M2.18681876,5.41212129 C2.32349493,5.16145462 2.48295046,4.91078795 2.642406,4.67151522 L1.76540056,4.03345461 C1.57177598,4.31830309 1.38954109,4.61454552 1.21869587,4.91078795 L2.18681876,5.41212129 Z" id="Path"></path>
                            <path d="M1.58316566,6.81357586 C1.69706247,6.44896979 1.84512833,6.10715161 2.00458386,5.76533342 L1.03646097,5.26400008 C0.842836396,5.66278796 0.671991181,6.07296979 0.535315008,6.49454555 L1.58316566,6.81357586 Z" id="Path"></path>
                            <path d="M5.72900956,1.98254548 C6.35544202,1.66351518 7.0274332,1.42424245 7.72220374,1.27612123 L7.51718948,0.205090912 C6.70852213,0.376000006 5.93402382,0.660848495 5.21647391,1.02545456 L5.72900956,1.98254548 Z" id="Path"></path>
                            <path d="M15.9797225,14.5614548 C15.5355249,15.1197578 15.0115996,15.6324851 14.4307259,16.0654548 L15.0571583,16.9541821 C15.7291495,16.4642427 16.3214129,15.8717578 16.8453382,15.2223033 L15.9797225,14.5614548 Z" id="Path"></path>
                            <path d="M7.91582832,0.136727275 L8.12084257,1.20775759 C8.41697428,1.16218184 8.71310599,1.12800002 9.0092377,1.10521214 L8.97506865,0.0113939396 C8.61059886,0.0341818187 8.25751875,0.0797575769 7.91582832,0.136727275" id="Path"></path>
                            <path d="M17.7792921,9.40000014 C17.7792921,10.2431517 17.6540056,11.0521214 17.4148223,11.8269093 L18.4512833,12.1687275 C18.7246356,11.2913941 18.8613118,10.368485 18.8613118,9.40000014 C18.8613118,9.3886062 18.8613118,9.37721226 18.8613118,9.36581832 L17.7792921,9.40000014 L17.7792921,9.40000014" id="Path"></path>
                            <path d="M18.3146071,6.19830312 L17.3009255,6.59709101 C17.5742778,7.34909102 17.745123,8.15806073 17.7792921,9.00121226 L18.8727015,8.97842438 C18.8157531,7.99854557 18.6221285,7.06424253 18.3146071,6.19830312" id="Path"></path>
                            <path d="M15.7405392,3.95369703 C16.3214129,4.62593946 16.8111692,5.38933341 17.1528596,6.221091 L18.1665412,5.82230312 C17.7679024,4.86521219 17.2211977,3.97648491 16.5378169,3.21309096 L15.7405392,3.95369703 Z" id="Path"></path>
                            <path d="M12.9045086,1.83442427 C13.8726315,2.27878791 14.7382473,2.89406065 15.4671868,3.6574546 L16.2758542,2.91684853 C15.4444075,2.03951518 14.4421155,1.33309093 13.3373165,0.831757588 L12.9045086,1.83442427 Z" id="Path"></path>
                            <path d="M12.3122452,18.3670306 L11.9591651,17.3301821 C11.3441223,17.523879 10.7063002,17.6378184 10.0456987,17.6833942 L10.0912574,18.7772124 C10.854366,18.7316366 11.606085,18.5835154 12.3122452,18.3670306" id="Path"></path>
                            <path d="M17.3009255,12.2029093 C17.0389628,12.9435153 16.674493,13.6271517 16.2189058,14.2538184 L17.0845215,14.9146669 C17.6084469,14.1968487 18.0298651,13.3992729 18.3259968,12.5561214 L17.3009255,12.2029093 Z" id="Path"></path>
                            <path d="M14.1118148,16.2933336 C13.5651101,16.6693336 12.961457,16.9769699 12.3350246,17.2048487 L12.6881047,18.2416972 C13.4170443,17.9796366 14.1118148,17.6150306 14.7496369,17.1820609 L14.1118148,16.2933336 Z" id="Path"></path>
                            <path d="M9.40787653,1.0938182 C9.43065589,1.0938182 9.45343526,1.0938182 9.4876043,1.0938182 C10.569624,1.0938182 11.606085,1.29890911 12.5514285,1.68630306 L12.9728467,0.683636374 C11.890827,0.239272731 10.7063002,0 9.47621462,0 C9.44204557,0 9.40787653,0 9.36231781,0 L9.40787653,1.0938182 Z" id="Path"></path>
                            <path d="M1.17313715,9.40000014 C1.17313715,9.20630317 1.18452683,9.02400013 1.19591651,8.8416971 L0.11389681,8.73915165 C0.102507129,8.9556365 0.0911174482,9.17212135 0.0911174482,9.40000014 C0.0911174482,9.66206075 0.102507129,9.92412136 0.125286491,10.186182 L1.20730619,10.0722426 C1.18452683,9.85575772 1.17313715,9.62787893 1.17313715,9.40000014" id="Path"></path>
                            <path d="M9.64705983,17.7061821 C9.59011143,17.7061821 9.53316302,17.7061821 9.47621462,17.7061821 C8.91812025,17.7061821 8.38280524,17.6492124 7.85887991,17.5466669 L7.61969661,18.6176972 C8.2233497,18.7430306 8.83839248,18.8000003 9.47621462,18.8000003 C9.55594238,18.8000003 9.62428047,18.8000003 9.69261856,18.8000003 L9.64705983,17.7061821 Z" id="Path"></path>
                            <path d="M1.54899662,11.883879 C1.40093077,11.4281214 1.29842364,10.9495759 1.24147523,10.4710305 L0.159455534,10.5849699 C0.227793621,11.1546668 0.353080112,11.7015759 0.523925327,12.2370911 L1.54899662,11.883879 Z" id="Path"></path>
                            <path d="M2.34627429,13.6499396 C2.08431163,13.205576 1.85651801,12.7384244 1.68567279,12.259879 L0.649211819,12.6130911 C0.854226077,13.1827881 1.11618874,13.7296972 1.42371013,14.2310305 L2.34627429,13.6499396 Z" id="Path"></path>
                            <path d="M5.31898104,16.589576 C4.79505571,16.2819396 4.30529943,15.9173336 3.86110187,15.5071517 L3.10938292,16.2933336 C3.62191857,16.771879 4.19140262,17.1934548 4.80644539,17.5466669 L5.31898104,16.589576 Z" id="Path"></path>
                            <path d="M3.56497016,15.2336972 C3.18911069,14.8576972 2.84742026,14.4361214 2.55128855,13.9917578 L1.62872439,14.5728487 C1.97041482,15.0969699 2.36905365,15.5755154 2.80186153,16.019879 L3.56497016,15.2336972 Z" id="Path"></path>
                            <path d="M7.47163076,17.4669094 C6.83380862,17.3073942 6.23015552,17.0795154 5.66067147,16.783273 L5.13674614,17.7403639 C5.79734764,18.0821821 6.49211819,18.3556366 7.23244745,18.5379397 L7.47163076,17.4669094 Z" id="Path"></path>
                        </g>
                    </g>
                </g>
            </g>
        </g>
    </g>
</svg>