<?xml version="1.0" encoding="UTF-8"?>
<svg width="24px" height="24px" viewBox="0 0 24 24" version="1.1" xmlns="http://www.w3.org/2000/svg" xmlns:xlink="http://www.w3.org/1999/xlink">
    <!-- Generator: sketchtool 54.1 (76490) - https://sketchapp.com -->
    <title>F64EC23D-5F4A-463C-B5C8-A310B7371158</title>
    <desc>Created with sketchtool.</desc>
    <g id="main-pages" stroke="none" stroke-width="1" fill="none" fill-rule="evenodd">
        <g id="GPCL_main_burger" transform="translate(-754.000000, -188.000000)">
            <g id="Group" transform="translate(725.000000, 30.000000)">
                <g id="icon_video" transform="translate(25.000000, 153.000000)">
                    <rect id="mask" stroke="#979797" opacity="0" x="0.5" y="0.5" width="31" height="31"></rect>
                    <g id="shape" transform="translate(4.000000, 5.000000)" fill-rule="nonzero">
                        <path d="M23.6,17.5883576 L0.4,17.5883576 C0.17910155,17.5883576 0,17.4096284 0,17.1891892 L0,0.424116424 C0,0.203677222 0.17910155,0.0249480249 0.4,0.0249480249 L23.6,0.0249480249 C23.8208985,0.0249480249 24,0.203677222 24,0.424116424 L24,17.1891892 C24,17.4096284 23.8208985,17.5883576 23.6,17.5883576 Z M0.8,16.7900208 L23.2,16.7900208 L23.2,0.823284823 L0.8,0.823284823 L0.8,16.7900208 Z" id="Shape" fill="#222222"></path>
                        <path d="M23.6,19.983368 L9.32597655,19.983368 C8.8642578,19.008446 7.88046875,18.3866944 6.8,18.3866944 C5.71953125,18.3866944 4.7357422,19.008446 4.27402345,19.983368 L0.4,19.983368 C0.17910155,19.983368 -2.84217094e-14,20.1620972 -2.84217094e-14,20.3825364 L-2.84217094e-14,21.97921 C-2.84217094e-14,22.1996492 0.17910155,22.3783784 0.4,22.3783784 L4.27402345,22.3783784 C4.7357422,23.3533004 5.71953125,23.975052 6.8,23.975052 C7.88046875,23.975052 8.8642578,23.3533004 9.32597655,22.3783784 L23.6,22.3783784 C23.8208984,22.3783784 24,22.1996492 24,21.97921 L24,20.3825364 C24,20.1620972 23.8208984,19.983368 23.6,19.983368 Z M0.8,21.5800416 L0.8,20.7817048 L4.03203125,20.7817048 C3.9892578,21.0461928 3.9892578,21.3155535 4.03203125,21.5800416 L0.8,21.5800416 Z M6.8,23.1767152 C5.6955078,23.1767152 4.8,22.2830691 4.8,21.1808732 C4.8,20.0786772 5.6955078,19.1850312 6.8,19.1850312 C7.9044922,19.1850312 8.8,20.0786772 8.8,21.1808732 C8.7986328,22.2826793 7.90410155,23.1753508 6.8,23.1767152 Z M23.2,21.5800416 L9.56796875,21.5800416 C9.6107422,21.3155535 9.6107422,21.0461928 9.56796875,20.7817048 L23.2,20.7817048 L23.2,21.5800416 Z" id="Shape" fill="#222222"></path>
                        <path d="M9.2,13.5966736 C8.97910155,13.5966736 8.8,13.4179444 8.8,13.1975052 L8.8,4.41580042 C8.8,4.27137475 8.8779297,4.13825364 9.00410155,4.06750259 C9.13027345,3.99694648 9.28496095,3.99967514 9.40839845,4.07490906 L16.6083984,8.46576145 C16.727539,8.53826664 16.8001953,8.66748963 16.8001953,8.80665281 C16.8001953,8.94581598 16.727539,9.07503897 16.6083984,9.14754417 L9.40839845,13.5383966 C9.3457031,13.5765982 9.2734375,13.5966736 9.2,13.5966736 L9.2,13.5966736 Z M9.6,5.12759875 L9.6,12.4857069 L15.6328125,8.80665281 L9.6,5.12759875 Z" id="Shape" fill="#0BA6BF"></path>
                    </g>
                </g>
            </g>
        </g>
    </g>
</svg>