<?xml version="1.0" encoding="UTF-8"?>
<svg width="339px" height="348px" viewBox="0 0 339 348" version="1.1" xmlns="http://www.w3.org/2000/svg" xmlns:xlink="http://www.w3.org/1999/xlink">
    <!-- Generator: Sketch 56.2 (81672) - https://sketch.com -->
    <title>pgtsr_method3</title>
    <desc>Created with Sketch.</desc>
    <g id="main-pages" stroke="none" stroke-width="1" fill="none" fill-rule="evenodd">
        <g id="PGT-SR-Page" transform="translate(-549.000000, -2319.000000)">
            <g id="pgtsr_method3" transform="translate(550.000000, 2320.000000)">
                <g id="Group">
                    <g id="Group-3-Copy-10" stroke="#0BA6BF" stroke-width="2">
                        <rect id="Rectangle" x="0" y="0" width="32" height="114" rx="15"></rect>
                        <rect id="Rectangle" x="3" y="3" width="26" height="108" rx="13"></rect>
                    </g>
                    <g id="Group-3-Copy-10" transform="translate(0.000000, 116.000000)">
                        <rect id="Rectangle" stroke="#0BA6BF" stroke-width="2" x="0" y="0" width="32" height="114" rx="15"></rect>
                        <rect id="Rectangle" stroke="#0BA6BF" stroke-width="2" x="3" y="3" width="26" height="108" rx="13"></rect>
                        <path d="M16,4 C22.627417,4 28,9.372583 28,16 L28,39.3333333 L4,39.3333333 L4,16 C4,9.372583 9.372583,4 16,4 Z" id="Rectangle" fill="#89CBE7" fill-rule="nonzero"></path>
                        <path d="M16,75.000001 C22.627417,75.000001 28,80.372584 28,87.000001 L28,110.333334 L4,110.333334 L4,87.000001 C4,80.372584 9.372583,75.000001 16,75.000001 Z" id="Rectangle" fill="#EBB671" fill-rule="nonzero" transform="translate(16.000000, 92.666668) rotate(-180.000000) translate(-16.000000, -92.666668) "></path>
                        <rect id="Rectangle" fill="#B4CBA0" fill-rule="nonzero" x="4" y="39" width="24" height="36" rx="12"></rect>
                    </g>
                    <g id="Group-3-Copy-10" transform="translate(0.000000, 232.000000)" stroke="#0BA6BF" stroke-width="2">
                        <rect id="Rectangle" x="0" y="0" width="32" height="114" rx="15"></rect>
                        <rect id="Rectangle" x="3" y="3" width="26" height="108" rx="13"></rect>
                    </g>
                </g>
                <g id="Group" transform="translate(305.000000, 0.000000)">
                    <g id="Group-3-Copy-10" stroke="#0BA6BF" stroke-width="2">
                        <rect id="Rectangle" x="0" y="0" width="32" height="114" rx="15"></rect>
                        <rect id="Rectangle" x="3" y="3" width="26" height="108" rx="13"></rect>
                    </g>
                    <g id="Group-3-Copy-10" transform="translate(0.000000, 116.000000)">
                        <rect id="Rectangle" stroke="#0BA6BF" stroke-width="2" x="0" y="0" width="32" height="114" rx="15"></rect>
                        <rect id="Rectangle" stroke="#0BA6BF" stroke-width="2" x="3" y="3" width="26" height="108" rx="13"></rect>
                        <path d="M16,4 C22.627417,4 28,9.372583 28,16 L28,39.3333333 L4,39.3333333 L4,16 C4,9.372583 9.372583,4 16,4 Z" id="Rectangle" fill="#EBB671" fill-rule="nonzero"></path>
                        <path d="M16,75.000001 C22.627417,75.000001 28,80.372584 28,87.000001 L28,110.333334 L4,110.333334 L4,87.000001 C4,80.372584 9.372583,75.000001 16,75.000001 Z" id="Rectangle" fill="#89CBE7" fill-rule="nonzero" transform="translate(16.000000, 92.666668) rotate(-180.000000) translate(-16.000000, -92.666668) "></path>
                        <rect id="Rectangle" fill="#B4CBA0" fill-rule="nonzero" x="4" y="39" width="24" height="36" rx="12"></rect>
                    </g>
                    <g id="Group-3-Copy-10" transform="translate(0.000000, 232.000000)" stroke="#0BA6BF" stroke-width="2">
                        <rect id="Rectangle" x="0" y="0" width="32" height="114" rx="15"></rect>
                        <rect id="Rectangle" x="3" y="3" width="26" height="108" rx="13"></rect>
                    </g>
                </g>
                <g id="Group" transform="translate(115.000000, 0.000000)">
                    <g id="Group-3-Copy-10" transform="translate(33.000000, 0.000000)" stroke="#0BA6BF" stroke-width="2">
                        <rect id="Rectangle" x="0" y="0" width="32" height="114" rx="15"></rect>
                        <rect id="Rectangle" x="3" y="3" width="26" height="108" rx="13"></rect>
                    </g>
                    <g id="Group-3-Copy-10" transform="translate(49.000000, 173.000000) rotate(40.000000) translate(-49.000000, -173.000000) translate(33.000000, 116.000000)">
                        <rect id="Rectangle" stroke="#0BA6BF" stroke-width="2" x="0" y="0" width="32" height="114" rx="15"></rect>
                        <rect id="Rectangle" stroke="#0BA6BF" stroke-width="2" x="3" y="3" width="26" height="108" rx="13"></rect>
                        <path d="M16,4 C22.627417,4 28,9.372583 28,16 L28,39.3333333 L4,39.3333333 L4,16 C4,9.372583 9.372583,4 16,4 Z" id="Rectangle" fill="#89CBE7" fill-rule="nonzero"></path>
                        <path d="M16,75.000001 C22.627417,75.000001 28,80.372584 28,87.000001 L28,110.333334 L4,110.333334 L4,87.000001 C4,80.372584 9.372583,75.000001 16,75.000001 Z" id="Rectangle" fill="#EBB671" fill-rule="nonzero" transform="translate(16.000000, 92.666668) rotate(-180.000000) translate(-16.000000, -92.666668) "></path>
                        <rect id="Rectangle" fill="#B4CBA0" fill-rule="nonzero" x="4" y="39" width="24" height="36" rx="12"></rect>
                    </g>
                    <g id="Group-3-Copy-10" transform="translate(33.000000, 232.000000)" stroke="#0BA6BF" stroke-width="2">
                        <rect id="Rectangle" x="0" y="0" width="32" height="114" rx="15"></rect>
                        <rect id="Rectangle" x="3" y="3" width="26" height="108" rx="13"></rect>
                    </g>
                    <path d="M65.8850588,208.271292 C66.7598174,208.423035 67.6514468,208.5 68.5532754,208.5 C77.1136891,208.5 84.0532754,201.560414 84.0532754,193 C84.0532754,184.439586 77.1136891,177.5 68.5532754,177.5 L68.5532754,176.5 C77.6659738,176.5 85.0532754,183.887302 85.0532754,193 C85.0532754,202.112698 77.6659738,209.5 68.5532754,209.5 C67.4905017,209.5 66.4405047,209.399455 65.4132083,209.201486 L63.5447492,212.884915 L57.554089,204.800239 L67.6162261,204.858516 L65.8850588,208.271292 Z" id="Path" fill="#0BA6BF" fill-rule="nonzero"></path>
                    <path d="M18.8850588,171.271292 C19.7598174,171.423035 20.6514468,171.5 21.5532754,171.5 C30.1136891,171.5 37.0532754,164.560414 37.0532754,156 C37.0532754,147.439586 30.1136891,140.5 21.5532754,140.5 L21.5532754,139.5 C30.6659738,139.5 38.0532754,146.887302 38.0532754,156 C38.0532754,165.112698 30.6659738,172.5 21.5532754,172.5 C20.4905017,172.5 19.4405047,172.399455 18.4132083,172.201486 L16.5447492,175.884915 L10.554089,167.800239 L20.6162261,167.858516 L18.8850588,171.271292 Z" id="Path" fill="#0BA6BF" fill-rule="nonzero"></path>
                </g>
                <polygon id="arrow" fill="#979797" fill-rule="nonzero" points="97.1074219 173.5 58.3691406 173.5 58.3691406 172.5 97.1074219 172.5 97.1074219 168.5 106.107422 173 97.1074219 177.5"></polygon>
                <polygon id="arrow" fill="#979797" fill-rule="nonzero" points="270.107422 173.5 231.369141 173.5 231.369141 172.5 270.107422 172.5 270.107422 168.5 279.107422 173 270.107422 177.5"></polygon>
            </g>
        </g>
    </g>
</svg>