<?xml version="1.0" encoding="UTF-8"?>
<svg width="342px" height="183px" viewBox="0 0 342 183" version="1.1" xmlns="http://www.w3.org/2000/svg" xmlns:xlink="http://www.w3.org/1999/xlink">
    <!-- Generator: Sketch 56 (81588) - https://sketch.com -->
    <title>pgtsr_method2</title>
    <desc>Created with Sketch.</desc>
    <g id="main-pages" stroke="none" stroke-width="1" fill="none" fill-rule="evenodd">
        <g id="PGT-SR-Page" transform="translate(-547.000000, -1897.000000)">
            <g id="pgtsr_method2" transform="translate(547.000000, 1898.000000)">
                <g id="Group-3-Copy-26" stroke-linecap="round" stroke-linejoin="round" transform="translate(11.000000, 49.000000)" stroke="#0BA6BF" stroke-width="2">
                    <path d="M0,0.573914675 L0,62.6849489 C0,68.3811194 6.25577167,73 13.9961647,73 C21.726795,73 28,68.3811194 28,62.6849489 L28,0.573914675 C28,-0.249860836 0,-0.130422169 0,0.573914675 Z" id="Stroke-13"></path>
                    <path d="M4,5.49529623 L4,59.0979696 C4,64.0138428 8.46840834,68 13.9972605,68 C19.5191393,68 24,64.0138428 24,59.0979696 L24,5.49529623 C24,4.78436668 4,4.88744388 4,5.49529623 Z" id="Stroke-13-Copy-4"></path>
                </g>
                <g id="Group-3-Copy-27" stroke-linecap="round" stroke-linejoin="round" transform="translate(11.000000, 16.000000)" stroke="#0BA6BF" stroke-width="2">
                    <path d="M0,0.188684277 L0,20.6087503 C0,22.4814639 6.25577167,24 13.9961647,24 C21.726795,24 28,22.4814639 28,20.6087503 L28,0.188684277 C28,-0.0821460282 0,-0.0428785213 0,0.188684277 Z" id="Stroke-13"></path>
                    <path d="M4,5.12578952 L4,18.7391669 C4,19.9876426 24,19.9876426 24,18.7391669 L24,5.12578952 C24,4.94523598 4,4.97141432 4,5.12578952 Z" id="Stroke-13-Copy-4"></path>
                </g>
                <g id="Group-3-Copy-29" stroke-linecap="round" stroke-linejoin="round" transform="translate(78.000000, 49.000000)" stroke="#0B42BF" stroke-width="2">
                    <path d="M0,0.432401468 L0,47.2283861 C0,51.5200215 6.25577167,55 13.9961647,55 C21.726795,55 28,51.5200215 28,47.2283861 L28,0.432401468 C28,-0.188251315 0,-0.098263278 0,0.432401468 Z" id="Stroke-13"></path>
                    <path d="M4,5.35378302 L4,43.6414068 C4,47.1527448 8.46840834,50 13.9972605,50 C19.5191393,50 24,47.1527448 24,43.6414068 L24,5.35378302 C24,4.8459762 4,4.91960277 4,5.35378302 Z" id="Stroke-13-Copy-4"></path>
                </g>
                <g id="Group-3-Copy-30" stroke-linecap="round" stroke-linejoin="round" transform="translate(286.000000, 27.500000) rotate(-180.000000) translate(-286.000000, -27.500000) translate(272.000000, 0.000000)" stroke="#0B42BF" stroke-width="2">
                    <path d="M0,0.432401468 L0,47.2283861 C0,51.5200215 6.25577167,55 13.9961647,55 C21.726795,55 28,51.5200215 28,47.2283861 L28,0.432401468 C28,-0.188251315 0,-0.098263278 0,0.432401468 Z" id="Stroke-13"></path>
                    <path d="M4,5.35378302 L4,43.6414068 C4,47.1527448 8.46840834,50 13.9972605,50 C19.5191393,50 24,47.1527448 24,43.6414068 L24,5.35378302 C24,4.8459762 4,4.91960277 4,5.35378302 Z" id="Stroke-13-Copy-4"></path>
                </g>
                <g id="Group-3-Copy-31" stroke-linecap="round" stroke-linejoin="round" transform="translate(272.000000, 57.000000)" stroke="#0BA6BF" stroke-width="2">
                    <path d="M0,0.573914675 L0,62.6849489 C0,68.3811194 6.25577167,73 13.9961647,73 C21.726795,73 28,68.3811194 28,62.6849489 L28,0.573914675 C28,-0.249860836 0,-0.130422169 0,0.573914675 Z" id="Stroke-13"></path>
                    <path d="M4,5.49529623 L4,59.0979696 C4,64.0138428 8.46840834,68 13.9972605,68 C19.5191393,68 24,64.0138428 24,59.0979696 L24,5.49529623 C24,4.78436668 4,4.88744388 4,5.49529623 Z" id="Stroke-13-Copy-4"></path>
                </g>
                <g id="Group-3-Copy-28" stroke-linecap="round" stroke-linejoin="round" transform="translate(78.000000, 16.000000)" stroke="#0B42BF" stroke-width="2">
                    <path d="M0,0.188684277 L0,20.6087503 C0,22.4814639 6.25577167,24 13.9961647,24 C21.726795,24 28,22.4814639 28,20.6087503 L28,0.188684277 C28,-0.0821460282 0,-0.0428785213 0,0.188684277 Z" id="Stroke-13"></path>
                    <path d="M4,5.12578952 L4,18.7391669 C4,19.9876426 24,19.9876426 24,18.7391669 L24,5.12578952 C24,4.94523598 4,4.97141432 4,5.12578952 Z" id="Stroke-13-Copy-4"></path>
                </g>
                <path d="M9.5859375,148.835938 L5.9296875,148.835938 L5.9296875,159 L4.390625,159 L4.390625,148.835938 L0.7421875,148.835938 L0.7421875,147.625 L9.5859375,147.625 L9.5859375,148.835938 Z M12.765625,155.921875 L12.9453125,156.945312 L12.9921875,156.945312 L13.2109375,155.921875 L14.8984375,150.546875 L16.1328125,150.546875 L17.828125,155.921875 L18.0703125,157.0625 L18.1171875,157.0625 L18.34375,155.921875 L19.671875,150.546875 L21.203125,150.546875 L18.75,159 L17.5078125,159 L15.875,153.851562 L15.5234375,152.414062 L15.4765625,152.421875 L15.140625,153.851562 L13.53125,159 L12.2890625,159 L9.8359375,150.546875 L11.3671875,150.546875 L12.765625,155.921875 Z M22.3515625,154.695312 C22.3515625,153.445306 22.6901008,152.415369 23.3671875,151.605469 C24.0442742,150.795569 24.9635359,150.390625 26.125,150.390625 C27.2968809,150.390625 28.2226529,150.794267 28.9023438,151.601562 C29.5820346,152.408858 29.921875,153.440098 29.921875,154.695312 L29.921875,154.867188 C29.921875,156.12761 29.5833367,157.15885 28.90625,157.960938 C28.2291633,158.763025 27.3072975,159.164062 26.140625,159.164062 C24.9739525,159.164062 24.0507846,158.761723 23.3710938,157.957031 C22.6914029,157.15234 22.3515625,156.122402 22.3515625,154.867188 L22.3515625,154.695312 Z M23.890625,154.867188 C23.890625,155.763025 24.0794252,156.502601 24.4570312,157.085938 C24.8346373,157.669274 25.3958296,157.960938 26.140625,157.960938 C26.8750037,157.960938 27.4322898,157.669274 27.8125,157.085938 C28.1927102,156.502601 28.3828125,155.763025 28.3828125,154.867188 L28.3828125,154.695312 C28.3828125,153.809891 28.1914082,153.07292 27.8085938,152.484375 C27.4257793,151.89583 26.864587,151.601562 26.125,151.601562 C25.390625,151.601562 24.8346373,151.89583 24.4570312,152.484375 C24.0794252,153.07292 23.890625,153.809891 23.890625,154.695312 L23.890625,154.867188 Z M42.234375,156.070312 L37.46875,156.070312 L36.390625,159 L34.8203125,159 L39.21875,147.625 L40.5390625,147.625 L44.8671875,159 L43.296875,159 L42.234375,156.070312 Z M37.9453125,154.78125 L41.7734375,154.78125 L39.8984375,149.601562 L39.8515625,149.601562 L37.9453125,154.78125 Z M49.578125,157.960938 C50.0885442,157.960938 50.5377585,157.803387 50.9257812,157.488281 C51.313804,157.173176 51.5078125,156.786461 51.5078125,156.328125 L52.890625,156.328125 L52.90625,156.375 C52.9322918,157.10417 52.6080763,157.751299 51.9335938,158.316406 C51.2591112,158.881513 50.4739628,159.164062 49.578125,159.164062 C48.3489522,159.164062 47.4088574,158.763025 46.7578125,157.960938 C46.1067676,157.15885 45.78125,156.151048 45.78125,154.9375 L45.78125,154.609375 C45.78125,153.406244 46.1080696,152.402348 46.7617188,151.597656 C47.4153679,150.792965 48.3541605,150.390625 49.578125,150.390625 C50.5677133,150.390625 51.3762989,150.682289 52.0039062,151.265625 C52.6315136,151.848961 52.9348959,152.5651 52.9140625,153.414062 L52.8984375,153.460938 L51.5078125,153.460938 C51.5078125,152.94531 51.3255227,152.506512 50.9609375,152.144531 C50.5963523,151.78255 50.1354195,151.601562 49.578125,151.601562 C48.7708293,151.601562 48.1940121,151.891924 47.8476562,152.472656 C47.5013004,153.053388 47.328125,153.765621 47.328125,154.609375 L47.328125,154.9375 C47.328125,155.802088 47.4999983,156.522133 47.84375,157.097656 C48.1875017,157.67318 48.7656209,157.960938 49.578125,157.960938 Z M58.6328125,151.90625 L57.84375,151.859375 C57.437498,151.859375 57.0950535,151.955728 56.8164062,152.148438 C56.537759,152.341147 56.3229174,152.611977 56.171875,152.960938 L56.171875,159 L54.6328125,159 L54.6328125,150.546875 L56.0078125,150.546875 L56.15625,151.78125 C56.3958345,151.343748 56.6914045,151.002605 57.0429688,150.757812 C57.394533,150.51302 57.7994769,150.390625 58.2578125,150.390625 C58.3723964,150.390625 58.4817703,150.399739 58.5859375,150.417969 C58.6901047,150.436198 58.7760413,150.455729 58.84375,150.476562 L58.6328125,151.90625 Z M59.6015625,154.695312 C59.6015625,153.445306 59.9401008,152.415369 60.6171875,151.605469 C61.2942742,150.795569 62.2135359,150.390625 63.375,150.390625 C64.5468809,150.390625 65.4726529,150.794267 66.1523438,151.601562 C66.8320346,152.408858 67.171875,153.440098 67.171875,154.695312 L67.171875,154.867188 C67.171875,156.12761 66.8333367,157.15885 66.15625,157.960938 C65.4791633,158.763025 64.5572975,159.164062 63.390625,159.164062 C62.2239525,159.164062 61.3007846,158.761723 60.6210938,157.957031 C59.9414029,157.15234 59.6015625,156.122402 59.6015625,154.867188 L59.6015625,154.695312 Z M61.140625,154.867188 C61.140625,155.763025 61.3294252,156.502601 61.7070312,157.085938 C62.0846373,157.669274 62.6458296,157.960938 63.390625,157.960938 C64.1250037,157.960938 64.6822898,157.669274 65.0625,157.085938 C65.4427102,156.502601 65.6328125,155.763025 65.6328125,154.867188 L65.6328125,154.695312 C65.6328125,153.809891 65.4414082,153.07292 65.0585938,152.484375 C64.6757793,151.89583 64.114587,151.601562 63.375,151.601562 C62.640625,151.601562 62.0846373,151.89583 61.7070312,152.484375 C61.3294252,153.07292 61.140625,153.809891 61.140625,154.695312 L61.140625,154.867188 Z M72.4921875,157.960938 C73.0026067,157.960938 73.451821,157.803387 73.8398438,157.488281 C74.2278665,157.173176 74.421875,156.786461 74.421875,156.328125 L75.8046875,156.328125 L75.8203125,156.375 C75.8463543,157.10417 75.5221388,157.751299 74.8476562,158.316406 C74.1731737,158.881513 73.3880253,159.164062 72.4921875,159.164062 C71.2630147,159.164062 70.3229199,158.763025 69.671875,157.960938 C69.0208301,157.15885 68.6953125,156.151048 68.6953125,154.9375 L68.6953125,154.609375 C68.6953125,153.406244 69.0221321,152.402348 69.6757812,151.597656 C70.3294304,150.792965 71.268223,150.390625 72.4921875,150.390625 C73.4817758,150.390625 74.2903614,150.682289 74.9179688,151.265625 C75.5455761,151.848961 75.8489584,152.5651 75.828125,153.414062 L75.8125,153.460938 L74.421875,153.460938 C74.421875,152.94531 74.2395852,152.506512 73.875,152.144531 C73.5104148,151.78255 73.049482,151.601562 72.4921875,151.601562 C71.6848918,151.601562 71.1080746,151.891924 70.7617188,152.472656 C70.4153629,153.053388 70.2421875,153.765621 70.2421875,154.609375 L70.2421875,154.9375 C70.2421875,155.802088 70.4140608,156.522133 70.7578125,157.097656 C71.1015642,157.67318 71.6796834,157.960938 72.4921875,157.960938 Z M81.0546875,159.164062 C79.8775983,159.164062 78.9414097,158.772139 78.2460938,157.988281 C77.5507778,157.204423 77.203125,156.187506 77.203125,154.9375 L77.203125,154.59375 C77.203125,153.390625 77.5611943,152.389327 78.2773438,151.589844 C78.9934932,150.790361 79.8411409,150.390625 80.8203125,150.390625 C81.9609432,150.390625 82.8229137,150.734372 83.40625,151.421875 C83.9895863,152.109378 84.28125,153.026036 84.28125,154.171875 L84.28125,155.132812 L78.796875,155.132812 L78.7734375,155.171875 C78.7890626,155.984379 78.9947897,156.652341 79.390625,157.175781 C79.7864603,157.699221 80.3411423,157.960938 81.0546875,157.960938 C81.5755234,157.960938 82.0325501,157.886719 82.4257812,157.738281 C82.8190124,157.589843 83.1588527,157.385418 83.4453125,157.125 L84.046875,158.125 C83.7447902,158.421876 83.3463566,158.66927 82.8515625,158.867188 C82.3567684,159.065105 81.757816,159.164062 81.0546875,159.164062 Z M80.8203125,151.601562 C80.3046849,151.601562 79.8645852,151.819008 79.5,152.253906 C79.1354148,152.688804 78.9114587,153.234372 78.828125,153.890625 L78.84375,153.929688 L82.7421875,153.929688 L82.7421875,153.726562 C82.7421875,153.122393 82.5807308,152.61719 82.2578125,152.210938 C81.9348942,151.804685 81.4557323,151.601562 80.8203125,151.601562 Z M87.3828125,150.546875 L87.4921875,151.804688 C87.7734389,151.356769 88.1263,151.009116 88.5507812,150.761719 C88.9752625,150.514322 89.4583306,150.390625 90,150.390625 C90.9114629,150.390625 91.617185,150.657549 92.1171875,151.191406 C92.61719,151.725263 92.8671875,152.549474 92.8671875,153.664062 L92.8671875,159 L91.328125,159 L91.328125,153.695312 C91.328125,152.950517 91.1809911,152.421877 90.8867188,152.109375 C90.5924464,151.796873 90.1432322,151.640625 89.5390625,151.640625 C89.096352,151.640625 88.7044288,151.747395 88.3632812,151.960938 C88.0221337,152.17448 87.750001,152.466144 87.546875,152.835938 L87.546875,159 L86.0078125,159 L86.0078125,150.546875 L87.3828125,150.546875 Z M97.1328125,148.507812 L97.1328125,150.546875 L98.734375,150.546875 L98.734375,151.6875 L97.1328125,151.6875 L97.1328125,156.820312 C97.1328125,157.216148 97.2148429,157.494791 97.3789062,157.65625 C97.5429696,157.817709 97.7604153,157.898438 98.03125,157.898438 C98.1197921,157.898438 98.2174474,157.888021 98.3242188,157.867188 C98.4309901,157.846354 98.5260412,157.820313 98.609375,157.789062 L98.8125,158.84375 C98.6979161,158.9375 98.529949,159.014323 98.3085938,159.074219 C98.0872385,159.134115 97.8645845,159.164062 97.640625,159.164062 C97.0156219,159.164062 96.518231,158.975262 96.1484375,158.597656 C95.778644,158.22005 95.59375,157.627608 95.59375,156.820312 L95.59375,151.6875 L94.25,151.6875 L94.25,150.546875 L95.59375,150.546875 L95.59375,148.507812 L97.1328125,148.507812 Z M104.632812,151.90625 L103.84375,151.859375 C103.437498,151.859375 103.095053,151.955728 102.816406,152.148438 C102.537759,152.341147 102.322917,152.611977 102.171875,152.960938 L102.171875,159 L100.632812,159 L100.632812,150.546875 L102.007812,150.546875 L102.15625,151.78125 C102.395835,151.343748 102.691404,151.002605 103.042969,150.757812 C103.394533,150.51302 103.799477,150.390625 104.257812,150.390625 C104.372396,150.390625 104.48177,150.399739 104.585938,150.417969 C104.690105,150.436198 104.776041,150.455729 104.84375,150.476562 L104.632812,151.90625 Z M107.78125,159 L106.242188,159 L106.242188,150.546875 L107.78125,150.546875 L107.78125,159 Z M107.78125,148.382812 L106.242188,148.382812 L106.242188,146.8125 L107.78125,146.8125 L107.78125,148.382812 Z M113.585938,157.960938 C114.096357,157.960938 114.545571,157.803387 114.933594,157.488281 C115.321617,157.173176 115.515625,156.786461 115.515625,156.328125 L116.898438,156.328125 L116.914062,156.375 C116.940104,157.10417 116.615889,157.751299 115.941406,158.316406 C115.266924,158.881513 114.481775,159.164062 113.585938,159.164062 C112.356765,159.164062 111.41667,158.763025 110.765625,157.960938 C110.11458,157.15885 109.789062,156.151048 109.789062,154.9375 L109.789062,154.609375 C109.789062,153.406244 110.115882,152.402348 110.769531,151.597656 C111.42318,150.792965 112.361973,150.390625 113.585938,150.390625 C114.575526,150.390625 115.384111,150.682289 116.011719,151.265625 C116.639326,151.848961 116.942708,152.5651 116.921875,153.414062 L116.90625,153.460938 L115.515625,153.460938 C115.515625,152.94531 115.333335,152.506512 114.96875,152.144531 C114.604165,151.78255 114.143232,151.601562 113.585938,151.601562 C112.778642,151.601562 112.201825,151.891924 111.855469,152.472656 C111.509113,153.053388 111.335938,153.765621 111.335938,154.609375 L111.335938,154.9375 C111.335938,155.802088 111.507811,156.522133 111.851562,157.097656 C112.195314,157.67318 112.773433,157.960938 113.585938,157.960938 Z M15.9453125,177.359375 L15.9609375,177.40625 C15.9817709,178.473964 15.6067747,179.367184 14.8359375,180.085938 C14.0651003,180.804691 13.0468813,181.164062 11.78125,181.164062 C10.4947852,181.164062 9.44661863,180.708338 8.63671875,179.796875 C7.82681887,178.885412 7.421875,177.729174 7.421875,176.328125 L7.421875,174.304688 C7.421875,172.903639 7.82681887,171.746098 8.63671875,170.832031 C9.44661863,169.917964 10.4947852,169.460938 11.78125,169.460938 C13.0677148,169.460938 14.091142,169.803382 14.8515625,170.488281 C15.611983,171.173181 15.9817709,172.080724 15.9609375,173.210938 L15.9453125,173.257812 L14.46875,173.257812 C14.46875,172.460938 14.2343773,171.830731 13.765625,171.367188 C13.2968727,170.903644 12.6354209,170.671875 11.78125,170.671875 C10.921875,170.671875 10.2369817,171.018226 9.7265625,171.710938 C9.21614328,172.403649 8.9609375,173.263016 8.9609375,174.289062 L8.9609375,176.328125 C8.9609375,177.364589 9.21614328,178.229163 9.7265625,178.921875 C10.2369817,179.614587 10.921875,179.960938 11.78125,179.960938 C12.6354209,179.960938 13.2968727,179.730471 13.765625,179.269531 C14.2343773,178.808591 14.46875,178.171879 14.46875,177.359375 L15.9453125,177.359375 Z M19.2890625,173.679688 C19.5807306,173.273435 19.9388,172.957032 20.3632812,172.730469 C20.7877625,172.503905 21.2578099,172.390625 21.7734375,172.390625 C22.6744837,172.390625 23.3762996,172.661456 23.8789062,173.203125 C24.3815129,173.744794 24.6328125,174.578119 24.6328125,175.703125 L24.6328125,181 L23.09375,181 L23.09375,175.6875 C23.09375,174.98958 22.9440119,174.47396 22.6445312,174.140625 C22.3450506,173.80729 21.8984405,173.640625 21.3046875,173.640625 C20.877602,173.640625 20.4908871,173.740884 20.1445312,173.941406 C19.7981754,174.141928 19.513022,174.414061 19.2890625,174.757812 L19.2890625,181 L17.75,181 L17.75,168.8125 L19.2890625,168.8125 L19.2890625,173.679688 Z M30.84375,173.90625 L30.0546875,173.859375 C29.6484355,173.859375 29.305991,173.955728 29.0273438,174.148438 C28.7486965,174.341147 28.5338549,174.611977 28.3828125,174.960938 L28.3828125,181 L26.84375,181 L26.84375,172.546875 L28.21875,172.546875 L28.3671875,173.78125 C28.606772,173.343748 28.902342,173.002605 29.2539062,172.757812 C29.6054705,172.51302 30.0104144,172.390625 30.46875,172.390625 C30.5833339,172.390625 30.6927078,172.399739 30.796875,172.417969 C30.9010422,172.436198 30.9869788,172.455729 31.0546875,172.476562 L30.84375,173.90625 Z M31.8125,176.695312 C31.8125,175.445306 32.1510383,174.415369 32.828125,173.605469 C33.5052117,172.795569 34.4244734,172.390625 35.5859375,172.390625 C36.7578184,172.390625 37.6835904,172.794267 38.3632812,173.601562 C39.0429721,174.408858 39.3828125,175.440098 39.3828125,176.695312 L39.3828125,176.867188 C39.3828125,178.12761 39.0442742,179.15885 38.3671875,179.960938 C37.6901008,180.763025 36.768235,181.164062 35.6015625,181.164062 C34.43489,181.164062 33.5117221,180.761723 32.8320312,179.957031 C32.1523404,179.15234 31.8125,178.122402 31.8125,176.867188 L31.8125,176.695312 Z M33.3515625,176.867188 C33.3515625,177.763025 33.5403627,178.502601 33.9179688,179.085938 C34.2955748,179.669274 34.8567671,179.960938 35.6015625,179.960938 C36.3359412,179.960938 36.8932273,179.669274 37.2734375,179.085938 C37.6536477,178.502601 37.84375,177.763025 37.84375,176.867188 L37.84375,176.695312 C37.84375,175.809891 37.6523457,175.07292 37.2695312,174.484375 C36.8867168,173.89583 36.3255245,173.601562 35.5859375,173.601562 C34.8515625,173.601562 34.2955748,173.89583 33.9179688,174.484375 C33.5403627,175.07292 33.3515625,175.809891 33.3515625,176.695312 L33.3515625,176.867188 Z M42.640625,172.546875 L42.75,173.65625 C43.026043,173.255206 43.3763,172.944012 43.8007812,172.722656 C44.2252625,172.501301 44.7187472,172.390625 45.28125,172.390625 C45.8437528,172.390625 46.3268209,172.520832 46.7304688,172.78125 C47.1341166,173.041668 47.437499,173.432289 47.640625,173.953125 C47.9062513,173.473956 48.2578103,173.093751 48.6953125,172.8125 C49.1328147,172.531249 49.6432262,172.390625 50.2265625,172.390625 C51.0859418,172.390625 51.765625,172.686195 52.265625,173.277344 C52.765625,173.868493 53.015625,174.757807 53.015625,175.945312 L53.015625,181 L51.4765625,181 L51.4765625,175.929688 C51.4765625,175.09635 51.3333348,174.506512 51.046875,174.160156 C50.7604152,173.8138 50.3333362,173.640625 49.765625,173.640625 C49.2395807,173.640625 48.8138037,173.822915 48.4882812,174.1875 C48.1627588,174.552085 47.9713545,175.013018 47.9140625,175.570312 L47.9140625,181 L46.3671875,181 L46.3671875,175.929688 C46.3671875,175.138017 46.2200536,174.558596 45.9257812,174.191406 C45.6315089,173.824217 45.2083361,173.640625 44.65625,173.640625 C44.1874977,173.640625 43.8020848,173.736978 43.5,173.929688 C43.1979152,174.122397 42.9661466,174.393227 42.8046875,174.742188 L42.8046875,181 L41.265625,181 L41.265625,172.546875 L42.640625,172.546875 Z M54.890625,176.695312 C54.890625,175.445306 55.2291633,174.415369 55.90625,173.605469 C56.5833367,172.795569 57.5025984,172.390625 58.6640625,172.390625 C59.8359434,172.390625 60.7617154,172.794267 61.4414062,173.601562 C62.1210971,174.408858 62.4609375,175.440098 62.4609375,176.695312 L62.4609375,176.867188 C62.4609375,178.12761 62.1223992,179.15885 61.4453125,179.960938 C60.7682258,180.763025 59.84636,181.164062 58.6796875,181.164062 C57.513015,181.164062 56.5898471,180.761723 55.9101562,179.957031 C55.2304654,179.15234 54.890625,178.122402 54.890625,176.867188 L54.890625,176.695312 Z M56.4296875,176.867188 C56.4296875,177.763025 56.6184877,178.502601 56.9960938,179.085938 C57.3736998,179.669274 57.9348921,179.960938 58.6796875,179.960938 C59.4140662,179.960938 59.9713523,179.669274 60.3515625,179.085938 C60.7317727,178.502601 60.921875,177.763025 60.921875,176.867188 L60.921875,176.695312 C60.921875,175.809891 60.7304707,175.07292 60.3476562,174.484375 C59.9648418,173.89583 59.4036495,173.601562 58.6640625,173.601562 C57.9296875,173.601562 57.3736998,173.89583 56.9960938,174.484375 C56.6184877,175.07292 56.4296875,175.809891 56.4296875,176.695312 L56.4296875,176.867188 Z M69.2578125,178.757812 C69.2578125,178.419269 69.1289075,178.140626 68.8710938,177.921875 C68.61328,177.703124 68.1250036,177.513022 67.40625,177.351562 C66.3802032,177.127603 65.6080755,176.824221 65.0898438,176.441406 C64.571612,176.058592 64.3125,175.536462 64.3125,174.875 C64.3125,174.187497 64.6041637,173.601565 65.1875,173.117188 C65.7708363,172.63281 66.5312453,172.390625 67.46875,172.390625 C68.4531299,172.390625 69.2356742,172.643227 69.8164062,173.148438 C70.3971383,173.653648 70.6744793,174.268226 70.6484375,174.992188 L70.6328125,175.039062 L69.1640625,175.039062 C69.1640625,174.669269 69.0091161,174.337241 68.6992188,174.042969 C68.3893214,173.748696 67.9791692,173.601562 67.46875,173.601562 C66.9218723,173.601562 66.5156263,173.721353 66.25,173.960938 C65.9843737,174.200522 65.8515625,174.489582 65.8515625,174.828125 C65.8515625,175.16146 65.9687488,175.424478 66.203125,175.617188 C66.4375012,175.809897 66.9140589,175.98177 67.6328125,176.132812 C68.7005262,176.36198 69.4947891,176.673175 70.015625,177.066406 C70.5364609,177.459637 70.796875,177.986976 70.796875,178.648438 C70.796875,179.398441 70.4934926,180.005206 69.8867188,180.46875 C69.2799449,180.932294 68.4869841,181.164062 67.5078125,181.164062 C66.4296821,181.164062 65.5807323,180.890625 64.9609375,180.34375 C64.3411427,179.796872 64.0468748,179.158858 64.078125,178.429688 L64.09375,178.382812 L65.5625,178.382812 C65.5885418,178.92969 65.7916648,179.329426 66.171875,179.582031 C66.5520852,179.834637 66.9973933,179.960938 67.5078125,179.960938 C68.0546902,179.960938 68.4830714,179.850262 68.7929688,179.628906 C69.1028661,179.407551 69.2578125,179.117189 69.2578125,178.757812 Z M72.3515625,176.695312 C72.3515625,175.445306 72.6901008,174.415369 73.3671875,173.605469 C74.0442742,172.795569 74.9635359,172.390625 76.125,172.390625 C77.2968809,172.390625 78.2226529,172.794267 78.9023438,173.601562 C79.5820346,174.408858 79.921875,175.440098 79.921875,176.695312 L79.921875,176.867188 C79.921875,178.12761 79.5833367,179.15885 78.90625,179.960938 C78.2291633,180.763025 77.3072975,181.164062 76.140625,181.164062 C74.9739525,181.164062 74.0507846,180.761723 73.3710938,179.957031 C72.6914029,179.15234 72.3515625,178.122402 72.3515625,176.867188 L72.3515625,176.695312 Z M73.890625,176.867188 C73.890625,177.763025 74.0794252,178.502601 74.4570312,179.085938 C74.8346373,179.669274 75.3958296,179.960938 76.140625,179.960938 C76.8750037,179.960938 77.4322898,179.669274 77.8125,179.085938 C78.1927102,178.502601 78.3828125,177.763025 78.3828125,176.867188 L78.3828125,176.695312 C78.3828125,175.809891 78.1914082,175.07292 77.8085938,174.484375 C77.4257793,173.89583 76.864587,173.601562 76.125,173.601562 C75.390625,173.601562 74.8346373,173.89583 74.4570312,174.484375 C74.0794252,175.07292 73.890625,175.809891 73.890625,176.695312 L73.890625,176.867188 Z M83.1796875,172.546875 L83.2890625,173.65625 C83.5651055,173.255206 83.9153625,172.944012 84.3398438,172.722656 C84.764325,172.501301 85.2578097,172.390625 85.8203125,172.390625 C86.3828153,172.390625 86.8658834,172.520832 87.2695312,172.78125 C87.6731791,173.041668 87.9765615,173.432289 88.1796875,173.953125 C88.4453138,173.473956 88.7968728,173.093751 89.234375,172.8125 C89.6718772,172.531249 90.1822887,172.390625 90.765625,172.390625 C91.6250043,172.390625 92.3046875,172.686195 92.8046875,173.277344 C93.3046875,173.868493 93.5546875,174.757807 93.5546875,175.945312 L93.5546875,181 L92.015625,181 L92.015625,175.929688 C92.015625,175.09635 91.8723973,174.506512 91.5859375,174.160156 C91.2994777,173.8138 90.8723987,173.640625 90.3046875,173.640625 C89.7786432,173.640625 89.3528662,173.822915 89.0273438,174.1875 C88.7018213,174.552085 88.510417,175.013018 88.453125,175.570312 L88.453125,181 L86.90625,181 L86.90625,175.929688 C86.90625,175.138017 86.7591161,174.558596 86.4648438,174.191406 C86.1705714,173.824217 85.7473986,173.640625 85.1953125,173.640625 C84.7265602,173.640625 84.3411473,173.736978 84.0390625,173.929688 C83.7369777,174.122397 83.5052091,174.393227 83.34375,174.742188 L83.34375,181 L81.8046875,181 L81.8046875,172.546875 L83.1796875,172.546875 Z M99.296875,181.164062 C98.1197858,181.164062 97.1835972,180.772139 96.4882812,179.988281 C95.7929653,179.204423 95.4453125,178.187506 95.4453125,176.9375 L95.4453125,176.59375 C95.4453125,175.390625 95.8033818,174.389327 96.5195312,173.589844 C97.2356807,172.790361 98.0833284,172.390625 99.0625,172.390625 C100.203131,172.390625 101.065101,172.734372 101.648438,173.421875 C102.231774,174.109378 102.523438,175.026036 102.523438,176.171875 L102.523438,177.132812 L97.0390625,177.132812 L97.015625,177.171875 C97.0312501,177.984379 97.2369772,178.652341 97.6328125,179.175781 C98.0286478,179.699221 98.5833298,179.960938 99.296875,179.960938 C99.8177109,179.960938 100.274738,179.886719 100.667969,179.738281 C101.0612,179.589843 101.40104,179.385418 101.6875,179.125 L102.289062,180.125 C101.986978,180.421876 101.588544,180.66927 101.09375,180.867188 C100.598956,181.065105 100.000004,181.164062 99.296875,181.164062 Z M99.0625,173.601562 C98.5468724,173.601562 98.1067727,173.819008 97.7421875,174.253906 C97.3776023,174.688804 97.1536463,175.234372 97.0703125,175.890625 L97.0859375,175.929688 L100.984375,175.929688 L100.984375,175.726562 C100.984375,175.122393 100.822918,174.61719 100.5,174.210938 C100.177082,173.804685 99.6979198,173.601562 99.0625,173.601562 Z M109.164062,178.757812 C109.164062,178.419269 109.035158,178.140626 108.777344,177.921875 C108.51953,177.703124 108.031254,177.513022 107.3125,177.351562 C106.286453,177.127603 105.514326,176.824221 104.996094,176.441406 C104.477862,176.058592 104.21875,175.536462 104.21875,174.875 C104.21875,174.187497 104.510414,173.601565 105.09375,173.117188 C105.677086,172.63281 106.437495,172.390625 107.375,172.390625 C108.35938,172.390625 109.141924,172.643227 109.722656,173.148438 C110.303388,173.653648 110.580729,174.268226 110.554688,174.992188 L110.539062,175.039062 L109.070312,175.039062 C109.070312,174.669269 108.915366,174.337241 108.605469,174.042969 C108.295571,173.748696 107.885419,173.601562 107.375,173.601562 C106.828122,173.601562 106.421876,173.721353 106.15625,173.960938 C105.890624,174.200522 105.757812,174.489582 105.757812,174.828125 C105.757812,175.16146 105.874999,175.424478 106.109375,175.617188 C106.343751,175.809897 106.820309,175.98177 107.539062,176.132812 C108.606776,176.36198 109.401039,176.673175 109.921875,177.066406 C110.442711,177.459637 110.703125,177.986976 110.703125,178.648438 C110.703125,179.398441 110.399743,180.005206 109.792969,180.46875 C109.186195,180.932294 108.393234,181.164062 107.414062,181.164062 C106.335932,181.164062 105.486982,180.890625 104.867188,180.34375 C104.247393,179.796872 103.953125,179.158858 103.984375,178.429688 L104,178.382812 L105.46875,178.382812 C105.494792,178.92969 105.697915,179.329426 106.078125,179.582031 C106.458335,179.834637 106.903643,179.960938 107.414062,179.960938 C107.96094,179.960938 108.389321,179.850262 108.699219,179.628906 C109.009116,179.407551 109.164062,179.117189 109.164062,178.757812 Z" id="TwoAcrocentricChromosomes" fill="#222222" fill-rule="nonzero"></path>
                <path d="M238.964844,156.070312 L234.199219,156.070312 L233.121094,159 L231.550781,159 L235.949219,147.625 L237.269531,147.625 L241.597656,159 L240.027344,159 L238.964844,156.070312 Z M234.675781,154.78125 L238.503906,154.78125 L236.628906,149.601562 L236.582031,149.601562 L234.675781,154.78125 Z M248.675781,154.070312 L248.675781,159 L247.136719,159 L247.136719,147.632812 L251.253906,147.632812 C252.498704,147.632812 253.449215,147.908851 254.105469,148.460938 C254.761722,149.013024 255.089844,149.815099 255.089844,150.867188 C255.089844,151.450524 254.937502,151.958331 254.632812,152.390625 C254.328123,152.822919 253.884118,153.166665 253.300781,153.421875 C253.925784,153.625001 254.374999,153.954425 254.648438,154.410156 C254.921876,154.865888 255.058594,155.429684 255.058594,156.101562 L255.058594,157.171875 C255.058594,157.526043 255.097656,157.843749 255.175781,158.125 C255.253907,158.406251 255.389322,158.635416 255.582031,158.8125 L255.582031,159 L253.996094,159 C253.792968,158.822916 253.662761,158.562502 253.605469,158.21875 C253.548177,157.874998 253.519531,157.520835 253.519531,157.15625 L253.519531,156.117188 C253.519531,155.502601 253.339846,155.007814 252.980469,154.632812 C252.621092,154.257811 252.139326,154.070312 251.535156,154.070312 L248.675781,154.070312 Z M248.675781,152.859375 L251.097656,152.859375 C251.967452,152.859375 252.593748,152.694012 252.976562,152.363281 C253.359377,152.03255 253.550781,151.528649 253.550781,150.851562 C253.550781,150.210934 253.364585,149.714846 252.992188,149.363281 C252.61979,149.011717 252.040369,148.835938 251.253906,148.835938 L248.675781,148.835938 L248.675781,152.859375 Z M257.089844,154.695312 C257.089844,153.445306 257.428382,152.415369 258.105469,151.605469 C258.782555,150.795569 259.701817,150.390625 260.863281,150.390625 C262.035162,150.390625 262.960934,150.794267 263.640625,151.601562 C264.320316,152.408858 264.660156,153.440098 264.660156,154.695312 L264.660156,154.867188 C264.660156,156.12761 264.321618,157.15885 263.644531,157.960938 C262.967445,158.763025 262.045579,159.164062 260.878906,159.164062 C259.712234,159.164062 258.789066,158.761723 258.109375,157.957031 C257.429684,157.15234 257.089844,156.122402 257.089844,154.867188 L257.089844,154.695312 Z M258.628906,154.867188 C258.628906,155.763025 258.817706,156.502601 259.195312,157.085938 C259.572919,157.669274 260.134111,157.960938 260.878906,157.960938 C261.613285,157.960938 262.170571,157.669274 262.550781,157.085938 C262.930991,156.502601 263.121094,155.763025 263.121094,154.867188 L263.121094,154.695312 C263.121094,153.809891 262.929689,153.07292 262.546875,152.484375 C262.164061,151.89583 261.602868,151.601562 260.863281,151.601562 C260.128906,151.601562 259.572919,151.89583 259.195312,152.484375 C258.817706,153.07292 258.628906,153.809891 258.628906,154.695312 L258.628906,154.867188 Z M273.761719,155.09375 C273.761719,156.3125 273.468753,157.295569 272.882812,158.042969 C272.296872,158.790368 271.490891,159.164062 270.464844,159.164062 C269.907549,159.164062 269.423179,159.055991 269.011719,158.839844 C268.600258,158.623697 268.259116,158.30469 267.988281,157.882812 L267.800781,159 L266.542969,159 L266.542969,146.8125 L268.082031,146.8125 L268.082031,151.546875 C268.347658,151.171873 268.677081,150.885418 269.070312,150.6875 C269.463544,150.489582 269.923174,150.390625 270.449219,150.390625 C271.490891,150.390625 272.303382,150.807288 272.886719,151.640625 C273.470055,152.473962 273.761719,153.570306 273.761719,154.929688 L273.761719,155.09375 Z M272.222656,154.929688 C272.222656,153.960933 272.044273,153.170576 271.6875,152.558594 C271.330727,151.946612 270.787764,151.640625 270.058594,151.640625 C269.584633,151.640625 269.184897,151.756509 268.859375,151.988281 C268.533853,152.220053 268.274741,152.531248 268.082031,152.921875 L268.082031,156.585938 C268.279949,157.002606 268.539061,157.328124 268.859375,157.5625 C269.179689,157.796876 269.584633,157.914062 270.074219,157.914062 C270.798181,157.914062 271.337238,157.656253 271.691406,157.140625 C272.045575,156.624997 272.222656,155.942713 272.222656,155.09375 L272.222656,154.929688 Z M279.144531,159.164062 C277.967442,159.164062 277.031253,158.772139 276.335938,157.988281 C275.640622,157.204423 275.292969,156.187506 275.292969,154.9375 L275.292969,154.59375 C275.292969,153.390625 275.651038,152.389327 276.367188,151.589844 C277.083337,150.790361 277.930985,150.390625 278.910156,150.390625 C280.050787,150.390625 280.912757,150.734372 281.496094,151.421875 C282.07943,152.109378 282.371094,153.026036 282.371094,154.171875 L282.371094,155.132812 L276.886719,155.132812 L276.863281,155.171875 C276.878906,155.984379 277.084633,156.652341 277.480469,157.175781 C277.876304,157.699221 278.430986,157.960938 279.144531,157.960938 C279.665367,157.960938 280.122394,157.886719 280.515625,157.738281 C280.908856,157.589843 281.248696,157.385418 281.535156,157.125 L282.136719,158.125 C281.834634,158.421876 281.4362,158.66927 280.941406,158.867188 C280.446612,159.065105 279.84766,159.164062 279.144531,159.164062 Z M278.910156,151.601562 C278.394529,151.601562 277.954429,151.819008 277.589844,152.253906 C277.225259,152.688804 277.001303,153.234372 276.917969,153.890625 L276.933594,153.929688 L280.832031,153.929688 L280.832031,153.726562 C280.832031,153.122393 280.670575,152.61719 280.347656,152.210938 C280.024738,151.804685 279.545576,151.601562 278.910156,151.601562 Z M288.097656,151.90625 L287.308594,151.859375 C286.902342,151.859375 286.559897,151.955728 286.28125,152.148438 C286.002603,152.341147 285.787761,152.611977 285.636719,152.960938 L285.636719,159 L284.097656,159 L284.097656,150.546875 L285.472656,150.546875 L285.621094,151.78125 C285.860678,151.343748 286.156248,151.002605 286.507812,150.757812 C286.859377,150.51302 287.264321,150.390625 287.722656,150.390625 C287.83724,150.390625 287.946614,150.399739 288.050781,150.417969 C288.154948,150.436198 288.240885,150.455729 288.308594,150.476562 L288.097656,151.90625 Z M291.746094,148.507812 L291.746094,150.546875 L293.347656,150.546875 L293.347656,151.6875 L291.746094,151.6875 L291.746094,156.820312 C291.746094,157.216148 291.828124,157.494791 291.992188,157.65625 C292.156251,157.817709 292.373697,157.898438 292.644531,157.898438 C292.733073,157.898438 292.830729,157.888021 292.9375,157.867188 C293.044271,157.846354 293.139322,157.820313 293.222656,157.789062 L293.425781,158.84375 C293.311197,158.9375 293.14323,159.014323 292.921875,159.074219 C292.70052,159.134115 292.477866,159.164062 292.253906,159.164062 C291.628903,159.164062 291.131512,158.975262 290.761719,158.597656 C290.391925,158.22005 290.207031,157.627608 290.207031,156.820312 L290.207031,151.6875 L288.863281,151.6875 L288.863281,150.546875 L290.207031,150.546875 L290.207031,148.507812 L291.746094,148.507812 Z M300.160156,156.757812 C300.160156,156.419269 300.031251,156.140626 299.773438,155.921875 C299.515624,155.703124 299.027347,155.513022 298.308594,155.351562 C297.282547,155.127603 296.510419,154.824221 295.992188,154.441406 C295.473956,154.058592 295.214844,153.536462 295.214844,152.875 C295.214844,152.187497 295.506507,151.601565 296.089844,151.117188 C296.67318,150.63281 297.433589,150.390625 298.371094,150.390625 C299.355474,150.390625 300.138018,150.643227 300.71875,151.148438 C301.299482,151.653648 301.576823,152.268226 301.550781,152.992188 L301.535156,153.039062 L300.066406,153.039062 C300.066406,152.669269 299.91146,152.337241 299.601562,152.042969 C299.291665,151.748696 298.881513,151.601562 298.371094,151.601562 C297.824216,151.601562 297.41797,151.721353 297.152344,151.960938 C296.886717,152.200522 296.753906,152.489582 296.753906,152.828125 C296.753906,153.16146 296.871093,153.424478 297.105469,153.617188 C297.339845,153.809897 297.816403,153.98177 298.535156,154.132812 C299.60287,154.36198 300.397133,154.673175 300.917969,155.066406 C301.438805,155.459637 301.699219,155.986976 301.699219,156.648438 C301.699219,157.398441 301.395836,158.005206 300.789062,158.46875 C300.182289,158.932294 299.389328,159.164062 298.410156,159.164062 C297.332026,159.164062 296.483076,158.890625 295.863281,158.34375 C295.243486,157.796872 294.949219,157.158858 294.980469,156.429688 L294.996094,156.382812 L296.464844,156.382812 C296.490886,156.92969 296.694009,157.329426 297.074219,157.582031 C297.454429,157.834637 297.899737,157.960938 298.410156,157.960938 C298.957034,157.960938 299.385415,157.850262 299.695312,157.628906 C300.00521,157.407551 300.160156,157.117189 300.160156,156.757812 Z M303.253906,154.695312 C303.253906,153.445306 303.592445,152.415369 304.269531,151.605469 C304.946618,150.795569 305.86588,150.390625 307.027344,150.390625 C308.199225,150.390625 309.124997,150.794267 309.804688,151.601562 C310.484378,152.408858 310.824219,153.440098 310.824219,154.695312 L310.824219,154.867188 C310.824219,156.12761 310.48568,157.15885 309.808594,157.960938 C309.131507,158.763025 308.209641,159.164062 307.042969,159.164062 C305.876296,159.164062 304.953128,158.761723 304.273438,157.957031 C303.593747,157.15234 303.253906,156.122402 303.253906,154.867188 L303.253906,154.695312 Z M304.792969,154.867188 C304.792969,155.763025 304.981769,156.502601 305.359375,157.085938 C305.736981,157.669274 306.298173,157.960938 307.042969,157.960938 C307.777347,157.960938 308.334634,157.669274 308.714844,157.085938 C309.095054,156.502601 309.285156,155.763025 309.285156,154.867188 L309.285156,154.695312 C309.285156,153.809891 309.093752,153.07292 308.710938,152.484375 C308.328123,151.89583 307.766931,151.601562 307.027344,151.601562 C306.292969,151.601562 305.736981,151.89583 305.359375,152.484375 C304.981769,153.07292 304.792969,153.809891 304.792969,154.695312 L304.792969,154.867188 Z M314.082031,150.546875 L314.191406,151.804688 C314.472658,151.356769 314.825519,151.009116 315.25,150.761719 C315.674481,150.514322 316.157549,150.390625 316.699219,150.390625 C317.610682,150.390625 318.316404,150.657549 318.816406,151.191406 C319.316409,151.725263 319.566406,152.549474 319.566406,153.664062 L319.566406,159 L318.027344,159 L318.027344,153.695312 C318.027344,152.950517 317.88021,152.421877 317.585938,152.109375 C317.291665,151.796873 316.842451,151.640625 316.238281,151.640625 C315.795571,151.640625 315.403648,151.747395 315.0625,151.960938 C314.721352,152.17448 314.44922,152.466144 314.246094,152.835938 L314.246094,159 L312.707031,159 L312.707031,150.546875 L314.082031,150.546875 Z M323.464844,159 L321.925781,159 L321.925781,150.546875 L323.464844,150.546875 L323.464844,159 Z M323.464844,148.382812 L321.925781,148.382812 L321.925781,146.8125 L323.464844,146.8125 L323.464844,148.382812 Z M331.027344,159 C330.97526,158.74479 330.934896,158.519532 330.90625,158.324219 C330.877604,158.128905 330.860677,157.932293 330.855469,157.734375 C330.569009,158.140627 330.195315,158.480467 329.734375,158.753906 C329.273435,159.027345 328.777346,159.164062 328.246094,159.164062 C327.365881,159.164062 326.695315,158.938804 326.234375,158.488281 C325.773435,158.037758 325.542969,157.416671 325.542969,156.625 C325.542969,155.817704 325.869788,155.1862 326.523438,154.730469 C327.177087,154.274737 328.063796,154.046875 329.183594,154.046875 L330.855469,154.046875 L330.855469,153.210938 C330.855469,152.716143 330.704429,152.32422 330.402344,152.035156 C330.100259,151.746092 329.67318,151.601562 329.121094,151.601562 C328.6263,151.601562 328.22396,151.727863 327.914062,151.980469 C327.604165,152.233074 327.449219,152.536457 327.449219,152.890625 L325.980469,152.890625 L325.964844,152.84375 C325.933594,152.229164 326.223955,151.666669 326.835938,151.15625 C327.44792,150.645831 328.238276,150.390625 329.207031,150.390625 C330.165369,150.390625 330.936195,150.634112 331.519531,151.121094 C332.102868,151.608075 332.394531,152.309891 332.394531,153.226562 L332.394531,157.296875 C332.394531,157.59896 332.410156,157.890625 332.441406,158.171875 C332.472656,158.453126 332.529947,158.729165 332.613281,159 L331.027344,159 Z M328.472656,157.875 C329.029951,157.875 329.53255,157.731772 329.980469,157.445312 C330.428388,157.158853 330.720051,156.830731 330.855469,156.460938 L330.855469,155.085938 L329.128906,155.085938 C328.509111,155.085938 328.013023,155.242186 327.640625,155.554688 C327.268227,155.867189 327.082031,156.234373 327.082031,156.65625 C327.082031,157.031252 327.199218,157.328124 327.433594,157.546875 C327.66797,157.765626 328.014321,157.875 328.472656,157.875 Z M336.003906,150.546875 L336.113281,151.804688 C336.394533,151.356769 336.747394,151.009116 337.171875,150.761719 C337.596356,150.514322 338.079424,150.390625 338.621094,150.390625 C339.532557,150.390625 340.238279,150.657549 340.738281,151.191406 C341.238284,151.725263 341.488281,152.549474 341.488281,153.664062 L341.488281,159 L339.949219,159 L339.949219,153.695312 C339.949219,152.950517 339.802085,152.421877 339.507812,152.109375 C339.21354,151.796873 338.764326,151.640625 338.160156,151.640625 C337.717446,151.640625 337.325523,151.747395 336.984375,151.960938 C336.643227,152.17448 336.371095,152.466144 336.167969,152.835938 L336.167969,159 L334.628906,159 L334.628906,150.546875 L336.003906,150.546875 Z M246.722656,170.835938 L243.066406,170.835938 L243.066406,181 L241.527344,181 L241.527344,170.835938 L237.878906,170.835938 L237.878906,169.625 L246.722656,169.625 L246.722656,170.835938 Z M251.597656,173.90625 L250.808594,173.859375 C250.402342,173.859375 250.059897,173.955728 249.78125,174.148438 C249.502603,174.341147 249.287761,174.611977 249.136719,174.960938 L249.136719,181 L247.597656,181 L247.597656,172.546875 L248.972656,172.546875 L249.121094,173.78125 C249.360678,173.343748 249.656248,173.002605 250.007812,172.757812 C250.359377,172.51302 250.764321,172.390625 251.222656,172.390625 C251.33724,172.390625 251.446614,172.399739 251.550781,172.417969 C251.654948,172.436198 251.740885,172.455729 251.808594,172.476562 L251.597656,173.90625 Z M258.277344,181 C258.22526,180.74479 258.184896,180.519532 258.15625,180.324219 C258.127604,180.128905 258.110677,179.932293 258.105469,179.734375 C257.819009,180.140627 257.445315,180.480467 256.984375,180.753906 C256.523435,181.027345 256.027346,181.164062 255.496094,181.164062 C254.615881,181.164062 253.945315,180.938804 253.484375,180.488281 C253.023435,180.037758 252.792969,179.416671 252.792969,178.625 C252.792969,177.817704 253.119788,177.1862 253.773438,176.730469 C254.427087,176.274737 255.313796,176.046875 256.433594,176.046875 L258.105469,176.046875 L258.105469,175.210938 C258.105469,174.716143 257.954429,174.32422 257.652344,174.035156 C257.350259,173.746092 256.92318,173.601562 256.371094,173.601562 C255.8763,173.601562 255.47396,173.727863 255.164062,173.980469 C254.854165,174.233074 254.699219,174.536457 254.699219,174.890625 L253.230469,174.890625 L253.214844,174.84375 C253.183594,174.229164 253.473955,173.666669 254.085938,173.15625 C254.69792,172.645831 255.488276,172.390625 256.457031,172.390625 C257.415369,172.390625 258.186195,172.634112 258.769531,173.121094 C259.352868,173.608075 259.644531,174.309891 259.644531,175.226562 L259.644531,179.296875 C259.644531,179.59896 259.660156,179.890625 259.691406,180.171875 C259.722656,180.453126 259.779947,180.729165 259.863281,181 L258.277344,181 Z M255.722656,179.875 C256.279951,179.875 256.78255,179.731772 257.230469,179.445312 C257.678388,179.158853 257.970051,178.830731 258.105469,178.460938 L258.105469,177.085938 L256.378906,177.085938 C255.759111,177.085938 255.263023,177.242186 254.890625,177.554688 C254.518227,177.867189 254.332031,178.234373 254.332031,178.65625 C254.332031,179.031252 254.449218,179.328124 254.683594,179.546875 C254.91797,179.765626 255.264321,179.875 255.722656,179.875 Z M263.253906,172.546875 L263.363281,173.804688 C263.644533,173.356769 263.997394,173.009116 264.421875,172.761719 C264.846356,172.514322 265.329424,172.390625 265.871094,172.390625 C266.782557,172.390625 267.488279,172.657549 267.988281,173.191406 C268.488284,173.725263 268.738281,174.549474 268.738281,175.664062 L268.738281,181 L267.199219,181 L267.199219,175.695312 C267.199219,174.950517 267.052085,174.421877 266.757812,174.109375 C266.46354,173.796873 266.014326,173.640625 265.410156,173.640625 C264.967446,173.640625 264.575523,173.747395 264.234375,173.960938 C263.893227,174.17448 263.621095,174.466144 263.417969,174.835938 L263.417969,181 L261.878906,181 L261.878906,172.546875 L263.253906,172.546875 Z M275.886719,178.757812 C275.886719,178.419269 275.757814,178.140626 275.5,177.921875 C275.242186,177.703124 274.75391,177.513022 274.035156,177.351562 C273.009109,177.127603 272.236982,176.824221 271.71875,176.441406 C271.200518,176.058592 270.941406,175.536462 270.941406,174.875 C270.941406,174.187497 271.23307,173.601565 271.816406,173.117188 C272.399743,172.63281 273.160152,172.390625 274.097656,172.390625 C275.082036,172.390625 275.86458,172.643227 276.445312,173.148438 C277.026045,173.653648 277.303386,174.268226 277.277344,174.992188 L277.261719,175.039062 L275.792969,175.039062 C275.792969,174.669269 275.638022,174.337241 275.328125,174.042969 C275.018228,173.748696 274.608075,173.601562 274.097656,173.601562 C273.550779,173.601562 273.144533,173.721353 272.878906,173.960938 C272.61328,174.200522 272.480469,174.489582 272.480469,174.828125 C272.480469,175.16146 272.597655,175.424478 272.832031,175.617188 C273.066407,175.809897 273.542965,175.98177 274.261719,176.132812 C275.329432,176.36198 276.123695,176.673175 276.644531,177.066406 C277.165367,177.459637 277.425781,177.986976 277.425781,178.648438 C277.425781,179.398441 277.122399,180.005206 276.515625,180.46875 C275.908851,180.932294 275.11589,181.164062 274.136719,181.164062 C273.058588,181.164062 272.209639,180.890625 271.589844,180.34375 C270.970049,179.796872 270.675781,179.158858 270.707031,178.429688 L270.722656,178.382812 L272.191406,178.382812 C272.217448,178.92969 272.420571,179.329426 272.800781,179.582031 C273.180991,179.834637 273.6263,179.960938 274.136719,179.960938 C274.683596,179.960938 275.111978,179.850262 275.421875,179.628906 C275.731772,179.407551 275.886719,179.117189 275.886719,178.757812 Z M281.003906,181 L279.464844,181 L279.464844,168.8125 L281.003906,168.8125 L281.003906,181 Z M283.011719,176.695312 C283.011719,175.445306 283.350257,174.415369 284.027344,173.605469 C284.70443,172.795569 285.623692,172.390625 286.785156,172.390625 C287.957037,172.390625 288.882809,172.794267 289.5625,173.601562 C290.242191,174.408858 290.582031,175.440098 290.582031,176.695312 L290.582031,176.867188 C290.582031,178.12761 290.243493,179.15885 289.566406,179.960938 C288.88932,180.763025 287.967454,181.164062 286.800781,181.164062 C285.634109,181.164062 284.710941,180.761723 284.03125,179.957031 C283.351559,179.15234 283.011719,178.122402 283.011719,176.867188 L283.011719,176.695312 Z M284.550781,176.867188 C284.550781,177.763025 284.739581,178.502601 285.117188,179.085938 C285.494794,179.669274 286.055986,179.960938 286.800781,179.960938 C287.53516,179.960938 288.092446,179.669274 288.472656,179.085938 C288.852866,178.502601 289.042969,177.763025 289.042969,176.867188 L289.042969,176.695312 C289.042969,175.809891 288.851564,175.07292 288.46875,174.484375 C288.085936,173.89583 287.524743,173.601562 286.785156,173.601562 C286.050781,173.601562 285.494794,173.89583 285.117188,174.484375 C284.739581,175.07292 284.550781,175.809891 284.550781,176.695312 L284.550781,176.867188 Z M295.902344,179.960938 C296.412763,179.960938 296.861977,179.803387 297.25,179.488281 C297.638023,179.173176 297.832031,178.786461 297.832031,178.328125 L299.214844,178.328125 L299.230469,178.375 C299.256511,179.10417 298.932295,179.751299 298.257812,180.316406 C297.58333,180.881513 296.798182,181.164062 295.902344,181.164062 C294.673171,181.164062 293.733076,180.763025 293.082031,179.960938 C292.430986,179.15885 292.105469,178.151048 292.105469,176.9375 L292.105469,176.609375 C292.105469,175.406244 292.432288,174.402348 293.085938,173.597656 C293.739587,172.792965 294.678379,172.390625 295.902344,172.390625 C296.891932,172.390625 297.700518,172.682289 298.328125,173.265625 C298.955732,173.848961 299.259115,174.5651 299.238281,175.414062 L299.222656,175.460938 L297.832031,175.460938 C297.832031,174.94531 297.649741,174.506512 297.285156,174.144531 C296.920571,173.78255 296.459638,173.601562 295.902344,173.601562 C295.095048,173.601562 294.518231,173.891924 294.171875,174.472656 C293.825519,175.053388 293.652344,175.765621 293.652344,176.609375 L293.652344,176.9375 C293.652344,177.802088 293.824217,178.522133 294.167969,179.097656 C294.51172,179.67318 295.08984,179.960938 295.902344,179.960938 Z M306.152344,181 C306.10026,180.74479 306.059896,180.519532 306.03125,180.324219 C306.002604,180.128905 305.985677,179.932293 305.980469,179.734375 C305.694009,180.140627 305.320315,180.480467 304.859375,180.753906 C304.398435,181.027345 303.902346,181.164062 303.371094,181.164062 C302.490881,181.164062 301.820315,180.938804 301.359375,180.488281 C300.898435,180.037758 300.667969,179.416671 300.667969,178.625 C300.667969,177.817704 300.994788,177.1862 301.648438,176.730469 C302.302087,176.274737 303.188796,176.046875 304.308594,176.046875 L305.980469,176.046875 L305.980469,175.210938 C305.980469,174.716143 305.829429,174.32422 305.527344,174.035156 C305.225259,173.746092 304.79818,173.601562 304.246094,173.601562 C303.7513,173.601562 303.34896,173.727863 303.039062,173.980469 C302.729165,174.233074 302.574219,174.536457 302.574219,174.890625 L301.105469,174.890625 L301.089844,174.84375 C301.058594,174.229164 301.348955,173.666669 301.960938,173.15625 C302.57292,172.645831 303.363276,172.390625 304.332031,172.390625 C305.290369,172.390625 306.061195,172.634112 306.644531,173.121094 C307.227868,173.608075 307.519531,174.309891 307.519531,175.226562 L307.519531,179.296875 C307.519531,179.59896 307.535156,179.890625 307.566406,180.171875 C307.597656,180.453126 307.654947,180.729165 307.738281,181 L306.152344,181 Z M303.597656,179.875 C304.154951,179.875 304.65755,179.731772 305.105469,179.445312 C305.553388,179.158853 305.845051,178.830731 305.980469,178.460938 L305.980469,177.085938 L304.253906,177.085938 C303.634111,177.085938 303.138023,177.242186 302.765625,177.554688 C302.393227,177.867189 302.207031,178.234373 302.207031,178.65625 C302.207031,179.031252 302.324218,179.328124 302.558594,179.546875 C302.79297,179.765626 303.139321,179.875 303.597656,179.875 Z M311.785156,170.507812 L311.785156,172.546875 L313.386719,172.546875 L313.386719,173.6875 L311.785156,173.6875 L311.785156,178.820312 C311.785156,179.216148 311.867187,179.494791 312.03125,179.65625 C312.195313,179.817709 312.412759,179.898438 312.683594,179.898438 C312.772136,179.898438 312.869791,179.888021 312.976562,179.867188 C313.083334,179.846354 313.178385,179.820313 313.261719,179.789062 L313.464844,180.84375 C313.35026,180.9375 313.182293,181.014323 312.960938,181.074219 C312.739582,181.134115 312.516928,181.164062 312.292969,181.164062 C311.667966,181.164062 311.170575,180.975262 310.800781,180.597656 C310.430988,180.22005 310.246094,179.627608 310.246094,178.820312 L310.246094,173.6875 L308.902344,173.6875 L308.902344,172.546875 L310.246094,172.546875 L310.246094,170.507812 L311.785156,170.507812 Z M316.949219,181 L315.410156,181 L315.410156,172.546875 L316.949219,172.546875 L316.949219,181 Z M316.949219,170.382812 L315.410156,170.382812 L315.410156,168.8125 L316.949219,168.8125 L316.949219,170.382812 Z M318.957031,176.695312 C318.957031,175.445306 319.29557,174.415369 319.972656,173.605469 C320.649743,172.795569 321.569005,172.390625 322.730469,172.390625 C323.90235,172.390625 324.828122,172.794267 325.507812,173.601562 C326.187503,174.408858 326.527344,175.440098 326.527344,176.695312 L326.527344,176.867188 C326.527344,178.12761 326.188805,179.15885 325.511719,179.960938 C324.834632,180.763025 323.912766,181.164062 322.746094,181.164062 C321.579421,181.164062 320.656253,180.761723 319.976562,179.957031 C319.296872,179.15234 318.957031,178.122402 318.957031,176.867188 L318.957031,176.695312 Z M320.496094,176.867188 C320.496094,177.763025 320.684894,178.502601 321.0625,179.085938 C321.440106,179.669274 322.001298,179.960938 322.746094,179.960938 C323.480472,179.960938 324.037759,179.669274 324.417969,179.085938 C324.798179,178.502601 324.988281,177.763025 324.988281,176.867188 L324.988281,176.695312 C324.988281,175.809891 324.796877,175.07292 324.414062,174.484375 C324.031248,173.89583 323.470056,173.601562 322.730469,173.601562 C321.996094,173.601562 321.440106,173.89583 321.0625,174.484375 C320.684894,175.07292 320.496094,175.809891 320.496094,176.695312 L320.496094,176.867188 Z M329.785156,172.546875 L329.894531,173.804688 C330.175783,173.356769 330.528644,173.009116 330.953125,172.761719 C331.377606,172.514322 331.860674,172.390625 332.402344,172.390625 C333.313807,172.390625 334.019529,172.657549 334.519531,173.191406 C335.019534,173.725263 335.269531,174.549474 335.269531,175.664062 L335.269531,181 L333.730469,181 L333.730469,175.695312 C333.730469,174.950517 333.583335,174.421877 333.289062,174.109375 C332.99479,173.796873 332.545576,173.640625 331.941406,173.640625 C331.498696,173.640625 331.106773,173.747395 330.765625,173.960938 C330.424477,174.17448 330.152345,174.466144 329.949219,174.835938 L329.949219,181 L328.410156,181 L328.410156,172.546875 L329.785156,172.546875 Z" id="ARobertsonianTranslocation" fill="#222222" fill-rule="nonzero"></path>
            </g>
        </g>
    </g>
</svg>