<?xml version="1.0" encoding="utf-8"?>
<!-- Generator: Adobe Illustrator 21.0.0, SVG Export Plug-In . SVG Version: 6.00 Build 0)  -->
<svg version="1.1" id="Layer_1" xmlns="http://www.w3.org/2000/svg" xmlns:xlink="http://www.w3.org/1999/xlink" x="0px" y="0px"
	 viewBox="0 0 832 90" style="enable-background:new 0 0 832 90;" xml:space="preserve">
<style type="text/css">
	.st0{fill:none;stroke:#0BA6BF;stroke-width:2;stroke-linecap:round;stroke-linejoin:round;}
	.st1{fill:none;stroke:#0B42BF;stroke-width:2;stroke-linecap:round;stroke-linejoin:round;}
	.st2{fill:#979797;}
</style>
<title>image1</title>
<desc>Created with Sketch.</desc>
<g id="main-pages">
	<g id="PGT-SR-Page" transform="translate(-328.000000, -1570.000000)">
		<g id="_x30_4---wich-dosorders" transform="translate(0.000000, 1152.000000)">
			<g id="image1" transform="translate(329.000000, 419.000000)">
				<g id="Group-3-Copy-9">
					<path id="Stroke-13" className="st0" d="M0,0.7v74.9C0,82.4,6.3,88,14,88c7.7,0,14-5.6,14-12.4V0.7C28-0.3,0-0.2,0,0.7z"/>
					<path id="Stroke-13-Copy-4" className="st0" d="M4,6.6v65.5C4,78.1,8.5,83,14,83c5.5,0,10-4.9,10-10.9V6.6C24,5.7,4,5.9,4,6.6z"/>
				</g>
				<g id="Group-3-Copy-10" transform="translate(46.000000, 0.000000)">
					<path id="Stroke-13_1_" className="st0" d="M0,0.7v74.9C0,82.4,6.3,88,14,88c7.7,0,14-5.6,14-12.4V0.7C28-0.3,0-0.2,0,0.7z"/>
					<path id="Stroke-13-Copy-4_1_" className="st0" d="M4,6.6v65.5C4,78.1,8.5,83,14,83c5.5,0,10-4.9,10-10.9V6.6C24,5.7,4,5.9,4,6.6z"
						/>
				</g>
				<g id="Group-3-Copy-13" transform="translate(315.000000, 0.000000)">
					<path id="Stroke-13_2_" className="st0" d="M0,0.7v74.9C0,82.4,6.3,88,14,88c7.7,0,14-5.6,14-12.4V0.7C28-0.3,0-0.2,0,0.7z"/>
					<path id="Stroke-13-Copy-4_2_" className="st0" d="M4,6.6v65.5C4,78.1,8.5,83,14,83c5.5,0,10-4.9,10-10.9V6.6C24,5.7,4,5.9,4,6.6z"
						/>
				</g>
				<g id="Group-3-Copy-19" transform="translate(627.000000, 0.000000)">
					<path id="Stroke-13_3_" className="st0" d="M0,0.7v74.9C0,82.4,6.3,88,14,88c7.7,0,14-5.6,14-12.4V0.7C28-0.3,0-0.2,0,0.7z"/>
					<path id="Stroke-13-Copy-4_3_" className="st0" d="M4,6.6v65.5C4,78.1,8.5,83,14,83c5.5,0,10-4.9,10-10.9V6.6C24,5.7,4,5.9,4,6.6z"
						/>
				</g>
				<g id="Group-3-Copy-15" transform="translate(361.000000, 67.000000)">
					<path id="Stroke-13_4_" className="st0" d="M0,0.4v12.6C0,17.5,6.3,21,14,21c7.7,0,14-3.5,14-7.9V0.4C28-0.2,0-0.1,0,0.4z"/>
					<path id="Stroke-13-Copy-4_4_" className="st0" d="M4,5.3v5.3c0,3,4.5,5.4,10,5.4c5.5,0,10-2.4,10-5.4V5.3C24,4.9,4,4.9,4,5.3z"/>
				</g>
				<g id="Group-3-Copy-17" transform="translate(441.000000, 67.000000)">
					<path id="Stroke-13_5_" className="st1" d="M0,0.4v12.6C0,17.5,6.3,21,14,21c7.7,0,14-3.5,14-7.9V0.4C28-0.2,0-0.1,0,0.4z"/>
					<path id="Stroke-13-Copy-4_5_" className="st1" d="M4,5.3v5.3c0,3,4.5,5.4,10,5.4c5.5,0,10-2.4,10-5.4V5.3C24,4.9,4,4.9,4,5.3z"/>
				</g>
				<g id="Group-3-Copy-14" transform="translate(361.000000, 0.000000)">
					<path id="Stroke-13_6_" className="st0" d="M0,0.4v47.5c0,1.5,28,1.4,28,0V0.4C28-0.2,0-0.1,0,0.4z"/>
					<path id="Stroke-13-Copy-4_6_" className="st0" d="M4,5.4v38c0,0.8,20,0.8,20,0v-38C24,4.8,4,4.9,4,5.4z"/>
				</g>
				<g id="Group-3-Copy-21" transform="translate(673.000000, 53.000000)">
					<path id="Stroke-13_7_" className="st1" d="M0,0.7v20.5C0,28.3,6.3,34,14,34c7.7,0,14-5.7,14-12.8V0.7C28-0.3,0-0.2,0,0.7z"/>
					<path id="Stroke-13-Copy-4_7_" className="st1" d="M4,5.7v11.6C4,23.8,8.5,29,14,29c5.5,0,10-5.2,10-11.7V5.7C24,4.7,4,4.9,4,5.7z"
						/>
				</g>
				<g id="Group-3-Copy-23" transform="translate(756.000000, 53.000000)">
					<path id="Stroke-13_8_" className="st0" d="M0,0.7v20.5C0,28.3,6.3,34,14,34c7.7,0,14-5.7,14-12.8V0.7C28-0.3,0-0.2,0,0.7z"/>
					<path id="Stroke-13-Copy-4_8_" className="st0" d="M4,5.7v11.6C4,23.8,8.5,29,14,29c5.5,0,10-5.2,10-11.7V5.7C24,4.7,4,4.9,4,5.7z"
						/>
				</g>
				<g id="Group-3-Copy-20" transform="translate(673.000000, 0.000000)">
					<path id="Stroke-13_9_" className="st0" d="M0,0.4v47.5c0,1.5,28,1.4,28,0V0.4C28-0.2,0-0.1,0,0.4z"/>
					<path id="Stroke-13-Copy-4_9_" className="st0" d="M4,5.4v38c0,0.8,20,0.8,20,0v-38C24,4.8,4,4.9,4,5.4z"/>
				</g>
				<g id="Group-3-Copy-24" transform="translate(756.000000, 0.000000)">
					<path id="Stroke-13_10_" className="st1" d="M0,0.4v47.5c0,1.5,28,1.4,28,0V0.4C28-0.2,0-0.1,0,0.4z"/>
					<path id="Stroke-13-Copy-4_10_" className="st1" d="M4,5.4v38c0,0.8,20,0.8,20,0v-38C24,4.8,4,4.9,4,5.4z"/>
				</g>
				<g id="Group-3-Copy-18" transform="translate(441.000000, 0.000000)">
					<path id="Stroke-13_11_" className="st1" d="M0,0.4v47.5c0,1.5,28,1.4,28,0V0.4C28-0.2,0-0.1,0,0.4z"/>
					<path id="Stroke-13-Copy-4_11_" className="st1" d="M4,5.4v38c0,0.8,20,0.8,20,0v-38C24,4.8,4,4.9,4,5.4z"/>
				</g>
				<g id="Group-3-Copy-11" transform="translate(129.000000, 0.000000)">
					<path id="Stroke-13_12_" className="st1" d="M0,0.7v74.9C0,82.4,6.3,88,14,88c7.7,0,14-5.6,14-12.4V0.7C28-0.3,0-0.2,0,0.7z"/>
					<path id="Stroke-13-Copy-4_12_" className="st1" d="M4,6.6v65.5C4,78.1,8.5,83,14,83c5.5,0,10-4.9,10-10.9V6.6C24,5.7,4,5.9,4,6.6z
						"/>
				</g>
				<g id="Group-3-Copy-12" transform="translate(175.000000, 0.000000)">
					<path id="Stroke-13_13_" className="st1" d="M0,0.7v74.9C0,82.4,6.3,88,14,88c7.7,0,14-5.6,14-12.4V0.7C28-0.3,0-0.2,0,0.7z"/>
					<path id="Stroke-13-Copy-4_13_" className="st1" d="M4,6.6v65.5C4,78.1,8.5,83,14,83c5.5,0,10-4.9,10-10.9V6.6C24,5.7,4,5.9,4,6.6z
						"/>
				</g>
				<g id="Group-3-Copy-16" transform="translate(487.000000, 0.000000)">
					<path id="Stroke-13_14_" className="st1" d="M0,0.7v74.9C0,82.4,6.3,88,14,88c7.7,0,14-5.6,14-12.4V0.7C28-0.3,0-0.2,0,0.7z"/>
					<path id="Stroke-13-Copy-4_14_" className="st1" d="M4,6.6v65.5C4,78.1,8.5,83,14,83c5.5,0,10-4.9,10-10.9V6.6C24,5.7,4,5.9,4,6.6z
						"/>
				</g>
				<g id="Group-3-Copy-22" transform="translate(802.000000, 0.000000)">
					<path id="Stroke-13_15_" className="st1" d="M0,0.7v74.9C0,82.4,6.3,88,14,88c7.7,0,14-5.6,14-12.4V0.7C28-0.3,0-0.2,0,0.7z"/>
					<path id="Stroke-13-Copy-4_15_" className="st1" d="M4,6.6v65.5C4,78.1,8.5,83,14,83c5.5,0,10-4.9,10-10.9V6.6C24,5.7,4,5.9,4,6.6z
						"/>
				</g>
				<path id="Line-Copy-3" className="st2" d="M586.1,35.5h-38.7v-1h38.7v-4l9,4.5l-9,4.5V35.5z"/>
				<path id="Line-Copy" className="st2" d="M410.8,29.4L430,45.6l-0.6,0.8l-19.2-16.1l-2.6,3.1l-4-9.2l9.8,2.3L410.8,29.4z"/>
				<path id="Line" className="st2" d="M273.7,46H235v-1h38.7v-4l9,4.5l-9,4.5V46z"/>
			</g>
		</g>
	</g>
</g>
<path id="Line-Copy-2_1_" className="st2" d="M424.1,31.2l-19.2,16.1l-0.6-0.8l19.2-16.1l-2.6-3.1l9.8-2.3l-4,9.2L424.1,31.2z"/>
</svg>
