<?xml version="1.0" encoding="UTF-8"?>
<svg width="146px" height="146px" viewBox="0 0 146 146" version="1.1" xmlns="http://www.w3.org/2000/svg" xmlns:xlink="http://www.w3.org/1999/xlink">
    <!-- Generator: sketchtool 56.2 (101010) - https://sketch.com -->
    <title>35C88C72-68D3-43DF-899D-91F5057ED48E</title>
    <desc>Created with sketchtool.</desc>
    <defs>
        <polygon id="path-1" points="0.389567091 0.0932406457 28.762228 0.0932406457 28.762228 12.8151207 0.389567091 12.8151207"></polygon>
        <polygon id="path-3" points="0 0.154971431 8.63787942 0.154971431 8.63787942 10.5154887 0 10.5154887"></polygon>
    </defs>
    <g id="main-pages" stroke="none" stroke-width="1" fill="none" fill-rule="evenodd" opacity="0.529524741">
        <g id="gpcl_homepage" transform="translate(-212.000000, -4157.000000)">
            <g id="06---about" transform="translate(0.000000, 3932.000000)">
                <g id="logo_aboutus" transform="translate(212.000000, 225.000000)">
                    <path d="M95,37 L70.1228082,37 C56.8233852,37 46,48.3588792 46,61.5310702 C46,74.7075863 57.0952254,85.7442432 70.4001069,85.7442432 C70.4667023,85.7442432 84.9462826,85.3625502 84.8076332,93.3672892 C84.7246619,98.3379477 68.7166633,108.717184 68.7166633,108.717184 L68.7166633,118 C68.7166633,118 92.0425105,104.615878 94.2794599,94.0993179 C96.2958804,84.6045708 86.8742731,81.5315641 85.3120112,80.7692595 C90.7957579,76.3824939 94.2794599,68.9065024 94.2794599,61.4034788 C94.2794599,55.2693596 91.8929439,50.7809534 88.0424214,44.6565658 L95,44.6565658 L95,37 Z M70.1228082,77.0118007 C61.4381169,77.0118007 54.3691821,70.0137363 54.3691821,61.4088852 C54.3691821,52.8051154 61.4381169,45.8059698 70.1228082,45.8059698 C78.8085912,45.8059698 85.877526,52.8051154 85.877526,61.4088852 C85.877526,70.0137363 78.8085912,77.0118007 70.1228082,77.0118007 L70.1228082,77.0118007 Z" id="Fill-1" fill="#FFFFFF"></path>
                    <path d="M29.6756473,26 C31.0583919,24.7501281 32.5050844,23.5709456 34,22.4460609 L29.1860782,16 C27.3881958,17.3400266 25.6595031,18.76611 24,20.2669808 L29.6756473,26 Z" id="Fill-3" fill="#FFFFFF"></path>
                    <path d="M36.0224461,20 C37.6276141,18.9524005 39.2886237,17.9695692 41,17.0587026 L36.9728457,10 C34.9165663,11.0897502 32.9226979,12.2679141 31,13.5314074 L36.0224461,20 Z" id="Fill-5" fill="#FFFFFF"></path>
                    <path d="M21.7654321,34 C23.3886205,32.0680582 25.1320451,30.2263848 27,28.4955847 L21.187869,23 C18.9710145,25.0437963 16.9119699,27.2171082 15,29.5052181 L21.7654321,34 Z" id="Fill-7" fill="#FFFFFF"></path>
                    <path d="M9.17664418,65 C9.5455312,61.9972227 10.1610455,59.060473 11,56.2124171 L3.13849073,54 C2.14460371,57.3368572 1.42263912,60.774234 1,64.3003046 L9.17664418,65 Z" id="Fill-9" fill="#FFFFFF"></path>
                    <path d="M16.4662877,42 C17.5442964,40.1507405 18.7311838,38.3664029 20,36.6469872 L13.2117797,32 C11.6907095,34.0470684 10.2742062,36.1692027 9,38.3775614 L16.4662877,42 Z" id="Fill-11" fill="#FFFFFF"></path>
                    <path d="M10.824645,52 C11.7125703,49.4367483 12.7661298,46.9461072 14,44.5529433 L6.74459163,41 C5.28742972,43.8168912 4.03783475,46.7471742 3,49.7679718 L10.824645,52 Z" id="Fill-13" fill="#FFFFFF"></path>
                    <path d="M43.8983325,16 C48.6242262,13.5092767 53.6881379,11.616195 59,10.4286164 L57.4518989,2 C51.3071775,3.35927673 45.4517316,5.55393082 40,8.44528302 L43.8983325,16 Z" id="Fill-15" fill="#FFFFFF"></path>
                    <path d="M124.154047,113 C120.624137,117.478643 116.547433,121.499736 112,124.924123 L116.955323,132 C122.219321,128.055722 126.939832,123.413429 131,118.22564 L124.154047,113 Z" id="Fill-17" fill="#FFFFFF"></path>
                    <path d="M61,1.89819936 L62.6816728,10 C65.0815961,9.6366953 67.5183527,9.38248794 70,9.25326586 L69.70188,1 C66.7529096,1.14616924 63.855736,1.45651406 61,1.89819936" id="Fill-19" fill="#FFFFFF"></path>
                    <path d="M137.739659,72.2858428 C137.739659,78.9009045 136.776589,85.2850932 135,91.3075808 L142.851991,94 C144.896924,87.1331768 146,79.8386887 146,72.2858428 C146,72.189096 145.994697,72.0978462 145.994697,72 L137.739659,72.2165809 L137.739659,72.2858428" id="Fill-21" fill="#FFFFFF"></path>
                    <path d="M141.776787,49 L134,52.0947642 C136.089142,58.046657 137.358888,64.3968095 137.668034,71 L146,70.7843677 C145.657693,63.166825 144.19754,55.8529279 141.776787,49" id="Fill-23" fill="#FFFFFF"></path>
                    <path d="M121,31.6246973 C125.57677,36.7621065 129.331451,42.613848 132.047301,49 L140,45.993807 C136.895546,38.6362917 132.574927,31.8977929 127.293196,26 L121,31.6246973 Z" id="Fill-25" fill="#FFFFFF"></path>
                    <path d="M99,14.8210584 C106.761097,18.2536825 113.718703,23.0927441 119.549626,29 L126,23.273868 C119.327431,16.4740862 111.338529,10.9181669 102.41596,7 L99,14.8210584 Z" id="Fill-27" fill="#FFFFFF"></path>
                    <path d="M95,141.849236 L92.3706246,134 C87.7826221,135.4551 82.9706865,136.372653 78,136.712212 L78.3616574,145 C84.1229437,144.618928 89.6981447,143.550223 95,141.849236" id="Fill-29" fill="#FFFFFF"></path>
                    <path d="M133.171542,94 C131.172336,99.713443 128.406486,105.053089 125,109.89289 L131.581072,115 C135.519126,109.424558 138.710655,103.264514 141,96.6622167 L133.171542,94 Z" id="Fill-31" fill="#FFFFFF"></path>
                    <path d="M109.030514,127 C104.69381,129.864707 99.9871549,132.236654 95,134.026151 L97.7619297,142 C103.545307,139.941431 108.990759,137.197752 114,133.867301 L109.030514,127 Z" id="Fill-33" fill="#FFFFFF"></path>
                    <g id="Group-37" transform="translate(72.000000, 0.000000)">
                        <mask id="mask-2" fill="white">
                            <use xlink:href="#path-1"></use>
                        </mask>
                        <g id="Clip-36"></g>
                        <path d="M0.66861713,8.37102737 C0.864944826,8.37102737 1.05465473,8.35617837 1.25098243,8.35617837 C9.77910459,8.35617837 17.9222921,9.95138515 25.3981861,12.8151207 L28.762228,5.21137247 C20.2495474,1.92125851 10.9714093,0.0927103243 1.25098243,0.0927103243 C0.95979978,0.0927103243 0.674131953,0.112862537 0.389567091,0.119226394 L0.66861713,8.37102737 Z" id="Fill-35" fill="#FFFFFF" mask="url(#mask-2)"></path>
                    </g>
                    <g id="Group-40" transform="translate(0.000000, 69.000000)">
                        <mask id="mask-4" fill="white">
                            <use xlink:href="#path-3"></use>
                        </mask>
                        <g id="Clip-39"></g>
                        <path d="M8.40793325,4.88235237 C8.40793325,3.53124223 8.47378638,2.19919005 8.57202629,0.867137879 L0.196803697,0.154971431 C0.0769725923,1.72274067 -0.00075569165,3.29050991 -0.00075569165,4.88235237 C-0.00075569165,6.7801255 0.10396158,8.65683455 0.273452421,10.5154887 L8.63787942,9.69398963 C8.49537757,8.10615937 8.40793325,6.50428638 8.40793325,4.88235237" id="Fill-38" fill="#FFFFFF" mask="url(#mask-4)"></path>
                    </g>
                    <path d="M74.6280574,137.244962 C74.1903511,137.256158 73.7526447,137.278549 73.3095479,137.278549 C69.0435281,137.278549 64.8691463,136.83296 60.8327606,136 L59,144.519928 C63.6271815,145.484998 68.4139209,146 73.3095479,146 C73.8787818,146 74.4372347,145.967532 75,145.956337 L74.6280574,137.244962 Z" id="Fill-41" fill="#FFFFFF"></path>
                    <path d="M12,92.2237269 C10.8668342,88.6059238 10.059799,84.8572899 9.5601005,81 L1,81.9069454 C1.56160804,86.4050843 2.51457286,90.7845886 3.85005025,95 L12,92.2237269 Z" id="Fill-43" fill="#FFFFFF"></path>
                    <path d="M17,106.587171 C14.990364,103.244022 13.267666,99.7029022 11.8982869,96 L4,98.6651529 C5.58672377,102.988576 7.58029979,107.114028 9.9379015,111 L17,106.587171 Z" id="Fill-45" fill="#FFFFFF"></path>
                    <path d="M41,128.479461 C36.9684642,126.068396 33.2092715,123.225762 29.8039104,120 L24,126.159774 C27.943614,129.91509 32.3011038,133.215716 36.9856197,136 L41,128.479461 Z" id="Fill-47" fill="#FFFFFF"></path>
                    <path d="M27,118.810622 C24.0903628,115.805995 21.462023,112.525105 19.1584244,109 L12,113.574902 C14.667439,117.684578 17.7204402,121.517992 21.1199044,125 L27,118.810622 Z" id="Fill-49" fill="#FFFFFF"></path>
                    <path d="M58,135.096 C53.0965033,133.91872 48.4240389,132.19648 44.0430636,130 L40,137.10424 C45.0675943,139.6564 50.4849757,141.65528 56.1646974,143 L58,135.096 Z" id="Fill-51" fill="#FFFFFF"></path>
                </g>
            </g>
        </g>
    </g>
</svg>