<?xml version="1.0" encoding="UTF-8"?>
<svg width="129px" height="47px" viewBox="0 0 129 47" version="1.1" xmlns="http://www.w3.org/2000/svg" xmlns:xlink="http://www.w3.org/1999/xlink">
    <!-- Generator: Sketch 55 (78076) - https://sketchapp.com -->
    <title>logo_azure</title>
    <desc>Created with Sketch.</desc>
    <g id="Symbols" stroke="none" stroke-width="1" fill="none" fill-rule="evenodd">
        <g id="bottom" transform="translate(-32.000000, -32.000000)" fill="#0BA6BF" fill-rule="nonzero">
            <g id="logo_azure">
                <g transform="translate(32.000000, 32.000000)">
                    <g id="Group">
                        <path d="M22.5800423,24.6963636 C19.7895705,24.6963636 17.5401085,22.4175758 17.5401085,19.6545455 C17.5401085,16.8915152 19.8180447,14.6127273 22.5800423,14.6127273 C25.3420399,14.6127273 27.6199761,16.8630303 27.6199761,19.6545455 C27.6199761,22.4460606 25.3705141,24.6963636 22.5800423,24.6963636 L22.5800423,24.6963636 Z M30.5528189,11.7357576 L22.5800423,11.7357576 C18.308912,11.7357576 14.8350593,15.410303 14.8350593,19.6830303 C14.8350593,23.9557576 18.3943346,27.5163636 22.6654649,27.5163636 C22.6939391,27.5163636 27.3352341,27.4024242 27.2782857,29.9945455 C27.2498115,31.6181818 22.1244551,34.9509091 22.1244551,34.9509091 L22.1244551,37.970303 C22.1244551,37.970303 29.6131702,33.6406061 30.3250253,30.2224242 C30.9799319,27.1460606 27.9616665,26.1490909 27.4491309,25.8927273 C29.2145314,24.4684848 30.3250253,22.0472727 30.3250253,19.6260606 C30.3250253,17.6321212 29.5562218,16.1793939 28.3318311,14.2139394 L30.5528189,14.2139394 L30.5528189,11.7357576 L30.5528189,11.7357576 Z" id="Shape"></path>
                        <path d="M9.62428033,8.23212121 C10.0798676,7.80484848 10.563929,7.40606061 11.0764646,7.00727273 L9.48190932,4.81393939 C8.88395107,5.26969697 8.31446703,5.75393939 7.74498299,6.26666667 L9.62428033,8.23212121 Z" id="Path"></path>
                        <path d="M11.8737423,6.43757576 C12.3862779,6.06727273 12.9272878,5.75393939 13.4682976,5.44060606 L12.1869585,3.04787879 C11.5320519,3.41818182 10.9056194,3.8169697 10.279187,4.24424242 L11.8737423,6.43757576 Z" id="Path"></path>
                        <path d="M7.20397314,10.909697 C7.74498299,10.2260606 8.31446703,9.57090909 8.91242527,8.94424242 L7.03312793,6.97878788 C6.32127288,7.71939394 5.63789203,8.48848485 5.01145958,9.28606061 L7.20397314,10.909697 Z" id="Path"></path>
                        <path d="M3.07521383,21.1072727 C3.18911064,20.0533333 3.38843006,18.9993939 3.67317208,17.9739394 L1.05354548,17.1763636 C0.711855054,18.3727273 0.484061437,19.5690909 0.341690426,20.8224242 L3.07521383,21.1072727 Z" id="Path"></path>
                        <path d="M5.46704681,13.530303 C5.80873724,12.9036364 6.20737607,12.2769697 6.6060149,11.6787879 L4.41350133,10.0836364 C3.9294399,10.7957576 3.47385266,11.5363636 3.04673963,12.2769697 L5.46704681,13.530303 Z" id="Path"></path>
                        <path d="M3.9579141,17.0339394 C4.24265612,16.1224242 4.61282075,15.2678788 5.01145958,14.4133333 L2.5911524,13.16 C2.10709096,14.1569697 1.67997793,15.1824242 1.3382875,16.2363636 L3.9579141,17.0339394 Z" id="Path"></path>
                        <path d="M14.3225237,4.95636364 C15.8886048,4.15878788 17.5685827,3.56060606 19.3055091,3.19030303 L18.7929734,0.512727273 C16.7713051,0.94 14.8350593,1.65212121 13.0411846,2.56363636 L14.3225237,4.95636364 Z" id="Path"></path>
                        <path d="M39.9493056,36.4036364 C38.8388117,37.7993939 37.5289984,39.0812121 36.0768141,40.1636364 L37.6428952,42.3854545 C39.3228732,41.1606061 40.8035317,39.6793939 42.113345,38.0557576 L39.9493056,36.4036364 Z" id="Path"></path>
                        <path d="M19.7895705,0.341818182 L20.3021061,3.01939394 C21.0424354,2.90545455 21.7827646,2.82 22.5230939,2.7630303 L22.4376713,0.0284848485 C21.5264968,0.0854545455 20.6437966,0.199393939 19.7895705,0.341818182" id="Path"></path>
                        <path d="M44.4482296,23.5 C44.4482296,25.6078788 44.1350133,27.630303 43.5370551,29.5672727 L46.1282075,30.4218182 C46.8115883,28.2284848 47.1532788,25.9212121 47.1532788,23.5 C47.1532788,23.4715152 47.1532788,23.4430303 47.1532788,23.4145455 L44.4482296,23.5 L44.4482296,23.5" id="Path"></path>
                        <path d="M45.7865171,15.4957576 L43.2523131,16.4927273 C43.9356939,18.3727273 44.362807,20.3951515 44.4482296,22.5030303 L47.181753,22.4460606 C47.039382,19.9963636 46.5553205,17.6606061 45.7865171,15.4957576" id="Path"></path>
                        <path d="M39.3513474,9.88424242 C40.8035317,11.5648485 42.0279224,13.4733333 42.8821484,15.5527273 L45.4163524,14.5557576 C44.4197554,12.1630303 43.0529937,9.94121212 41.3445415,8.03272727 L39.3513474,9.88424242 Z" id="Path"></path>
                        <path d="M32.261271,4.58606061 C34.6815782,5.6969697 36.8456176,7.23515152 38.6679665,9.14363636 L40.6896349,7.29212121 C38.6110181,5.09878788 36.1052883,3.33272727 33.3432907,2.07939394 L32.261271,4.58606061 Z" id="Path"></path>
                        <path d="M30.7806125,45.9175758 L29.8979123,43.3254545 C28.3603053,43.809697 26.76575,44.0945455 25.1142463,44.2084848 L25.2281431,46.9430303 C27.1359147,46.8290909 29.015212,46.4587879 30.7806125,45.9175758" id="Path"></path>
                        <path d="M43.2523131,30.5072727 C42.5974064,32.3587879 41.686232,34.0678788 40.5472639,35.6345455 L42.7113032,37.2866667 C44.0211165,35.4921212 45.074662,33.4981818 45.8149913,31.390303 L43.2523131,30.5072727 Z" id="Path"></path>
                        <path d="M35.2795365,40.7333333 C33.9127748,41.6733333 32.403642,42.4424242 30.8375609,43.0121212 L31.7202612,45.6042424 C33.5426101,44.9490909 35.2795365,44.0375758 36.8740918,42.9551515 L35.2795365,40.7333333 Z" id="Path"></path>
                        <path d="M23.519691,2.73454545 C23.5766394,2.73454545 23.6335878,2.73454545 23.7190104,2.73454545 C26.4240596,2.73454545 29.015212,3.24727273 31.3785708,4.21575758 L32.4321163,1.70909091 C29.727067,0.598181818 26.76575,0 23.6905362,0 C23.6051136,0 23.519691,0 23.4057942,0 L23.519691,2.73454545 Z" id="Path"></path>
                        <path d="M2.93284282,23.5 C2.93284282,23.0157576 2.96131702,22.56 2.98979123,22.1042424 L0.284742022,21.8478788 C0.256267819,22.3890909 0.227793617,22.930303 0.227793617,23.5 C0.227793617,24.1551515 0.256267819,24.810303 0.313216224,25.4654545 L3.01826543,25.1806061 C2.96131702,24.6393939 2.93284282,24.069697 2.93284282,23.5" id="Path"></path>
                        <path d="M24.1176492,44.2654545 C23.9752782,44.2654545 23.8329072,44.2654545 23.6905362,44.2654545 C22.2953003,44.2654545 20.9570128,44.1230303 19.6471995,43.8666667 L19.0492412,46.5442424 C20.558374,46.8575758 22.0959809,47 23.6905362,47 C23.8898556,47 24.0607008,47 24.231546,47 L24.1176492,44.2654545 Z" id="Path"></path>
                        <path d="M3.87249149,29.709697 C3.50232686,28.570303 3.24605905,27.3739394 3.10368803,26.1775758 L0.39863883,26.4624242 C0.569484043,27.8866667 0.882700267,29.2539394 1.3098133,30.5927273 L3.87249149,29.709697 Z" id="Path"></path>
                        <path d="M5.86568564,34.1248485 C5.21077899,33.0139394 4.64129495,31.8460606 4.21418192,30.649697 L1.62302952,31.5327273 C2.13556516,32.9569697 2.79047181,34.3242424 3.55927527,35.5775758 L5.86568564,34.1248485 Z" id="Path"></path>
                        <path d="M13.2974524,41.4739394 C11.9876391,40.7048485 10.7632484,39.7933333 9.65275453,38.7678788 L7.77345719,40.7333333 C9.05479628,41.929697 10.4785064,42.9836364 12.0161133,43.8666667 L13.2974524,41.4739394 Z" id="Path"></path>
                        <path d="M8.91242527,38.0842424 C7.9727766,37.1442424 7.11855054,36.090303 6.37822128,34.9793939 L4.07181091,36.4321212 C4.92603697,37.7424242 5.92263405,38.9387879 7.00465373,40.049697 L8.91242527,38.0842424 Z" id="Path"></path>
                        <path d="M18.6790766,43.6672727 C17.0845213,43.2684848 15.5753886,42.6987879 14.1516785,41.9581818 L12.8418652,44.3509091 C14.4933689,45.2054545 16.2302952,45.8890909 18.0811184,46.3448485 L18.6790766,43.6672727 Z" id="Path"></path>
                    </g>
                    <g id="Group" transform="translate(51.206107, 0.979167)">
                        <path d="M10.1005453,10.7921196 C9.65038168,11.3178895 9.03140676,11.732971 8.18735005,12.009692 C7.37142857,12.286413 6.44296619,12.4524457 5.48636859,12.4524457 C4.44536532,12.4524457 3.54503817,12.2310688 2.72911668,11.7883152 C1.94133043,11.3455616 1.35049073,10.6814312 0.900327154,9.85126812 C0.450163577,8.99343297 0.253217012,7.99723732 0.253217012,6.86268116 L0.253217012,6.06019022 C0.253217012,4.89796196 0.450163577,3.8464221 0.87219193,2.98858696 C1.29422028,2.13075181 1.88505998,1.46662138 2.61657579,0.996195652 C3.37622683,0.553442029 4.27655398,0.304393116 5.28942203,0.304393116 C6.72431843,0.304393116 7.84972737,0.636458333 8.66564885,1.30058877 C9.48157034,1.9647192 9.95986914,2.96091486 10.1005453,4.23383152 L7.68091603,4.23383152 C7.56837514,3.56970109 7.31515812,3.07160326 6.94940022,2.73953804 C6.55550709,2.43514493 6.04907306,2.26911232 5.40196292,2.26911232 C4.55790622,2.26911232 3.91079607,2.57350543 3.48876772,3.20996377 C3.06673937,3.8464221 2.84165758,4.75960145 2.84165758,6.00484601 L2.84165758,6.77966486 C2.84165758,8.02490942 3.09487459,8.96576087 3.57317339,9.6022192 C4.05147219,10.2386775 4.75485278,10.5707428 5.68331516,10.5707428 C6.61177754,10.5707428 7.2870229,10.377038 7.68091603,9.98962862 L7.68091603,7.94189312 L5.40196292,7.94189312 L5.40196292,6.08786232 L10.1568157,6.08786232 L10.1005453,10.7921196 L10.1005453,10.7921196 Z" id="Path"></path>
                        <path d="M16.0652126,12.4801178 C14.7428571,12.4801178 13.6737186,12.0650362 12.8577972,11.2902174 C12.0418757,10.4877264 11.6198473,9.43618659 11.6198473,8.13559783 L11.6198473,7.88654891 C11.6198473,7.00104167 11.7886587,6.19855072 12.1262814,5.50674819 C12.463904,4.81494565 12.9703381,4.26150362 13.6174482,3.9017663 C14.2645583,3.51435688 14.9960742,3.32065217 15.8119956,3.32065217 C17.0218103,3.32065217 18.0065431,3.70806159 18.7099237,4.48288043 C19.4133043,5.25769928 19.7509269,6.33691123 19.7509269,7.7205163 L19.7509269,8.68903986 L14.0394766,8.68903986 C14.1238822,9.27015399 14.348964,9.71290761 14.7428571,10.0726449 C15.1367503,10.4323822 15.6150491,10.5984149 16.234024,10.5984149 C17.1624864,10.5984149 17.865867,10.2663496 18.4004362,9.6022192 L19.5821156,10.902808 C19.2163577,11.4009058 18.7380589,11.7883152 18.119084,12.0650362 C17.5282443,12.3140851 16.8248637,12.4801178 16.0652126,12.4801178 Z M15.8119956,5.20235507 C15.3618321,5.20235507 14.9679389,5.36838768 14.6584515,5.6727808 C14.348964,5.97717391 14.1801527,6.44759964 14.095747,7.02871377 L17.4438386,7.02871377 L17.4438386,6.83500906 C17.4438386,6.30923913 17.3031625,5.89415761 16.993675,5.61743659 C16.7123228,5.34071558 16.3184297,5.20235507 15.8119956,5.20235507 Z" id="Shape"></path>
                        <path d="M23.3522356,3.48668478 L23.4366412,4.51055254 C24.0837514,3.70806159 24.9278081,3.34832428 26.0250818,3.34832428 C26.9816794,3.34832428 27.68506,3.62504529 28.1352236,4.15081522 C28.5853871,4.70425725 28.8386041,5.50674819 28.8386041,6.61363225 L28.8386041,12.3140851 L26.4471101,12.3140851 L26.4471101,6.66897645 C26.4471101,6.17087862 26.3345692,5.8111413 26.1094875,5.58976449 C25.8844057,5.36838768 25.5186478,5.25769928 25.0122137,5.25769928 C24.3369684,5.25769928 23.8305344,5.53442029 23.4929117,6.08786232 L23.4929117,12.286413 L21.1014177,12.286413 L21.1014177,3.48668478 L23.3522356,3.48668478 Z" id="Path"></path>
                        <path d="M30.2735005,7.80353261 C30.2735005,6.94569746 30.4423119,6.14320652 30.7799346,5.47907609 C31.1175573,4.78727355 31.5958561,4.26150362 32.2711014,3.9017663 C32.9182116,3.51435688 33.6497274,3.34832428 34.5219193,3.34832428 C35.7317339,3.34832428 36.7164667,3.70806159 37.504253,4.45520833 C38.2920393,5.20235507 38.6859324,6.17087862 38.7984733,7.41612319 L38.8266085,8.02490942 C38.8266085,9.38084239 38.4327154,10.4600543 37.6730643,11.2902174 C36.9134133,12.1203804 35.87241,12.5077899 34.5781897,12.5077899 C33.2839695,12.5077899 32.2711014,12.0927083 31.4833152,11.2902174 C30.6955289,10.4877264 30.329771,9.38084239 30.329771,7.96956522 L30.2735005,7.80353261 L30.2735005,7.80353261 Z M32.6649945,7.99723732 C32.6649945,8.82740036 32.8338059,9.4915308 33.1432933,9.90661232 C33.4527808,10.3493659 33.9310796,10.5707428 34.5219193,10.5707428 C35.112759,10.5707428 35.5347874,10.3493659 35.9005453,9.93428442 C36.2100327,9.4915308 36.3788441,8.77205616 36.3788441,7.83120471 C36.3788441,7.02871377 36.2100327,6.36458333 35.9005453,5.92182971 C35.5910578,5.47907609 35.112759,5.25769928 34.5219193,5.25769928 C33.9310796,5.25769928 33.480916,5.47907609 33.1432933,5.92182971 C32.8338059,6.33691123 32.6649945,7.02871377 32.6649945,7.99723732 Z" id="Shape"></path>
                        <path d="M42.4841876,3.48668478 L42.5685932,4.48288043 C43.2157034,3.70806159 44.0597601,3.32065217 45.1570338,3.32065217 C46.310578,3.32065217 47.0983642,3.7634058 47.5203926,4.67658514 C48.1675027,3.7910779 49.0678299,3.32065217 50.1932388,3.32065217 C51.1779716,3.32065217 51.9094875,3.59737319 52.359651,4.15081522 C52.8098146,4.70425725 53.0630316,5.53442029 53.0630316,6.66897645 L53.0630316,12.3140851 L50.6715376,12.3140851 L50.6715376,6.66897645 C50.6715376,6.17087862 50.587132,5.8111413 50.3901854,5.56209239 C50.1932388,5.31304348 49.8556161,5.20235507 49.3491821,5.20235507 C48.6458015,5.20235507 48.1393675,5.53442029 47.8580153,6.19855072 L47.8580153,12.2310688 L45.4665213,12.2310688 L45.4665213,6.69664855 C45.4665213,6.19855072 45.3821156,5.8111413 45.1570338,5.58976449 C44.9600872,5.34071558 44.5943293,5.25769928 44.1160305,5.25769928 C43.4407852,5.25769928 42.9343511,5.53442029 42.6529989,6.08786232 L42.6529989,12.3140851 L40.2333697,12.3140851 L40.2333697,3.45901268 L42.4841876,3.45901268 L42.4841876,3.48668478 Z" id="Path"></path>
                        <path d="M54.9199564,1.18990036 C54.9199564,0.830163043 55.0324973,0.553442029 55.2857143,0.332065217 C55.5389313,0.0830163043 55.8484188,1.77635684e-15 56.2704471,1.77635684e-15 C56.6924755,1.77635684e-15 57.0019629,0.110688406 57.2551799,0.332065217 C57.5083969,0.58111413 57.6209378,0.857835145 57.6209378,1.18990036 C57.6209378,1.54963768 57.5083969,1.8263587 57.2551799,2.07540761 C57.0019629,2.32445652 56.6924755,2.40747283 56.2704471,2.40747283 C55.8484188,2.40747283 55.5389313,2.29678442 55.2857143,2.07540761 C55.0324973,1.8540308 54.9199564,1.54963768 54.9199564,1.18990036 Z M57.4521265,12.3140851 L55.0606325,12.3140851 L55.0606325,3.48668478 L57.4521265,3.48668478 L57.4521265,12.3140851 Z" id="Shape"></path>
                        <path d="M63.1635769,10.5430707 C63.6137405,10.5430707 63.9794984,10.4323822 64.2327154,10.1833333 C64.5140676,9.93428442 64.6547437,9.6298913 64.682879,9.21480978 L66.9336968,9.21480978 C66.9336968,9.82359601 66.7648855,10.377038 66.455398,10.8474638 C66.1459106,11.3455616 65.6676118,11.732971 65.1049073,12.009692 C64.5422028,12.286413 63.9232279,12.4247736 63.2198473,12.4247736 C61.925627,12.4247736 60.9408942,12.009692 60.2093784,11.2348732 C59.4778626,10.4600543 59.0839695,9.32549819 59.0839695,7.91422101 L59.0839695,7.77586051 C59.0839695,6.41992754 59.4497274,5.34071558 60.1812432,4.51055254 C60.912759,3.70806159 61.925627,3.29298007 63.1917121,3.29298007 C64.317121,3.29298007 65.2174482,3.59737319 65.8926936,4.23383152 C66.5679389,4.87028986 66.9055616,5.7004529 66.9055616,6.72432065 L64.6547437,6.72432065 C64.6547437,6.28156703 64.5140676,5.89415761 64.2045802,5.58976449 C63.9232279,5.31304348 63.55747,5.14701087 63.1073064,5.14701087 C62.544602,5.14701087 62.1225736,5.34071558 61.8412214,5.7557971 C61.5598691,6.17087862 61.3910578,6.80733696 61.3910578,7.6928442 L61.3910578,7.94189312 C61.3910578,8.85507246 61.5317339,9.4915308 61.8130862,9.90661232 C62.1507088,10.3493659 62.6008724,10.5430707 63.1635769,10.5430707 Z" id="Path"></path>
                    </g>
                    <g id="Group" transform="translate(52.190840, 16.645833)">
                        <path d="M2.48500225,8.86666667 L2.48500225,13.2708333 L0,13.2708333 L0,0.7875 L4.71585653,0.7875 C5.61949371,0.7875 6.43841491,0.9625 7.11614279,1.28333333 C7.79387068,1.63333333 8.33040525,2.12916667 8.69750786,2.74166667 C9.06461046,3.35416667 9.2622811,4.1125 9.2622811,4.92916667 C9.2622811,6.15416667 8.83870117,7.11666667 8.04801863,7.84583333 C7.2573361,8.575 6.12778963,8.89583333 4.65937921,8.89583333 L2.48500225,8.86666667 L2.48500225,8.86666667 Z M2.48500225,6.79583333 L4.71585653,6.79583333 C5.36534576,6.79583333 5.90188033,6.65 6.24074427,6.32916667 C6.57960822,6.00833333 6.74904019,5.54166667 6.74904019,4.95833333 C6.74904019,4.34583333 6.57960822,3.85 6.24074427,3.47083333 C5.90188033,3.09166667 5.42182308,2.8875 4.80057252,2.8875 L2.51324091,2.8875 L2.48500225,6.79583333 L2.48500225,6.79583333 Z" id="Shape"></path>
                        <path d="M15.870128,6.32916667 C15.5595027,6.27083333 15.2488774,6.24166667 15.0229681,6.24166667 C14.1193309,6.24166667 13.526319,6.5625 13.2439324,7.20416667 L13.2439324,13.3 L10.8436462,13.3 L10.8436462,3.99583333 L13.1309778,3.99583333 L13.2156938,5.10416667 C13.695751,4.25833333 14.3734789,3.82083333 15.2206388,3.82083333 C15.5030254,3.82083333 15.7289347,3.85 15.9830826,3.90833333 L15.870128,6.32916667 Z" id="Path"></path>
                        <path d="M21.0095644,13.4458333 C19.6823473,13.4458333 18.6092782,13.0083333 17.790357,12.1916667 C16.9714358,11.3458333 16.5478559,10.2375 16.5478559,8.86666667 L16.5478559,8.60416667 C16.5478559,7.67083333 16.7172878,6.825 17.0561518,6.09583333 C17.3950157,5.36666667 17.9033116,4.78333333 18.5528009,4.40416667 C19.2022901,3.99583333 19.9364953,3.79166667 20.7554165,3.79166667 C21.9696789,3.79166667 22.9580321,4.2 23.6639987,5.01666667 C24.3699652,5.83333333 24.7088291,6.97083333 24.7088291,8.42916667 L24.7088291,9.45 L18.9763808,9.45 C19.0610968,10.0625 19.2870061,10.5291667 19.6823473,10.9083333 C20.0776886,11.2875 20.5577458,11.4625 21.1789964,11.4625 C22.1108722,11.4625 22.8168388,11.1125 23.3533734,10.4125 L24.5393972,11.7833333 C24.1722946,12.3083333 23.6922373,12.7166667 23.0709868,13.0083333 C22.4497362,13.3291667 21.7720083,13.4458333 21.0095644,13.4458333 Z M20.7271778,5.83333333 C20.2753592,5.83333333 19.880018,6.00833333 19.5693927,6.32916667 C19.2870061,6.65 19.0893354,7.14583333 19.0046194,7.75833333 L22.3650202,7.75833333 L22.3650202,7.55416667 C22.3650202,7 22.2238269,6.5625 21.9132016,6.27083333 C21.630815,5.97916667 21.2354737,5.83333333 20.7271778,5.83333333 Z" id="Shape"></path>
                        <path d="M25.6971823,8.575 C25.6971823,7.14583333 26.0078076,5.97916667 26.6572968,5.10416667 C27.306786,4.25833333 28.1539459,3.82083333 29.227015,3.82083333 C30.1024136,3.82083333 30.8083801,4.14166667 31.401392,4.84166667 L31.401392,0.116666667 L33.8299169,0.116666667 L33.8299169,13.3 L31.65554,13.3 L31.5425853,12.3083333 C30.9495734,13.0958333 30.1588909,13.475 29.227015,13.475 C28.1821846,13.475 27.306786,13.0375 26.6855355,12.1916667 C26.0078076,11.3166667 25.6971823,10.1208333 25.6971823,8.575 Z M28.0974686,8.75 C28.0974686,9.59583333 28.2386619,10.2958333 28.5492872,10.7333333 C28.8599124,11.1708333 29.2552537,11.4333333 29.8200269,11.4333333 C30.5542322,11.4333333 31.0907667,11.1125 31.3731533,10.4708333 L31.3731533,6.79583333 C31.0907667,6.125 30.5542322,5.83333333 29.8200269,5.83333333 C28.6904805,5.83333333 28.0974686,6.79583333 28.0974686,8.75 Z" id="Shape"></path>
                        <path d="M35.66543,1.60416667 C35.66543,1.225 35.7783846,0.933333333 36.0325326,0.7 C36.2866805,0.4375 36.5973058,0.35 37.0208857,0.35 C37.4444656,0.35 37.7550909,0.466666667 38.0092389,0.7 C38.2633868,0.9625 38.3763415,1.25416667 38.3763415,1.60416667 C38.3763415,1.98333333 38.2633868,2.275 38.0092389,2.5375 C37.7550909,2.8 37.4444656,2.8875 37.0208857,2.8875 C36.5973058,2.8875 36.2866805,2.77083333 36.0325326,2.5375 C35.7783846,2.275 35.66543,1.98333333 35.66543,1.60416667 Z M38.2069095,13.3 L35.8066233,13.3 L35.8066233,3.99583333 L38.2069095,3.99583333 L38.2069095,13.3 Z" id="Shape"></path>
                        <path d="M43.9393579,11.4625 C44.3911765,11.4625 44.7582791,11.3458333 45.012427,11.0833333 C45.2948137,10.8208333 45.436007,10.5 45.4642456,10.0625 L47.7233386,10.0625 C47.7233386,10.7041667 47.5539066,11.2875 47.2432813,11.7833333 C46.932656,12.3083333 46.4525988,12.7166667 45.8878256,13.0083333 C45.3230523,13.3 44.7018018,13.4458333 43.9958352,13.4458333 C42.6968568,13.4458333 41.7085036,13.0083333 40.9742984,12.1916667 C40.2400932,11.3458333 39.8447519,10.1791667 39.8447519,8.69166667 L39.8447519,8.54583333 C39.8447519,7.11666667 40.2118545,5.97916667 40.9460597,5.10416667 C41.6802649,4.22916667 42.6968568,3.82083333 43.9675965,3.82083333 C45.097143,3.82083333 46.0007802,4.14166667 46.6785081,4.8125 C47.356236,5.48333333 47.6950999,6.35833333 47.6950999,7.4375 L45.436007,7.4375 C45.436007,6.97083333 45.2948137,6.5625 44.9841884,6.24166667 C44.7018018,5.95 44.3346991,5.775 43.8828806,5.775 C43.3181073,5.775 42.8945274,5.97916667 42.6121408,6.41666667 C42.3297542,6.85416667 42.1603222,7.525 42.1603222,8.45833333 L42.1603222,8.72083333 C42.1603222,9.68333333 42.3015155,10.3541667 42.5839021,10.7916667 C42.9227661,11.2583333 43.3745846,11.4625 43.9393579,11.4625 Z" id="Path"></path>
                        <path d="M51.9591379,1.72083333 L51.9591379,3.99583333 L53.5122643,3.99583333 L53.5122643,5.83333333 L51.9591379,5.83333333 L51.9591379,10.4708333 C51.9591379,10.8208333 52.0438538,11.0541667 52.1568085,11.2 C52.2697631,11.3458333 52.5239111,11.4333333 52.8910137,11.4333333 C53.1734003,11.4333333 53.3710709,11.4041667 53.5969802,11.375 L53.5969802,13.2416667 C53.1451617,13.3875 52.6368657,13.475 52.1568085,13.475 C50.4624888,13.475 49.6153289,12.6 49.5870903,10.85 L49.5870903,5.83333333 L48.2598731,5.83333333 L48.2598731,4.025 L49.5870903,4.025 L49.5870903,1.75 L51.9591379,1.72083333 L51.9591379,1.72083333 Z" id="Path"></path>
                        <path d="M54.8112427,1.60416667 C54.8112427,1.225 54.9241974,0.933333333 55.1783453,0.7 C55.4324933,0.4375 55.7431185,0.35 56.1666985,0.35 C56.5902784,0.35 56.9009037,0.466666667 57.1550516,0.7 C57.4091996,0.9625 57.5221542,1.25416667 57.5221542,1.60416667 C57.5221542,1.98333333 57.4091996,2.275 57.1550516,2.5375 C56.9009037,2.8 56.5902784,2.8875 56.1666985,2.8875 C55.7431185,2.8875 55.4324933,2.77083333 55.1783453,2.5375 C54.952436,2.275 54.8112427,1.98333333 54.8112427,1.60416667 Z M57.3527223,13.3 L54.952436,13.3 L54.952436,3.99583333 L57.3527223,3.99583333 L57.3527223,13.3 Z" id="Shape"></path>
                        <path d="M58.9905647,8.54583333 C58.9905647,7.64166667 59.1599966,6.79583333 59.4988606,6.09583333 C59.8377245,5.36666667 60.3177818,4.8125 60.9955097,4.43333333 C61.6449989,4.025 62.3792041,3.85 63.2546026,3.85 C64.4688651,3.85 65.4572182,4.22916667 66.2479008,5.01666667 C67.0103446,5.775 67.4339246,6.825 67.5468792,8.1375 L67.5751179,8.77916667 C67.5751179,10.2083333 67.1797766,11.3458333 66.4173327,12.2208333 C65.6548889,13.0958333 64.6100584,13.5041667 63.3110799,13.5041667 C62.0121015,13.5041667 60.9955097,13.0666667 60.2048271,12.2208333 C59.4141446,11.375 59.047042,10.2083333 59.047042,8.72083333 L59.047042,8.575 L58.9905647,8.54583333 L58.9905647,8.54583333 Z M61.3908509,8.72083333 C61.3908509,9.59583333 61.5602829,10.2958333 61.8709082,10.7333333 C62.1815335,11.2 62.6615907,11.4333333 63.2546026,11.4333333 C63.8476145,11.4333333 64.2711944,11.2 64.638297,10.7625 C64.9489223,10.2958333 65.1183543,9.5375 65.1183543,8.54583333 C65.1183543,7.7 64.9489223,7 64.638297,6.53333333 C64.3276718,6.06666667 63.8476145,5.83333333 63.2546026,5.83333333 C62.6615907,5.83333333 62.2097721,6.06666667 61.8709082,6.53333333 C61.5320442,7 61.3908509,7.72916667 61.3908509,8.72083333 Z" id="Shape"></path>
                        <path d="M71.1896666,3.99583333 L71.2743826,5.075 C71.9238718,4.22916667 72.7710317,3.85 73.8723395,3.85 C74.832454,3.85 75.5384205,4.14166667 75.9902391,4.69583333 C76.4420577,5.27916667 76.6962057,6.125 76.6962057,7.29166667 L76.6962057,13.3 L74.2959194,13.3 L74.2959194,7.37916667 C74.2959194,6.85416667 74.1829648,6.475 73.9570555,6.24166667 C73.7311462,6.00833333 73.3640436,5.89166667 72.8557476,5.89166667 C72.1780198,5.89166667 71.6697238,6.18333333 71.3308599,6.76666667 L71.3308599,13.3 L68.9305736,13.3 L68.9305736,3.96666667 L71.1896666,3.99583333 L71.1896666,3.99583333 Z" id="Path"></path>
                    </g>
                    <g id="Group" transform="translate(51.206107, 35.250000)">
                        <path d="M5.36607511,5.38541667 C5.28089931,6.10539216 5.02537193,6.68137255 4.57110102,7.0557598 C4.11683011,7.45894608 3.54899147,7.6317402 2.81080125,7.6317402 C2.29974648,7.6317402 1.84547557,7.51654412 1.44798852,7.25735294 C1.05050148,6.99816176 0.766582159,6.62377451 0.539446704,6.1629902 C0.31231125,5.70220588 0.227135454,5.12622549 0.227135454,4.5502451 L0.227135454,3.65747549 C0.227135454,3.02389706 0.31231125,2.47671569 0.539446704,2.01593137 C0.766582159,1.55514706 1.05050148,1.1807598 1.44798852,0.921568627 C1.84547557,0.662377451 2.29974648,0.518382353 2.83919318,0.518382353 C3.57738341,0.518382353 4.14522204,0.71997549 4.59949295,1.12316176 C5.02537193,1.52634804 5.25250738,2.07352941 5.33768318,2.7935049 L4.74145261,2.7935049 C4.59949295,1.6127451 3.94647852,1.00796569 2.83919318,1.00796569 C2.21457068,1.00796569 1.73190784,1.23835784 1.36281273,1.69914216 C0.993717613,2.15992647 0.79497409,2.82230392 0.79497409,3.65747549 L0.79497409,4.49264706 C0.79497409,5.29901961 0.965325681,5.93259804 1.33442079,6.42218137 C1.70351591,6.88296569 2.15778682,7.14215686 2.78240932,7.14215686 C3.40703182,7.14215686 3.83291079,6.99816176 4.17361397,6.68137255 C4.45753329,6.39338235 4.65627682,5.93259804 4.74145261,5.35661765 L5.36607511,5.38541667 L5.36607511,5.38541667 Z" id="Path"></path>
                        <polygon id="Path" points="7.26833454 7.54534314 6.7004959 7.54534314 6.7004959 0.201593137 7.26833454 0.201593137"></polygon>
                        <path d="M8.77310693,0.892769608 C8.77310693,0.806372549 8.81156846,0.691176471 8.88849154,0.604779412 C9.00387616,0.518382353 9.11926077,0.518382353 9.27310693,0.518382353 C9.42695308,0.518382353 9.58079923,0.547181373 9.65772231,0.604779412 C9.77310693,0.691176471 9.77310693,0.777573529 9.77310693,0.892769608 C9.77310693,0.979166667 9.73464539,1.09436275 9.65772231,1.1807598 C9.5423377,1.26715686 9.42695308,1.26715686 9.27310693,1.26715686 C9.11926077,1.26715686 8.96541462,1.23835784 8.88849154,1.1807598 C8.81156846,1.09436275 8.77310693,1.00796569 8.77310693,0.892769608 Z M9.65772231,7.54534314 L8.88849154,7.54534314 L8.88849154,2.39031863 L9.65772231,2.39031863 L9.65772231,7.54534314 Z" id="Shape"></path>
                        <path d="M11.4987324,2.36151961 L11.5271243,3.2254902 C11.7258678,2.90870098 11.9530033,2.6495098 12.2369226,2.50551471 C12.5208419,2.33272059 12.8331532,2.24632353 13.1738564,2.24632353 C13.7133031,2.24632353 14.139182,2.39031863 14.3947094,2.70710784 C14.6786287,2.99509804 14.7921965,3.48468137 14.7921965,4.1182598 L14.7921965,7.51654412 L14.2243578,7.51654412 L14.2243578,4.1182598 C14.2243578,3.65747549 14.139182,3.31188725 13.9404385,3.0814951 C13.741695,2.85110294 13.4577757,2.73590686 13.0318967,2.73590686 C12.6911935,2.73590686 12.3788823,2.82230392 12.0949629,3.05269608 C11.8110436,3.28308824 11.640692,3.57107843 11.4987324,3.94546569 L11.4987324,7.4877451 L10.9308937,7.4877451 L10.9308937,2.33272059 L11.4987324,2.36151961 L11.4987324,2.36151961 Z" id="Path"></path>
                        <path d="M16.2117931,0.892769608 C16.2117931,0.806372549 16.2502546,0.691176471 16.3271777,0.604779412 C16.4041007,0.518382353 16.5579469,0.518382353 16.7117931,0.518382353 C16.8656392,0.518382353 17.0194854,0.547181373 17.0964084,0.604779412 C17.2117931,0.691176471 17.2117931,0.777573529 17.2117931,0.892769608 C17.2117931,0.979166667 17.1733315,1.09436275 17.0964084,1.1807598 C16.9810238,1.26715686 16.8656392,1.26715686 16.7117931,1.26715686 C16.5579469,1.26715686 16.4041007,1.23835784 16.3271777,1.1807598 C16.2502546,1.09436275 16.2117931,1.00796569 16.2117931,0.892769608 Z M17.13487,7.54534314 L16.3656392,7.54534314 L16.3656392,2.39031863 L17.13487,2.39031863 L17.13487,7.54534314 Z" id="Shape"></path>
                        <path d="M20.3002312,7.17095588 C20.6977183,7.17095588 21.0100295,7.08455882 21.2939488,6.85416667 C21.5778682,6.62377451 21.7198278,6.33578431 21.7198278,5.99019608 L22.2592745,5.99019608 C22.2308826,6.30698529 22.1457068,6.59497549 21.9753552,6.85416667 C21.8050036,7.11335784 21.5494762,7.31495098 21.2655569,7.45894608 C20.9816376,7.60294118 20.6409344,7.68933824 20.3002312,7.68933824 C19.6472168,7.68933824 19.1077701,7.45894608 18.738675,6.99816176 C18.3411879,6.53737745 18.1424444,5.90379902 18.1424444,5.09742647 L18.1424444,4.89583333 C18.1424444,4.40625 18.2276202,3.94546569 18.4263637,3.54227941 C18.5967153,3.13909314 18.8522427,2.85110294 19.1929459,2.6495098 C19.5052571,2.41911765 19.9027442,2.33272059 20.3570151,2.33272059 C20.9248537,2.33272059 21.3791246,2.50551471 21.7482198,2.82230392 C22.1173149,3.13909314 22.3160584,3.59987745 22.3444503,4.14705882 L21.8050036,4.14705882 C21.7766117,3.74387255 21.634652,3.42708333 21.3791246,3.16789216 C21.0952053,2.90870098 20.7828941,2.7935049 20.385407,2.7935049 C19.8743523,2.7935049 19.4768652,2.96629902 19.1929459,3.34068627 C18.9090266,3.71507353 18.7670669,4.23345588 18.7670669,4.92463235 L18.7670669,5.09742647 C18.7670669,5.75980392 18.9090266,6.27818627 19.1929459,6.65257353 C19.3916894,6.99816176 19.7891765,7.17095588 20.3002312,7.17095588 Z" id="Path"></path>
                        <path d="M26.6032401,7.54534314 C26.5464562,7.40134804 26.5180643,7.14215686 26.5180643,6.82536765 C26.3193208,7.08455882 26.0637934,7.28615196 25.7514821,7.43014706 C25.4675628,7.57414216 25.0984677,7.6317402 24.7861565,7.6317402 C24.3034936,7.6317402 23.9060066,7.4877451 23.5936953,7.1997549 C23.309776,6.91176471 23.1394244,6.56617647 23.1394244,6.1629902 C23.1394244,5.67340686 23.3381679,5.27022059 23.7640469,4.95343137 C24.1899259,4.66544118 24.7577645,4.49264706 25.4959548,4.49264706 L26.5180643,4.49264706 L26.5180643,3.88786765 C26.5180643,3.51348039 26.4044966,3.2254902 26.1773611,3.02389706 C25.9502257,2.82230392 25.6379144,2.70710784 25.1836435,2.70710784 C24.7861565,2.70710784 24.4738452,2.7935049 24.1899259,2.99509804 C23.9060066,3.19669118 23.7924388,3.45588235 23.7924388,3.74387255 L23.2246002,3.74387255 C23.2246002,3.34068627 23.4233437,2.96629902 23.7924388,2.67830882 C24.161534,2.39031863 24.6158049,2.21752451 25.1836435,2.21752451 C25.7514821,2.21752451 26.2057531,2.36151961 26.5464562,2.6495098 C26.8587675,2.9375 27.0291191,3.34068627 27.0291191,3.85906863 L27.0291191,6.30698529 C27.0291191,6.79656863 27.0859029,7.17095588 27.1710787,7.43014706 L27.1710787,7.4877451 L26.6032401,7.54534314 L26.6032401,7.54534314 Z M24.8429403,7.14215686 C25.2120354,7.14215686 25.5527386,7.0557598 25.8650499,6.85416667 C26.1489692,6.68137255 26.3761046,6.42218137 26.5180643,6.10539216 L26.5180643,4.95343137 L25.4959548,4.95343137 C24.9281161,4.95343137 24.4738452,5.03982843 24.161534,5.27022059 C23.8492227,5.47181373 23.7072631,5.7310049 23.7072631,6.10539216 C23.7072631,6.39338235 23.7924388,6.62377451 24.0195743,6.82536765 C24.2183178,7.02696078 24.5022371,7.14215686 24.8429403,7.14215686 Z" id="Shape"></path>
                        <polygon id="Path" points="29.158514 7.54534314 28.5906753 7.54534314 28.5906753 0.201593137 29.158514 0.201593137"></polygon>
                        <polygon id="Path" points="33.7580069 7.0557598 37.1650387 7.0557598 37.1650387 7.54534314 33.1901683 7.54534314 33.1901683 0.604779412 33.7863988 0.604779412"></polygon>
                        <path d="M41.3386527,7.54534314 C41.2818688,7.40134804 41.2534769,7.14215686 41.2534769,6.82536765 C41.0547334,7.08455882 40.799206,7.28615196 40.4868947,7.43014706 C40.2029754,7.57414216 39.8338803,7.6317402 39.5215691,7.6317402 C39.0389062,7.6317402 38.6414192,7.4877451 38.3291079,7.1997549 C38.0451886,6.91176471 37.874837,6.56617647 37.874837,6.1629902 C37.874837,5.67340686 38.0735805,5.27022059 38.4994595,4.95343137 C38.9253385,4.66544118 39.4931771,4.49264706 40.2313674,4.49264706 L41.2534769,4.49264706 L41.2534769,3.88786765 C41.2534769,3.51348039 41.1399092,3.2254902 40.9127737,3.02389706 C40.6856383,2.7935049 40.373327,2.70710784 39.9190561,2.70710784 C39.5215691,2.70710784 39.2092578,2.7935049 38.9253385,2.99509804 C38.6698111,3.19669118 38.5278515,3.45588235 38.5278515,3.74387255 L37.9600128,3.74387255 C37.9600128,3.34068627 38.1587563,2.96629902 38.5278515,2.67830882 C38.8969466,2.39031863 39.3512175,2.21752451 39.9190561,2.21752451 C40.4868947,2.21752451 40.9411657,2.36151961 41.2818688,2.6495098 C41.5941801,2.9375 41.7645317,3.34068627 41.7645317,3.85906863 L41.7645317,6.30698529 C41.7645317,6.79656863 41.8213155,7.17095588 41.9064913,7.43014706 L41.9064913,7.4877451 L41.3386527,7.54534314 L41.3386527,7.54534314 Z M39.5783529,7.14215686 C39.947448,7.14215686 40.2881512,7.0557598 40.6004625,6.85416667 C40.8843818,6.68137255 41.1115172,6.42218137 41.2534769,6.10539216 L41.2534769,4.95343137 L40.2313674,4.95343137 C39.6635287,4.95343137 39.2092578,5.03982843 38.8969466,5.27022059 C38.5846353,5.47181373 38.4426757,5.7310049 38.4426757,6.10539216 C38.4426757,6.39338235 38.5278515,6.62377451 38.7549869,6.82536765 C38.9537304,7.02696078 39.2376497,7.14215686 39.5783529,7.14215686 Z" id="Shape"></path>
                        <path d="M47.3861342,5.01102941 C47.3861342,5.81740196 47.2157826,6.45098039 46.8750794,6.94056373 C46.5343762,7.40134804 46.0517134,7.6317402 45.4554828,7.6317402 C44.7456845,7.6317402 44.2062378,7.34375 43.8655346,6.82536765 L43.8371427,7.51654412 L43.3260879,7.51654412 L43.3260879,0.172794118 L43.8939266,0.172794118 L43.8939266,3.11029412 C44.2346297,2.53431373 44.7740764,2.27512255 45.4838747,2.27512255 C46.1084972,2.27512255 46.5627682,2.50551471 46.9034713,2.96629902 C47.2441745,3.42708333 47.4145261,4.08946078 47.4145261,4.92463235 L47.3861342,5.01102941 L47.3861342,5.01102941 Z M46.8182955,4.92463235 C46.8182955,4.2622549 46.7047278,3.71507353 46.4208085,3.34068627 C46.1368892,2.96629902 45.7677941,2.7935049 45.3135232,2.7935049 C44.944428,2.7935049 44.6605087,2.87990196 44.4049813,3.0814951 C44.1494539,3.25428922 43.9507104,3.54227941 43.8371427,3.88786765 L43.8371427,6.22058824 C44.121062,6.88296569 44.6321168,7.1997549 45.3419151,7.1997549 C45.796186,7.1997549 46.1652811,7.02696078 46.4208085,6.65257353 C46.6763359,6.22058824 46.8182955,5.67340686 46.8182955,4.92463235 Z" id="Shape"></path>
                        <path d="M48.3230679,4.89583333 C48.3230679,4.40625 48.4082437,3.94546569 48.6069872,3.54227941 C48.8057308,3.13909314 49.0612581,2.85110294 49.4303533,2.62071078 C49.7994484,2.39031863 50.1685435,2.30392157 50.6228144,2.30392157 C51.3042208,2.30392157 51.8436675,2.56311275 52.2695464,3.02389706 C52.6954254,3.48468137 52.9225609,4.14705882 52.9225609,4.95343137 L52.9225609,5.06862745 C52.9225609,5.55821078 52.8373851,6.0189951 52.6386416,6.42218137 C52.439898,6.82536765 52.1843706,7.11335784 51.8152755,7.34375 C51.4461804,7.57414216 51.0770853,7.66053922 50.6228144,7.66053922 C49.9698,7.66053922 49.4019613,7.40134804 48.9760824,6.94056373 C48.5502034,6.47977941 48.3230679,5.81740196 48.3230679,5.01102941 L48.3230679,4.89583333 Z M48.8909066,5.03982843 C48.8909066,5.67340686 49.0328662,6.1629902 49.3451775,6.56617647 C49.6574887,6.96936275 50.0833677,7.17095588 50.5660305,7.17095588 C51.0770853,7.17095588 51.4745724,6.96936275 51.7868836,6.56617647 C52.0991949,6.1629902 52.2411545,5.64460784 52.2411545,4.98223039 L52.2411545,4.89583333 C52.2411545,4.49264706 52.1559787,4.14705882 52.0140191,3.83026961 C51.8720594,3.51348039 51.6733159,3.25428922 51.3893966,3.05269608 C51.1054772,2.87990196 50.8215579,2.76470588 50.5092467,2.76470588 C50.0265838,2.76470588 49.6007049,2.96629902 49.2883936,3.36948529 C48.9760824,3.77267157 48.8341227,4.29105392 48.8341227,4.95343137 L48.8909066,5.03982843 L48.8909066,5.03982843 Z" id="Shape"></path>
                        <path d="M56.3863766,2.87990196 C56.2728088,2.85110294 56.1308492,2.85110294 56.0172814,2.85110294 C55.6765783,2.85110294 55.364267,2.9375 55.1371316,3.13909314 C54.8816042,3.34068627 54.7112526,3.59987745 54.6260768,4.00306373 L54.6260768,7.54534314 L54.0582381,7.54534314 L54.0582381,2.39031863 L54.5976848,2.39031863 L54.5976848,3.2254902 C54.8816042,2.59191176 55.3926589,2.30392157 56.0172814,2.30392157 C56.1592411,2.30392157 56.3012008,2.33272059 56.3863766,2.36151961 L56.3863766,2.87990196 L56.3863766,2.87990196 Z" id="Path"></path>
                        <path d="M60.2760712,7.54534314 C60.2192873,7.40134804 60.1908954,7.14215686 60.1908954,6.82536765 C59.9921519,7.08455882 59.7366245,7.28615196 59.4243133,7.43014706 C59.1403939,7.57414216 58.7712988,7.6317402 58.4589876,7.6317402 C57.9763247,7.6317402 57.5788377,7.4877451 57.2665264,7.1997549 C56.9826071,6.91176471 56.8122555,6.56617647 56.8122555,6.1629902 C56.8122555,5.67340686 57.0109991,5.27022059 57.436878,4.95343137 C57.862757,4.66544118 58.4305956,4.49264706 59.1687859,4.49264706 L60.1908954,4.49264706 L60.1908954,3.88786765 C60.1908954,3.51348039 60.0773277,3.2254902 59.8501922,3.02389706 C59.6230568,2.82230392 59.3107455,2.70710784 58.8564746,2.70710784 C58.4589876,2.70710784 58.1466763,2.7935049 57.862757,2.99509804 C57.6072296,3.19669118 57.46527,3.45588235 57.46527,3.74387255 L56.8974313,3.74387255 C56.8974313,3.34068627 57.0961748,2.96629902 57.46527,2.67830882 C57.8343651,2.39031863 58.288636,2.21752451 58.8564746,2.21752451 C59.4243133,2.21752451 59.8785842,2.36151961 60.2192873,2.6495098 C60.5315986,2.9375 60.7019502,3.34068627 60.7019502,3.85906863 L60.7019502,6.30698529 C60.7019502,6.79656863 60.7587341,7.17095588 60.8439098,7.43014706 L60.8439098,7.4877451 L60.2760712,7.54534314 L60.2760712,7.54534314 Z M58.5157714,7.14215686 C58.8848666,7.14215686 59.2255697,7.0557598 59.537881,6.85416667 C59.8218003,6.68137255 60.0489358,6.42218137 60.1908954,6.10539216 L60.1908954,4.95343137 L59.1687859,4.95343137 C58.6009472,4.95343137 58.1466763,5.03982843 57.8343651,5.27022059 C57.5220538,5.47181373 57.3800942,5.7310049 57.3800942,6.10539216 C57.3800942,6.39338235 57.46527,6.62377451 57.6924054,6.82536765 C57.9195409,7.02696078 58.2034602,7.14215686 58.5157714,7.14215686 Z" id="Shape"></path>
                        <path d="M63.1152644,1.06556373 L63.1152644,2.39031863 L64.1657659,2.39031863 L64.1657659,2.85110294 L63.1152644,2.85110294 L63.1152644,6.30698529 C63.1152644,6.59497549 63.1720483,6.79656863 63.257224,6.96936275 C63.3423998,7.11335784 63.5411434,7.17095588 63.7682788,7.17095588 C63.8534546,7.17095588 64.0238062,7.14215686 64.2225497,7.11335784 L64.2509417,7.57414216 C64.108982,7.6317402 63.9102385,7.66053922 63.6263192,7.66053922 C63.2288321,7.66053922 62.9733047,7.54534314 62.8029531,7.31495098 C62.6326015,7.08455882 62.5190338,6.73897059 62.5190338,6.30698529 L62.5190338,2.85110294 L61.5821001,2.85110294 L61.5821001,2.39031863 L62.5190338,2.39031863 L62.5190338,1.06556373 L63.1152644,1.06556373 L63.1152644,1.06556373 Z" id="Path"></path>
                        <path d="M64.932348,4.89583333 C64.932348,4.40625 65.0175238,3.94546569 65.2162673,3.54227941 C65.4150109,3.13909314 65.6705383,2.85110294 66.0396334,2.62071078 C66.4087285,2.39031863 66.7778236,2.30392157 67.2320945,2.30392157 C67.9135009,2.30392157 68.4529476,2.56311275 68.8788265,3.02389706 C69.3047055,3.48468137 69.531841,4.14705882 69.531841,4.95343137 L69.531841,5.06862745 C69.531841,5.55821078 69.4466652,6.0189951 69.2479217,6.42218137 C69.0491781,6.82536765 68.7936507,7.11335784 68.4245556,7.34375 C68.0554605,7.57414216 67.6863654,7.66053922 67.2320945,7.66053922 C66.5790801,7.66053922 66.0112414,7.40134804 65.5853625,6.94056373 C65.1594835,6.47977941 64.932348,5.81740196 64.932348,5.01102941 L64.932348,4.89583333 Z M65.5001867,5.03982843 C65.5001867,5.67340686 65.6421463,6.1629902 65.9544576,6.56617647 C66.2667688,6.96936275 66.6926478,7.17095588 67.1753106,7.17095588 C67.6863654,7.17095588 68.0838525,6.96936275 68.3961637,6.56617647 C68.708475,6.1629902 68.8504346,5.64460784 68.8504346,4.98223039 L68.8504346,4.89583333 C68.8504346,4.49264706 68.7652588,4.14705882 68.6232992,3.83026961 C68.4813395,3.51348039 68.282596,3.25428922 67.9986767,3.05269608 C67.7147573,2.87990196 67.430838,2.76470588 67.1185268,2.76470588 C66.6358639,2.76470588 66.209985,2.96629902 65.8976737,3.36948529 C65.5853625,3.77267157 65.4434028,4.29105392 65.4434028,4.95343137 L65.5001867,5.03982843 L65.5001867,5.03982843 Z" id="Shape"></path>
                        <path d="M72.9956567,2.87990196 C72.8820889,2.85110294 72.7401293,2.85110294 72.6265615,2.85110294 C72.2858584,2.85110294 71.9735471,2.9375 71.7464117,3.13909314 C71.4908843,3.34068627 71.3205327,3.59987745 71.2353569,4.00306373 L71.2353569,7.54534314 L70.6391263,7.54534314 L70.6391263,2.39031863 L71.178573,2.39031863 L71.178573,3.2254902 C71.4624923,2.59191176 71.9735471,2.30392157 72.5981696,2.30392157 C72.7401293,2.30392157 72.8820889,2.33272059 72.9672647,2.36151961 L72.9956567,2.87990196 Z" id="Path"></path>
                        <path d="M75.5793224,6.73897059 L77.0557029,2.39031863 L77.6803254,2.39031863 L75.5225386,8.43811275 L75.4089709,8.72610294 C75.1250515,9.35968137 74.6991726,9.67647059 74.102942,9.67647059 C73.9893743,9.67647059 73.8190227,9.64767157 73.6486711,9.59007353 L73.6486711,9.12928922 L73.9325904,9.15808824 C74.2165097,9.15808824 74.4152532,9.07169118 74.5856048,8.9564951 C74.7559564,8.8125 74.8979161,8.58210784 75.0398757,8.23651961 L75.2954031,7.54534314 L73.3647518,2.41911765 L73.9893743,2.41911765 L75.5793224,6.73897059 Z" id="Path"></path>
                    </g>
                </g>
            </g>
        </g>
    </g>
</svg>