<?xml version="1.0" encoding="UTF-8"?>
<svg width="68px" height="82px" viewBox="0 0 68 82" version="1.1" xmlns="http://www.w3.org/2000/svg" xmlns:xlink="http://www.w3.org/1999/xlink">
    <!-- Generator: Sketch 56 (81588) - https://sketch.com -->
    <title>ic_counseling copy</title>
    <desc>Created with Sketch.</desc>
    <g id="main-pages" stroke="none" stroke-width="1" fill="none" fill-rule="evenodd" stroke-linecap="round" stroke-linejoin="round">
        <g id="PGT-P" transform="translate(-185.000000, -2323.000000)">
            <g id="Group-3" transform="translate(0.000000, 2067.000000)">
                <g id="ic_counseling-2" transform="translate(177.000000, 255.000000)">
                    <g id="Group-25" transform="translate(10.000000, 3.000000)">
                        <path d="M36.0187796,42 C39.562331,39.0723875 41.988122,35.1108213 42.8789042,30.7339738 C43.1462613,29.4170946 44.3441677,19.1315939 43.9036709,17.9658917 C43.1566619,18.5906352 41.9336717,19.4636976 40.2506071,20.0586915 C36.8899842,21.2547505 31.6333899,21.3470353 28.0047982,18.7223839 C27.3416059,18.2391031 25.1287216,16.5069425 23.1140609,16.0971253 C22.7433095,16.0194118 21.9803937,15.9070916 21.0945058,16.1359821 C20.6735867,16.2483023 20.0746335,16.3946222 19.6341368,16.9167597 C19.2480904,17.3708978 19.1495904,17.8924282 19.0700563,18.331995 C18.9513669,19.0004524 19.0058172,19.5614466 19.0700563,19.9172286 C19.2633854,21.9863501 19.4561027,24.0548644 19.6494318,26.1185216 L20.0152888,28.5191396 C20.0152888,28.5191396 20.1248012,29.4170946 20.3921582,30.7339738 C21.2829405,35.1108213 23.7130141,39.0723875 27.2571773,42 C29.0652386,43.1826172 30.6461794,43.7739258 32,43.7739258 C33.3538206,43.7739258 34.6934137,43.1826172 36.0187796,42 Z" id="Stroke-3" stroke="#222222" stroke-width="2.5"></path>
                        <path d="M23.5,47 L23.5,39" id="Stroke-5" stroke="#222222" stroke-width="2.5"></path>
                        <path d="M41,47 L41,37" id="Stroke-5-Copy" stroke="#222222" stroke-width="2.5"></path>
                        <path d="M22.3253586,47.103759 L6.09631302,48.7829359 C5.92348104,48.8007407 5.75187481,48.8246851 5.58149435,48.8541551 C2.321589,49.4177692 0.0196141028,52.3850313 0.0165497059,55.6985661 L0,72.863622 C-0.00244955441,75.699497 2.29155791,78 5.12244771,78 L58.877484,78 C61.7169541,78 64.0146389,75.6859899 64,72.8415194 L63.9086107,55.4947318 C63.8914501,52.2192625 61.6176677,49.2882239 58.3969866,48.722768 C58.2315092,48.6932979 58.0641931,48.6699675 57.8962642,48.6521627 L41.9564976,47" id="Stroke-11" stroke="#222222" stroke-width="2.5"></path>
                        <polyline id="Stroke-13" stroke="#222222" stroke-width="2.5" points="28 57 29.2066583 60 34.5973618 60 36 57"></polyline>
                        <polyline id="Stroke-15" stroke="#222222" stroke-width="2.5" points="27 71 29.3245504 60 34.6835664 60 37 71"></polyline>
                        <path d="M13.1696696,38.5 C15.1102338,36.6167769 15.9364898,34.3046024 15.6484375,31.5634766 C15.216359,27.4517878 13.9754543,28.061482 13.1696696,21.8508832 C12.3638848,15.6402845 14.4466593,9.31712166 19.0239052,5.07517015 C22.4286038,1.9252122 26.9712381,0 31.9589667,0 C36.0637932,0 39.8741167,1.30366292 42.9897772,3.5249675 C46.1054378,5.74688384 48.5385798,8.88583008 49.893294,12.545385 C50.9152501,15.3099335 51.1872859,18.9187122 50.8818528,21.8508832 C50.5764197,24.7830542 48.8774414,27.4863568 48.8774414,30.6914063 C48.8774414,32.8281059 49.5455785,34.9309705 50.8818528,37" id="Stroke-24" stroke="#222222" stroke-width="2.5"></path>
                        <polygon id="Stroke-7" stroke="#0BA6BF" stroke-width="2.5" points="32 52.7346452 22 47 24.7797203 60"></polygon>
                        <polyline id="Stroke-9" stroke="#0BA6BF" stroke-width="2.5" points="42 47 39.7247752 60 32 52.7346452 42 47"></polyline>
                    </g>
                </g>
            </g>
        </g>
    </g>
</svg>