<?xml version="1.0" encoding="UTF-8"?>
<svg width="74px" height="85px" viewBox="0 0 74 85" version="1.1" xmlns="http://www.w3.org/2000/svg" xmlns:xlink="http://www.w3.org/1999/xlink">
    <!-- Generator: sketchtool 56 (101010) - https://sketch.com -->
    <title>1B97AA72-195B-422B-A7A7-D2B25803CA5E</title>
    <desc>Created with sketchtool.</desc>
    <g id="main-pages" stroke="none" stroke-width="1" fill="none" fill-rule="evenodd" stroke-linecap="round" stroke-linejoin="round">
        <g id="PGT-SR-Page" transform="translate(-749.000000, -3157.000000)">
            <g id="Group-3" transform="translate(-7.000000, 2902.000000)">
                <g id="ic_counseling" transform="translate(751.000000, 255.000000)">
                    <g id="Group-43" transform="translate(7.000000, 2.000000)">
                        <path d="M21.1040415,18.605979 C21.1193742,19.2394062 21.0940162,20.4024102 21.0433002,22.728418 C20.9713543,26.0504188 20.8852551,27.5875273 21.7226585,28.0885604 C22.1325144,28.3339147 22.6290593,28.2507129 22.9864301,28.1413966 C22.9864301,28.1413966 23.5496134,36.9984458 31.5957631,39.5904566 C32.9757096,40.0350096 34.4511909,40.1364308 35.8600337,39.8018015 C40.5553902,38.6855606 44.2381962,34.2005559 45.2242093,28.1413966 C45.5137622,28.1845158 45.9578219,28.2027352 46.3299357,27.9507004 C47.2027224,27.3609997 47.0004481,25.7625525 46.9249639,23.0891618 C46.8954779,22.0415473 46.8748376,20.4516025 46.9491424,18.4675117 L46.9491424,16" id="Stroke-1" stroke="#222222" stroke-width="2.5"></path>
                        <path d="M48.7137273,13 C50.0742905,5.39165915 46.1433167,0 46.1433167,0 C46.0579503,1.46880072 45.4815802,1.77709648 44.5990687,1.94531109 C43.4404411,2.16627592 42.245312,2.10532011 41.0943379,1.85153291 C39.4293995,1.48462579 33.6356728,0.0902614968 29.5074733,0.970604148 C29.2343009,1.0286294 24.0010485,2.22312894 21.938715,6.49882777 C20.8907693,8.67155095 20.973192,10.9949053 21.0285329,12.5633454" id="Stroke-3" stroke="#222222" stroke-width="2.5"></path>
                        <path d="M22,19 C22.5215648,18.9367851 23.3211843,18.7591001 24.0058442,18.1782067 C25.7223078,16.7208477 24.8366103,14.3186828 26.3095637,12.5737246 C27.5424047,11.1135181 29.6541476,11.0280926 30.2476329,11.004743 C33.6698002,10.8669232 34.352195,13.7594305 39.3871925,16.1855146 C42.2487202,17.5642822 47,16.5562613 47,16.5562613" id="Stroke-5" stroke="#222222" stroke-width="2.5"></path>
                        <path d="M26,42 L32,47" id="Stroke-9" stroke="#222222" stroke-width="2"></path>
                        <path d="M38,47 L43.677,43" id="Stroke-11" stroke="#222222" stroke-width="2.5"></path>
                        <path d="M34,51 L28,61" id="Stroke-13" stroke="#222222" stroke-width="2.5"></path>
                        <path d="M41,61.446 L36,51" id="Stroke-15" stroke="#222222" stroke-width="2.5"></path>
                        <path d="M34.4797219,50.7848917 L32.2155272,48.5199536 C31.9281576,48.2331426 31.9281576,47.767292 32.2155272,47.4799015 L34.4797219,45.2155428 C34.7670915,44.9281524 35.2323291,44.9281524 35.5196987,45.2155428 L37.7844728,47.4799015 C38.0718424,47.767292 38.0718424,48.2331426 37.7844728,48.5199536 L35.5196987,50.7848917 C35.2329085,51.0717028 34.7670915,51.0717028 34.4797219,50.7848917 Z" id="Stroke-7" stroke="#0BA6BF" stroke-width="2"></path>
                        <polyline id="Stroke-21" stroke="#222222" stroke-width="2.5" points="41 62 40.7962747 62.5889753 34 80"></polyline>
                        <polygon id="Stroke-23" stroke="#222222" stroke-width="2.5" points="28 60.9678116 27.9799639 61 11 47.8366802 11.1991819 47.7886901 23.5154603 45"></polygon>
                        <path d="M35,81 L14.7527751,81 L11.7979632,81 C5.24687764,81 -0.0501412285,75.6503424 0.000358100191,69.0846891 L0.0712976334,59.7333333 C0.0833212831,54.7518488 3.17279807,50.1578198 7.92694916,48.7013969 C8.19146946,48.6242673 8.46019803,48.5549712 8.72471832,48.4983292 L10.8817611,48 L28.2048344,61.5531087 L28.2415065,61.5850452 L28.2739704,61.6953164 L35,81 Z" id="Stroke-25" stroke="#222222" stroke-width="2.5"></path>
                        <polygon id="Stroke-27" stroke="#222222" stroke-width="2.5" points="59 47.9197334 41.177734 62 41 61.6539936 46.1646704 45 58.9590784 47.9112051"></polygon>
                        <path d="M35,81 L58.3358146,81 C64.7996587,81 70.0313604,75.6760795 70,69.1295354 L69.9558746,59.8030427 C69.975489,54.8102118 66.9096952,50.2008428 62.2010448,48.7332129 C61.9472461,48.6561594 61.6821541,48.5869315 61.4081466,48.5303453 L59.159026,48 L59.1548654,48" id="Stroke-29" stroke="#222222" stroke-width="2.5"></path>
                        <path d="M25.323,36 L25.677,43" id="Stroke-33" stroke="#222222" stroke-width="2.5"></path>
                        <path d="M43.323,35 L43.677,43" id="Stroke-35" stroke="#222222" stroke-width="2.5"></path>
                        <path d="M25.323,43 L23,45" id="Stroke-37" stroke="#222222" stroke-width="2"></path>
                        <path d="M43.677,43 L46,45" id="Stroke-39" stroke="#222222" stroke-width="2"></path>
                        <polygon id="Stroke-41" stroke="#0BA6BF" stroke-width="3" points="7 73 19 73 19 66 7 66"></polygon>
                    </g>
                </g>
            </g>
        </g>
    </g>
</svg>