<?xml version="1.0" encoding="UTF-8"?>
<svg width="224px" height="224px" viewBox="0 0 224 224" version="1.1" xmlns="http://www.w3.org/2000/svg" xmlns:xlink="http://www.w3.org/1999/xlink">
    <!-- Generator: Sketch 56.2 (81672) - https://sketch.com -->
    <title>Group 2</title>
    <desc>Created with Sketch.</desc>
    <g id="main-pages" stroke="none" stroke-width="1" fill="none" fill-rule="evenodd">
        <g id="PGT-M" transform="translate(-403.000000, -1516.000000)">
            <g id="Group-2" transform="translate(404.000000, 1517.000000)">
                <g id="ic_reporting" transform="translate(117.000000, 90.000000)" stroke="#222222" stroke-linecap="round" stroke-linejoin="round" stroke-width="2.5">
                    <g id="Group-27">
                        <g id="Group-26">
                            <polygon id="Stroke-4" points="21.2136667 0.416786388 44.3256667 0.416786388 44.3256667 5.2743224 21.2136667 5.2743224"></polygon>
                            <path d="M21.2136667,5.2743224 C21.2136667,9.24178478 24.753,12.4579256 29.1176667,12.4579256 L36.4216667,12.4579256 C40.7863333,12.4579256 44.3256667,9.24178478 44.3256667,5.2743224" id="Stroke-6"></path>
                            <polyline id="Stroke-8" points="59.4015333 73.6078633 7.22153333 73.6078633 7.22153333 6.62815532 16.6835333 6.62815532"></polyline>
                            <polyline id="Stroke-10" points="48.8263333 6.62815532 59.4016667 6.62815532 59.4016667 73.6078633"></polyline>
                            <path d="M25.9536,5.2743224 L39.8396,5.2743224" id="Stroke-12"></path>
                            <polyline id="Stroke-14" points="65.896 79.8881842 65.896 0.41714993 44.326 0.41714993"></polyline>
                            <polyline id="Stroke-16" points="21.2136667 0.41708934 0.000333333333 0.41708934 0.000333333333 79.8881236 65.8956667 79.8881236"></polyline>
                        </g>
                    </g>
                </g>
                <g id="Group-9" transform="translate(50.000000, 99.000000)" stroke="#0BA6BF" stroke-linecap="round" stroke-linejoin="round" stroke-width="2.5">
                    <path d="M14,0 C7.57142857,4.5 9.17857143,12 9.17857143,12" id="Stroke-1"></path>
                    <path d="M15.7142857,32 L20,32 L20,26.2857143 C20,20 15.7142857,12 10,12 C4.28571429,12 0,20 0,26.2857143 L0,32 L4.28571429,32" id="Stroke-3"></path>
                    <path d="M46,0 C51,1.5 51,15 51,15 L51,18" id="Stroke-5"></path>
                    <path d="M58,25 C58,28.8668 54.8668,32 51,32 C47.1332,32 44,28.8668 44,25 C44,21.1332 47.1332,18 51,18 C54.8668,18 58,21.1332 58,25 Z" id="Stroke-7"></path>
                </g>
                <g id="Group-45" transform="translate(141.000000, 108.000000)" stroke="#0BA6BF" stroke-linecap="round" stroke-linejoin="round" stroke-width="2">
                    <path d="M0.0556683751,49.1666667 C1.16619927,41.678125 18.3333333,41.4184654 18.3333333,33.4268783 C18.3333333,25.1673138 0,25.1673138 0,16.9073877 C0,9.09843034 16.3955775,8.67603132 18.1780292,1.66666667" id="Stroke-11"></path>
                    <path d="M14.1666667,44.1666667 C16.7789981,45.4608085 18.7944123,46.9931107 19.1666667,49.1666667" id="Stroke-13"></path>
                    <path d="M4.68464131,26.6666667 C1.69096912,28.2803865 0,29.822498 0,32.8267945 C0,35.7142754 2.17312057,37.5920059 5,39.1666667" id="Stroke-15"></path>
                    <path d="M14.1666667,10 C16.997728,11.5993005 19.1666667,13.508869 19.1666667,16.4344637 C19.1666667,19.138702 17.3145315,20.9748539 14.7988826,22.5" id="Stroke-17"></path>
                    <path d="M0,0.833333333 C0.569946195,2.96964277 2.52651806,4.51197397 5,5.83333333" id="Stroke-19"></path>
                    <path d="M18.3333333,0.833333333 L0,0.833333333" id="Stroke-21"></path>
                    <path d="M1.66666667,13.3333333 L8.33333333,13.3333333" id="Stroke-23"></path>
                    <path d="M1.66666667,20 L17.5,20" id="Stroke-25"></path>
                    <path d="M16.6666667,30.8333333 L0.833333333,30.8333333" id="Stroke-27"></path>
                    <path d="M16.6666667,36.6666667 L10.8333333,36.6666667" id="Stroke-29"></path>
                    <path d="M18.3333333,49.1666667 L0,49.1666667" id="Stroke-31"></path>
                    <path d="M11.5577273,13.9246074 C11.2310697,14.7847961 10.2688356,15.2175681 9.40868205,14.8912319 C8.54852846,14.564561 8.11577414,13.6022877 8.442097,12.742099 C8.76875455,11.8815756 9.73098863,11.4491383 10.5911422,11.7754745 C11.4516305,12.1021454 11.8843848,13.0644187 11.5577273,13.9246074 Z" id="Stroke-41"></path>
                    <path d="M10.7243939,37.2577154 C10.3977364,38.1181544 9.43583699,38.5508839 8.57534871,38.2245798 C7.71519512,37.8976063 7.28244081,36.935762 7.60876367,36.0756577 C7.93542122,35.214884 8.89765529,34.7824891 9.75780888,35.1087933 C10.6182972,35.4354321 11.0510515,36.3976111 10.7243939,37.2577154 Z" id="Stroke-43"></path>
                </g>
                <g id="Group-20" stroke="#0BA6BF" stroke-dasharray="6" stroke-width="2.5">
                    <path d="M111,0.5 C172.027,0.5 221.5,49.973 221.5,111 C221.5,172.027 172.027,221.5 111,221.5 C49.973,221.5 0.5,172.027 0.5,111 C0.5,49.973 49.973,0.5 111,0.5 Z" id="Stroke-1"></path>
                </g>
                <g id="Group-23" transform="translate(34.000000, 40.000000)" stroke="#2E384D" stroke-linejoin="round" stroke-width="2.5">
                    <path d="M38,53 C32.8614286,49.5636 27,43.4182667 27,36.8666667 L27,31" id="Stroke-1" stroke-linecap="round"></path>
                    <path d="M63,31 L63,36.8666667 C63,43.6382667 57.3648571,49.6149333 52,53" id="Stroke-3" stroke-linecap="round"></path>
                    <path d="M63,24 C48.4166667,24 45.5,18 45.5,18 C45.5,18 42.5833333,24 28,24" id="Stroke-5" stroke-linecap="square"></path>
                    <path d="M20,55 L20,24.2 C20,19.4010667 21.4579901,14.8881333 24,11 C26.5420099,7.11186667 34.5,-2.27373675e-13 45,-2.27373675e-13 C55.5,-2.27373675e-13 63,7 66,11" id="Stroke-7" stroke-linecap="round"></path>
                    <path d="M66,11 C68.5420099,14.8882629 70,19.39988 70,24.1989733 L70,55" id="Stroke-9" stroke-linecap="round"></path>
                    <path d="M56,50 L56,57.2727273 L72.7664348,63.0472727" id="Stroke-11" stroke-linecap="round"></path>
                    <path d="M0,82 L0.538086957,80.2356364 C2.98608696,72.2065455 9.19330435,65.8152727 17.2335652,63.0472727 L34,57.2727273 L34,50" id="Stroke-13" stroke-linecap="round"></path>
                    <path d="M34,57 C34,65.7272727 45,73 45,73 C45,73 56,65.7272727 56,57" id="Stroke-15" stroke-linecap="round"></path>
                </g>
            </g>
        </g>
    </g>
</svg>