<?xml version="1.0" encoding="UTF-8"?>
<svg width="225px" height="225px" viewBox="0 0 225 225" version="1.1" xmlns="http://www.w3.org/2000/svg" xmlns:xlink="http://www.w3.org/1999/xlink">
    <!-- Generator: Sketch 56.2 (81672) - https://sketch.com -->
    <title>Group 4</title>
    <desc>Created with Sketch.</desc>
    <g id="main-pages" stroke="none" stroke-width="1" fill="none" fill-rule="evenodd">
        <g id="PGT-M" transform="translate(-857.000000, -1515.000000)">
            <g id="Group-4" transform="translate(859.000000, 1517.000000)">
                <g id="Group-25" transform="translate(61.500000, 50.500000)" stroke-linejoin="round" stroke-width="2.5">
                    <path d="M89.5,29 C89.5,29 75.8517059,38.2462968 56,38.6456257 L56,68.7476944 C56,79.2479225 60.8377941,89.1887043 69.1694412,95.8056035 L89.5,111.952381 L109.830559,95.8056035 C118.162206,89.1887043 123,79.2479225 123,68.7476944 L123,38.6456257 C103.148294,38.2462968 89.5,29 89.5,29 Z" id="Stroke-1" stroke="#2E384D" stroke-linecap="round"></path>
                    <path d="M64,22 L64,14.6666667 C64,11.6306667 61.5740769,9.16666667 58.5769231,9.16666667 L54.9615385,9.16666667 L54.9615385,0 L26.0384615,0 L26.0384615,9.16666667 L22.4230769,9.16666667 C19.4259231,9.16666667 17,11.6306667 17,14.6666667 L17,22 L64,22 Z" id="Stroke-5" stroke="#0BA6BF" stroke-linecap="round"></path>
                    <polyline id="Stroke-7" stroke="#0BA6BF" stroke-linecap="square" points="35 9 35 12 46 12 46 9"></polyline>
                    <path d="M64,113 L3.65714286,113 C1.6384,113 0,111.373926 0,109.37037 L0,18.6296296 C0,16.6260741 1.6384,15 3.65714286,15 L9.14285714,15" id="Stroke-9" stroke="#2E384D" stroke-linecap="round"></path>
                    <path d="M66,15 L74.5714286,15 C76.464,15 78,16.6128 78,18.6 L78,24" id="Stroke-11" stroke="#2E384D" stroke-linecap="round"></path>
                    <path d="M21,74 L38,74" id="Stroke-13" stroke="#0BA6BF" stroke-linecap="round"></path>
                    <path d="M21,87 L38,87" id="Stroke-15" stroke="#0BA6BF" stroke-linecap="round"></path>
                    <path d="M21,99 L38,99" id="Stroke-17" stroke="#0BA6BF" stroke-linecap="round"></path>
                </g>
                <path d="M110.5,0 C171.527,0 221,49.473 221,110.5 C221,171.527 171.527,221 110.5,221 C49.473,221 0,171.527 0,110.5 C0,49.473 49.473,0 110.5,0 Z" id="Stroke-1" stroke="#0BA6BF" stroke-width="3" stroke-dasharray="6"></path>
                <g id="Group-81" transform="translate(74.500000, 81.500000)" fill="#222222">
                    <path d="M21.5102186,8.26255349 L15.8970558,8.26255349 C12.8900326,8.26255349 10.4444047,10.8489256 10.4444047,13.8575302 C10.4444047,16.8653442 12.9501256,19.3726465 15.9571488,19.3726465 C15.9769163,19.3726465 19.2448698,19.2919953 19.2053349,21.1169256 C19.1855674,22.2602744 15.5768233,24.6062744 15.5768233,24.6062744 L15.5768233,26.7324605 C15.5768233,26.7324605 20.8484047,23.6843209 21.349707,21.2774372 C21.8114744,19.1117163 19.6860791,18.4095767 19.3247302,18.2292977 C20.5684977,17.226693 21.349707,15.5219488 21.349707,13.8172047 C21.349707,12.4137163 20.8080791,11.3913442 19.9462186,10.0076233 L21.5102186,10.0076233 L21.5102186,8.26255349 Z M15.8970558,17.3872047 C13.9329628,17.3872047 12.3491953,15.7828791 12.3491953,13.8377628 C12.3491953,11.8918558 13.9527302,10.2883209 15.8970558,10.2883209 C17.8413814,10.2883209 19.445707,11.8720884 19.445707,13.8377628 C19.445707,15.8026465 17.8619395,17.3872047 15.8970558,17.3872047 L15.8970558,17.3872047 Z" id="Fill-31"></path>
                    <path d="M6.77572558,5.79589302 C7.09674884,5.49463721 7.43753953,5.21393953 7.79809767,4.93324186 L6.67609767,3.3890093 C6.25465581,3.71003256 5.85377209,4.05082326 5.45288837,4.41217209 L6.77572558,5.79589302 Z" id="Fill-33"></path>
                    <path d="M8.35949302,4.5322 C8.72084186,4.27126977 9.10116744,4.05145581 9.48228372,3.83006047 L8.58009767,2.14587442 C8.11912093,2.40680465 7.67791163,2.68750233 7.23670233,2.98796744 L8.35949302,4.5322 Z" id="Fill-35"></path>
                    <path d="M5.0720093,7.68075814 C5.45233488,7.20001395 5.8540093,6.73824651 6.27466047,6.29703721 L4.95182326,4.91331628 C4.45052093,5.43517674 3.96898605,5.97601395 3.52856744,6.5374093 L5.0720093,7.68075814 Z" id="Fill-37"></path>
                    <path d="M2.16516744,14.860293 C2.24502791,14.1186186 2.38577209,13.3761535 2.5858186,12.6542465 L0.741911628,12.0928512 C0.501539535,12.9349442 0.341027907,13.7770372 0.240609302,14.6594558 L2.16516744,14.860293 Z" id="Fill-39"></path>
                    <path d="M3.84887907,9.52585116 C4.08925116,9.08464186 4.36994884,8.64343256 4.65064651,8.2227814 L3.10720465,7.0992 C2.76641395,7.60050233 2.4461814,8.12236279 2.14492558,8.64343256 L3.84887907,9.52585116 Z" id="Fill-41"></path>
                    <path d="M2.78633953,11.9925116 C2.98717674,11.3504651 3.24731628,10.7495349 3.52801395,10.147814 L1.82406047,9.26539535 C1.48326977,9.96674419 1.18280465,10.6894419 0.94164186,11.4311163 L2.78633953,11.9925116 Z" id="Fill-43"></path>
                    <path d="M10.0836884,3.48942791 C11.1859209,2.92803256 12.3688047,2.5065907 13.592014,2.24645116 L13.2306651,0.360637209 C11.8074093,0.661893023 10.4442465,1.16319535 9.18150233,1.80524186 L10.0836884,3.48942791 Z" id="Fill-45"></path>
                    <path d="M28.1261442,25.6293581 C27.3441442,26.6121953 26.4221907,27.5143814 25.3998186,28.276614 L26.5020512,29.8414047 C27.6841442,28.9787535 28.7270744,27.9358233 29.6498186,26.7924744 L28.1261442,25.6293581 Z" id="Fill-47"></path>
                    <path d="M13.9325674,0.240530233 L14.2939163,2.12555349 C14.814986,2.04569302 15.3360558,1.9856 15.8571256,1.94527442 L15.7970326,0.0199255814 C15.154986,0.0602511628 14.5342884,0.140902326 13.9325674,0.240530233" id="Fill-49"></path>
                    <path d="M31.2935209,16.5447953 C31.2935209,18.0289349 31.0729163,19.4529814 30.6514744,20.8161442 L32.475614,21.4178651 C32.9571488,19.8736326 33.1975209,18.2495395 33.1975209,16.5447953 L33.1975209,16.4847023 L31.2935209,16.5447953" id="Fill-51"></path>
                    <path d="M32.2356372,10.9095721 L30.4510326,11.6117116 C30.9325674,12.9353395 31.2330326,14.3585953 31.2939163,15.8427349 L33.2176837,15.8024093 C33.1172651,14.0778977 32.7772651,12.4340372 32.2356372,10.9095721" id="Fill-53"></path>
                    <path d="M27.7045442,6.95877209 C28.7269163,8.14244651 29.5895674,9.48584186 30.1912884,10.9494233 L31.9743116,10.2480744 C31.2737535,8.56309767 30.3106837,6.99909767 29.1080326,5.65570233 L27.7045442,6.95877209 Z" id="Fill-55"></path>
                    <path d="M22.7132651,3.22881395 C24.4172186,4.01081395 25.940893,5.09406977 27.2234047,6.43746512 L28.6474512,5.13360465 C27.1830791,3.59016279 25.4198233,2.34639535 23.474707,1.46397674 L22.7132651,3.22881395 Z" id="Fill-57"></path>
                    <path d="M21.6708093,32.3275163 L21.0493209,30.502586 C19.9668558,30.8441674 18.8440651,31.044214 17.6809488,31.1248651 L17.7616,33.0494233 C19.1049953,32.9695628 20.4278326,32.7086326 21.6708093,32.3275163" id="Fill-59"></path>
                    <path d="M30.4511116,21.4781953 C29.9901349,22.7820558 29.3480884,23.984707 28.5471116,25.0877302 L30.070786,26.2516372 C30.9927395,24.9873116 31.734414,23.5838233 32.2554837,22.0996837 L30.4511116,21.4781953 Z" id="Fill-61"></path>
                    <path d="M24.8382651,28.677814 C23.875986,29.3396279 22.8132884,29.8804651 21.7110558,30.2821395 L22.3325442,32.1070698 C23.6150558,31.6453023 24.8382651,31.0040465 25.9610558,30.241814 L24.8382651,28.677814 Z" id="Fill-63"></path>
                    <path d="M16.5587116,1.92542791 L16.6986651,1.92542791 C18.6034558,1.92542791 20.4275953,2.28677674 22.092014,2.96835814 L22.8336884,1.20352093 C20.9288977,0.42152093 18.8438279,7.90697674e-05 16.6788977,7.90697674e-05 L16.4780605,7.90697674e-05 L16.5587116,1.92542791 Z" id="Fill-65"></path>
                    <path d="M2.06474884,16.5447953 C2.06474884,16.2040047 2.08451628,15.8829814 2.10507442,15.5619581 L0.200283721,15.3816791 C0.180516279,15.7627953 0.15995814,16.1439116 0.15995814,16.5447953 C0.15995814,17.0057721 0.180516279,17.4675395 0.220051163,17.9285163 L2.12484186,17.7284698 C2.08451628,17.3473535 2.06474884,16.9456791 2.06474884,16.5447953" id="Fill-67"></path>
                    <path d="M16.9799163,31.1646372 L16.6786605,31.1646372 C15.696614,31.1646372 14.754893,31.0642186 13.8321488,30.8839395 L13.4114977,32.7689628 C14.4741953,32.9895674 15.5566605,33.089986 16.6786605,33.089986 L17.0605674,33.089986 L16.9799163,31.1646372 Z" id="Fill-69"></path>
                    <path d="M2.72648372,20.9168 C2.46555349,20.1142419 2.28527442,19.2721488 2.18485581,18.4300558 L0.280855814,18.6301023 C0.40104186,19.632707 0.621646512,20.5957767 0.922111628,21.5382884 L2.72648372,20.9168 Z" id="Fill-71"></path>
                    <path d="M4.12957674,24.0251907 C3.6686,23.2431907 3.26771628,22.4208651 2.96725116,21.5787721 L1.14311163,22.2002605 C1.50366977,23.2028651 1.96464651,24.1659349 2.50548372,25.0475628 L4.12957674,24.0251907 Z" id="Fill-73"></path>
                    <path d="M9.36170233,29.1990419 C8.43974884,28.657414 7.57788837,28.0161581 6.79588837,27.2942512 L5.47305116,28.6779721 C6.37523721,29.5200651 7.37705116,30.2617395 8.45951628,30.8840186 L9.36170233,29.1990419 Z" id="Fill-75"></path>
                    <path d="M6.2745814,26.8127163 C5.61355814,26.1509023 5.01183721,25.4092279 4.49076744,24.6264372 L2.86667442,25.6496 C3.46839535,26.5723442 4.16974419,27.4144372 4.93118605,28.1964372 L6.2745814,26.8127163 Z" id="Fill-77"></path>
                    <path d="M13.1507256,30.7433535 C12.0279349,30.4626558 10.9652372,30.0617721 9.96342326,29.5399116 L9.04146977,31.2248884 C10.2037953,31.8266093 11.4270047,32.3081442 12.7300744,32.6283767 L13.1507256,30.7433535 Z" id="Fill-79"></path>
                </g>
                <g id="Group-27" transform="translate(127.500000, 94.500000)" stroke="#0BA6BF" stroke-linecap="round" stroke-linejoin="round" stroke-width="2">
                    <path d="M46.3267986,38 C48.3035669,31.8813774 49.1556165,26.2142342 45.291317,22.4558738 C36.3907368,13.7983817 18.1146362,30.4452425 6.92694065,27.966901 C6.92363557,27.9702085 6.920661,27.9672317 6.920661,27.9672317 C5.36793445,27.622255 3.94972465,26.9114642 2.71098069,25.7065265 C-1.19066618,21.9111216 -0.287057324,16.1781584 1.72309229,10" id="Stroke-1"></path>
                    <path d="M26.8280538,16 C28.5007021,10.1781321 28.7162062,6.13346946 25.2419808,2.52953513 C21.9029126,-0.934137256 17.1621334,-0.36610961 12,1.41441941" id="Stroke-3"></path>
                    <path d="M37,46.6440103 C31.7775605,48.3665327 26.9853499,48.8958614 23.6038457,45.5154724 C20.4782563,42.3917474 20.5633496,37.9344145 21.7978368,33" id="Stroke-5"></path>
                    <path d="M22,12 L27,7" id="Stroke-7"></path>
                    <path d="M7,28 L12,23" id="Stroke-9"></path>
                    <path d="M17,2 L19,0" id="Stroke-11"></path>
                    <path d="M0,20 L7,12" id="Stroke-13"></path>
                    <path d="M43,31 L47,26" id="Stroke-15"></path>
                    <path d="M27,48 L32,43" id="Stroke-17"></path>
                    <path d="M37,22 L39,20" id="Stroke-19"></path>
                    <path d="M21,40 L28,31" id="Stroke-21"></path>
                    <path d="M20.5620094,11.809853 C20.006361,11.6092767 19.3616553,13.1007241 17.8389482,13.5157679 C17.738715,13.5432116 17.5892383,13.6041977 17.3950582,13.6014872 C17.0168262,13.5967438 16.7042521,12.2106668 16.7500032,12.1839007 C16.9403416,12.1107174 17.1453482,11.9877289 17.196338,11.8017215 C17.2117047,11.7461565 17.1980842,11.7010946 17.1945917,11.6821212 C17.0562908,10.9140359 17.5490751,10.2750378 17.8944782,9.63400686 C17.8944782,9.63400686 18.386564,8.67652613 18.2391827,7.46629217 C18.0345253,5.7908703 16.0801518,4.22725616 14.049643,4.02396938 C13.5617481,3.97484175 12.2227438,3.91927669 10.9944501,4.76257801 C10.1793129,5.3229719 9.79514373,6.01584101 9.62680777,6.32822502 C8.98699143,7.51575862 8.79490683,9.01669267 9.24787724,10.3153564 C9.64007907,11.438177 10.5166833,12.1469703 11.5305408,12.7514096 C11.7226254,12.8659278 11.0478846,14.0663363 10.9602241,14.2401465 C10.2096972,15.7221071 10.5491631,17.2203306 11.5127293,18.5352573 C11.5494,18.5854014 11.5892139,18.6362231 11.6318217,18.6870447 C11.6489347,18.7073734 11.8860719,18.988248 12.2196006,19.2298204 C12.5803704,19.4920604 13.3619801,19.9325151 14.4180962,19.9582647 C14.8941167,19.9701231 15.7190328,19.9907906 16.4028539,19.4890111 C17.1690969,18.9262455 17.2784105,18.0592274 17.8054208,18.0731187 C18.0502413,18.0795561 18.2231174,18.2726785 18.2601374,18.3140135 C18.5716637,18.6609563 18.3687525,19.1258054 18.3202075,19.9962116 C18.2720117,20.8595028 18.2479138,21.2908096 18.5290558,21.5950621 C19.0434933,22.1520679 20.3629399,22.063977 20.4907635,21.7526094 C20.5263864,21.6655349 20.4464094,21.6021772 20.0912275,20.9923168 C19.9812154,20.8029213 19.8918087,20.6423248 19.8275477,20.5257737 C19.924987,20.1700218 20.0423332,19.7932636 20.1834281,19.4002425 C20.3681786,18.8855882 20.568645,18.4163345 20.7705085,17.9938368 C20.7705085,17.9938368 21.169346,17.0468593 20.915445,16.5054388 C20.7757471,16.210673 20.5005423,15.996883 20.1726015,15.9328477 C19.9242885,15.8840589 19.6382571,15.8254445 19.3228891,15.754633" id="Stroke-23"></path>
                    <path d="M40.5986891,33.376177 C40.0893369,33.1867456 39.4983475,34.5950016 38.1025111,34.9873038 C38.0103091,35.0132226 37.8736067,35.0705 37.6952855,35.0682601 C37.3488875,35.0637804 37.0623569,33.7547198 37.104296,33.729441 C37.2784554,33.6603241 37.4663811,33.5441694 37.5131224,33.3684974 C37.5272088,33.3160198 37.5150433,33.2731417 37.5118418,33.2555425 C37.385064,32.5301355 37.8364698,31.9266429 38.1534143,31.3212304 C38.1534143,31.3212304 38.6045,30.4169515 38.4690782,29.2736434 C38.2817928,27.6916353 36.4902561,26.2149023 34.6289275,26.0225911 C34.1813635,25.9761932 32.9542441,25.9240356 31.8279706,26.7204794 C31.0810701,27.2494154 30.7289096,27.9037856 30.5742791,28.1991322 C29.9880918,29.3206813 29.8120115,30.7382169 30.2272408,31.9644012 C30.5867647,33.025153 31.3903311,33.6945626 32.3197148,34.2650966 C32.4954749,34.3735717 31.8772731,35.5072802 31.7965963,35.6714327 C31.1089228,37.0710492 31.4201047,38.4860249 32.3030672,39.7275685 C32.3370027,39.7752463 32.3734993,39.8229241 32.412237,39.871242 C32.4282443,39.8904411 32.6456234,40.155709 32.9510426,40.3838587 C33.2820735,40.6315274 33.99824,41.0475085 34.9666815,41.0718274 C35.4030404,41.0830269 36.1592252,41.102546 36.786071,40.6283276 C37.4884712,40.0971517 37.5886769,39.2783089 38.0717771,39.2914283 C38.2961994,39.297508 38.4546716,39.4798997 38.4886071,39.518938 C38.7741773,39.8466031 38.5878524,40.2856231 38.5433521,41.1076658 C38.4991719,41.9229887 38.477402,42.3303302 38.7351195,42.6176772 C39.2063743,43.1434133 40.4162059,43.0605371 40.5333793,42.7664704 C40.5660342,42.6842342 40.4927208,42.6243969 40.1668122,42.0481031 C40.0659662,41.8695512 39.9840089,41.7178781 39.925102,41.6078031 C40.0147429,41.2718183 40.1219918,40.9159945 40.2513307,40.5448114 C40.4210081,40.0587534 40.6047719,39.6155736 40.7894961,39.2165517 C40.7894961,39.2165517 41.1554229,38.3218723 40.9223566,37.8108556 C40.7942983,37.5324682 40.5420233,37.3305574 40.2417264,37.2700801 C40.0141026,37.2240022 39.751903,37.1683247 39.4628113,37.1017678" id="Stroke-25"></path>
                </g>
            </g>
        </g>
    </g>
</svg>