<?xml version="1.0" encoding="UTF-8"?>
<svg width="70px" height="84px" viewBox="0 0 70 84" version="1.1" xmlns="http://www.w3.org/2000/svg" xmlns:xlink="http://www.w3.org/1999/xlink">
    <!-- Generator: sketchtool 56 (101010) - https://sketch.com -->
    <title>8F3996EA-252F-4F0F-98FD-18C3B1EEB7A6</title>
    <desc>Created with sketchtool.</desc>
    <g id="main-pages" stroke="none" stroke-width="1" fill="none" fill-rule="evenodd" stroke-linecap="round" stroke-linejoin="round">
        <g id="PGT-SR-Page" transform="translate(-751.000000, -3560.000000)" stroke-width="3">
            <g id="Group-3" transform="translate(-7.000000, 2902.000000)">
                <g id="ic_reporting" transform="translate(751.000000, 659.000000)">
                    <g id="Group-27" transform="translate(9.000000, 1.000000)">
                        <path d="M14.7681159,43.8405797 L35.4637681,43.8405797" id="Stroke-1" stroke="#222222"></path>
                        <path d="M14.7681159,51.7246377 L35.4637681,51.7246377" id="Stroke-2" stroke="#222222"></path>
                        <path d="M14.7681159,59.6086957 L35.4637681,59.6086957" id="Stroke-3" stroke="#222222"></path>
                        <g id="Group-26">
                            <polygon id="Stroke-4" stroke="#222222" points="21.2136667 0.416786388 44.3256667 0.416786388 44.3256667 5.2743224 21.2136667 5.2743224"></polygon>
                            <path d="M21.2136667,5.2743224 C21.2136667,9.24178478 24.753,12.4579256 29.1176667,12.4579256 L36.4216667,12.4579256 C40.7863333,12.4579256 44.3256667,9.24178478 44.3256667,5.2743224" id="Stroke-6" stroke="#222222"></path>
                            <polyline id="Stroke-8" stroke="#222222" points="59.4015333 73.6078633 7.22153333 73.6078633 7.22153333 6.62815532 16.6835333 6.62815532"></polyline>
                            <polyline id="Stroke-10" stroke="#222222" points="48.8263333 6.62815532 59.4016667 6.62815532 59.4016667 73.6078633"></polyline>
                            <path d="M25.9536,5.2743224 L39.8396,5.2743224" id="Stroke-12" stroke="#222222"></path>
                            <polyline id="Stroke-14" stroke="#222222" points="65.896 79.8881842 65.896 0.41714993 44.326 0.41714993"></polyline>
                            <polyline id="Stroke-16" stroke="#222222" points="21.2136667 0.41708934 0.000333333333 0.41708934 0.000333333333 79.8881236 65.8956667 79.8881236"></polyline>
                            <path d="M28.3045333,21.2876501 C28.3045333,22.6030686 27.5112,24.2923303 26.3365333,25.2539006 L26.3292,25.2539006 C25.7692,25.7198412 25.1158667,26.0100694 24.4158667,26.0100694 C23.7778667,26.0100694 23.1792,25.7695253 22.6498667,25.3738697 C21.3898667,24.4407769 20.5265333,22.6594178 20.5265333,21.2876501 C20.5265333,19.3299728 22.2685333,17.7534094 24.4158667,17.7534094 C26.5625333,17.7534094 28.3045333,19.3299728 28.3045333,21.2876501 Z" id="Stroke-18" stroke="#0BA6BF"></path>
                            <path d="M32.9480667,29.5164385 L32.9480667,33.8141188 L16.2874,33.8141188 L16.2874,29.5164385 C16.2874,28.0174309 17.3920667,26.7026182 18.9867333,26.3215043 L22.6500667,25.3738697 C23.1787333,25.7695253 23.7780667,26.0100694 24.4154,26.0100694 C25.1154,26.0100694 25.7687333,25.7198412 26.3287333,25.2539006 L26.3367333,25.2539006 L30.2414,26.3215043 C31.8360667,26.7026182 32.9480667,28.0174309 32.9480667,29.5164385 Z" id="Stroke-20" stroke="#0BA6BF"></path>
                            <polygon id="Stroke-22" stroke="#0BA6BF" points="44.326 60.2775412 51.2793333 60.2775412 51.2793333 27.5587006 44.326 27.5587006"></polygon>
                            <polyline id="Stroke-24" stroke="#0BA6BF" points="44.3256667 27.5585188 47.8023333 17.753167 51.279 27.5585188"></polyline>
                            <path d="M44.3256667,60.2773594 L44.3256667,64.1284881 C44.3256667,65.8740989 45.8823333,67.2882798 47.8023333,67.2882798 C49.7223333,67.2882798 51.279,65.8740989 51.279,64.1284881 L51.279,60.2773594" id="Stroke-25" stroke="#0BA6BF"></path>
                        </g>
                    </g>
                </g>
            </g>
        </g>
    </g>
</svg>