<?xml version="1.0" encoding="UTF-8"?>
<svg width="84px" height="84px" viewBox="0 0 84 84" version="1.1" xmlns="http://www.w3.org/2000/svg" xmlns:xlink="http://www.w3.org/1999/xlink">
    <!-- Generator: sketchtool 56 (101010) - https://sketch.com -->
    <title>10F9715D-BD40-4B96-B78B-13B8B25A0F44</title>
    <desc>Created with sketchtool.</desc>
    <g id="main-pages" stroke="none" stroke-width="1" fill="none" fill-rule="evenodd">
        <g id="PGT-SR-Page" transform="translate(-744.000000, -3356.000000)" fill-rule="nonzero">
            <g id="Group-3" transform="translate(-7.000000, 2902.000000)">
                <g id="icon_biopsy" transform="translate(751.000000, 454.000000)">
                    <path d="M81.1558017,69.4019481 L79.7101691,69.4019481 L79.7101691,60.8824414 C79.7101691,60.2120623 79.1325883,59.6681698 78.4191855,59.6681698 C77.7057826,59.6681698 77.1282018,60.2120623 77.1282018,60.8824414 L77.1282018,69.4019481 L59.6414254,69.4019481 C59.6414254,68.9383747 59.6414254,47.0821178 59.6414254,46.5850253 C59.6414254,46.0436625 60.1100795,45.6028567 60.685643,45.6028567 L76.0839844,45.6028567 C76.6595479,45.6028567 77.1282018,46.0436625 77.1282018,46.5850253 L77.1282018,55.2158404 C77.1282018,55.8862196 77.7057826,56.4301121 78.4191855,56.4301121 C79.131916,56.4301121 79.7101691,55.8862196 79.7101691,55.2158404 L79.7101691,46.5850253 C79.7101691,44.7041692 78.0836641,43.1743134 76.0839844,43.1743134 L73.6781826,43.1743134 L73.6781826,38.3690863 C73.6781826,33.5815675 71.3967725,29.1222814 67.4202742,26.1346672 L63.5453061,23.2235774 L63.6340613,22.9864149 C64.1403689,21.6418621 63.3926742,20.1682928 61.9631787,19.6920707 L59.9245004,19.0128376 L62.2576844,12.8137279 C62.5138639,12.1332298 62.4728484,11.4002398 62.1420338,10.7488337 C61.9732646,10.414909 61.7372566,10.1246221 61.451492,9.88682728 L63.0806865,5.55908741 L63.1344775,5.57742793 C63.2770236,5.62486045 63.4229316,5.64699549 63.5654777,5.64699549 C64.0973361,5.64699549 64.5949027,5.33583839 64.7824988,4.83748107 C65.0205238,4.20568032 64.6688652,3.5119012 63.9964779,3.28738756 C63.2010438,3.02303042 55.8081455,0.560968238 54.8190637,0.231470611 C54.1466764,0.00822159038 53.4090676,0.338984165 53.1710426,0.971417307 C52.9330174,1.60321806 53.2853484,2.29699717 53.9570633,2.52151098 L54.0027856,2.53668938 L52.4428471,6.68165611 C50.9609055,6.21175841 49.3417969,6.94664564 48.8173348,8.33863095 L45.7115779,16.5918835 C41.4069545,9.84888129 33.5568328,5.32635201 24.6033236,5.32635201 C11.0372375,5.32635201 -1.13686838e-13,15.7077419 -1.13686838e-13,28.4683456 C-1.13686838e-13,40.0912018 9.23658423,49.9596885 21.4847912,51.4244037 C21.539927,51.430728 21.5950627,51.4338902 21.6488537,51.4338902 C22.2896389,51.4338902 22.8457031,50.9861276 22.9284068,50.3726673 C23.0185066,49.7073477 22.5175781,49.0995795 21.8102266,49.0148335 C10.8482967,47.704432 2.58263956,38.8712383 2.58263956,28.4683456 C2.58263956,17.0472354 12.4613537,7.75552767 24.6033236,7.75552767 C36.6995709,7.75552767 46.6246799,16.9991705 46.6246799,28.4683456 C46.6246799,38.7947139 38.4343301,47.6430859 27.5033299,49.0009199 C26.7966508,49.0888282 26.2990842,49.6991261 26.3925461,50.3638134 C26.486008,51.0285006 27.1348617,51.4958686 27.8415408,51.4085929 C30.9405738,51.0234412 33.8452869,50.0969265 36.4548219,48.7403574 C36.7755508,49.4461528 37.3632172,49.9400831 38.0772926,50.1778779 L42.619941,51.690658 C44.0682633,52.1719398 45.6490459,51.4591876 46.1600602,50.101986 L46.6845223,48.7093683 C47.2930328,48.8073954 47.9049053,48.4823247 48.118052,47.9169296 C48.3305264,47.3515343 48.0703125,46.7380742 47.533075,46.4541116 L50.656314,38.1546914 C50.6670721,38.1546914 50.677158,38.1559564 50.6872439,38.1559564 C51.8699731,38.1559564 52.980757,37.4628096 53.3976371,36.3554192 L54.9864881,32.1345605 L57.0244941,32.8131612 C57.7923604,33.0686642 58.6476371,33.0003614 59.3832287,32.5747339 L60.9512359,33.7529567 C62.4520043,34.8799527 63.31266,36.5628572 63.31266,38.3690863 L63.31266,43.1743134 L60.685643,43.1743134 C58.6859631,43.1743134 57.0594582,44.7041692 57.0594582,46.5850253 L57.0594582,56.8348693 C56.9276703,56.8348693 32.6773502,56.8348693 32.3028303,56.8348693 C31.5901,56.8348693 31.0118467,57.3781294 31.0118467,58.0491409 C31.0118467,58.7201524 31.5901,59.2634126 32.3028303,59.2634126 L32.8172068,59.2634126 L32.8172068,62.1618535 C32.8172068,63.6588228 34.1115523,64.8762567 35.703093,64.8762567 L48.6781506,64.8762567 L52.4905865,69.4019481 L31.8920018,69.4019481 C30.3287012,69.4019481 29.0565447,70.5985118 29.0565447,72.0682863 L29.0565447,74.7769975 C29.0565447,76.2474045 30.3287012,77.4433356 31.8920018,77.4433356 L33.9138705,77.4433356 L33.9138705,78.921332 C33.9138705,81.2012534 35.8859824,83.0561798 38.3099385,83.0561798 L74.737865,83.0561798 C77.1618213,83.0561798 79.1339332,81.2012534 79.1339332,78.921332 L79.1339332,77.4433356 L81.1558017,77.4433356 C82.7191022,77.4433356 83.9905868,76.2474045 83.9905868,74.7769975 L83.9905868,72.0682863 C83.9905868,70.5985118 82.7191022,69.4019481 81.1558017,69.4019481 L81.1558017,69.4019481 Z M56.4368277,3.34683619 L60.6466445,4.74894043 L59.0873783,8.89200999 L54.8775615,7.49053814 L56.4368277,3.34683619 Z M43.7260182,49.2912068 C43.6897092,49.3873366 43.5801102,49.4335042 43.4819416,49.40125 L38.939293,47.88847 C38.8391074,47.854951 38.7873336,47.7524968 38.8229701,47.6588969 L38.9823258,47.2345342 C39.3178471,47.0062259 39.6842982,46.7387066 39.9969582,46.5015441 L44.2437564,47.9156646 L43.7260182,49.2912068 Z M45.1050844,45.6262567 L42.166752,44.6478825 C44.3822682,42.5146856 46.1862832,39.9438449 47.378426,37.2174256 C47.8659068,37.3799609 47.6863793,37.3198797 48.1704982,37.4811502 L45.1050844,45.6262567 Z M50.9629226,35.5452724 C50.9098041,35.6869374 50.7437244,35.7615644 50.5924373,35.7116023 C48.7877498,35.1101584 49.1784068,35.2404395 48.2303406,34.9248555 C48.8637295,32.8808316 49.2066471,30.6597264 49.2066471,28.467713 C49.2066471,25.4092663 48.5705686,22.4045764 47.3226178,19.5896166 L51.2520492,9.14941032 C51.3058402,9.00584795 51.4719199,8.9331181 51.6225346,8.98308036 C52.8119877,9.37898359 58.5857775,11.3015803 59.6468045,11.6551103 C59.7960746,11.7044402 59.8781057,11.8593863 59.8236424,12.0035811 C59.5768762,12.6587818 52.0394147,32.6866746 50.9629226,35.5452724 L50.9629226,35.5452724 Z M58.0895555,30.4377423 C58.0545914,30.5180613 57.9651639,30.5503153 57.8864947,30.5237532 L55.8478164,29.8451525 C57.2073834,26.2333268 58.9475217,21.609608 59.0631723,21.302878 L61.1018506,21.9814787 C61.1865715,22.0099382 61.2302766,22.0965816 61.2000193,22.1762681 C61.1892611,22.2047277 58.1023309,30.4099152 58.0895555,30.4377423 Z M62.5629483,31.8550249 L60.7959144,30.5281803 L62.6328766,25.6470612 L65.8085617,28.032599 C69.1691535,30.5566397 71.0962154,34.3240439 71.0962154,38.3690863 L71.0962154,43.1743134 L65.8946273,43.1743134 L65.8946273,38.3690863 C65.8946273,35.8197484 64.6802959,33.4455943 62.5629483,31.8550249 L62.5629483,31.8550249 Z M48.0111424,62.4477135 L35.7024205,62.4477135 C35.5356685,62.4477135 35.399174,62.3193295 35.399174,62.1618535 L35.399174,59.2634126 L48.0111424,59.2634126 L48.0111424,62.4477135 Z M50.593782,63.2388872 L50.593782,59.2634126 L57.0594582,59.2634126 L57.0594582,69.4019481 L55.7846119,69.4019481 L50.593782,63.2388872 Z M76.551966,78.921332 C76.551966,79.8617599 75.7383773,80.6276365 74.737865,80.6276365 L38.3099385,80.6276365 C37.3100986,80.6276365 36.4958377,79.8617599 36.4958377,78.921332 L36.4958377,77.4433356 L76.551966,77.4433356 L76.551966,78.921332 Z M81.4086193,74.7769975 C81.4086193,74.9085436 81.2956582,75.0147923 81.1558017,75.0147923 C80.5641008,75.0147923 32.9826139,75.0147923 31.8920018,75.0147923 C31.7521453,75.0147923 31.6391842,74.9085436 31.6391842,74.7769975 L31.6391842,72.0682863 C31.6391842,71.9373727 31.7521453,71.831124 31.8920018,71.831124 L81.1558017,71.831124 C81.2956582,71.831124 81.4086193,71.9373727 81.4086193,72.0682863 L81.4086193,74.7769975 Z" id="Shape" fill="#000000"></path>
                    <path d="M45.152824,28.4683456 C45.152824,17.8105821 35.9343943,9.13992378 24.6033236,9.13992378 C13.2729252,9.13992378 4.05449548,17.8105821 4.05449548,28.4683456 C4.05449548,39.1254763 13.2729252,47.7961348 24.6033236,47.7961348 C35.9343943,47.7961348 45.152824,39.1254763 45.152824,28.4683456 L45.152824,28.4683456 Z M24.6033236,45.3675915 C14.6963691,45.3675915 6.63646269,37.7866154 6.63646269,28.4683456 C6.63646269,19.1494432 14.6963691,11.568467 24.6033236,11.568467 C34.5109504,11.568467 42.5708568,19.1494432 42.5708568,28.4683456 C42.5708568,37.7866154 34.5109504,45.3675915 24.6033236,45.3675915 Z" id="Shape" fill="#0BA6BF"></path>
                    <path d="M24.3444545,31.986571 C21.2629035,31.986571 18.7562436,34.3442818 18.7562436,37.2427229 C18.7562436,40.1405317 21.2629035,42.4988748 24.3444545,42.4988748 C27.425333,42.4988748 29.9326652,40.1405317 29.9326652,37.2427229 C29.9326652,34.3442818 27.425333,31.986571 24.3444545,31.986571 L24.3444545,31.986571 Z M24.3444545,40.0696991 C22.6863473,40.0696991 21.3382109,38.8016706 21.3382109,37.2420905 C21.3382109,35.6831429 22.6863473,34.4151143 24.3444545,34.4151143 C26.0018891,34.4151143 27.350698,35.6831429 27.350698,37.2420905 C27.350698,38.8016706 26.0018891,40.0696991 24.3444545,40.0696991 Z" id="Shape" fill="#0BA6BF"></path>
                    <path d="M34.7973873,28.7776053 C34.7973873,26.8461544 33.1265049,25.2751905 31.0737065,25.2751905 C29.020908,25.2751905 27.3500256,26.8461544 27.3500256,28.7776053 C27.3500256,30.7084237 29.020908,32.2793876 31.0737065,32.2793876 C33.1265049,32.2793876 34.7973873,30.7084237 34.7973873,28.7776053 Z M31.0737065,29.8508443 C30.444352,29.8508443 29.9326652,29.3689304 29.9326652,28.7776053 C29.9326652,28.1856479 30.444352,27.7037338 31.0737065,27.7037338 C31.703061,27.7037338 32.2147477,28.1856479 32.2147477,28.7776053 C32.2147477,29.3689304 31.703061,29.8508443 31.0737065,29.8508443 Z" id="Shape" fill="#0BA6BF"></path>
                    <path d="M21.2286117,29.8350336 C24.6443391,29.8350336 27.4226434,27.2211873 27.4226434,24.0090594 C27.4226434,20.7962991 24.6436668,18.1830853 21.2286117,18.1830853 C17.8128842,18.1830853 15.0345799,20.7962991 15.0345799,24.0090594 C15.0345799,27.2218198 17.8128842,29.8350336 21.2286117,29.8350336 Z M21.2286117,20.6116286 C23.2202229,20.6116286 24.8406762,22.1357924 24.8406762,24.0090594 C24.8406762,25.8823263 23.2202229,27.4064903 21.2286117,27.4064903 C19.2370004,27.4064903 17.6165471,25.8823263 17.6165471,24.0090594 C17.6165471,22.1357924 19.2370004,20.6116286 21.2286117,20.6116286 Z" id="Shape" fill="#0BA6BF"></path>
                    <path d="M14.0959273,29.698428 C12.2441726,29.698428 10.7373527,31.1157106 10.7373527,32.8574314 C10.7373527,34.5991524 12.2441726,36.016435 14.0959273,36.016435 C15.947682,36.016435 17.4545018,34.5991524 17.4545018,32.8574314 C17.4545018,31.1157106 15.947682,29.698428 14.0959273,29.698428 Z M14.0959273,33.5878917 C13.6676166,33.5878917 13.3193199,33.2602915 13.3193199,32.8574314 C13.3193199,32.4545715 13.6676166,32.1269713 14.0959273,32.1269713 C14.5242379,32.1269713 14.8725346,32.4545715 14.8725346,32.8574314 C14.8725346,33.2602915 14.5242379,33.5878917 14.0959273,33.5878917 Z" id="Shape" fill="#0BA6BF"></path>
                    <path d="M32.9059619,16.123883 C30.6521197,16.123883 28.8178471,17.8485282 28.8178471,19.9690765 C28.8178471,22.0896248 30.6521197,23.8149024 32.9059619,23.8149024 C35.1604764,23.8149024 36.994749,22.0896248 36.994749,19.9690765 C36.994749,17.8485282 35.1604764,16.123883 32.9059619,16.123883 Z M32.9059619,21.3857268 C32.0755635,21.3857268 31.3998143,20.7501313 31.3998143,19.9690765 C31.3998143,19.1880216 32.0755635,18.5524263 32.9059619,18.5524263 C33.7370326,18.5524263 34.4121094,19.1880216 34.4121094,19.9690765 C34.4121094,20.7501313 33.7370326,21.3857268 32.9059619,21.3857268 Z" id="Shape" fill="#0BA6BF"></path>
                    <path d="M33.3107389,33.9243462 L32.4796682,34.7060335 C31.9753779,35.1797259 31.9753779,35.9487646 32.4796682,36.4230896 C32.9846311,36.8974145 33.8015818,36.8967819 34.3051998,36.4230896 L35.1362705,35.6414022 C35.6412334,35.1670774 35.6412334,34.3986711 35.1369428,33.9243462 C34.6326525,33.4500214 33.8150295,33.4500214 33.3107389,33.9243462 Z" id="Path" fill="#0BA6BF"></path>
                </g>
            </g>
        </g>
    </g>
</svg>