<?xml version="1.0" encoding="UTF-8"?>
<svg width="66px" height="57px" viewBox="0 0 66 57" version="1.1" xmlns="http://www.w3.org/2000/svg" xmlns:xlink="http://www.w3.org/1999/xlink">
    <!-- Generator: Sketch 56.2 (81672) - https://sketch.com -->
    <title>icon_pgtp</title>
    <desc>Created with Sketch.</desc>
    <g id="main-pages" stroke="none" stroke-width="1" fill="none" fill-rule="evenodd">
        <g id="Genetic-Counseling-Stage1" transform="translate(-687.000000, -340.000000)">
            <g id="01---pgt-a-intro" transform="translate(-1.000000, 142.000000)">
                <g id="pgt-a" transform="translate(282.000000, 100.000000)">
                    <g id="icon_counseling" transform="translate(397.000000, 85.000000)">
                        <g id="icon_pgtp" opacity="0" stroke="#979797">
                            <rect id="mask" stroke-width="1.13513514" x="0.567567568" y="0.567567568" width="82.8648649" height="82.8648649"></rect>
                        </g>
                        <g id="Group-29" transform="translate(10.000000, 13.000000)" stroke-linecap="round" stroke-linejoin="round">
                            <path d="M39,1 C39,8.92169757 22,8.92169757 22,16.8438096 C22,24.1591744 36.4932649,24.7199182 38.7156258,31" id="Stroke-1" stroke="#0BA6BF" stroke-width="2"></path>
                            <path d="M26,26 C23.4438306,27.4342216 22,28.8047001 22,31.4750019 C22,33.3999693 23.043585,34.8199831 24.5838814,36" id="Stroke-3" stroke="#0BA6BF" stroke-width="2"></path>
                            <path d="M35,11 C37.8310901,12.4070444 40,14.0875084 40,16.6623065 C40,19.0420266 38.1476404,20.6577231 35.6322699,22" id="Stroke-5" stroke="#0BA6BF" stroke-width="2"></path>
                            <path d="M22,1 C22,3.70126939 23.7148948,5.50042313 26,7" id="Stroke-7" stroke="#0BA6BF" stroke-width="2"></path>
                            <path d="M39,1 L22,1" id="Stroke-9" stroke="#0BA6BF" stroke-width="2"></path>
                            <path d="M24,13 L37.5,13" id="Stroke-11" stroke="#0BA6BF" stroke-width="2"></path>
                            <path d="M23,19 L39,19" id="Stroke-13" stroke="#0BA6BF" stroke-width="2"></path>
                            <path d="M37.5,30 L23,30" id="Stroke-15" stroke="#0BA6BF" stroke-width="2"></path>
                            <path d="M28,35 L24,35" id="Stroke-17" stroke="#0BA6BF" stroke-width="2"></path>
                            <path d="M46.1942052,43.9800421 C43.5043505,44.1504328 40.8091127,44.3153541 38.119258,44.4857448 L23.462117,48 C23.2103572,47.4042637 23.0629452,46.7832843 23.0182247,46.1677743 C22.850937,44.0351561 23.841413,41.9075865 25.7383072,40.7762766 C29.7830272,38.3533631 40.7453446,33.8882859 40.7453446,33.8882859 C41.1987607,33.172645 41.8832327,32.1860619 42.8389261,31.1300604 C47.436027,26.0339065 53.3383036,24.7776434 55.0923407,24.4322341 C57.2550733,24.0064678 59.2753629,23.93158 61.0782612,24.0514846 C62.0687373,24.1166958 63.0443065,24.2719407 64,24.5071219" id="Stroke-19" stroke="#2E384D" stroke-width="2"></path>
                            <path d="M20.322674,45.3025716 L10.9841779,41.9694743 C8.74606997,40.8896119 6.07845515,38.8969526 4.11821522,39.0041563 C3.88911756,39.0178502 3.66452808,39.0413255 3.44034843,39.0784947 C2.33338459,39.2553417 1.28994515,39.7303247 0.489947585,40.4983573 C0.280112159,40.6986796 0.109620875,40.8986107 0.0366702777,41.075849 C-0.00718204773,41.1920516 -0.0170180833,41.2988641 0.0366702777,41.3923739 C0.0657685497,41.4573222 0.129292946,41.5085765 0.226833633,41.5551358 L18.0013696,51.6988005 C20.2099695,52.7277999 25.8812637,54.2920354 29.9484644,55.3488139 C30.3431353,55.4513226 30.7189539,55.5487449 31.0796085,55.6422548 C33.2496838,56.200575 35.5463982,56.1027613 37.6578671,55.3672028 L37.7111457,55.3488139 L58.2262471,48.1935512 C60.050012,47.3417901 62.0254159,46.8992813 64,46.8715022" id="Stroke-21" stroke="#2E384D" stroke-width="2"></path>
                            <path d="M3.45039049,38.5378306 L3.443826,38.5378306 L0.714228724,37.2309288 C-0.0792540856,36.8512072 -0.244186914,35.8242695 0.384363068,35.2208984 C0.454110781,35.1521141 0.523858495,35.090168 0.600170699,35.0217859 C1.43796382,34.2808462 2.56828706,33.9449696 3.69163552,34.0073179 C3.92631606,34.0197876 4.16099661,34.031855 4.38336873,34.0507607 C5.08166642,34.1006393 5.75452672,34.2808462 6.38266642,34.5857497 C8.96004957,35.8307055 14.7515715,38.4533587 14.7515715,38.4533587 L22,40" id="Stroke-23" stroke="#2E384D" stroke-width="2"></path>
                            <path d="M7.14402934,35 C6.81996332,34.3381222 7.14402934,33.5777345 7.14402934,33.5777345 C7.14402934,33.5777345 7.90694321,29.4203432 18.3849426,34.6027825 L20,34.9132931" id="Stroke-25" stroke="#2E384D" stroke-width="2"></path>
                            <path d="M14.5,33 C14.7821507,31.9473122 15.0803093,31.4340735 15.9225503,31.203798 C16.6426663,31.0064191 17.7123124,30.8912813 19.1862341,31.1489705" id="Stroke-27" stroke="#2E384D" stroke-width="2"></path>
                        </g>
                    </g>
                </g>
            </g>
        </g>
    </g>
</svg>