<?xml version="1.0" encoding="UTF-8"?>
<svg width="84px" height="84px" viewBox="0 0 84 84" version="1.1" xmlns="http://www.w3.org/2000/svg" xmlns:xlink="http://www.w3.org/1999/xlink">
    <!-- Generator: sketchtool 56 (101010) - https://sketch.com -->
    <title>D6EA8ED0-E41A-4136-AEE0-72E157720B70</title>
    <desc>Created with sketchtool.</desc>
    <g id="main-pages" stroke="none" stroke-width="1" fill="none" fill-rule="evenodd">
        <g id="PGT-SR-Page" transform="translate(-169.000000, -3356.000000)" fill-rule="nonzero">
            <g id="Group-3" transform="translate(-7.000000, 2902.000000)">
                <g id="icon_ivf" transform="translate(176.000000, 454.000000)">
                    <g id="Group">
                        <path d="M45.50175,0 C24.2376094,0 7.000875,17.2367344 7.000875,38.4995625 C7.000875,49.7903437 11.8612266,59.9469609 19.6054688,66.9913125 C19.3644609,67.9783125 18.9543047,68.798625 17.8801875,69.7034297 C16.5087891,70.8620391 14.8141875,71.2005 12.8531484,71.5901484 C8.9079375,72.3796172 3.99885937,73.3589063 0.166523437,81.5057578 C0.0615234375,81.7313438 0,81.9825234 0,82.249125 C0,83.2180781 0.784382812,84 1.750875,84 C2.45076563,84 3.05320313,83.5872187 3.33260156,82.9924922 C6.41385938,76.4454141 9.87459375,75.7532344 13.5377813,75.0252891 C15.7705078,74.5792031 18.0777187,74.1178594 20.1386719,72.3797812 C21.33075,71.3722734 22.0381875,70.3598437 22.4842734,69.3651328 C28.9058437,74.158875 36.8705859,76.999125 45.50175,76.999125 C66.7632656,76.999125 84,59.7623906 84,38.4995625 C84,17.2367344 66.7632656,0 45.50175,0 Z M70.2495937,63.2487187 C67.0349531,66.4633594 63.2923594,68.9882812 59.1241875,70.7494922 C54.8122969,72.5745234 50.2287187,73.5 45.50175,73.5 C40.7747812,73.5 36.1912031,72.5745234 31.8794766,70.7493281 C28.8083906,69.45225 25.9681406,67.7397656 23.3994141,65.6402578 C23.6916094,63.8611641 24.1685391,61.9949531 26.7728672,59.5725703 C27.6419062,60.0083203 28.6417031,60.2211094 29.7081094,60.2211094 C32.4100547,60.2211094 35.5425,58.8547969 38.0907187,56.3118281 C42.2205,52.1794219 43.2432656,46.5040078 40.3697109,43.6302891 C39.27,42.5279531 37.7548828,41.9998359 36.0732422,41.9998359 C33.3712969,41.9998359 30.2362266,43.3661484 27.6906328,45.9117422 C24.2069297,49.3954453 22.9328203,53.9790234 24.3452344,57.0525703 C21.979125,59.2647891 20.9537344,61.2002344 20.4256172,62.9151797 C17.3673281,59.7723984 14.9526563,56.1476016 13.2505078,52.1229844 C11.4254766,47.8114219 10.5,43.2278437 10.5,38.4995625 C10.5,33.7737422 11.4254766,29.1903281 13.2506719,24.8772891 C15.0117187,20.7104297 17.5368047,16.9663594 20.7514453,13.7518828 C23.9685469,10.5359297 27.7113047,8.01232031 31.8794766,6.24864844 C36.1912031,4.42476562 40.7747812,3.50060156 45.50175,3.50060156 C50.2287187,3.50060156 54.8122969,4.42476562 59.1240234,6.24864844 C63.2921953,8.01232031 67.0349531,10.5360937 70.2494297,13.7518828 C73.4640703,16.9665234 75.9889922,20.7104297 77.7526641,24.8772891 C79.5752344,29.1903281 80.5007109,33.7739062 80.5007109,38.4995625 C80.5007109,43.2278437 79.5752344,47.8114219 77.7526641,52.1231484 C75.9891562,56.2913203 73.4640703,60.0340781 70.2495937,63.2487187 Z M27.3675938,53.3434453 C27.670125,51.6695156 28.6902656,49.8622031 30.1668281,48.3856406 C31.9459219,46.6065469 34.2094922,45.499125 36.0730781,45.499125 L36.0730781,45.499125 C36.6294141,45.499125 37.39575,45.60675 37.8956484,46.1041875 C38.6723203,46.8808594 38.5159688,48.3036094 38.4109688,48.8778281 C38.1110625,50.5543828 37.0907578,52.3590703 35.6141953,53.8356328 C33.8351016,55.6147266 31.5715313,56.7221484 29.7079453,56.7221484 C29.1516094,56.7221484 28.3852734,56.6169844 27.885375,56.1170859 C27.1087031,55.34025 27.2652188,53.9176641 27.3675938,53.3434453 Z" id="Shape" fill="#222222"></path>
                        <path d="M60.2468672,15.5308125 C54.8583984,15.5308125 50.4902344,19.8989766 50.4902344,25.2861328 C50.4902344,30.6746016 54.8583984,35.0414531 60.2468672,35.0414531 C65.6327109,35.0414531 70.000875,30.6746016 70.000875,25.2861328 C70.000875,19.8989766 65.6327109,15.5308125 60.2468672,15.5308125 Z M60.2468672,31.5423281 C56.7964688,31.5423281 53.9919844,28.7353828 53.9919844,25.2861328 C53.9919844,21.8368828 56.7964688,19.03125 60.2468672,19.03125 C63.6948047,19.03125 66.50175,21.8370469 66.50175,25.2861328 C66.50175,28.7352187 63.6946406,31.5423281 60.2468672,31.5423281 Z" id="Shape" fill="#0BA6BF"></path>
                    </g>
                </g>
            </g>
        </g>
    </g>
</svg>