<?xml version="1.0" encoding="UTF-8"?>
<svg width="68px" height="85px" viewBox="0 0 68 85" version="1.1" xmlns="http://www.w3.org/2000/svg" xmlns:xlink="http://www.w3.org/1999/xlink">
    <!-- Generator: sketchtool 56 (101010) - https://sketch.com -->
    <title>5AA97065-20E7-4B8F-B814-3C27DC8B387C</title>
    <desc>Created with sketchtool.</desc>
    <g id="main-pages" stroke="none" stroke-width="1" fill="none" fill-rule="evenodd" stroke-linecap="round" stroke-linejoin="round">
        <g id="PGT-SR-Page" transform="translate(-178.000000, -3151.000000)">
            <g id="Group-3" transform="translate(-7.000000, 2902.000000)">
                <g id="review-reports" transform="translate(177.000000, 250.000000)">
                    <g id="Group-16" transform="translate(10.000000, 1.000000)">
                        <g id="Group-37" stroke="#222222" stroke-width="2.5">
                            <polyline id="Stroke-1" points="39.1777778 4.55555556 39.1777778 0 19.1333333 0 19.1333333 4.55555556"></polyline>
                            <path d="M19.1333333,4.55555556 C19.1333333,8.07782956 22.2025819,10.9333333 25.9882734,10.9333333 L32.3228377,10.9333333 C36.1079593,10.9333333 39.1777778,8.07782956 39.1777778,4.55555556" id="Stroke-3"></path>
                            <polyline id="Stroke-5" points="51.9333333 70.1555556 6.37777778 70.1555556 6.37777778 22.3987413 6.37777778 6.37777778 14.6382293 6.37777778"></polyline>
                            <polyline id="Stroke-7" points="42.8222222 6.37777778 51.9333333 6.37777778 51.9333333 70.1555556"></polyline>
                            <path d="M23.6888889,5.01111111 L35.5333333,5.01111111" id="Stroke-9"></path>
                            <polyline id="Stroke-11" points="58.3111111 76.5333333 58.3111111 0.911111111 39.1777778 0.911111111"></polyline>
                            <polyline id="Stroke-13" points="18.7719348 0.911111111 0 0.911111111 0 76.5333333 58.3111111 76.5333333"></polyline>
                        </g>
                        <g id="Group-37-Copy" transform="translate(8.200000, 5.466667)" stroke="#222222" stroke-width="2.5">
                            <polyline id="Stroke-5" points="29.6888889 45.1888889 20.7728125 45.1888889 11.4666667 45.1888889"></polyline>
                            <polyline id="Stroke-5-Copy" points="29.6888889 51.5666667 20.7728125 51.5666667 11.4666667 51.5666667"></polyline>
                            <polyline id="Stroke-5-Copy-2" points="29.6888889 57.9444444 20.7728125 57.9444444 11.4666667 57.9444444"></polyline>
                            <polyline id="Stroke-7" points="50.8 0 56.4888889 0 56.4888889 76.0777778 0.272974162 76.0777778 0.272974162 72.1988607"></polyline>
                        </g>
                        <path d="M31.5111111,43.7333333 L26.0444444,43.7333333 L26.0444444,39.1777778 L31.5111111,39.1777778 L31.5111111,41.9546029 L31.5111111,43.7333333 Z M29.0505541,35.5333333 L26.3365659,35.5333333 C26.349118,33.825437 26.6045265,32.5657308 27.1022456,31.7563365 C27.599419,30.9464117 28.5588381,29.950846 29.9810487,28.7701699 C30.7172583,28.0541263 31.3050253,27.2723129 31.7448955,26.4247296 C32.1831284,25.5771462 32.404155,24.6065095 32.404155,23.5144105 C32.404155,22.3337344 32.154204,21.4012866 31.6575763,20.7165369 C31.1598572,20.0317871 30.4525721,19.6896774 29.5351753,19.6896774 C28.8109722,19.6896774 28.1877318,19.9851117 27.6638169,20.5754498 C27.1409935,21.1657879 26.8664839,22.0139016 26.8402882,23.1187302 L21.5291011,23.1187302 L21.4903533,23.0057545 C21.4516054,20.5568857 22.1818118,18.6914598 23.6809724,17.4105375 C25.1795872,16.1290848 27.1311701,15.4888889 29.5351753,15.4888889 C32.1318284,15.4888889 34.1745507,16.2049324 35.6606134,17.636489 C37.1461304,19.0680456 37.8888889,21.0151535 37.8888889,23.476752 C37.8888889,25.0589429 37.4724857,26.5223237 36.6385879,27.8658334 C35.8052358,29.2098736 34.7557688,30.3465264 33.4890954,31.2763221 C32.8041859,31.8539305 32.3517635,32.447451 32.1318284,33.0558228 C31.9124391,33.6652554 31.8027444,34.4910922 31.8027444,35.5333333" id="Stroke-1" stroke="#0BA6BF" stroke-width="2"></path>
                    </g>
                </g>
            </g>
        </g>
    </g>
</svg>