<?xml version="1.0" encoding="UTF-8"?>
<svg width="248px" height="110px" viewBox="0 0 248 110" version="1.1" xmlns="http://www.w3.org/2000/svg" xmlns:xlink="http://www.w3.org/1999/xlink">
    <!-- Generator: Sketch 57.1 (83088) - https://sketch.com -->
    <title>img_gpcl_404</title>
    <desc>Created with Sketch.</desc>
    <g id="special" stroke="none" stroke-width="1" fill="none" fill-rule="evenodd">
        <g id="404" transform="translate(-598.000000, -230.000000)">
            <g id="img_gpcl_404" transform="translate(598.000000, 230.000000)">
                <path d="M50.6,109.05 L50.6,82.35 L0.65,82.35 L0.65,73.35 L53.9,4.35 L60.8,4.35 L60.8,73.05 L74,73.05 L74,82.35 L60.8,82.35 L60.8,109.05 L50.6,109.05 Z M11.45,73.05 L51.65,73.05 L51.65,20.4 L11.45,73.05 Z M162.65,46.05 C162.65,52.650033 161.70001,58.7249722 159.8,64.275 C157.899991,69.8250277 155.275017,74.6249797 151.925,78.675 C148.574983,82.7250202 144.600023,85.8749887 140,88.125 C135.399977,90.3750112 130.400027,91.5 125,91.5 C119.599973,91.5 114.600023,90.3750112 110,88.125 C105.399977,85.8749887 101.425017,82.7250202 98.075,78.675 C94.7249833,74.6249797 92.1000095,69.8250277 90.2,64.275 C88.2999905,58.7249722 87.35,52.650033 87.35,46.05 C87.35,39.449967 88.2999905,33.3750277 90.2,27.825 C92.1000095,22.2749722 94.7249833,17.4750202 98.075,13.425 C101.425017,9.37497975 105.399977,6.2000115 110,3.9 C114.600023,1.5999885 119.599973,0.45 125,0.45 C130.400027,0.45 135.399977,1.5999885 140,3.9 C144.600023,6.2000115 148.574983,9.37497975 151.925,13.425 C155.275017,17.4750202 157.899991,22.2749722 159.8,27.825 C161.70001,33.3750277 162.65,39.449967 162.65,46.05 Z M152.3,46.05 C152.3,40.649973 151.625007,35.750022 150.275,31.35 C148.924993,26.949978 147.050012,23.1750157 144.65,20.025 C142.249988,16.8749842 139.375017,14.4250087 136.025,12.675 C132.674983,10.9249912 129.00002,10.05 125,10.05 C120.89998,10.05 117.175017,10.9249912 113.825,12.675 C110.474983,14.4250087 107.600012,16.8749842 105.2,20.025 C102.799988,23.1750157 100.925007,26.949978 99.575,31.35 C98.2249933,35.750022 97.55,40.649973 97.55,46.05 C97.55,51.450027 98.2249933,56.349978 99.575,60.75 C100.925007,65.150022 102.799988,68.9249842 105.2,72.075 C107.600012,75.2250157 110.474983,77.6499915 113.825,79.35 C117.175017,81.05 120.89998,81.9 125,81.9 C129.00002,81.9 132.674983,81.05 136.025,79.35 C139.375017,77.6499915 142.249988,75.2250157 144.65,72.075 C147.050012,68.9249842 148.924993,65.150022 150.275,60.75 C151.625007,56.349978 152.3,51.450027 152.3,46.05 Z M224.3,109.05 L224.3,82.35 L174.35,82.35 L174.35,73.35 L227.6,4.35 L234.5,4.35 L234.5,73.05 L247.7,73.05 L247.7,82.35 L234.5,82.35 L234.5,109.05 L224.3,109.05 Z M185.15,73.05 L225.35,73.05 L225.35,20.4 L185.15,73.05 Z" id="404" fill="#0BA6BF" fill-rule="nonzero"></path>
                <g id="icon_notfound" transform="translate(110.000000, 28.000000)">
                    <path d="M12.4197087,13.0397379 C10.9426074,13.0397379 9.7518829,11.8723113 9.7518829,10.4568066 C9.7518829,9.04130185 10.9576799,7.87387528 12.4197087,7.87387528 C13.8817375,7.87387528 15.0875344,9.02670902 15.0875344,10.4568066 C15.0875344,11.8869041 13.8968099,13.0397379 12.4197087,13.0397379 L12.4197087,13.0397379 Z M16.639998,6.39999924 L12.4197087,6.39999924 C10.1588394,6.39999924 8.31999901,8.28247458 8.31999901,10.4713994 C8.31999901,12.6603242 10.2040568,14.4844282 12.4649261,14.4844282 C12.4799985,14.4844282 14.9368098,14.4260569 14.9066649,15.7540046 C14.8915924,16.5857961 12.1785493,18.2931574 12.1785493,18.2931574 L12.1785493,19.8399976 C12.1785493,19.8399976 16.1426068,17.6218872 16.5194183,15.8707473 C16.8660849,14.2947214 15.268404,13.7839723 14.9970997,13.6526368 C15.9315923,12.9229952 16.5194183,11.6826045 16.5194183,10.4422137 C16.5194183,9.42071549 16.1124618,8.67648105 15.464346,7.66957563 L16.639998,7.66957563 L16.639998,6.39999924 L16.639998,6.39999924 Z" id="Shape" fill="#0BA6BF" fill-rule="nonzero"></path>
                    <path d="M8.69703338,24.9720408 C11.1718982,25.9041442 13.9200281,26.1095983 16.5985022,25.4407607 C17.2158789,25.2848172 17.8305765,25.0879608 18.4366415,24.8383326 C23.6081386,22.7265728 26.7286591,17.731044 26.7026274,12.4784752 C26.6965103,10.8268378 26.3788917,9.14169915 25.7079337,7.51792993 C25.0173291,5.84376072 24.0254781,4.38542207 22.8097759,3.18175162" id="Stroke-25" stroke="#222222" stroke-width="1.27999985" stroke-linecap="round" stroke-linejoin="round"></path>
                    <path d="M1.04221755,17.5909617 C0.673994338,16.6935453 0.414719951,15.7783407 0.253380435,14.8598749 C-0.0761451072,13.001894 0.00422697624,11.1335366 0.449547853,9.36271794 C0.768952466,8.08789457 1.27738031,6.8622853 1.95399419,5.73421485 C2.22041276,5.28328313 2.51838482,4.84332083 2.84106385,4.42796559 C4.20173345,2.67819639 6.01814254,1.23942479 8.20991902,0.324220197" id="Stroke-27" stroke="#222222" stroke-width="1.27999985" stroke-linecap="round" stroke-linejoin="round"></path>
                    <path d="M17.0509375,21.476653 C12.4485939,23.358648 7.23661309,21.4496741 4.89480872,17.2039194 C4.71977618,16.8878818 4.56409248,16.5602818 4.42150645,16.2160795 C4.28487391,15.8795854 4.16669718,15.5419054 4.07025068,15.2033361 C3.55021353,13.4007951 3.58504143,11.5493365 4.08989719,9.84374141 C4.33399018,9.01362387 4.68971107,8.2178969 5.14664125,7.48146405 C6.09175741,5.95760541 7.47296655,4.68070674 9.19620355,3.86126213 C9.36438958,3.78417978 9.53585003,3.70739391 9.7070128,3.6380198 C9.82489185,3.58732334 9.93860347,3.5434457 10.0549942,3.50697982 C14.9124447,1.72370944 20.3548255,4.0880621 22.3367415,8.89503565 C24.362118,13.8223762 21.9985834,19.4562062 17.0509375,21.476653 Z" id="Stroke-29" stroke="#222222" stroke-width="1.27999985" stroke-linecap="round" stroke-linejoin="round"></path>
                    <path d="M19.3698507,26.8953342 L18.5232648,24.9072027" id="Stroke-31" stroke="#222222" stroke-width="0.893023149" stroke-linecap="round" stroke-linejoin="round"></path>
                    <path d="M23.6394539,39.7680856 C22.7636959,40.0944997 21.7882169,39.6515727 21.4607751,38.7793563 L17.2873803,27.6682329 L21.5250728,26.0892308 L25.6984676,37.2006506 C26.0262071,38.0725705 25.5817793,39.044401 24.7060212,39.3705186 L23.6394539,39.7680856" id="Stroke-33" stroke="#222222" stroke-width="1.27999985" stroke-linecap="round" stroke-linejoin="round"></path>
                </g>
            </g>
        </g>
    </g>
</svg>