<?xml version="1.0" encoding="UTF-8"?>
<svg width="813px" height="808px" viewBox="0 0 813 808" version="1.1" xmlns="http://www.w3.org/2000/svg" xmlns:xlink="http://www.w3.org/1999/xlink">
    <!-- Generator: sketchtool 55.2 (78181) - https://sketchapp.com -->
    <title>1D2EBBEE-147D-4A53-B56D-647BF6E6FEF8</title>
    <desc>Created with sketchtool.</desc>
    <defs>
        <polygon id="path-1" points="0.140613688 0.416248963 156.0442 0.416248963 156.0442 72.6818672 0.140613688 72.6818672"></polygon>
        <polygon id="path-3" points="0 0.931393956 48.5214214 0.931393956 48.5214214 63.1991491 0 63.1991491"></polygon>
    </defs>
    <g id="main-pages" stroke="none" stroke-width="1" fill="none" fill-rule="evenodd" opacity="0.0399879107">
        <g id="gpcl_provider" transform="translate(-316.000000, -555.000000)">
            <g id="bg" transform="translate(0.000000, 141.000000)">
                <g id="big_icon_g" transform="translate(316.000000, 414.000000)">
                    <path d="M162.918755,143 C170.938673,135.625756 179.329489,128.668579 188,122.031759 L160.079254,84 C149.651536,91.9061572 139.625118,100.320049 130,109.175187 L162.918755,143 Z" id="Fill-3" fill="#0BA6BF"></path>
                    <path d="M201.623453,111 C210.451878,104.923923 219.58743,99.2235016 229,93.940475 L206.850651,53 C195.541115,59.320551 184.574838,66.1539015 174,73.4821631 L201.623453,111 Z" id="Fill-5" fill="#0BA6BF"></path>
                    <path d="M121.337449,188 C130.535516,176.232718 140.414922,165.015253 151,154.473107 L118.064591,121 C105.502415,133.448577 93.8344963,146.686023 83,160.622692 L121.337449,188 Z" id="Fill-7" fill="#0BA6BF"></path>
                    <path d="M49.6068718,363 C51.7095278,344.710357 55.2179595,326.822881 60,309.475632 L15.1893971,296 C9.52424115,316.324494 5.409043,337.261244 3,358.738219 L49.6068718,363 Z" id="Fill-9" fill="#0BA6BF"></path>
                    <path d="M91.0827127,233 C97.1587613,222.089369 103.848491,211.561777 111,201.417225 L72.7391219,174 C64.1658173,186.077703 56.1818895,198.598296 49,211.627612 L91.0827127,233 Z" id="Fill-11" fill="#0BA6BF"></path>
                    <path d="M64.8138759,293 C69.8992662,277.62049 75.9332889,262.676643 83,248.31766 L41.4462975,227 C33.1007338,243.901347 25.9439626,261.483045 20,279.607831 L64.8138759,293 Z" id="Fill-13" fill="#0BA6BF"></path>
                    <path d="M244.364118,86 C271.475824,72.4789308 300.526686,62.2022013 331,55.7553459 L322.118789,10 C286.867492,17.3789308 253.275724,29.2927673 222,44.9886792 L244.364118,86 Z" id="Fill-15" fill="#0BA6BF"></path>
                    <path d="M687.527415,626 C668.205802,650.278959 645.89121,672.077518 621,690.641296 L648.123876,729 C676.937337,707.617859 702.775921,682.451749 725,654.32847 L687.527415,626 Z" id="Fill-17" fill="#0BA6BF"></path>
                    <path d="M339,7.0897964 L347.782069,53 C360.315002,50.9412734 373.040286,49.500765 386,48.7685065 L384.443151,2 C369.042972,2.82829234 353.913288,4.58691303 339,7.0897964" id="Fill-19" fill="#0BA6BF"></path>
                    <path d="M765.690772,404.559142 C765.690772,440.641297 760.175007,475.464145 750,508.314077 L794.970495,523 C806.682384,485.5446 813,445.756484 813,404.559142 C813,404.031433 812.969627,403.533706 812.969627,403 L765.690772,404.18135 L765.690772,404.559142" id="Fill-21" fill="#0BA6BF"></path>
                    <path d="M788.068461,267 L744,283.880532 C755.838474,316.345402 763.033696,350.982597 764.785523,387 L812,385.823824 C810.06026,344.273591 801.786058,304.379607 788.068461,267" id="Fill-23" fill="#0BA6BF"></path>
                    <path d="M677,170.547215 C702.292677,199.36138 723.042231,232.182017 738.050873,268 L782,251.139179 C764.843809,209.873114 740.966699,172.078925 711.778187,139 L677,170.547215 Z" id="Fill-25" fill="#0BA6BF"></path>
                    <path d="M554,80.0158211 C595.967415,98.8952537 633.590025,125.510093 665.1202,158 L700,126.506274 C663.918703,89.1074741 620.719451,58.5499182 572.471488,37 L554,80.0158211 Z" id="Fill-27" fill="#0BA6BF"></path>
                    <path d="M529,789.241146 L513.842424,745 C487.393939,753.201471 459.654545,758.373137 431,760.287014 L433.084848,807 C466.29697,804.852139 498.436364,798.828527 529,789.241146" id="Fill-29" fill="#0BA6BF"></path>
                    <path d="M744.475645,525 C733.105162,556.559971 717.374388,586.055159 698,612.789299 L735.429848,641 C757.827531,610.202318 775.979351,576.175411 789,539.705578 L744.475645,525 Z" id="Fill-31" fill="#0BA6BF"></path>
                    <path d="M606.798605,700 C583.060854,715.85138 557.298111,728.976154 530,738.878035 L545.117931,783 C576.77431,771.60925 606.580994,756.427563 634,737.999063 L606.798605,700 Z" id="Fill-33" fill="#0BA6BF"></path>
                    <g id="Group-37" transform="translate(401.000000, 0.000000)">
                        <mask id="mask-2" fill="white">
                            <use xlink:href="#path-1"></use>
                        </mask>
                        <g id="Clip-36"></g>
                        <path d="M1.67395249,47.4375519 C2.75274421,47.4375519 3.79517216,47.3532033 4.87396389,47.3532033 C51.7347369,47.3532033 96.4803509,56.4146473 137.559285,72.6818672 L156.0442,29.4893859 C109.268275,10.8001577 58.2862754,0.413236515 4.87396389,0.413236515 C3.27395819,0.413236515 1.70425562,0.527709544 0.140613688,0.563858921 L1.67395249,47.4375519 Z" id="Fill-35" fill="#0BA6BF" mask="url(#mask-2)"></path>
                    </g>
                    <g id="Group-40" transform="translate(0.000000, 375.000000)">
                        <mask id="mask-4" fill="white">
                            <use xlink:href="#path-3"></use>
                        </mask>
                        <g id="Clip-39"></g>
                        <path d="M47.2297485,29.3434309 C47.2297485,21.2231225 47.5996642,13.2173544 48.1515057,5.21158624 L1.10550225,0.931393956 C0.432376907,10.3538454 -0.00424493457,19.7762969 -0.00424493457,29.3434309 C-0.00424493457,40.7492391 0.583981714,52.0284501 1.5360599,63.1991491 L48.5214214,58.2618569 C47.7209481,48.7188366 47.2297485,39.0914182 47.2297485,29.3434309" id="Fill-38" fill="#0BA6BF" mask="url(#mask-4)"></path>
                    </g>
                    <path d="M413.907823,760.722794 C411.445725,760.783251 408.983626,760.904165 406.491207,760.904165 C382.494845,760.904165 359.013948,758.497985 336.309278,754 L326,800.007613 C352.027896,805.218988 378.953305,808 406.491207,808 C409.693147,808 412.834445,807.824675 416,807.764219 L413.907823,760.722794 Z" id="Fill-41" fill="#0BA6BF"></path>
                    <path d="M63,510.928803 C56.8190955,491.289301 52.4170854,470.939574 49.6914573,450 L3,454.923418 C6.06331658,479.341886 11.2613065,503.116338 18.5457286,526 L63,510.928803 Z" id="Fill-43" fill="#0BA6BF"></path>
                    <path d="M98,586.993969 C86.7151211,568.049457 77.0415088,547.983112 69.351919,527 L25,542.102533 C33.9100642,566.60193 45.1047603,589.979493 58.3436007,612 L98,586.993969 Z" id="Fill-45" fill="#0BA6BF"></path>
                    <path d="M226,713.107067 C203.23368,699.996904 182.005298,684.540081 162.775024,667 L130,700.493773 C152.26982,720.913301 176.876821,738.860456 203.330558,754 L226,713.107067 Z" id="Fill-47" fill="#0BA6BF"></path>
                    <path d="M151,654.345259 C134.706031,638.007597 119.987329,620.16776 107.087177,601 L67,625.876027 C81.9376584,648.222391 99.0344653,669.066579 118.071465,688 L151,654.345259 Z" id="Fill-49" fill="#0BA6BF"></path>
                    <path d="M320,750.4 C292.485935,743.608 266.268218,733.672 241.686079,721 L219,761.986 C247.434835,776.71 277.832364,788.242 309.701913,796 L320,750.4 Z" id="Fill-51" fill="#0BA6BF"></path>
                </g>
            </g>
        </g>
    </g>
</svg>