<?xml version="1.0" encoding="UTF-8"?>
<svg width="118px" height="30px" viewBox="0 0 118 30" version="1.1" xmlns="http://www.w3.org/2000/svg" xmlns:xlink="http://www.w3.org/1999/xlink">
    <!-- Generator: Sketch 58 (84663) - https://sketch.com -->
    <title>GP</title>
    <desc>Created with Sketch.</desc>
    <defs>
        <polygon id="path-1" points="2.47933884e-05 0 29.9147107 0 29.9147107 29.879876 2.47933884e-05 29.879876"></polygon>
    </defs>
    <g id="Main-pages" stroke="none" stroke-width="1" fill="none" fill-rule="evenodd">
        <g id="Tablet-pgta-&lt;768px" transform="translate(-620.000000, -6.000000)">
            <g id="GP" transform="translate(620.000000, 6.000000)">
                <path d="M36.2742027,16.0010678 L37.2843701,16.1238655 C37.1250597,16.7040428 36.8299779,17.1542963 36.3991159,17.4746396 C35.9682538,17.7949829 35.4179172,17.9551522 34.7480897,17.9551522 C33.904469,17.9551522 33.2355566,17.6997712 32.7413325,17.1890016 C32.2471084,16.678232 32,15.9619195 32,15.0400427 C32,14.0861316 32.2498238,13.3457937 32.749479,12.819007 C33.2491342,12.2922202 33.8972279,12.0288308 34.6937796,12.0288308 C35.4649865,12.0288308 36.094977,12.2868812 36.5837701,12.8029899 C37.0725632,13.3190985 37.3169562,14.0451991 37.3169562,14.9813134 C37.3169562,15.0382633 37.3151459,15.123687 37.3115251,15.2375867 L33.0101674,15.2375867 C33.0463742,15.8604765 33.2255957,16.3374249 33.5478371,16.6684463 C33.8700784,16.9994678 34.271969,17.164976 34.7535207,17.164976 C35.111969,17.164976 35.4179127,17.0724338 35.6713609,16.8873465 C35.9248091,16.7022593 36.1257545,16.406836 36.2742027,16.0010678 Z M33.0644774,14.4474106 L36.2850647,14.4474106 C36.2416165,13.970455 36.1185148,13.6127437 35.9157562,13.3742659 C35.604377,13.0040915 35.2006761,12.819007 34.7046416,12.819007 C34.2556761,12.819007 33.8782248,12.9667185 33.5722766,13.2621463 C33.2663283,13.557574 33.0970636,13.9526582 33.0644774,14.4474106 Z M38.5117777,17.8270155 L38.5117777,12.1569674 L39.3916009,12.1569674 L39.3916009,12.9631607 C39.8152216,12.340271 40.4271089,12.0288308 41.2272813,12.0288308 C41.5748675,12.0288308 41.8943886,12.090229 42.1858541,12.2130272 C42.4773197,12.3358255 42.6954629,12.4968845 42.8402905,12.6962093 C42.9851181,12.895534 43.0864959,13.1322285 43.1444268,13.4063 C43.1806338,13.5842685 43.198737,13.8957088 43.198737,14.34063 L43.198737,17.8270155 L42.2211556,17.8270155 L42.2211556,14.3780032 C42.2211556,13.9864726 42.183139,13.6937187 42.1071045,13.499733 C42.03107,13.3057474 41.8962014,13.1509171 41.7024945,13.0352376 C41.5087875,12.919558 41.2815927,12.8617191 41.020903,12.8617191 C40.6045237,12.8617191 40.2451757,12.9916343 39.9428481,13.2514683 C39.6405206,13.5113022 39.489359,14.0042676 39.489359,14.730379 L39.489359,17.8270155 L38.5117777,17.8270155 Z M44.3338175,14.9919915 C44.3338175,13.9419773 44.6307096,13.1642666 45.2245027,12.6588361 C45.7205371,12.2388304 46.3251832,12.0288308 47.0384591,12.0288308 C47.8313901,12.0288308 48.4794839,12.2842117 48.9827597,12.7949813 C49.4860355,13.3057509 49.7376698,14.0113854 49.7376698,14.911906 C49.7376698,15.6415768 49.6263352,16.2155167 49.4036628,16.6337427 C49.1809904,17.0519687 48.8569435,17.3767562 48.4315125,17.6081154 C48.0060815,17.8394744 47.5417349,17.9551522 47.0384591,17.9551522 C46.2310453,17.9551522 45.5784259,17.700661 45.080581,17.1916711 C44.5827361,16.6826812 44.3338175,15.949462 44.3338175,14.9919915 Z M45.3385539,14.9919915 C45.3385539,15.7181029 45.4996721,16.2617885 45.8219135,16.6230646 C46.1441548,16.9843406 46.5496661,17.164976 47.0384591,17.164976 C47.5236315,17.164976 47.9273324,16.9834509 48.2495738,16.6203951 C48.5718152,16.2573394 48.7329334,15.7038656 48.7329334,14.9599573 C48.7329334,14.2587613 48.57091,13.7275334 48.2468582,13.3662573 C47.9228065,13.0049813 47.5200109,12.824346 47.0384591,12.824346 C46.5496661,12.824346 46.1441548,13.0040915 45.8219135,13.3635878 C45.4996721,13.7230841 45.3385539,14.26588 45.3385539,14.9919915 Z M50.8836123,17.8270155 L50.8836123,12.1569674 L51.7580045,12.1569674 L51.7580045,12.9524827 C51.9390389,12.6748518 52.1798112,12.4515046 52.4803284,12.2824346 C52.7808457,12.1133645 53.1229956,12.0288308 53.5067888,12.0288308 C53.9340302,12.0288308 54.2843265,12.116034 54.5576887,12.2904431 C54.8310507,12.4648523 55.0238495,12.7086655 55.1360909,13.02189 C55.5922978,12.3598472 56.186082,12.0288308 56.9174613,12.0288308 C57.4895303,12.0288308 57.9294375,12.1845509 58.2371961,12.4959957 C58.5449547,12.8074406 58.6988317,13.2870585 58.6988317,13.9348639 L58.6988317,17.8270155 L57.7266814,17.8270155 L57.7266814,14.2552056 C57.7266814,13.8707935 57.6950008,13.5940567 57.6316388,13.4249867 C57.5682768,13.2559166 57.4533215,13.1197727 57.2867698,13.016551 C57.1202181,12.9133293 56.9247038,12.8617191 56.700221,12.8617191 C56.2947038,12.8617191 55.9579848,12.9943037 55.6900537,13.2594768 C55.4221227,13.5246499 55.2881591,13.9490983 55.2881591,14.532835 L55.2881591,17.8270155 L54.3105779,17.8270155 L54.3105779,14.143086 C54.3105779,13.7159616 54.2309239,13.395623 54.0716135,13.1820609 C53.9123031,12.9684987 53.6516174,12.8617191 53.2895485,12.8617191 C53.014376,12.8617191 52.7600264,12.9329055 52.526492,13.0752802 C52.2929574,13.2176551 52.1236928,13.4258751 52.0186928,13.6999466 C51.9136927,13.974018 51.8611935,14.3691022 51.8611935,14.8852109 L51.8611935,17.8270155 L50.8836123,17.8270155 Z M60.1543417,11.1051789 L60.1543417,10 L61.1319229,10 L61.1319229,11.1051789 L60.1543417,11.1051789 Z M60.1543417,17.8270155 L60.1543417,12.1569674 L61.1319229,12.1569674 L61.1319229,17.8270155 L60.1543417,17.8270155 Z M66.383707,15.7501335 L67.3449953,15.8729311 C67.2399953,16.5242959 66.9711631,17.0341679 66.5384907,17.4025627 C66.1058183,17.7709576 65.5744901,17.9551522 64.9444901,17.9551522 C64.1551798,17.9551522 63.5206634,17.7015509 63.0409221,17.1943406 C62.5611806,16.6871304 62.3213135,15.96014 62.3213135,15.0133476 C62.3213135,14.401136 62.4245017,13.8654588 62.630881,13.4063 C62.8372602,12.9471413 63.1513504,12.6027774 63.5731608,12.3731981 C63.994971,12.1436187 64.4538866,12.0288308 64.9499211,12.0288308 C65.5763004,12.0288308 66.0886203,12.1845509 66.4868962,12.4959957 C66.885172,12.8074406 67.1404268,13.2496857 67.2526682,13.8227443 L66.3022418,13.966898 C66.2117247,13.5860455 66.0515115,13.2995205 65.8215977,13.1073145 C65.5916839,12.9151085 65.3138001,12.819007 64.9879381,12.819007 C64.4955243,12.819007 64.0954442,12.9925237 63.7876855,13.3395622 C63.4799269,13.6866007 63.3260499,14.2356254 63.3260499,14.9866524 C63.3260499,15.7483576 63.4744959,16.3018313 63.7713925,16.6470902 C64.068289,16.9923491 64.4556971,17.164976 64.9336281,17.164976 C65.3174211,17.164976 65.6378474,17.0492982 65.8949163,16.8179391 C66.1519853,16.5865801 66.3149139,16.2306484 66.383707,15.7501335 Z M71.2716135,20 L71.2716135,12.1569674 L72.1622987,12.1569674 L72.1622987,12.8937533 C72.3722987,12.6054444 72.6094504,12.3892159 72.8737607,12.2450614 C73.138071,12.1009069 73.4584973,12.0288308 73.8350489,12.0288308 C74.3274627,12.0288308 74.7619389,12.1534068 75.1384907,12.4025627 C75.5150424,12.6517187 75.7992623,13.0032011 75.9911589,13.4570209 C76.1830554,13.9108405 76.2790022,14.408255 76.2790022,14.9492793 C76.2790022,15.5294566 76.1730986,16.0517862 75.9612883,16.516284 C75.7494779,16.9807818 75.4417239,17.3367135 75.0380171,17.5840898 C74.6343101,17.8314659 74.2097907,17.9551522 73.7644459,17.9551522 C73.4385838,17.9551522 73.1462174,17.8875251 72.8873382,17.7522691 C72.6284588,17.617013 72.4157465,17.4461659 72.2491949,17.2397223 L72.2491949,20 L71.2716135,20 Z M72.1568676,15.0240256 C72.1568676,15.7536965 72.3071241,16.2929329 72.6076413,16.6417512 C72.9081586,16.9905695 73.2720324,17.164976 73.6992738,17.164976 C74.1337565,17.164976 74.5057768,16.9843406 74.8153458,16.6230646 C75.1249147,16.2617885 75.2796969,15.702086 75.2796969,14.9439402 C75.2796969,14.221388 75.1285353,13.680372 74.8262078,13.3208756 C74.5238802,12.9613793 74.1627218,12.7816338 73.7427218,12.7816338 C73.3263425,12.7816338 72.9579428,12.972947 72.6375119,13.3555793 C72.3170808,13.7382116 72.1568676,14.2943548 72.1568676,15.0240256 Z M77.4466688,17.8270155 L77.4466688,12.1569674 L78.326492,12.1569674 L78.326492,13.016551 C78.5509747,12.6143422 78.758256,12.3491731 78.9483423,12.2210358 C79.1384285,12.0928985 79.3475201,12.0288308 79.5756236,12.0288308 C79.9051064,12.0288308 80.2400152,12.1320509 80.58036,12.3384944 L80.2436375,13.2301121 C80.004672,13.0912967 79.7657101,13.02189 79.5267446,13.02189 C79.3131238,13.02189 79.1212302,13.0850679 78.9510578,13.2114255 C78.7808854,13.3377832 78.659594,13.5130795 78.5871803,13.7373198 C78.4785596,14.0790193 78.42425,14.4527476 78.42425,14.8585157 L78.42425,17.8270155 L77.4466688,17.8270155 Z M85.1098201,16.0010678 L86.1199874,16.1238655 C85.9606771,16.7040428 85.6655953,17.1542963 85.2347332,17.4746396 C84.8038711,17.7949829 84.2535346,17.9551522 83.583707,17.9551522 C82.7400862,17.9551522 82.0711739,17.6997712 81.5769498,17.1890016 C81.0827257,16.678232 80.8356174,15.9619195 80.8356174,15.0400427 C80.8356174,14.0861316 81.0854412,13.3457937 81.5850963,12.819007 C82.0847514,12.2922202 82.7328452,12.0288308 83.529397,12.0288308 C84.3006038,12.0288308 84.9305943,12.2868812 85.4193874,12.8029899 C85.9081805,13.3190985 86.1525734,14.0451991 86.1525734,14.9813134 C86.1525734,15.0382633 86.1507631,15.123687 86.1471424,15.2375867 L81.8457847,15.2375867 C81.8819916,15.8604765 82.061213,16.3374249 82.3834544,16.6684463 C82.7056957,16.9994678 83.1075862,17.164976 83.589138,17.164976 C83.9475862,17.164976 84.2535299,17.0724338 84.5069782,16.8873465 C84.7604265,16.7022593 84.9613717,16.406836 85.1098201,16.0010678 Z M81.9000948,14.4474106 L85.120682,14.4474106 C85.0772337,13.970455 84.9541322,13.6127437 84.7513736,13.3742659 C84.4399942,13.0040915 84.0362934,12.819007 83.5402589,12.819007 C83.0912935,12.819007 82.7138422,12.9667185 82.4078939,13.2621463 C82.1019456,13.557574 81.932681,13.9526582 81.9000948,14.4474106 Z M91.089359,17.8270155 L91.089359,17.1115857 C90.7236693,17.6739661 90.186005,17.9551522 89.4763499,17.9551522 C89.0165223,17.9551522 88.5938131,17.8305761 88.2082097,17.5814201 C87.8226062,17.3322643 87.5239039,16.9843411 87.3120935,16.5376401 C87.1002832,16.0909393 86.9943795,15.5775078 86.9943795,14.9973305 C86.9943795,14.4313906 87.0903264,13.9179593 87.2822229,13.4570209 C87.4741195,12.9960824 87.76196,12.6428202 88.1457531,12.3972237 C88.5295462,12.1516272 88.9585915,12.0288308 89.4329018,12.0288308 C89.780488,12.0288308 90.0900523,12.1009069 90.361604,12.2450614 C90.6331558,12.3892159 90.8540145,12.5769699 91.0241869,12.8083289 L91.0241869,10 L91.9963372,10 L91.9963372,17.8270155 L91.089359,17.8270155 Z M87.9991159,14.9973305 C87.9991159,15.723442 88.1548032,16.2662378 88.4661825,16.6257341 C88.7775618,16.9852305 89.1450563,17.164976 89.568677,17.164976 C89.9959183,17.164976 90.3588871,16.9932389 90.6575939,16.6497598 C90.9563008,16.3062805 91.1056521,15.7821712 91.1056521,15.0774159 C91.1056521,14.3014733 90.9535853,13.7319826 90.6494474,13.3689268 C90.3453094,13.0058711 89.9705738,12.824346 89.5252289,12.824346 C89.0907461,12.824346 88.7277775,12.9987524 88.4363119,13.3475707 C88.1448464,13.696389 87.9991159,14.2463034 87.9991159,14.9973305 Z M93.5387432,11.1051789 L93.5387432,10 L94.5163246,10 L94.5163246,11.1051789 L93.5387432,11.1051789 Z M93.5387432,17.8270155 L93.5387432,12.1569674 L94.5163246,12.1569674 L94.5163246,17.8270155 L93.5387432,17.8270155 Z M99.7681086,15.7501335 L100.729397,15.8729311 C100.624397,16.5242959 100.355565,17.0341679 99.9228923,17.4025627 C99.4902199,17.7709576 98.9588916,17.9551522 98.3288917,17.9551522 C97.5395813,17.9551522 96.9050651,17.7015509 96.4253236,17.1943406 C95.9455823,16.6871304 95.7057152,15.96014 95.7057152,15.0133476 C95.7057152,14.401136 95.8089033,13.8654588 96.0152827,13.4063 C96.2216619,12.9471413 96.5357521,12.6027774 96.9575623,12.3731981 C97.3793727,12.1436187 97.8382882,12.0288308 98.3343227,12.0288308 C98.960702,12.0288308 99.4730219,12.1845509 99.8712977,12.4959957 C100.269574,12.8074406 100.524828,13.2496857 100.63707,13.8227443 L99.6866435,13.966898 C99.5961262,13.5860455 99.4359132,13.2995205 99.2059994,13.1073145 C98.9760856,12.9151085 98.6982018,12.819007 98.3723398,12.819007 C97.879926,12.819007 97.4798458,12.9925237 97.1720872,13.3395622 C96.8643286,13.6866007 96.7104515,14.2356254 96.7104515,14.9866524 C96.7104515,15.7483576 96.8588976,16.3018313 97.1557942,16.6470902 C97.4526907,16.9923491 97.8400986,17.164976 98.3180296,17.164976 C98.7018228,17.164976 99.022249,17.0492982 99.279318,16.8179391 C99.5363869,16.5865801 99.6993155,16.2306484 99.7681086,15.7501335 Z M103.700158,16.967432 L103.841364,17.8163374 C103.566192,17.8732873 103.319988,17.9017618 103.102747,17.9017618 C102.747919,17.9017618 102.472751,17.8465924 102.277234,17.736252 C102.081717,17.6259116 101.944133,17.4808694 101.864477,17.3011212 C101.784822,17.121373 101.744995,16.7431956 101.744995,16.1665777 L101.744995,12.9044313 L101.028102,12.9044313 L101.028102,12.1569674 L101.744995,12.1569674 L101.744995,10.752803 L102.717146,10.1761879 L102.717146,12.1569674 L103.700158,12.1569674 L103.700158,12.9044313 L102.717146,12.9044313 L102.717146,16.2199679 C102.717146,16.4940395 102.734344,16.6702256 102.76874,16.7485317 C102.803137,16.8268379 102.859257,16.889126 102.937101,16.9353978 C103.014946,16.9816695 103.126281,17.0048051 103.271108,17.0048051 C103.379729,17.0048051 103.522744,16.9923476 103.700158,16.967432 Z M104.661446,11.1051789 L104.661446,10 L105.639028,10 L105.639028,11.1051789 L104.661446,11.1051789 Z M104.661446,17.8270155 L104.661446,12.1569674 L105.639028,12.1569674 L105.639028,17.8270155 L104.661446,17.8270155 Z M106.763246,14.9919915 C106.763246,13.9419773 107.060138,13.1642666 107.653931,12.6588361 C108.149966,12.2388304 108.754612,12.0288308 109.467888,12.0288308 C110.260819,12.0288308 110.908912,12.2842117 111.412188,12.7949813 C111.915464,13.3057509 112.167098,14.0113854 112.167098,14.911906 C112.167098,15.6415768 112.055764,16.2155167 111.833091,16.6337427 C111.610419,17.0519687 111.286372,17.3767562 110.860941,17.6081154 C110.43551,17.8394744 109.971163,17.9551522 109.467888,17.9551522 C108.660474,17.9551522 108.007854,17.700661 107.510009,17.1916711 C107.012165,16.6826812 106.763246,15.949462 106.763246,14.9919915 Z M107.767982,14.9919915 C107.767982,15.7181029 107.929101,16.2617885 108.251342,16.6230646 C108.573583,16.9843406 108.979095,17.164976 109.467888,17.164976 C109.95306,17.164976 110.356761,16.9834509 110.679002,16.6203951 C111.001244,16.2573394 111.162362,15.7038656 111.162362,14.9599573 C111.162362,14.2587613 111.000338,13.7275334 110.676287,13.3662573 C110.352235,13.0049813 109.949439,12.824346 109.467888,12.824346 C108.979095,12.824346 108.573583,13.0040915 108.251342,13.3635878 C107.929101,13.7230841 107.767982,14.26588 107.767982,14.9919915 Z M113.313041,17.8270155 L113.313041,12.1569674 L114.192864,12.1569674 L114.192864,12.9631607 C114.616485,12.340271 115.228372,12.0288308 116.028544,12.0288308 C116.376131,12.0288308 116.695652,12.090229 116.987117,12.2130272 C117.278583,12.3358255 117.496726,12.4968845 117.641553,12.6962093 C117.786381,12.895534 117.887759,13.1322285 117.94569,13.4063 C117.981897,13.5842685 118,13.8957088 118,14.34063 L118,17.8270155 L117.022419,17.8270155 L117.022419,14.3780032 C117.022419,13.9864726 116.984402,13.6937187 116.908368,13.499733 C116.832333,13.3057474 116.697464,13.1509171 116.503757,13.0352376 C116.310051,12.919558 116.082856,12.8617191 115.822166,12.8617191 C115.405787,12.8617191 115.046439,12.9916343 114.744111,13.2514683 C114.441784,13.5113022 114.290622,14.0042676 114.290622,14.730379 L114.290622,17.8270155 L113.313041,17.8270155 Z" id="enomicprediction" fill="#204156" fill-rule="nonzero"></path>
                <g id="g">
                    <g id="Fill-1-Clipped">
                        <mask id="mask-2" fill="white">
                            <use xlink:href="#path-1"></use>
                        </mask>
                        <g id="path-1"></g>
                        <path d="M14.8179174,17.5374174 C15.677876,17.5374174 16.4449835,17.1916736 17.1189917,16.500186 C17.793124,15.8086983 18.1301901,14.655186 18.1301901,13.0397727 C18.1301901,11.598657 17.8076281,10.4944835 17.1626281,9.7275 C16.5176281,8.96039256 15.7243636,8.57696281 14.7830826,8.57696281 C13.8300248,8.57696281 13.0485372,8.97204545 12.4383719,9.76233471 C11.8282066,10.552624 11.523124,11.6334917 11.523124,13.004814 C11.523124,14.655186 11.8513884,15.8232025 12.5080413,16.5088636 C13.1646942,17.1945248 13.9346529,17.5374174 14.8179174,17.5374174 L14.8179174,17.5374174 Z M20.0303554,17.6070868 C20.0303554,19.455062 19.8327521,20.7857231 19.4376694,21.5993182 C19.0424628,22.4127893 18.4264711,23.0258058 17.5896942,23.4384917 C16.7529174,23.8510537 15.7593223,24.0573347 14.6087851,24.0573347 C13.2489917,24.0573347 12.1158099,23.7609298 11.2093636,23.1682438 C10.3027934,22.5755579 9.84957025,21.5876653 9.84957025,20.2046901 L11.8195289,20.5009711 C11.9821736,21.7794421 12.8944463,22.4186157 14.5564711,22.4186157 C15.6140331,22.4186157 16.3898182,22.2065083 16.8837025,21.7822934 C17.3775868,21.3580785 17.6798182,20.835186 17.7902727,20.2133678 C17.9006033,19.5915496 17.9557686,18.7344421 17.9557686,17.6420455 C17.0725041,18.6879545 15.9684545,19.2109711 14.6436198,19.2109711 C13.0630413,19.2109711 11.7990744,18.6327893 10.8519669,17.4764256 C9.90473554,16.320062 9.43118182,14.8644421 9.43118182,13.1094421 C9.43118182,11.3312603 9.8902314,9.85530992 10.8083306,8.68146694 C11.7265537,7.50774793 13.0049008,6.92076446 14.6436198,6.92076446 C16.0730826,6.92076446 17.2236198,7.49609504 18.0952314,8.64663223 L18.1301901,8.64663223 L18.1301901,7.18233471 L20.0303554,7.18233471 L20.0303554,17.6070868 Z M14.9573802,27.6310537 C18.4206446,27.6310537 21.4046529,26.3845661 23.909157,23.8917149 C26.4136612,21.3987397 27.6659752,18.4206818 27.6659752,14.9574174 C27.6659752,12.7027066 27.0964711,10.5904339 25.9574628,8.62047521 C24.8185785,6.6506405 23.264157,5.09621901 21.2941983,3.95721074 C19.3243636,2.81832645 17.2119669,2.24882231 14.9573802,2.24882231 C11.4708099,2.24882231 8.48109917,3.49816116 5.98812397,5.99683884 C3.49527273,8.49551653 2.24878512,11.482376 2.24878512,14.9574174 C2.24878512,18.4206818 3.50109917,21.3987397 6.00560331,23.8917149 C8.51010744,26.3845661 11.4941157,27.6310537 14.9573802,27.6310537 L14.9573802,27.6310537 Z M14.9573802,-6.19834711e-05 C17.6188264,-6.19834711e-05 20.1088264,0.671095041 22.4273802,2.01340909 C24.7459339,3.35584711 26.5734545,5.18336777 27.9099421,7.49609504 C29.2465537,9.80882231 29.9147355,12.2959711 29.9147355,14.9574174 C29.9147355,17.6070868 29.2435785,20.0884091 27.9012645,22.4011364 C26.5589504,24.7139876 24.7284545,26.5385331 22.4099008,27.8751446 C20.0913471,29.2116322 17.6071736,29.879938 14.9573802,29.879938 C12.3075868,29.879938 9.82341322,29.2116322 7.5048595,27.8751446 C5.18630579,26.5385331 3.35580992,24.7139876 2.01349587,22.4011364 C0.671181818,20.0884091 2.47933884e-05,17.6070868 2.47933884e-05,14.9574174 C2.47933884e-05,12.2959711 0.668206612,9.80597107 2.00481818,7.48741736 C3.34130579,5.16886364 5.16882645,3.34121901 7.48738017,2.0047314 C9.80593388,0.668243802 12.2959339,-6.19834711e-05 14.9573802,-6.19834711e-05 L14.9573802,-6.19834711e-05 Z" id="Fill-1" fill="#204156" fill-rule="nonzero" mask="url(#mask-2)"></path>
                    </g>
                </g>
            </g>
        </g>
    </g>
</svg>