<?xml version="1.0" encoding="UTF-8"?>
<svg width="64px" height="26px" viewBox="0 0 64 26" version="1.1" xmlns="http://www.w3.org/2000/svg" xmlns:xlink="http://www.w3.org/1999/xlink">
    <!-- Generator: sketchtool 55.2 (78181) - https://sketchapp.com -->
    <title>F87978F4-C428-447F-9E56-973F6ABBC80E</title>
    <desc>Created with sketchtool.</desc>
    <defs>
        <polygon id="path-1" points="2.15488215e-05 0 25.9999461 0 25.9999461 25.8958926 2.15488215e-05 25.8958926"></polygon>
    </defs>
    <g id="main-pages" stroke="none" stroke-width="1" fill="none" fill-rule="evenodd">
        <g id="gpcl_provider" transform="translate(-1128.000000, -2767.000000)">
            <g id="why-choose-GP" transform="translate(0.000000, 1377.000000)">
                <g id="table-SEQ-kit-comparison-to-competitors" transform="translate(246.000000, 1331.000000)">
                    <g id="rows-copy">
                        <g id="GSEQ_white" transform="translate(882.000000, 59.000000)">
                            <g id="g">
                                <mask id="mask-2" fill="white">
                                    <use xlink:href="#path-1"></use>
                                </mask>
                                <g id="Clip-2"></g>
                                <path d="M12.8787825,15.199095 C13.6262034,15.199095 14.2929239,14.8994504 14.8787286,14.3001612 C15.4646411,13.7008719 15.7575973,12.7011612 15.7575973,11.3011364 C15.7575973,10.0521694 15.4772471,9.09521901 14.9166545,8.4305 C14.356062,7.76567355 13.6666074,7.43336777 12.8485064,7.43336777 C12.0201697,7.43336777 11.3409508,7.77577273 10.8106343,8.46069008 C10.2803178,9.14560744 10.0151596,10.0823595 10.0151596,11.2708388 C10.0151596,12.7011612 10.300466,13.7134421 10.8711865,14.3076818 C11.4419071,14.9019215 12.1111057,15.199095 12.8787825,15.199095 L12.8787825,15.199095 Z M17.409099,15.2594752 C17.409099,16.8610537 17.2373549,18.0142934 16.8939744,18.7194091 C16.5504862,19.4244174 16.0151057,19.9556983 15.287833,20.3133595 C14.5605603,20.6709132 13.6969912,20.8496901 12.6970182,20.8496901 C11.5151731,20.8496901 10.5302842,20.5928058 9.74245926,20.0791446 C8.9545266,19.5654835 8.56061414,18.7093099 8.56061414,17.5107314 L10.2727758,17.7675083 C10.414136,18.8755165 11.2070249,19.4294669 12.6515502,19.4294669 C13.5707152,19.4294669 14.2449778,19.2456405 14.6742303,18.8779876 C15.1034828,18.5103347 15.366163,18.0571612 15.462163,17.5182521 C15.5580552,16.979343 15.6060013,16.2365165 15.6060013,15.2897727 C14.8383246,16.1962273 13.8787556,16.6495083 12.7272943,16.6495083 C11.3535569,16.6495083 10.254998,16.1484174 9.431833,15.1462355 C8.60856027,14.1440537 8.19697778,12.8825165 8.19697778,11.3615165 C8.19697778,9.82042562 8.59595421,8.5412686 9.39390707,7.52393802 C10.1919677,6.50671488 11.3030249,5.99799587 12.7272943,5.99799587 C13.9696916,5.99799587 14.9696646,6.4966157 15.7272135,7.49374793 L15.7575973,7.49374793 L15.7575973,6.22469008 L17.409099,6.22469008 L17.409099,15.2594752 Z M12.9999946,23.9469132 C16.0100418,23.9469132 18.6035502,22.866624 20.7803044,20.7061529 C22.9570586,18.5455744 24.0454896,15.9645909 24.0454896,12.963095 C24.0454896,11.0090124 23.5505131,9.17837603 22.5605603,7.47107851 C21.5707152,5.76388843 20.2197118,4.41672314 18.5075502,3.42958264 C16.7954963,2.44254959 14.9595367,1.94897934 12.9999946,1.94897934 C9.96969158,1.94897934 7.37122694,3.03173967 5.20449293,5.19726033 C3.03786667,7.36278099 1.95449966,9.95139256 1.95449966,12.963095 C1.95449966,15.9645909 3.04293064,18.5455744 5.21968485,20.7061529 C7.39643906,22.866624 9.98994747,23.9469132 12.9999946,23.9469132 L12.9999946,23.9469132 Z M12.9999946,-5.37190083e-05 C15.3131529,-5.37190083e-05 17.477301,0.581615702 19.4924391,1.74495455 C21.5075771,2.90840083 23.0959407,4.49225207 24.25753,6.4966157 C25.4192269,8.50097934 25.9999677,10.6565083 25.9999677,12.963095 C25.9999677,15.2594752 25.4166411,17.4099545 24.2499879,19.4143182 C23.0833347,21.4187893 21.4923852,23.000062 19.4772471,24.1584587 C17.4621091,25.3167479 15.3030249,25.8959463 12.9999946,25.8959463 C10.6969643,25.8959463 8.53788013,25.3167479 6.52274209,24.1584587 C4.50760404,23.000062 2.91665455,21.4187893 1.75000135,19.4143182 C0.583348148,17.4099545 2.15488215e-05,15.2594752 2.15488215e-05,12.963095 C2.15488215e-05,10.6565083 0.58076229,8.49850826 1.74245926,6.48909504 C2.90404848,4.47968182 4.49241212,2.89572314 6.50755017,1.73743388 C8.52268822,0.579144628 10.6868364,-5.37190083e-05 12.9999946,-5.37190083e-05 L12.9999946,-5.37190083e-05 Z" id="Fill-1" fill="#FFFFFF" mask="url(#mask-2)"></path>
                            </g>
                            <path d="M27.7979798,14.8958863 L29.3912866,14.7567387 C29.4667441,15.3945018 29.6423254,15.9177496 29.9180356,16.3264977 C30.1937458,16.7352459 30.6218157,17.0657182 31.2022583,17.3179245 C31.7827008,17.5701308 32.4356889,17.6962321 33.1612421,17.6962321 C33.8055333,17.6962321 34.3743584,17.6005691 34.8677346,17.4092401 C35.3611107,17.2179112 35.7282351,16.9555626 35.9691188,16.6221864 C36.2100025,16.2888103 36.3304425,15.9250009 36.3304425,15.5307473 C36.3304425,15.1306959 36.2143557,14.7813809 35.9821787,14.4827918 C35.7500017,14.1842027 35.3669153,13.9334496 34.8329082,13.730525 C34.4904471,13.5971745 33.732981,13.3899046 32.560487,13.1087091 C31.3879931,12.8275135 30.5666792,12.562266 30.0965208,12.3129586 C29.4870561,11.9940771 29.0328666,11.59838 28.7339387,11.1258555 C28.4350108,10.653331 28.2855491,10.1242855 28.2855491,9.538703 C28.2855491,8.89514205 28.4683858,8.29362451 28.8340646,7.73413233 C29.1997434,7.17464016 29.7337425,6.74995428 30.436078,6.46006196 C31.1384134,6.17016964 31.9190969,6.02522565 32.7781519,6.02522565 C33.7242732,6.02522565 34.5586469,6.17741684 35.2812978,6.48180377 C36.0039488,6.78619071 36.5597142,7.23406763 36.9486107,7.82544796 C37.3375072,8.41682829 37.5464634,9.08646951 37.5754855,9.83439169 L35.9560589,9.95614586 C35.8689925,9.15024521 35.5744224,8.54148047 35.0723396,8.12983337 C34.5702568,7.71818628 33.8287525,7.51236582 32.8478046,7.51236582 C31.8262258,7.51236582 31.0818194,7.69934356 30.6145631,8.07330465 C30.1473069,8.44726575 29.9136823,8.89804154 29.9136823,9.42564556 C29.9136823,9.88367543 30.0791059,10.2605298 30.4099582,10.55622 C30.735006,10.8519101 31.5838905,11.1548431 32.9566371,11.4650278 C34.3293837,11.7752126 35.2711376,12.0462579 35.781927,12.2781717 C36.5248935,12.6202447 37.0734034,13.0536272 37.4274734,13.5783323 C37.7815433,14.1030374 37.9585757,14.7074538 37.9585757,15.3915997 C37.9585757,16.0699477 37.7641303,16.7091507 37.3752338,17.3092278 C36.9863373,17.9093049 36.4276698,18.3760245 35.6992144,18.7094007 C34.970759,19.0427769 34.1508962,19.2094624 33.2396014,19.2094624 C32.0845207,19.2094624 31.1166473,19.0413274 30.3359521,18.7050523 C29.5552569,18.3687772 28.9428992,17.8629227 28.4988607,17.1874736 C28.0548221,16.5120245 27.8211975,15.7481697 27.7979798,14.8958863 Z M40.3006496,18.9920443 L40.3006496,6.2426438 L49.5296398,6.2426438 L49.5296398,7.74717742 L41.9897289,7.74717742 L41.9897289,11.6520075 L49.0507771,11.6520075 L49.0507771,13.1478443 L41.9897289,13.1478443 L41.9897289,17.4875107 L49.825664,17.4875107 L49.825664,18.9920443 L40.3006496,18.9920443 Z M61.832058,17.6266583 C62.6156554,18.165858 63.3382955,18.5601057 64,18.809413 L63.5037241,19.9834711 C62.5866249,19.6529938 61.6724416,19.1311955 60.7611468,18.4180604 C59.8150255,18.9456644 58.7702446,19.2094624 57.6267728,19.2094624 C56.4716921,19.2094624 55.4240091,18.93117 54.4836921,18.3745767 C53.5433752,17.8179835 52.819284,17.035286 52.3113968,16.0264607 C51.8035096,15.0176354 51.5495698,13.8812746 51.5495698,12.6173441 C51.5495698,11.3592114 51.8049607,10.2141539 52.3157501,9.18213723 C52.8265395,8.15012057 53.5535329,7.36452417 54.496752,6.82532445 C55.4399712,6.28612474 56.4949097,6.01652893 57.6615992,6.01652893 C58.8398975,6.01652893 59.9020914,6.29627082 60.8482128,6.855763 C61.7943341,7.41525517 62.5155231,8.1979527 63.0118015,9.20387905 C63.5080799,10.2098054 63.7562154,11.3447168 63.7562154,12.6086473 C63.7562154,13.6580575 63.596596,14.6016429 63.2773527,15.4394317 C62.9581093,16.2772205 62.4763492,17.0062887 61.832058,17.6266583 Z M58.1143421,15.4698702 C59.0894855,15.742369 59.8933864,16.1482122 60.5260688,16.6874119 C61.5186255,15.7829478 62.0148964,14.4233732 62.0148964,12.6086473 C62.0148964,11.5766307 61.8393152,10.6750791 61.4881475,9.9039655 C61.1369797,9.13285193 60.6232958,8.53423327 59.9470802,8.10809156 C59.2708647,7.68194985 58.5119474,7.46888219 57.6703058,7.46888219 C56.4107454,7.46888219 55.3659645,7.89936583 54.5359317,8.76034602 C53.7058989,9.62132621 53.2908887,10.9069794 53.2908887,12.6173441 C53.2908887,14.2755281 53.7015456,15.5481363 54.5228718,16.4352068 C55.344198,17.3222773 56.3933322,17.7658059 57.6703058,17.7658059 C58.273966,17.7658059 58.8427911,17.6527496 59.3767983,17.4266336 C58.8485956,17.0845607 58.2913791,16.8410548 57.7051321,16.6961086 L58.1143421,15.4698702 Z" id="SEQ" fill="#FFFFFF" fill-rule="nonzero"></path>
                        </g>
                    </g>
                </g>
            </g>
        </g>
    </g>
</svg>