<svg xmlns="http://www.w3.org/2000/svg" width="134" height="97" viewBox="0 0 134 97">
    <g fill="none" fill-rule="evenodd">
        <path stroke="#323C5D" d="M82.207 44.938l.046 7.022M107.838 44.79l.045 7.021M82.241 44.899c4.26-.028 4.307 7.076 8.568 7.047 4.262-.028 4.216-7.132 8.478-7.16 4.262-.028 4.307 7.075 8.57 7.047M105.45 45.699c.63-.583 1.381-.963 2.36-.97"/>
        <path stroke="#323C5D" d="M97.283 51.286c.54.4 1.175.61 2.05.604 1.105-.007 1.921-.491 2.598-1.204M88.532 45.696c.603-.516 1.318-.848 2.231-.854a3.314 3.314 0 0 1 2.101.711M82.287 52.003c1.05-.007 1.838-.444 2.494-1.098M71.861 48.574l-6.327.042M128.468 42.539l.105 13.222c.004.51.414.92.916.916l2.566-.015a.918.918 0 0 0 .904-.926l-.034-14.906a.917.917 0 0 0-.915-.921l-2.645.015a.917.917 0 0 0-.905.929l.008 1.686"/>
        <path stroke="#323C5D" d="M111.425 55.312l-34.35.156-5.175-7.043 5.072-6.942 30.447-.112M118.35 51.015l10.185-.034M118.327 45.931l10.166-.03M111.285 38.832l-.003-.723c-.004-.783 1.308-1.423 2.93-1.43l1.102-.007c1.622-.007 2.94.62 2.944 1.403l.125 13.986h-.06l.031 6.627c.005.919-1.5 1.67-3.363 1.68h-.077c-1.861.01-3.375-.728-3.379-1.647l-.244-19.947M77.075 55.468l-.074-11.64M76.988 43.828l-.014-2.344"/>
        <path stroke="#0BA6BF" d="M26.732 19.048c0 2.816-2.25 5.1-5.026 5.1s-5.026-2.284-5.026-5.1c0-2.818 2.25-5.1 5.026-5.1s5.026 2.282 5.026 5.1zM57.608 76.815c0 2.816-2.25 5.1-5.026 5.1s-5.026-2.284-5.026-5.1c0-2.818 2.25-5.1 5.026-5.1 2.775 0 5.026 2.282 5.026 5.1zM15.756 34.662c0 2.221-1.775 4.022-3.964 4.022s-3.962-1.8-3.962-4.022c0-2.221 1.773-4.022 3.962-4.022 2.19 0 3.964 1.8 3.964 4.022zM65.534 48.906c0 2.222-1.774 4.022-3.962 4.022-2.19 0-3.964-1.8-3.964-4.022 0-2.22 1.774-4.022 3.964-4.022 2.188 0 3.962 1.801 3.962 4.022zM66.785 63.185c0 2.222-1.775 4.022-3.963 4.022-2.19 0-3.964-1.8-3.964-4.022 0-2.22 1.774-4.022 3.964-4.022 2.188 0 3.963 1.801 3.963 4.022zM16.093 48.906c0 1.785-1.425 3.23-3.184 3.23-1.758 0-3.183-1.445-3.183-3.23 0-1.784 1.425-3.23 3.183-3.23 1.759 0 3.184 1.446 3.184 3.23zM27.502 63.185c0 1.785-1.426 3.231-3.184 3.231-1.758 0-3.184-1.446-3.184-3.23 0-1.785 1.426-3.231 3.184-3.231 1.758 0 3.184 1.446 3.184 3.23zM54.659 34.662c0 1.784-1.426 3.23-3.185 3.23-1.758 0-3.183-1.446-3.183-3.23s1.425-3.23 3.183-3.23c1.759 0 3.185 1.446 3.185 3.23zM40.632 76.815c0 1.463-1.17 2.65-2.612 2.65-1.442 0-2.612-1.187-2.612-2.65 0-1.465 1.17-2.652 2.612-2.652 1.443 0 2.612 1.187 2.612 2.652zM40.43 19.048c0 1.463-1.17 2.65-2.612 2.65-1.443 0-2.613-1.187-2.613-2.65 0-1.465 1.17-2.65 2.613-2.65 1.442 0 2.611 1.185 2.611 2.65z"/>
        <path stroke="#323C5D" d="M26.732 19.048h8.473"/>
        <path stroke="#0BA6BF" d="M40.258 90.935c0 2.818-2.25 5.1-5.025 5.1-2.776 0-5.026-2.282-5.026-5.1 0-2.816 2.25-5.1 5.026-5.1 2.775 0 5.025 2.284 5.025 5.1zM53.956 90.935c0 1.464-1.17 2.65-2.612 2.65-1.442 0-2.612-1.186-2.612-2.65 0-1.463 1.17-2.65 2.612-2.65 1.443 0 2.612 1.187 2.612 2.65z"/>
        <path stroke="#323C5D" d="M40.258 90.935h8.474"/>
        <path stroke="#0BA6BF" d="M39.395 6.468c0 2.818 2.25 5.1 5.026 5.1 2.775 0 5.026-2.282 5.026-5.1 0-2.816-2.25-5.1-5.026-5.1s-5.026 2.284-5.026 5.1zM25.698 6.468c0 1.465 1.17 2.65 2.612 2.65 1.442 0 2.612-1.185 2.612-2.65 0-1.463-1.17-2.65-2.612-2.65-1.443 0-2.612 1.187-2.612 2.65z"/>
        <path stroke="#323C5D" d="M39.395 6.468h-8.473M15.756 34.662H48.29M16.093 48.906h41.515M27.502 63.185h30.82M40.632 76.815h6.924M97.254 72.696c0 2.078-1.66 3.762-3.708 3.762-2.047 0-3.708-1.684-3.708-3.762 0-2.078 1.66-3.762 3.708-3.762 2.047 0 3.708 1.684 3.708 3.762zM8.768 72.349c0 2.078-1.66 3.762-3.708 3.762-2.047 0-3.707-1.684-3.707-3.762 0-2.077 1.66-3.762 3.707-3.762 2.048 0 3.708 1.685 3.708 3.762zM62.762 15.245v1.775M59.124 19.21h1.816M62.882 23.012v-1.627M66.52 19.048H64.89M12.85 85.626v1.776M9.211 89.591h1.818M12.97 93.394v-1.627M16.608 89.43h-1.631M78.908 81.592v1.776M75.268 85.557h1.818M79.027 89.36v-1.627M82.666 85.395h-1.632"/>
    </g>
</svg>
