<?xml version="1.0" encoding="UTF-8"?>
<svg width="18px" height="25px" viewBox="0 0 18 25" version="1.1" xmlns="http://www.w3.org/2000/svg" xmlns:xlink="http://www.w3.org/1999/xlink">
    <!-- Generator: sketchtool 58 (101010) - https://sketch.com -->
    <title>91326A42-8155-4BC5-83D9-69C07F0A1F82</title>
    <desc>Created with sketchtool.</desc>
    <g id="UI-Design" stroke="none" stroke-width="1" fill="none" fill-rule="evenodd">
        <g id="GP-Locations-" transform="translate(-27.000000, -437.000000)">
            <g id="menu-item-menu-item-selected" transform="translate(0.000000, 420.000000)">
                <g id="news">
                    <g id="icon_news-icon_gp_locations" transform="translate(20.000000, 13.000000)">
                        <g id="icon_gp_locations">
                            <rect id="mask" stroke="#979797" opacity="0" x="0.5" y="0.5" width="31" height="31"></rect>
                            <g id="icon_pin" transform="translate(8.000000, 5.000000)" fill-rule="nonzero">
                                <path d="M8,0 C3.58888362,0 0,3.43935352 0,7.66668164 C0,8.93572461 0.331077478,10.1939863 0.960466874,11.3100254 L7.56251648,22.7529297 C7.65040693,22.9054844 7.81789098,23 8,23 C8.18210902,23 8.34959307,22.9054844 8.43748352,22.7529297 L15.0419706,11.306252 C15.6689225,10.1939863 16,8.93567969 16,7.66663672 C16,3.43935352 12.4111164,0 8,0 Z" id="Shape" stroke="#2E384D"></path>
                                <g id="g-shape" transform="translate(3.000000, 3.000000)" fill="#0BA6BF">
                                    <path d="M4.5876912,5.01767396 C4.02073819,5.01767396 3.56370464,4.55468213 3.56370464,3.99330453 C3.56370464,3.43192694 4.02652343,2.96893511 4.5876912,2.96893511 C5.14885898,2.96893511 5.61167776,3.42613954 5.61167776,3.99330453 C5.61167776,4.56046952 5.15464421,5.01767396 4.5876912,5.01767396 L4.5876912,5.01767396 Z M6.20755695,2.38440792 L4.5876912,2.38440792 C3.71990598,2.38440792 3.01410734,3.13098225 3.01410734,3.99909193 C3.01410734,4.86720161 3.73726169,5.59062635 4.60504691,5.59062635 C4.61083214,5.59062635 5.55382542,5.56747675 5.54225495,6.09412996 C5.53646971,6.42401164 4.49512745,7.10113719 4.49512745,7.10113719 L4.49512745,7.71460137 C4.49512745,7.71460137 6.0166442,6.83491689 6.16127507,6.14042914 C6.29433547,5.51539017 5.68110058,5.31283125 5.57696636,5.26074467 C5.93565091,4.97137477 6.16127507,4.47944595 6.16127507,3.98751713 C6.16127507,3.58239928 6.00507373,3.28724199 5.75630864,2.88791154 L6.20755695,2.88791154 L6.20755695,2.38440792 L6.20755695,2.38440792 Z" id="Shape"></path>
                                    <path d="M1.95540937,1.67255799 C2.04797312,1.58574702 2.14632211,1.50472345 2.25045634,1.42369988 L1.92648319,0.978070241 C1.80499326,1.07066861 1.68928856,1.16905437 1.57358387,1.27322753 L1.95540937,1.67255799 Z" id="Path"></path>
                                    <path d="M2.41244292,1.30795192 C2.51657714,1.23271575 2.6264966,1.16905437 2.73641606,1.10539299 L2.4760805,0.619251572 C2.3430201,0.694487745 2.21574493,0.775511315 2.08846977,0.862322283 L2.41244292,1.30795192 Z" id="Path"></path>
                                    <path d="M1.46366441,2.21657339 C1.57358387,2.07767584 1.68928856,1.94456569 1.8107785,1.81724293 L1.428953,1.41791248 C1.28432213,1.56838482 1.14547649,1.72464457 1.01820133,1.88669171 L1.46366441,2.21657339 Z" id="Path"></path>
                                    <path d="M0.624805359,4.28846182 C0.647946299,4.0743281 0.688442942,3.86019438 0.74629529,3.65184806 L0.214053688,3.48980092 C0.14463087,3.73287163 0.0983489918,3.97594234 0.0694228177,4.23058785 L0.624805359,4.28846182 Z" id="Path"></path>
                                    <path d="M1.11076508,2.74901399 C1.1801879,2.62169124 1.26118119,2.49436848 1.34217448,2.37283313 L0.896711395,2.04873885 C0.798362404,2.19342379 0.705798647,2.34389614 0.619020125,2.49436848 L1.11076508,2.74901399 Z" id="Path"></path>
                                    <path d="M0.804147638,3.46086393 C0.861999987,3.2756672 0.937208039,3.10204526 1.01820133,2.92842332 L0.526456368,2.67377782 C0.428107376,2.87633674 0.341328854,3.08468307 0.271906036,3.29881679 L0.804147638,3.46086393 Z" id="Path"></path>
                                    <path d="M2.90997311,1.00700723 C3.22816102,0.84496009 3.56948988,0.723424734 3.9223892,0.648188562 L3.81825497,0.104173162 C3.4075033,0.19098413 3.01410734,0.335669077 2.64963754,0.520865809 L2.90997311,1.00700723 Z" id="Path"></path>
                                    <path d="M8.11668444,7.39629448 C7.89106028,7.67987698 7.62493948,7.94030988 7.3298925,8.160231 L7.64808042,8.61164804 C7.98940927,8.36278993 8.29024148,8.06184524 8.55636228,7.73196356 L8.11668444,7.39629448 Z" id="Path"></path>
                                    <path d="M4.02073819,0.0694487745 L4.12487242,0.613464175 C4.27528852,0.590314583 4.42570463,0.572952389 4.57612073,0.561377594 L4.55876503,0.00578739787 C4.37363752,0.0173621936 4.19429524,0.0405117851 4.02073819,0.0694487745" id="Path"></path>
                                    <path d="M9.03075154,4.77460325 C9.03075154,5.20287069 8.96711395,5.61377594 8.84562402,6.00731899 L9.37208039,6.18094093 C9.51092603,5.73531129 9.58034884,5.26653207 9.58034884,4.77460325 C9.58034884,4.76881585 9.58034884,4.76302845 9.58034884,4.75724105 L9.03075154,4.77460325 L9.03075154,4.77460325" id="Path"></path>
                                    <path d="M9.30265757,3.14834444 L8.78777168,3.35090337 C8.92661731,3.73287163 9.01339583,4.14377688 9.03075154,4.57204432 L9.58613408,4.56046952 C9.5572079,4.06275331 9.45885891,3.58818668 9.30265757,3.14834444" id="Path"></path>
                                    <path d="M7.99519451,2.00822706 C8.29024148,2.34968354 8.53900658,2.73743919 8.71256362,3.15991924 L9.22744952,2.95736031 C9.0249663,2.47121889 8.74727503,2.01980186 8.40016094,1.6320462 L7.99519451,2.00822706 Z" id="Path"></path>
                                    <path d="M6.55467104,0.931771058 C7.046416,1.15747957 7.48609384,1.46999906 7.85634887,1.85775472 L8.26710054,1.48157386 C7.8447784,1.03594422 7.33567774,0.677125551 6.77450996,0.422480045 L6.55467104,0.931771058 Z" id="Path"></path>
                                    <path d="M6.25383883,9.32928537 L6.07449655,8.80263217 C5.76209387,8.90101793 5.43812072,8.95889191 5.1025771,8.9820415 L5.12571804,9.5376317 C5.51332877,9.5144821 5.89515427,9.43924593 6.25383883,9.32928537" id="Path"></path>
                                    <path d="M8.78777168,6.19830312 C8.65471127,6.57448398 8.46958376,6.92172786 8.23817437,7.24003474 L8.67785221,7.57570382 C8.94397301,7.21109775 9.1580267,6.8059799 9.30844281,6.37771246 L8.78777168,6.19830312 Z" id="Path"></path>
                                    <path d="M7.16790593,8.27597896 C6.89021466,8.46696309 6.58359721,8.62322283 6.2654093,8.73897079 L6.44475158,9.265624 C6.81500661,9.13251384 7.16790593,8.94731711 7.49187908,8.72739599 L7.16790593,8.27597896 Z" id="Path"></path>
                                    <path d="M4.77860395,0.555590196 C4.79017442,0.555590196 4.80174489,0.555590196 4.8191006,0.555590196 C5.3686979,0.555590196 5.89515427,0.659763358 6.37532876,0.856534885 L6.58938245,0.347243872 C6.03978514,0.121535355 5.43812072,0 4.81331536,0 C4.79595966,0 4.77860395,0 4.75546301,0 L4.77860395,0.555590196 Z" id="Path"></path>
                                    <path d="M0.595879185,4.77460325 C0.595879185,4.67621748 0.60166442,4.58361912 0.607449655,4.49102075 L0.0578523481,4.43893417 C0.0520671133,4.54889473 0.0462818785,4.65885529 0.0462818785,4.77460325 C0.0462818785,4.9077134 0.0520671133,5.04082355 0.0636375829,5.1739337 L0.61323489,5.11605972 C0.60166442,5.00609916 0.595879185,4.8903512 0.595879185,4.77460325" id="Path"></path>
                                    <path d="M4.90009388,8.9936163 C4.87116771,8.9936163 4.84224154,8.9936163 4.81331536,8.9936163 C4.52983886,8.9936163 4.25793282,8.96467931 3.99181202,8.91259273 L3.87032209,9.45660813 C4.17693953,9.5202695 4.48934221,9.54920649 4.81331536,9.54920649 C4.853812,9.54920649 4.88852341,9.54920649 4.92323482,9.54920649 L4.90009388,8.9936163 Z" id="Path"></path>
                                    <path d="M0.786791934,6.03625598 C0.711583882,5.80476007 0.659516768,5.56168936 0.630590594,5.31861865 L0.0809932873,5.37649262 C0.115704696,5.66586252 0.179342279,5.94365762 0.266120801,6.21566532 L0.786791934,6.03625598 Z" id="Path"></path>
                                    <path d="M1.19175837,6.93330265 C1.05869797,6.70759414 0.942993274,6.47031082 0.856214752,6.22724011 L0.329758384,6.40664945 C0.433892611,6.69601934 0.566953011,6.97381444 0.723154351,7.22845994 L1.19175837,6.93330265 Z" id="Path"></path>
                                    <path d="M2.70170466,8.4264513 C2.43558385,8.27019156 2.18681876,8.08499483 1.9611946,7.87664851 L1.5793691,8.27597896 C1.83970467,8.51904967 2.12896641,8.73318339 2.44136909,8.91259273 L2.70170466,8.4264513 Z" id="Path"></path>
                                    <path d="M1.8107785,7.73775096 C1.61986575,7.54676683 1.4463087,7.33263311 1.2958926,7.10692459 L0.827288578,7.40208188 C1.00084562,7.66830218 1.20332884,7.91137289 1.42316776,8.13708141 L1.8107785,7.73775096 Z" id="Path"></path>
                                    <path d="M3.79511403,8.87208094 C3.47114089,8.79105737 3.16452344,8.67530941 2.8752617,8.52483707 L2.6091409,9.01097849 C2.94468452,9.18460043 3.29758384,9.32349797 3.6736241,9.41609634 L3.79511403,8.87208094 Z" id="Path"></path>
                                </g>
                            </g>
                        </g>
                    </g>
                </g>
            </g>
        </g>
    </g>
</svg>