<?xml version="1.0" encoding="UTF-8"?>
<svg width="50px" height="50px" viewBox="0 0 50 50" version="1.1" xmlns="http://www.w3.org/2000/svg" xmlns:xlink="http://www.w3.org/1999/xlink">
    <!-- Generator: Sketch 53.2 (72643) - https://sketchapp.com -->
    <title>ic_musculoskeletal</title>
    <desc>Created with Sketch.</desc>
    <g id="icons" stroke="none" stroke-width="1" fill="none" fill-rule="evenodd">
        <g transform="translate(-804.000000, -692.000000)" id="ic_musculoskeletal">
            <g transform="translate(805.000000, 693.000000)">
                <circle id="Oval" stroke="#F1F1F1" fill="#F9FAFA" cx="24" cy="24" r="24"></circle>
                <path d="M22.1680472,8.21220755 C22.1680472,8.21220755 22.8736132,14.5625849 20.7891792,17.8617358 C20.3473868,18.5607925 20.0258774,19.3396604 19.9882358,20.1657925 C19.9305,21.4538113 20.4212547,22.9990943 23.1127642,22.9990943 L25.1009717,22.9990943 C27.7924811,22.9990943 28.2835189,21.4538113 28.225217,20.1657925 C28.1881415,19.3396604 27.8663491,18.5607925 27.4245566,17.8617358 C25.3398396,14.5625849 26.0454057,8.21220755 26.0454057,8.21220755" id="Stroke-1" stroke="#204156" stroke-linecap="round"></path>
                <path d="M26.5319151,39.6397642 C26.3496509,37.1197642 26.5539906,34.5881604 26.770783,32.8405189 C26.9128585,31.6906132 27.4194623,30.6318396 28.1547453,29.7366509 C28.1615377,29.7281604 28.1677642,29.7202358 28.1745566,29.7123113 C28.6534245,29.1142925 28.4451226,28.2100472 27.760783,27.8653302 C27.1330472,27.5491981 26.0335189,27.2690094 24.1070094,27.2690094 C22.180217,27.2690094 21.0804057,27.5491981 20.4529528,27.8653302 C19.7688962,28.2100472 19.5600283,29.1142925 20.0394623,29.7123113 C20.0456887,29.7202358 20.0524811,29.7281604 20.0589906,29.7366509 C20.7948396,30.6318396 21.3011604,31.6906132 21.4435189,32.8405189 C21.6597453,34.5881604 21.8638019,37.1197642 21.6815377,39.6397642" id="Stroke-3" stroke="#204156" stroke-linecap="round"></path>
                <path d="M38.9507547,26.6216792 L36.7935849,24.4647925 L34.6675472,26.5911132 L32.5366981,24.4602642 L30.3713208,26.6259245 L30.1228302,26.377434 C28.9284906,25.1833774 27.3093396,24.5126226 25.620566,24.5126226 L24.1069811,24.5126226 L22.5931132,24.5126226 C20.9046226,24.5126226 19.2854717,25.1833774 18.0914151,26.377434 L17.8429245,26.6259245 L15.6772642,24.4602642 L13.5464151,26.5911132 L11.4056604,24.4500755 L9.21226415,26.6431887" id="Stroke-5" stroke="#204156" stroke-linecap="round"></path>
            </g>
        </g>
    </g>
</svg>