<?xml version="1.0" encoding="UTF-8"?>
<svg width="50px" height="50px" viewBox="0 0 50 50" version="1.1" xmlns="http://www.w3.org/2000/svg" xmlns:xlink="http://www.w3.org/1999/xlink">
    <!-- Generator: Sketch 52.6 (67491) - http://www.bohemiancoding.com/sketch -->
    <title>icon_neurological</title>
    <desc>Created with Sketch.</desc>
    <defs>
        <polygon id="path-1" points="0 2.25806452e-05 16.9999788 2.25806452e-05 16.9999788 14 0 14"></polygon>
    </defs>
    <g id="icons" stroke="none" stroke-width="1" fill="none" fill-rule="evenodd">
        <g transform="translate(-86.000000, -648.000000)" id="icon_neurological">
            <g transform="translate(87.000000, 649.000000)">
                <circle id="Oval" stroke="#F1F1F1" fill="#F9FAFA" cx="24" cy="24" r="24"></circle>
                <g id="shape" transform="translate(10.654545, 8.272727)">
                    <path d="M25.2655702,17.5203674 C25.565548,17.1155894 25.8790248,16.6973687 26.1605039,16.2562454 C26.9501003,15.0354063 27.3750747,13.6162613 27.3859132,12.1641544 C27.4154334,10.7373002 27.2391489,9.31361286 26.8624519,7.93663959 C26.3573994,6.22505904 25.3087073,4.72268181 23.8736732,3.65485565 C21.0513822,1.45222633 18.4130776,0.539111008 15.3298059,0.695943792 C13.7030955,0.807828462 12.0867545,1.03779693 10.493664,1.38401651 C8.23733103,1.83609324 6.59995227,2.62573386 5.48453486,3.79774774 C4.60075117,4.73541521 3.91823274,5.84268627 3.47868339,7.05190353 C3.29284782,7.58391125 3.14138296,8.12721432 3.02521697,8.67848355 L2.98471996,8.85224431 C2.87936462,9.24018663 2.73723654,9.61728379 2.56025139,9.97845307 C2.45675906,10.2089724 2.35376668,10.4389938 2.26427331,10.6754877 C2.14836469,10.9384399 2.10206168,11.2265863 2.12978327,11.5124271 C2.23137942,11.9572429 2.4902977,12.3508076 2.85922926,12.6212099 C3.10471108,12.8452568 3.26569916,13.0020896 3.26719905,13.1454795 C3.24783061,13.2198037 3.21839607,13.2911575 3.17970553,13.3575772 C2.58095809,14.6144509 1.84723087,15.8030256 0.991367562,16.902496 C0.632394142,17.3391384 0.255922018,17.8484715 0.332416354,18.3662686 C0.441404829,18.7588526 0.701806602,19.0926192 1.05686271,19.2948183 C1.2221828,19.4084351 1.39658882,19.5083469 1.5783241,19.5935474 C1.79380815,19.7030814 2.15528138,19.8863019 2.17827968,20.0177428 C2.21058956,20.1853934 2.19160454,20.3588429 2.12378371,20.5156246 C2.04928923,20.6709637 1.97379482,20.8058897 1.90629982,20.9223941 C1.71031433,21.2669283 1.41583613,21.786717 1.87830189,22.1745669 C1.98629389,22.2696624 2.17078023,22.4140481 2.33976772,22.5425016 C2.21488013,22.7615408 2.15880347,23.0128353 2.17877964,23.2639324 C2.20604484,23.4586703 2.31253293,23.6336713 2.47325784,23.7478736 C2.58524954,23.8270368 2.70474069,23.8972382 2.82323192,23.9629586 C3.11721015,24.1302469 3.23170168,24.2079164 3.2731986,24.361264 C3.29983673,24.563918 3.28140284,24.7699262 3.2192026,24.9646969 C3.19020475,25.0956398 3.16220682,25.2260848 3.14470812,25.3565299 C3.09429194,25.8093763 3.15166971,26.2676816 3.31219572,26.6943384 C3.57072355,27.640578 4.52831887,28.2192658 5.49053442,28.010738 C6.91811307,27.6679355 8.32605921,27.2486062 9.70822212,26.7545821 C10.8321389,27.4152713 11.5425863,29.4157606 11.7275726,30.1660686 C11.7823694,30.3887605 11.982798,30.5453938 12.2130367,30.5454545 L24.7621075,30.5111007 C24.9203944,30.5106103 25.0690982,30.4355049 25.1630111,30.3086172 C25.256924,30.1817294 25.2849512,30.0180501 25.2385722,29.8673395 C25.1148254,29.5274666 24.9432964,29.2067903 24.7291099,28.9148915 C24.6109418,28.7459803 24.5040526,28.5695156 24.4091336,28.3866388 C24.1840819,27.9272716 23.9951945,27.4511929 23.8441754,26.9626967 C23.5586641,26.0010061 23.3615341,25.0154593 23.255219,24.0182234 C23.0780439,22.529415 23.3038243,21.0205077 23.9091706,19.6478165 C24.2793297,18.8900178 24.7343539,18.1763338 25.2655702,17.5203674 Z M22.2617926,24.142196 C22.3742651,25.1991754 22.5832816,26.2437407 22.8862464,27.2629195 C23.0520777,27.7995086 23.2593475,28.3225174 23.5062004,28.8272643 C23.6201013,29.0499716 23.749055,29.2647205 23.8921719,29.4700297 C23.903671,29.4879535 23.9156701,29.5058772 23.9276692,29.523801 L12.5910087,29.5561633 C12.2582824,28.3747626 11.6550307,27.2862718 10.8286392,26.3761919 L11.1986118,26.2472405 C11.573084,26.1162976 11.8555631,26.017717 11.9985525,25.9734055 C14.1418938,25.3032565 15.2138145,24.3333827 15.1848166,23.0901717 C15.1785677,22.8196813 14.9565465,22.6036695 14.6848536,22.6037411 L14.6718546,22.6037411 C14.3958978,22.6102639 14.1774642,22.8382632 14.1838907,23.1130742 C14.1958898,23.6258925 13.774421,24.3737111 11.6970749,25.022949 C11.547086,25.069252 11.2561075,25.1723136 10.8681362,25.3067417 C10.5101627,25.43171 10.0681955,25.5855555 9.58623115,25.7498565 L9.58323138,25.7498565 C8.1757267,26.2571873 6.74174632,26.6884826 5.28754945,27.0418599 C4.81963786,27.1298874 4.36499276,26.8357298 4.25562586,26.3742004 C4.14769291,26.094518 4.10644614,25.7936985 4.13513478,25.4954389 C4.14863378,25.3918795 4.17213204,25.2888179 4.19513034,25.1857564 C4.29771335,24.8402257 4.31384791,24.4749487 4.24212686,24.1217829 C4.09860625,23.6646391 3.76191531,23.2926205 3.32019512,23.1031166 C3.28469775,23.0832013 3.24870042,23.0627882 3.21320305,23.0418771 C3.26673535,22.93299 3.33087147,22.8295987 3.40468887,22.7331904 C3.48786233,22.6274151 3.52458077,22.4926565 3.50650429,22.3595223 C3.4884278,22.2263882 3.41709074,22.106179 3.30869598,22.0261982 C3.18870486,21.9375752 2.90272604,21.727469 2.69774121,21.5611765 C2.72273936,21.5148735 2.75173722,21.4616001 2.77773529,21.4177865 C2.85472959,21.2828605 2.94272307,21.1270235 3.02771678,20.9482839 C3.18780909,20.6003573 3.2348265,20.2113368 3.16220682,19.835518 C3.04571545,19.224617 2.46225865,18.9268836 2.03179052,18.7098071 C1.88687519,18.6413929 1.74790889,18.5611246 1.61632129,18.4698281 C1.51240367,18.3980201 1.41397455,18.3186394 1.32184309,18.2323384 C1.32184309,18.1576562 1.40133721,17.9754314 1.7863087,17.5079203 C2.67979175,16.3610432 3.44571506,15.1210352 4.07063956,13.8096539 C4.19095847,13.6043658 4.25829538,13.3725757 4.26662505,13.135024 C4.21527314,12.633984 3.9480227,12.1798236 3.53417928,11.8903194 C3.33419409,11.7061031 3.14120838,11.5318444 3.11970997,11.3794926 C3.12158993,11.2590256 3.14884223,11.1402931 3.19970405,11.0309753 C3.28169797,10.8143967 3.3771909,10.6027969 3.47268383,10.3906992 C3.67657892,9.97171717 3.83916229,9.53401913 3.95814789,9.08375938 L3.99914485,8.90850496 C4.1059775,8.39797601 4.24541722,7.89475662 4.41661394,7.40191447 C4.80885959,6.31745824 5.4192766,5.32415347 6.21048111,4.48283317 C7.1789094,3.46715419 8.64480086,2.77011959 10.6906494,2.35986495 C12.2356648,2.02371735 13.8031835,1.79991001 15.3808021,1.69021385 C18.2095926,1.54881541 20.6364129,2.39421879 23.255719,4.43951745 C24.5278572,5.37334004 25.456598,6.6975888 25.8990233,8.20848308 C26.2498121,9.49226934 26.4138046,10.819539 26.3859872,12.1497158 C26.3771597,13.4178854 26.0062513,14.6573889 25.3165664,15.7235118 C25.0560857,16.1332685 24.755108,16.5365528 24.4666293,16.9263943 C23.8891188,17.6446234 23.395641,18.4260238 22.9957382,19.2554856 C22.3179883,20.7908034 22.064597,22.4786047 22.2617926,24.1441876 L22.2617926,24.142196 Z" id="Shape" fill="#204156" fill-rule="nonzero"></path>
                    <g id="Group-3" transform="translate(7.000000, 3.000000)">
                        <mask id="mask-2" fill="white">
                            <use xlink:href="#path-1"></use>
                        </mask>
                        <g id="Clip-2"></g>
                        <path d="M1.38871937,5.68176452 C1.85398812,6.36934516 2.60289125,6.77619194 3.39997875,6.77421613 L3.39997875,5.87099032 C2.77889437,5.87341774 2.21051,5.50004677 1.9348975,4.90865968 L1.84320375,4.71435323 C2.6535725,3.24486129 3.89866312,2.10149032 5.38472875,1.46268387 C5.75681625,2.07569194 5.95332563,2.79036935 5.94997875,3.5198371 L5.94997875,3.61292581 L6.79997875,3.61292581 L6.79997875,3.5198371 C6.80417563,2.69575645 6.60246,1.88539355 6.21523188,1.1715629 C6.82138813,0.996054839 7.44661625,0.905845161 8.07497875,0.903248387 L8.92497875,0.903248387 C9.54091,0.905675806 10.1541319,0.992329032 10.7495038,1.16055484 C10.2960819,1.89950645 10.1022819,2.78466774 10.2024756,3.66028871 L11.0473225,3.56550645 C10.9477131,2.8110871 11.1477288,2.04678871 11.5999288,1.45562742 C13.6732381,2.34011129 15.2470663,4.19132903 15.8650694,6.47299032 L15.8482819,6.45486935 C15.3830131,6.94639355 14.7542256,7.22340161 14.0980256,7.22582903 L14.0249788,7.22582903 L14.0249788,8.12905484 L14.0980256,8.12905484 C14.8042162,8.12549839 15.4915475,7.88490161 16.0615787,7.4417 C16.1174131,7.81857097 16.14711,8.19916774 16.1499787,8.58066774 L16.1499787,9.48389355 L11.4544725,9.48389355 C11.3725006,8.68075645 11.0361131,7.93124839 10.5005069,7.35809516 L9.89950375,7.99673226 C10.275735,8.40024839 10.5200038,8.92157903 10.5963444,9.48389355 L8.92497875,9.48389355 C7.98599437,9.48389355 7.22497875,8.67499839 7.22497875,7.67744194 C7.22497875,6.67982903 7.98599437,5.87099032 8.92497875,5.87099032 L11.9356788,5.87099032 C12.0050069,6.29635323 12.1675163,6.69857097 12.4098725,7.04518387 L13.0932194,6.50782097 C12.6335819,5.86613548 12.6335819,4.97724839 13.0932194,4.33550645 L12.4098725,3.79571613 C12.1668788,4.14215968 12.0039444,4.54437742 11.9338194,4.96996613 L9.3294725,4.96996613 C9.24750063,4.16705484 8.91111313,3.41732097 8.37550687,2.84416774 L7.77450375,3.48280484 C8.1607225,3.89693387 8.4080725,4.43452258 8.4777725,5.01292581 C7.75415688,5.15078065 7.12186313,5.61385323 6.7429225,6.2833129 C6.0174475,6.03989355 5.52439437,5.32453871 5.52497875,4.51615161 L4.67497875,4.51615161 C4.67625375,5.69345 5.38116938,6.73978065 6.42980375,7.12015161 C6.26171625,7.96455484 6.48478813,8.84350645 7.02953188,9.48389355 L5.0794725,9.48389355 C4.99750063,8.68075645 4.66111312,7.93124839 4.12550687,7.35809516 L3.52450375,7.99673226 C3.900735,8.40024839 4.14500375,8.92157903 4.22134438,9.48389355 L1.69997875,9.48389355 C1.23040687,9.48389355 0.84997875,9.07947419 0.84997875,8.58066774 C0.85019125,7.58632903 1.03326,6.60153065 1.38871937,5.68176452 Z M16.1499787,10.8387323 C16.1499787,10.9904177 16.1359006,11.1417081 16.1074788,11.2903452 L12.1124787,11.2903452 L11.4749788,10.3871194 L16.1499787,10.3871194 L16.1499787,10.8387323 Z M14.0249788,13.0967968 L13.3874787,13.0967968 L12.7499788,12.193571 L15.7137694,12.193571 C15.3159694,12.7600629 14.6903163,13.0947645 14.0249788,13.0967968 Z M1.69997875,10.3871194 L10.4124788,10.3871194 L12.8348725,13.8193774 C12.9151975,13.9329581 13.0411569,14.0000226 13.1749788,14.0000226 L14.0249787,14.0000226 C15.6671256,13.9977645 16.9976944,12.5836516 16.9999788,10.8387323 L16.9999788,8.58066774 C16.9950381,3.84375645 13.3825381,0.00527258065 8.92497875,2.25806452e-05 L8.07497875,2.25806452e-05 C3.61726,0.00527258065 0.00476,3.84375645 -2.125e-05,8.58066774 C-2.125e-05,9.57822419 0.760994375,10.3871194 1.69997875,10.3871194 Z" id="Fill-1" fill="#204156" mask="url(#mask-2)"></path>
                    </g>
                </g>
            </g>
        </g>
    </g>
</svg>