<svg xmlns="http://www.w3.org/2000/svg" width="96" height="99" viewBox="0 0 96 99">
    <g fill="none" fill-rule="evenodd">
        <g stroke="#3C4051">
            <path d="M89.454 37.777v1.284c0 11.029.378 22.133.984 33.162v.076c.378 7.856-.076 14.881-.984 20.924v.151h-4.995v-.15c-.984-5.817-1.665-12.918-1.21-21v-.076c.68-11.03 1.134-22.134 1.134-33.163v-1.133h5.07v-.075zM84.383 37.777c.076-.982.227-2.04.379-3.173.53-3.173 1.286-5.817 2.119-8.007.757 2.266 1.513 4.91 2.043 7.931.227 1.133.303 2.191.454 3.173-1.59.076-3.254.076-4.995.076zM84.913 93.374h3.935v4.155h-3.935z"/>
            <path d="M89.454 93.223c2.648 0 4.843-2.19 4.843-4.834V67.237c0-.68.757-1.133 1.362-.755M84.156 54.547h5.525"/>
        </g>
        <path stroke="#0BA6BF" d="M19 53.036h32.389M19 65.273h32.389M51.389 77.511h-32.39"/>
        <path stroke="#3C4051" d="M50.859 5.596V.837H24.524v4.76"/>
        <path stroke="#3C4051" d="M24.524 5.596a8.97 8.97 0 0 0 9.005 8.99h8.325a8.97 8.97 0 0 0 9.005-8.99"/>
        <path stroke="#0BA6BF" d="M56.383 7.485H67.13v81.433H7.875V6.805H17.94M29.897 5.596h15.892"/>
        <path stroke="#3C4051" d="M17.41.837H.99v96.315H73.94V.837H56.308"/>
        <path stroke="#0BA6BF" d="M18.545 25.539h39.579v15.108H18.545z"/>
    </g>
</svg>
