<?xml version="1.0" encoding="UTF-8"?>
<svg width="104px" height="126px" viewBox="0 0 104 126" version="1.1" xmlns="http://www.w3.org/2000/svg" xmlns:xlink="http://www.w3.org/1999/xlink">
    <!-- Generator: Sketch 58 (84663) - https://sketch.com -->
    <title>Group</title>
    <desc>Created with Sketch.</desc>
    <g id="Order-Brochure" stroke="none" stroke-width="1" fill="none" fill-rule="evenodd">
        <g id="Congratulations" transform="translate(-668.000000, -250.000000)">
            <g id="Group" transform="translate(670.000000, 242.000000)">
                <g id="Group-17">
                    <path d="M99.4282549,52.0168983 L99.4282549,108.118421" id="Stroke-1" stroke="#222222" stroke-width="3" stroke-linecap="round" stroke-linejoin="round"></path>
                    <path d="M7.14811197,58.9942927 L44.5675283,90.2367513 C48.0303038,93.0325912 52.9875402,92.9983302 56.4110066,90.1568089 L92.7326266,58.9942927" id="Stroke-3" stroke="#222222" stroke-width="3" stroke-linecap="round" stroke-linejoin="round"></path>
                    <path d="M7.39130435,45.5921053 L0.452269208,52.0168983" id="Stroke-5" stroke="#222222" stroke-width="3" stroke-linecap="round" stroke-linejoin="round"></path>
                    <path d="M99.4282549,52.0168983 L92.6086957,45.5921053" id="Stroke-9" stroke="#222222" stroke-width="3" stroke-linecap="round" stroke-linejoin="round"></path>
                    <path d="M7.58508636,113.358997 L31.1641215,91.5547289" id="Stroke-11" stroke="#222222" stroke-width="3" stroke-linecap="round" stroke-linejoin="round"></path>
                    <polyline id="Polygon" stroke="#2E384D" stroke-width="3" stroke-linecap="round" transform="translate(51.137017, 38.753536) rotate(119.000000) translate(-51.137017, -38.753536) " points="75.6735204 65.7083167 62.7224581 72.8881049 26.6005134 52.8349434 28.6120428 11.7762877 41.5241917 4.61896673"></polyline>
                    <g id="g-shape-copy" transform="translate(26.371034, 27.530850)" fill="#0BA6BF" fill-rule="nonzero">
                        <path d="M22.4952741,24.6974834 C19.7164461,24.6974834 17.4763705,22.434497 17.4763705,19.6906259 C17.4763705,16.9467548 19.7448015,14.6837684 22.4952741,14.6837684 C25.2457467,14.6837684 27.5141777,16.9184675 27.5141777,19.6906259 C27.5141777,22.4627843 25.2741021,24.6974834 22.4952741,24.6974834 L22.4952741,24.6974834 Z M30.4347826,11.826748 L22.4952741,11.826748 C18.241966,11.826748 14.7826087,15.4758136 14.7826087,19.7189132 C14.7826087,23.9620128 18.3270321,27.4979292 22.5803403,27.4979292 C22.6086957,27.4979292 27.2306238,27.3847798 27.173913,29.9589269 C27.1455577,31.5713048 22.0415879,34.8809225 22.0415879,34.8809225 L22.0415879,37.8793795 C22.0415879,37.8793795 29.4990548,33.5797053 30.2079395,30.1852256 C30.8601134,27.1301939 27.8544423,26.1401373 27.3440454,25.8855513 C29.1020794,24.4711848 30.2079395,22.0667617 30.2079395,19.6623386 C30.2079395,17.6822254 29.442344,16.2395715 28.2230624,14.2877457 L30.4347826,14.2877457 L30.4347826,11.826748 L30.4347826,11.826748 Z" id="Shape"></path>
                        <path d="M9.78818283,8.35306375 C10.2638424,7.91885322 10.7692308,7.51359006 11.3043478,7.1083269 L9.6395392,4.87937954 C9.01523597,5.34253743 8.42066146,5.83464269 7.82608696,6.35569532 L9.78818283,8.35306375 Z" id="Path"></path>
                        <path d="M12.173913,6.61622164 C12.7329193,6.23674353 13.3229814,5.91564667 13.9130435,5.59454981 L12.515528,3.14253743 C11.8012422,3.52201554 11.1180124,3.93068427 10.4347826,4.36854362 L12.173913,6.61622164 Z" id="Path"></path>
                        <path d="M7.66105998,10.9583269 C8.26404316,10.2031782 8.8987623,9.47949395 9.56521739,8.78727427 L7.47064424,6.61622164 C6.67724532,7.43429944 5.91558235,8.28384178 5.2173913,9.16484864 L7.66105998,10.9583269 Z" id="Path"></path>
                        <path d="M2.85395764,21.3793795 C2.97287254,20.2151919 3.18097362,19.0510042 3.47826087,17.9182811 L0.743218135,17.0372743 C0.38647343,18.3587846 0.148643627,19.6802949 0,21.0647342 L2.85395764,21.3793795 Z" id="Path"></path>
                        <path d="M5.84347826,13.5635901 C6.1773913,12.9320111 6.56695652,12.3004322 6.95652174,11.6975614 L4.81391304,10.0899059 C4.34086957,10.8076092 3.89565217,11.5540207 3.47826087,12.3004322 L5.84347826,13.5635901 Z" id="Path"></path>
                        <path d="M4.21975059,17.0372743 C4.48938322,16.2199368 4.83990563,15.4536829 5.2173913,14.6874291 L2.92551399,13.5635901 C2.46713852,14.4575529 2.06268959,15.3770576 1.73913043,16.322104 L4.21975059,17.0372743 Z" id="Path"></path>
                        <path d="M14.2885375,4.87937954 C15.8102767,4.10002731 17.4426877,3.51551314 19.1304348,3.15367103 L18.6324111,0.537274272 C16.6679842,0.954784393 14.7865613,1.6506346 13.0434783,2.54132285 L14.2885375,4.87937954 Z" id="Path"></path>
                        <path d="M40.4265792,37.0109585 C39.3068089,38.4293795 37.9860541,39.7320111 36.5217391,40.8320111 L38.1009024,43.0899059 C39.7949139,41.845169 41.2879409,40.3399059 42.6086957,38.6899059 L40.4265792,37.0109585 Z" id="Path"></path>
                        <path d="M20,0.810206603 L20.4891304,3.14253743 C21.1956522,3.04328931 21.9021739,2.96885322 22.6086957,2.91922916 L22.5271739,0.537274272 C21.6576087,0.586898332 20.8152174,0.686146452 20,0.810206603" id="Path"></path>
                        <path d="M45.2242383,24.0693667 C45.2242383,26.1592255 44.9229716,28.1643603 44.3478261,30.0847711 L46.8401232,30.9320111 C47.4974324,28.7574283 47.826087,26.4698802 47.826087,24.0693667 C47.826087,24.0411254 47.826087,24.012884 47.826087,23.9846427 L45.2242383,24.0693667 L45.2242383,24.0693667" id="Path"></path>
                        <path d="M46.2822936,15.3004322 L43.4782609,16.2888789 C44.2344045,18.152807 44.7069943,20.1579418 44.8015123,22.2478006 L47.826087,22.1913179 C47.668557,19.7625631 47.1329553,17.4467736 46.2822936,15.3004322" id="Path"></path>
                        <path d="M40,10.2774059 C41.4574403,12.0241164 42.6862625,14.007669 43.5435803,16.1688532 L46.0869565,15.132669 C45.0867524,12.6458269 43.7150439,10.3366164 42.0004082,8.35306375 L40,10.2774059 Z" id="Path"></path>
                        <path d="M32.173913,4.73931162 C34.6709753,5.83184133 36.9036428,7.34457478 38.7837838,9.2214848 L40.8695652,7.40060195 C38.7250294,5.24355611 36.1398355,3.506714 33.2902468,2.27411638 L32.173913,4.73931162 Z" id="Path"></path>
                        <path d="M31.3043478,46.4473447 L30.3561285,43.9583269 C28.7043915,44.4233083 26.9914791,44.6968267 25.2173913,44.8062341 L25.3397422,47.4320111 C27.3891195,47.3226037 29.4079091,46.9670298 31.3043478,46.4473447" id="Path"></path>
                        <path d="M43.5487662,30.9320111 C42.9001175,32.8294016 41.9976498,34.5808391 40.8695652,36.1863234 L43.012926,37.8793795 C44.3102233,36.0403702 45.3537015,33.9970266 46.0869565,31.8369204 L43.5487662,30.9320111 Z" id="Path"></path>
                        <path d="M35.783429,40.4846427 C34.4052502,41.4901829 32.8835111,42.3128975 31.3043478,42.9223158 L32.1944217,45.695169 C34.0319934,44.994338 35.783429,44.0192687 37.3913043,42.861374 L35.783429,40.4846427 Z" id="Path"></path>
                        <path d="M23.5879852,2.48535393 C23.6428473,2.48535393 23.6977095,2.48535393 23.7800027,2.48535393 C26.3859553,2.48535393 28.8821835,3.01344781 31.1589631,4.01095848 L32.173913,1.42916616 C29.5679605,0.28496275 26.7151282,-0.331146781 23.7525717,-0.331146781 C23.6702784,-0.331146781 23.5879852,-0.331146781 23.4782609,-0.331146781 L23.5879852,2.48535393 Z" id="Path"></path>
                        <path d="M2.52883762,23.8342076 C2.52883762,23.3692262 2.55545697,22.9315967 2.58207631,22.4939672 L0.0532386868,22.2478006 C0.0266193434,22.7674856 0,23.2871707 0,23.8342076 C0,24.4633 0.0266193434,25.0923924 0.0798580302,25.7214848 L2.60869565,25.4479664 C2.55545697,24.9282813 2.52883762,24.3812444 2.52883762,23.8342076" id="Path"></path>
                        <path d="M24.2331581,44.4004322 C24.0898232,44.4004322 23.9464883,44.4004322 23.8031534,44.4004322 C22.3984711,44.4004322 21.0511228,44.2425374 19.7324415,43.9583269 L19.1304348,46.926748 C20.649785,47.2741164 22.1978022,47.4320111 23.8031534,47.4320111 C24.0038223,47.4320111 24.1758242,47.4320111 24.3478261,47.4320111 L24.2331581,44.4004322 Z" id="Path"></path>
                        <path d="M3.47826087,30.0635901 C3.10762651,28.9430468 2.8510335,27.7664763 2.70848182,26.5899059 L0,26.8700417 C0.17106201,28.2707208 0.484675695,29.6153727 0.91233072,30.9320111 L3.47826087,30.0635901 Z" id="Path"></path>
                        <path d="M6.08695652,34.6064863 C5.41581558,33.431859 4.83221477,32.1969944 4.39451415,30.9320111 L1.73913043,31.8656892 C2.26437117,33.3716217 2.93551211,34.8173169 3.72337321,36.1425374 L6.08695652,34.6064863 Z" id="Path"></path>
                        <path d="M13.0434783,41.5131637 C11.8063649,40.7272184 10.6499328,39.7957277 9.60107575,38.7478006 L7.82608696,40.7563275 C9.03630659,41.9789091 10.3809951,43.0559453 11.8332586,43.9583269 L13.0434783,41.5131637 Z" id="Path"></path>
                        <path d="M9.56521739,38.4648319 C8.55242967,37.4988355 7.63171355,36.4157485 6.83375959,35.2741164 L4.34782609,36.76702 C5.2685422,38.1135605 6.342711,39.3430105 7.50895141,40.4846427 L9.56521739,38.4648319 Z" id="Path"></path>
                        <path d="M19.1304348,43.9132141 C17.4676564,43.5184773 15.8939555,42.9545675 14.4093319,42.2214848 L13.0434783,44.5899059 C14.7656416,45.4357705 16.5768823,46.1124622 18.5068929,46.5635901 L19.1304348,43.9132141 Z" id="Path"></path>
                    </g>
                </g>
                <polygon id="Stroke-1" stroke="#0BA6BF" stroke-width="3" stroke-linecap="round" stroke-linejoin="round" points="100 118.973923 76.7324867 105.947368 76.7324867 112.162702 44.3478261 112.162702 44.3478261 125.784666 76.7324867 125.784666 76.7324867 132"></polygon>
                <polyline id="Stroke-1" stroke="#222222" stroke-width="3" stroke-linecap="round" stroke-linejoin="round" points="35.2173913 119.46395 0.452912448 119.46395 0.452912448 52.0168983"></polyline>
            </g>
        </g>
    </g>
</svg>