<?xml version="1.0" encoding="UTF-8"?>
<svg width="18px" height="25px" viewBox="0 0 18 25" version="1.1" xmlns="http://www.w3.org/2000/svg" xmlns:xlink="http://www.w3.org/1999/xlink">
    <!-- Generator: sketchtool 57.1 (101010) - https://sketch.com -->
    <title>0C35AFAC-8ADD-4237-9B0F-F83CBBFC6F27</title>
    <desc>Created with sketchtool.</desc>
    <g id="Main-pages" stroke="none" stroke-width="1" fill="none" fill-rule="evenodd">
        <g id="gpcl_homepage-stage-1" transform="translate(-766.000000, -9.000000)" fill-rule="nonzero">
            <g id="icon/services-icon/services-header" transform="translate(763.000000, 9.000000)">
                <g id="icon_pin" transform="translate(4.000000, 1.000000)">
                    <path d="M7.81714297,0 C3.51524577,0 0.0152228574,3.41408485 0.0152228574,7.61035511 C0.0152228574,8.87007452 0.338102862,10.1190919 0.951908586,11.2269315 L7.39049154,22.5857656 C7.47620583,22.7371995 7.63954297,22.8310207 7.81714297,22.8310207 C7.99474298,22.8310207 8.15808012,22.7371995 8.24379441,22.5857656 L14.6847545,11.2231858 C15.2961831,10.1190919 15.6190631,8.87002993 15.6190631,7.61031052 C15.6190631,3.41408485 12.1190402,0 7.81714297,0 Z" id="Shape" stroke="#222222" stroke-width="1.08571429"></path>
                    <g id="g-shape" transform="translate(2.947368, 2.875000)" fill="#222222">
                        <path d="M4.7187681,5.0343142 C4.13561643,5.0343142 3.66552478,4.56978694 3.66552478,4.00654763 C3.66552478,3.44330833 4.14156695,2.97878107 4.7187681,2.97878107 C5.29596924,2.97878107 5.77201142,3.43750174 5.77201142,4.00654763 C5.77201142,4.57559353 5.30191976,5.0343142 4.7187681,5.0343142 L4.7187681,5.0343142 Z M6.38491572,2.3923154 L4.7187681,2.3923154 C3.82618901,2.3923154 3.10022469,3.14136561 3.10022469,4.01235423 C3.10022469,4.88334284 3.84404059,5.60916669 4.73661968,5.60916669 C4.7425702,5.60916669 5.71250614,5.58594033 5.70060509,6.11434009 C5.69465456,6.44531576 4.62355966,7.12468688 4.62355966,7.12468688 L4.62355966,7.7401855 C4.62355966,7.7401855 6.18854832,6.8575837 6.3373115,6.16079281 C6.47417363,5.53368101 5.84341774,5.33045033 5.73630825,5.27819101 C6.10524094,4.98786148 6.3373115,4.49430126 6.3373115,4.00074104 C6.3373115,3.59427969 6.17664727,3.29814356 5.9207746,2.8974888 L6.38491572,2.8974888 L6.38491572,2.3923154 L6.38491572,2.3923154 Z" id="Shape"></path>
                        <path d="M2.0112782,1.67810473 C2.10648664,1.59100587 2.2076456,1.5097136 2.31475509,1.42842133 L1.98152557,0.981313841 C1.8565645,1.07421929 1.73755395,1.17293134 1.61854341,1.27744997 L2.0112782,1.67810473 Z" id="Path"></path>
                        <path d="M2.48136986,1.31228952 C2.58847935,1.23680384 2.70153936,1.17293134 2.81459938,1.10905884 L2.54682566,0.621305213 C2.40996353,0.696790893 2.27905193,0.778083164 2.14814033,0.865182025 L2.48136986,1.31228952 Z" id="Path"></path>
                        <path d="M1.50548339,2.22392427 C1.61854341,2.08456609 1.73755395,1.9510145 1.86251502,1.8232695 L1.46978023,1.42261474 C1.32101705,1.5735861 1.17820439,1.73036405 1.04729279,1.89294859 L1.50548339,2.22392427 Z" id="Path"></path>
                        <path d="M0.642656941,4.30268376 C0.66645905,4.08783991 0.708112741,3.87299605 0.767618013,3.66395878 L0.220169508,3.50137424 C0.148763181,3.74525105 0.101158963,3.98912786 0.0714063268,4.24461786 L0.642656941,4.30268376 Z" id="Path"></path>
                        <path d="M1.14250123,2.75813062 C1.21390756,2.63038562 1.29721494,2.50264062 1.38052232,2.38070222 L0.922331721,2.05553313 C0.821172758,2.2006979 0.725964322,2.35166926 0.636706414,2.50264062 L1.14250123,2.75813062 Z" id="Path"></path>
                        <path d="M0.827123285,3.47234128 C0.886628558,3.28653038 0.963985412,3.11233266 1.04729279,2.93813493 L0.541497978,2.68264494 C0.440339015,2.88587562 0.351081107,3.09491288 0.27967478,3.30975674 L0.827123285,3.47234128 Z" id="Path"></path>
                        <path d="M2.9931152,1.01034679 C3.3203942,0.847762253 3.6714753,0.725823847 4.03445746,0.650338167 L3.92734797,0.104518634 C3.50486054,0.191617496 3.10022469,0.336782265 2.72534147,0.52259317 L2.9931152,1.01034679 Z" id="Path"></path>
                        <path d="M8.34858971,7.42082301 C8.11651914,7.70534596 7.84279489,7.96664254 7.539318,8.18729299 L7.866597,8.64020707 C8.21767811,8.39052367 8.52710552,8.08858095 8.80082978,7.75760528 L8.34858971,7.42082301 Z" id="Path"></path>
                        <path d="M4.13561643,0.0696790893 L4.24272592,0.615498622 C4.39743962,0.592272259 4.55215333,0.574852487 4.70686704,0.563239305 L4.68901546,0.00580659077 C4.49859859,0.0174197723 4.31413224,0.0406461354 4.13561643,0.0696790893" id="Path"></path>
                        <path d="M9.28877301,4.79043739 C9.28877301,5.22012511 9.22331721,5.63239305 9.09835614,6.02724122 L9.63985412,6.20143895 C9.78266677,5.75433146 9.8540731,5.28399761 9.8540731,4.79043739 C9.8540731,4.7846308 9.8540731,4.77882421 9.8540731,4.77301762 L9.28877301,4.79043739 L9.28877301,4.79043739" id="Path"></path>
                        <path d="M9.56844779,3.15878538 L9.03885087,3.36201606 C9.18166352,3.74525105 9.27092143,4.15751899 9.28877301,4.58720671 L9.86002362,4.57559353 C9.83027099,4.07622672 9.72911202,3.60008628 9.56844779,3.15878538" id="Path"></path>
                        <path d="M8.22362864,2.014887 C8.52710552,2.35747585 8.78297819,2.74651744 8.96149401,3.17039856 L9.49109094,2.96716789 C9.28282248,2.47941426 8.99719718,2.02650018 8.64016554,1.6374586 L8.22362864,2.014887 Z" id="Path"></path>
                        <path d="M6.74194735,0.934861115 C7.24774217,1.16131815 7.69998224,1.47487406 8.08081598,1.86391564 L8.50330341,1.48648724 C8.06891493,1.03937975 7.54526853,0.679371121 6.96806739,0.423881127 L6.74194735,0.934861115 Z" id="Path"></path>
                        <path d="M6.43251994,9.36022433 L6.24805359,8.83182457 C5.92672512,8.93053661 5.5934956,8.98860252 5.24836502,9.01182888 L5.27216713,9.5692616 C5.67085245,9.54603523 6.06358725,9.47054955 6.43251994,9.36022433" id="Path"></path>
                        <path d="M9.03885087,6.21885872 C8.90198874,6.59628712 8.71157187,6.94468257 8.47355078,7.26404506 L8.92579085,7.60082732 C9.1995151,7.23501211 9.41968461,6.82855075 9.57439832,6.39886303 L9.03885087,6.21885872 Z" id="Path"></path>
                        <path d="M7.37270324,8.30342481 C7.08707793,8.4950423 6.77169999,8.65182025 6.44442099,8.76795207 L6.62888734,9.29635183 C7.00972108,9.16280024 7.37270324,8.97698934 7.70593277,8.75633889 L7.37270324,8.30342481 Z" id="Path"></path>
                        <path d="M4.91513549,0.557432714 C4.92703655,0.557432714 4.9389376,0.557432714 4.95678918,0.557432714 C5.52208927,0.557432714 6.06358725,0.661951348 6.55748101,0.859375435 L6.77765052,0.348395446 C6.21235043,0.121938406 5.5934956,0 4.95083866,0 C4.93298708,0 4.91513549,0 4.89133338,0 L4.91513549,0.557432714 Z" id="Path"></path>
                        <path d="M0.612904305,4.79043739 C0.612904305,4.69172535 0.618854832,4.59881989 0.624805359,4.50591444 L0.0595052723,4.45365512 C0.0535547451,4.56398035 0.0476042179,4.67430557 0.0476042179,4.79043739 C0.0476042179,4.92398898 0.0535547451,5.05754056 0.0654557996,5.19109215 L0.630755887,5.13302624 C0.618854832,5.02270102 0.612904305,4.9065692 0.612904305,4.79043739" id="Path"></path>
                        <path d="M5.04009657,9.02344206 C5.01034393,9.02344206 4.98059129,9.02344206 4.95083866,9.02344206 C4.65926282,9.02344206 4.37958804,8.99440911 4.10586379,8.94214979 L3.98090272,9.48796933 C4.29628066,9.55184182 4.61760913,9.58087478 4.95083866,9.58087478 C4.99249235,9.58087478 5.02819551,9.58087478 5.06389867,9.58087478 L5.04009657,9.02344206 Z" id="Path"></path>
                        <path d="M0.809271704,6.05627418 C0.73191485,5.82401055 0.678360104,5.58013373 0.648607468,5.33625692 L0.0833073813,5.39432283 C0.119010545,5.68465237 0.184466344,5.96336873 0.273724253,6.23627849 L0.809271704,6.05627418 Z" id="Path"></path>
                        <path d="M1.22580861,6.95629575 C1.08894648,6.72983871 0.969935939,6.49176849 0.88067803,6.24789167 L0.339180052,6.42789599 C0.446289542,6.71822553 0.583151669,6.99694188 0.743815904,7.25243188 L1.22580861,6.95629575 Z" id="Path"></path>
                        <path d="M2.77889622,8.45439617 C2.50517196,8.29761822 2.24929929,8.11180731 2.01722873,7.90277004 L1.62449393,8.30342481 C1.89226766,8.54730162 2.18979402,8.76214548 2.51112249,8.94214979 L2.77889622,8.45439617 Z" id="Path"></path>
                        <path d="M1.86251502,7.76341187 C1.66614763,7.57179437 1.48763181,7.35695051 1.3329181,7.13049347 L0.850925394,7.4266296 C1.02944121,7.69373278 1.23770966,7.93760959 1.4638297,8.16406663 L1.86251502,7.76341187 Z" id="Path"></path>
                        <path d="M3.90354586,8.90150366 C3.57031634,8.82021139 3.2549384,8.70407957 2.95741203,8.55310821 L2.68368778,9.04086184 C3.02881836,9.21505956 3.39180052,9.35441774 3.77858479,9.44732319 L3.90354586,8.90150366 Z" id="Path"></path>
                    </g>
                </g>
            </g>
        </g>
    </g>
</svg>