<?xml version="1.0" encoding="UTF-8"?>
<svg width="64px" height="64px" viewBox="0 0 64 64" version="1.1" xmlns="http://www.w3.org/2000/svg" xmlns:xlink="http://www.w3.org/1999/xlink">
    <!-- Generator: Sketch 55 (78076) - https://sketchapp.com -->
    <title>icon_transfer</title>
    <desc>Created with Sketch.</desc>
    <g id="main-pages" stroke="none" stroke-width="1" fill="none" fill-rule="evenodd">
        <g id="PGT-SR-Page" transform="translate(-403.000000, -2631.000000)">
            <g id="02--how-it-works" transform="translate(0.000000, 1386.000000)">
                <g id="icon_transfer" transform="translate(393.000000, 1235.000000)">
                    <rect id="mask" stroke="#979797" stroke-width="1.13513514" opacity="0" x="0.567567568" y="0.567567568" width="82.8648649" height="82.8648649"></rect>
                    <g id="shape" transform="translate(10.000000, 10.000000)" fill-rule="nonzero">
                        <path d="M59.733375,12.8 C57.38025,12.8 55.46675,14.713625 55.46675,17.066625 C55.46675,19.419625 57.380375,21.33325 59.733375,21.33325 C62.086375,21.33325 64,19.41975 64,17.066625 C64,14.713625 62.086375,12.8 59.733375,12.8 Z M59.733375,19.2 C58.556875,19.2 57.6,18.24325 57.6,17.066625 C57.6,15.890125 58.55675,14.93325 59.733375,14.93325 C60.91,14.93325 61.86675,15.89 61.86675,17.066625 C61.866625,18.24325 60.909875,19.2 59.733375,19.2 Z" id="Shape" fill="#000000"></path>
                        <path d="M4.266625,48 C1.913625,48 2.03392858e-13,49.913625 2.03392858e-13,52.266625 C2.03392858e-13,54.619625 1.913625,56.53325 4.266625,56.53325 C6.61975,56.53325 8.53325,54.619625 8.53325,52.266625 C8.53325,49.913625 6.61975,48 4.266625,48 Z M4.266625,54.4 C3.090125,54.4 2.13325,53.44325 2.13325,52.266625 C2.13325,51.09 3.09,50.13325 4.266625,50.13325 C5.443125,50.13325 6.4,51.09 6.4,52.266625 C6.4,53.44325 5.44325,54.4 4.266625,54.4 Z" id="Shape" fill="#000000"></path>
                        <path d="M57.665125,14.14825 L48.463,9.705625 C47.93175,9.4485 47.295,9.6725 47.039,10.20275 C46.783,10.732875 47.005875,11.37075 47.536125,11.62675 L56.73825,16.069375 C56.887625,16.141875 57.0455,16.176 57.201125,16.176 C57.597875,16.176 57.97875,15.954125 58.162125,15.57225 C58.418125,15.042125 58.19525,14.40425 57.665125,14.14825 Z" id="Path" fill="#000000"></path>
                        <path d="M48,55.466625 C45.646875,55.466625 43.733375,57.38025 43.733375,59.73325 C43.733375,62.08625 45.646875,64 48,64 C50.353125,64 52.266625,62.086375 52.266625,59.733375 C52.266625,57.380375 50.353125,55.466625 48,55.466625 Z M48,61.866625 C46.8235,61.866625 45.866625,60.909875 45.866625,59.73325 C45.866625,58.556625 46.8235,57.6 48,57.6 C49.1765,57.6 50.133375,58.55675 50.133375,59.733375 C50.133375,60.91 49.1765,61.866625 48,61.866625 Z" id="Shape" fill="#000000"></path>
                        <path d="M45.93175,56.815 L36.729625,52.372375 C36.198375,52.11525 35.561625,52.33825 35.305625,52.8695 C35.049625,53.399625 35.2725,54.0375 35.80275,54.2935 L45.004875,58.736125 C45.15425,58.808625 45.312125,58.84275 45.46775,58.84275 C45.8645,58.84275 46.245375,58.620875 46.428875,58.239 C46.68475,57.70875 46.461875,57.071 45.93175,56.815 Z" id="Path" fill="#000000"></path>
                        <path d="M32,28.8 C29.646875,28.8 27.733375,30.713625 27.733375,33.066625 C27.733375,35.41975 29.647,37.33325 32,37.33325 C34.353125,37.33325 36.266625,35.419625 36.266625,33.066625 C36.266625,30.713625 34.353125,28.8 32,28.8 Z M32,35.2 C30.8235,35.2 29.866625,34.24325 29.866625,33.066625 C29.866625,31.890125 30.823375,30.93325 32,30.93325 C33.1765,30.93325 34.133375,31.89 34.133375,33.066625 C34.133375,34.24325 33.1765,35.2 32,35.2 Z" id="Shape" fill="#000000"></path>
                        <path d="M30.12475,30.26775 L23.056,24.758375 C22.590875,24.398875 21.921125,24.478875 21.558375,24.944 C21.19675,25.409125 21.278875,26.078875 21.744,26.441625 L28.81275,31.951 C29.008,32.1025 29.238375,32.176125 29.46775,32.176125 C29.785625,32.176125 30.09925,32.035375 30.310375,31.7655 C30.672,31.30025 30.589875,30.630375 30.12475,30.26775 Z" id="Path" fill="#000000"></path>
                        <path d="M51.2,27.733375 C44.730625,27.733375 39.466625,32.997375 39.466625,39.46675 C39.466625,45.936125 44.730625,51.200125 51.2,51.200125 C57.669375,51.200125 62.933375,45.936125 62.933375,39.46675 C62.933375,32.997375 57.669375,27.733375 51.2,27.733375 Z M51.2,49.066625 C45.906125,49.066625 41.6,44.7605 41.6,39.466625 C41.6,34.17275 45.906125,29.866625 51.2,29.866625 C56.493875,29.866625 60.8,34.17275 60.8,39.466625 C60.8,44.7605 56.493875,49.066625 51.2,49.066625 Z" id="Shape" fill="#000000"></path>
                        <path d="M51.2,32 C48.846875,32 46.933375,33.913625 46.933375,36.266625 C46.933375,38.61975 48.847,40.53325 51.2,40.53325 C53.553125,40.53325 55.466625,38.619625 55.466625,36.266625 C55.466625,33.913625 53.553125,32 51.2,32 Z M51.2,38.4 C50.0235,38.4 49.066625,37.44325 49.066625,36.266625 C49.066625,35.090125 50.023375,34.13325 51.2,34.13325 C52.3765,34.13325 53.333375,35.09 53.333375,36.266625 C53.333375,37.44325 52.3765,38.4 51.2,38.4 Z" id="Shape" fill="#0BA6BF"></path>
                        <path d="M25.6,40.533375 C19.130625,40.533375 13.866625,45.797375 13.866625,52.26675 C13.866625,58.736125 19.130625,64 25.6,64 C32.069375,64 37.333375,58.736 37.333375,52.266625 C37.333375,45.79725 32.069375,40.533375 25.6,40.533375 Z M25.6,61.866625 C20.306125,61.866625 16,57.5605 16,52.266625 C16,46.97275 20.306125,42.666625 25.6,42.666625 C30.893875,42.666625 35.2,46.97275 35.2,52.266625 C35.2,57.5605 30.893875,61.866625 25.6,61.866625 Z" id="Shape" fill="#000000"></path>
                        <path d="M25.6,44.8 C23.246875,44.8 21.333375,46.713625 21.333375,49.066625 C21.333375,51.41975 23.247,53.33325 25.6,53.33325 C27.953,53.33325 29.866625,51.419625 29.866625,49.066625 C29.866625,46.713625 27.953125,44.8 25.6,44.8 Z M25.6,51.2 C24.4235,51.2 23.466625,50.24325 23.466625,49.066625 C23.466625,47.890125 24.423375,46.93325 25.6,46.93325 C26.7765,46.93325 27.733375,47.89 27.733375,49.066625 C27.733375,50.24325 26.7765,51.2 25.6,51.2 Z" id="Shape" fill="#0BA6BF"></path>
                        <path d="M11.733375,13.866625 C5.264,13.866625 -2.04281037e-13,19.130625 -2.04281037e-13,25.6 C-2.04281037e-13,32.069375 5.264,37.333375 11.733375,37.333375 C18.20275,37.333375 23.46675,32.069375 23.46675,25.6 C23.466625,19.130625 18.202625,13.866625 11.733375,13.866625 Z M11.733375,35.2 C6.4395,35.2 2.133375,30.893875 2.133375,25.6 C2.133375,20.306125 6.4395,16 11.733375,16 C17.02725,16 21.333375,20.306125 21.333375,25.6 C21.333375,30.893875 17.02725,35.2 11.733375,35.2 Z" id="Shape" fill="#000000"></path>
                        <path d="M11.733375,18.133375 C9.38025,18.133375 7.46675,20.047 7.46675,22.4 C7.46675,24.753 9.380375,26.666625 11.733375,26.666625 C14.0865,26.666625 16,24.753 16,22.4 C16,20.047 14.086375,18.133375 11.733375,18.133375 Z M11.733375,24.533375 C10.556875,24.533375 9.6,23.576625 9.6,22.4 C9.6,21.223375 10.55675,20.266625 11.733375,20.266625 C12.909875,20.266625 13.86675,21.223375 13.86675,22.4 C13.86675,23.576625 12.909875,24.533375 11.733375,24.533375 Z" id="Shape" fill="#0BA6BF"></path>
                        <path d="M37.333375,-5.32907052e-15 C30.864,-5.32907052e-15 25.6,5.264 25.6,11.733375 C25.6,18.20275 30.864,23.46675 37.333375,23.46675 C43.80275,23.46675 49.06675,18.20275 49.06675,11.733375 C49.066625,5.264 43.802625,-5.32907052e-15 37.333375,-5.32907052e-15 Z M37.333375,21.333375 C32.0395,21.333375 27.733375,17.02725 27.733375,11.733375 C27.733375,6.4395 32.0395,2.133375 37.333375,2.133375 C42.62725,2.133375 46.933375,6.4395 46.933375,11.733375 C46.933375,17.02725 42.62725,21.333375 37.333375,21.333375 Z" id="Shape" fill="#000000"></path>
                        <path d="M37.333375,4.266625 C34.98025,4.266625 33.06675,6.18025 33.06675,8.53325 C33.06675,10.88625 34.980375,12.799875 37.333375,12.799875 C39.686375,12.799875 41.6,10.886375 41.6,8.533375 C41.6,6.180375 39.686375,4.266625 37.333375,4.266625 Z M37.333375,10.666625 C36.156875,10.666625 35.2,9.709875 35.2,8.53325 C35.2,7.35675 36.15675,6.399875 37.333375,6.399875 C38.51,6.399875 39.46675,7.356625 39.46675,8.53325 C39.466625,9.709875 38.509875,10.666625 37.333375,10.666625 Z" id="Shape" fill="#0BA6BF"></path>
                        <path d="M27.478375,11.038875 C27.0955,10.593 26.422375,10.539625 25.974375,10.922625 L18.582375,17.248 C18.134375,17.630875 18.082125,18.304 18.465,18.752 C18.67625,18.998375 18.974875,19.125375 19.275625,19.125375 C19.521,19.125375 19.767375,19.041125 19.969,18.86825 L27.361,12.542875 C27.809125,12.16 27.861375,11.486875 27.478375,11.038875 Z" id="Path" fill="#000000"></path>
                        <path d="M50.986625,28.161125 L44.586625,19.62775 C44.2335,19.15525 43.56475,19.062375 43.09325,19.414375 C42.62175,19.7675 42.526875,20.43625 42.879875,20.906625 L49.279875,29.44 C49.49,29.7195 49.81,29.866625 50.13425,29.866625 C50.356125,29.866625 50.58125,29.79725 50.77325,29.65325 C51.24475,29.30025 51.33975,28.6315 50.986625,28.161125 Z" id="Path" fill="#000000"></path>
                        <path d="M42.2325,42.994125 C41.879375,42.522625 41.210625,42.42775 40.739125,42.78075 L34.78075,47.249 C34.30925,47.602125 34.214375,48.270875 34.567375,48.74125 C34.7775,49.02075 35.0975,49.167875 35.42175,49.167875 C35.644625,49.167875 35.868625,49.0975 36.06075,48.9545 L42.019125,44.48625 C42.490625,44.133375 42.585625,43.4645 42.2325,42.994125 Z" id="Path" fill="#000000"></path>
                        <path d="M14.933375,51.2 L7.466625,51.2 C6.877875,51.2 6.4,51.67675 6.4,52.266625 C6.4,52.8565 6.877875,53.33325 7.466625,53.33325 L14.93325,53.33325 C15.522,53.33325 15.999875,52.8565 15.999875,52.266625 C15.999875,51.67675 15.522125,51.2 14.933375,51.2 Z" id="Path" fill="#000000"></path>
                        <path d="M11.733375,4.4408921e-15 C9.38025,4.4408921e-15 7.466625,1.913625 7.466625,4.266625 C7.466625,6.61975 9.38025,8.53325 11.73325,8.53325 C14.086375,8.53325 15.999875,6.619625 15.999875,4.266625 C16,1.913625 14.086375,4.4408921e-15 11.733375,4.4408921e-15 Z M11.733375,6.4 C10.556875,6.4 9.6,5.44325 9.6,4.266625 C9.6,3.090125 10.55675,2.13325 11.733375,2.13325 C12.909875,2.13325 13.86675,3.09 13.86675,4.266625 C13.866625,5.44325 12.909875,6.4 11.733375,6.4 Z" id="Shape" fill="#222222"></path>
                        <path d="M11.733375,6.4 C11.144625,6.4 10.66675,6.87675 10.66675,7.466625 L10.66675,14.93325 C10.66675,15.523125 11.144625,15.999875 11.733375,15.999875 C12.322125,15.999875 12.8,15.523125 12.8,14.93325 L12.8,7.466625 C12.8,6.87675 12.322125,6.4 11.733375,6.4 Z" id="Path" fill="#000000"></path>
                    </g>
                </g>
            </g>
        </g>
    </g>
</svg>