<?xml version="1.0" encoding="UTF-8"?>
<svg width="94px" height="102px" viewBox="0 0 94 102" version="1.1" xmlns="http://www.w3.org/2000/svg" xmlns:xlink="http://www.w3.org/1999/xlink">
    <!-- Generator: sketchtool 53.2 (72643) - https://sketchapp.com -->
    <title>DFD8219A-798B-4F79-90DB-BF61D4757B18</title>
    <desc>Created with sketchtool.</desc>
    <g id="UI-Design" stroke="none" stroke-width="1" fill="none" fill-rule="evenodd" stroke-linecap="round" stroke-linejoin="round">
        <g id="PGT-A-page" transform="translate(-741.000000, -2300.000000)" stroke-width="2">
            <g id="ic_transfer_pgta" transform="translate(742.000000, 2301.000000)">
                <g id="Group-25" transform="translate(0.000000, 0.309774)">
                    <path d="M14.1170362,98.8722556 L84.8709691,98.8722556 C88.3354523,97.845188 90.9603114,95.1053383 91.693949,91.7218797 C92.0036403,90.2707519 91.9217074,88.9496992 91.6774121,87.8166165 C91.2700027,85.9903008 90.2838013,84.3519549 88.9961772,83.0060902 L65.3010362,58.3669925 C63.8172242,56.826391 62.6107812,55.0406767 61.7230497,53.0918045 C60.581251,50.613609 59.9949423,47.9226316 59.9949423,45.1835338 L59.9949423,44.163985 L59.9949423,37.682782 L59.9949423,30.9481955 L59.9949423,25.4121053 L59.9949423,18.6775188 L59.9949423,11.6083459 L59.9949423,9.8624812" id="Stroke-3" stroke="#323C5D"></path>
                    <path d="M64.2005047,67.2381955 C63.7006389,68.2667669 60.7548134,66.9803008 58.0592966,68.4111278 C57.3219007,68.8021053 56.5514309,69.4577444 56.7363436,70.4081203 C56.8385718,70.9306767 57.7315651,71.9209023 58.3674846,71.7780451 C58.7335517,71.6299248 59.1883168,71.5336842 59.5152966,71.7336842 C59.6122631,71.7930827 59.6566121,71.8757895 59.6769074,71.9073684 C60.5375785,73.1968421 62.1025718,73.46 63.4653638,73.922406 C63.4653638,73.922406 65.4663302,74.6449624 66.9223302,76.5825564 C68.9360752,79.2652632 68.3557799,84.1186466 65.8015785,87.116391 C65.1874577,87.8366917 63.3954577,89.7006015 60.5232966,90.1231579 C58.6170416,90.4043609 57.1294711,89.9178947 56.4657396,89.6923308 C53.1643705,88.5712782 49.9697396,85.4494737 49.7449879,81.7464662 C49.6848537,80.7645113 49.8479678,79.9592481 49.975753,79.4742857 C48.3912161,78.1554887 46.8066792,76.8359398 45.2221423,75.5171429 C43.7248,73.8615038 42.6604242,71.8269173 42.3402094,69.6171429 C42.3229208,69.4953383 42.3078872,69.3697744 42.2973638,69.2396992 C42.2928537,69.1870677 42.2394846,68.4675188 42.3725315,67.6750376 C42.516102,66.8171429 43.0024376,65.1434586 44.441149,63.6983459 C45.0890953,63.0479699 46.2113503,61.9186466 47.8545181,61.7299248 C49.6968805,61.5186466 51.0386255,62.6201504 51.7557262,61.897594 C52.0879678,61.5630075 52.0639141,61.0547368 52.059404,60.9457143 C52.0180617,60.0321805 51.095753,59.6336842 49.8336859,58.4457143 C48.5813906,57.2675188 47.9559946,56.678797 47.9296859,55.8675188 C47.8830819,54.3803008 49.8457128,52.7494737 50.4515651,53.0269173 C50.6214443,53.1043609 50.5958872,53.3021053 50.9379007,54.653985 C51.0446389,55.0720301 51.140102,55.422406 51.2107597,55.6757895 C51.8346523,56.0584962 52.5149208,56.4442105 53.2515651,56.8216541 C54.2167195,57.3156391 55.1405315,57.7239098 56.0019544,58.0630075 C56.0019544,58.0630075 57.8585987,58.8938346 58.2472161,60.0111278 C58.4576859,60.6216541 58.3667329,61.2953383 57.9969074,61.8246617 C57.7172832,62.2254135 57.3993235,62.6908271 57.0565584,63.2126316" id="Stroke-5" stroke="#1B74BB"></path>
                    <path d="M40.6713342,9.86255639 L60.1067168,9.86255639 L64.0394953,9.86255639 C66.2892671,9.86255639 68.1128376,8.03849624 68.1128376,5.7881203 C68.1128376,3.53849624 66.2892671,1.71368421 64.0394953,1.71368421 L38.4275758,1.71368421" id="Stroke-7" stroke="#323C5D"></path>
                    <path d="M54.2224322,17.4782707 L59.8547544,17.4782707" id="Stroke-9" stroke="#323C5D"></path>
                    <path d="M51.0131436,27.5948872 L59.8543785,27.5948872" id="Stroke-11" stroke="#323C5D"></path>
                    <path d="M54.2224322,38.2173684 L59.8547544,38.2173684" id="Stroke-13" stroke="#323C5D"></path>
                    <path d="M35.2554201,70.8257895 C34.8322255,68.0558647 34.7720913,65.2017293 35.0945611,62.1859398 C36.144655,52.5460902 41.1748832,43.1182707 37.1609235,33.8686466 C36.8640107,33.1656391 36.5001987,32.4543609 36.0852725,31.7506015 C36.0852725,31.7506015 34.3308564,28.9054887 34.2571919,27.166391" id="Stroke-15" stroke="#323C5D"></path>
                    <path d="M9.40694765,41.6530075 C9.80984698,41.5018797 10.4096859,41.2093985 10.9185718,40.6447368 C11.3620617,40.1507519 11.9115383,39.2635338 11.9265718,37.5342105 C11.9566389,34.4041353 10.2232698,31.0018797 9.11454497,28.0176692 C8.2072698,25.5725564 6.8565047,21.9537594 7.22482685,17.8755639 C7.51722953,14.6545113 8.77177987,12.1387218 9.74445101,10.5657895 L10.0669208,10.1327068 C9.93612886,10.8387218 9.92560537,11.4733083 9.93612886,11.9327068 C9.96619597,13.7921053 12.0776591,16.5041353 12.0776591,16.5041353 C12.0776591,16.5041353 13.1766121,18.6815789 11.6093638,21.7921053 C11.6093638,21.7921053 12.6271356,22.3515038 13.9320483,22.1402256 L14.1537933,24.1462406 L15.2474846,24.5996241 L15.1114309,25.5071429 L16.9808537,26.1928571 C16.9808537,26.1928571 17.0214443,26.5154135 17.0567732,26.8680451 C17.1274309,27.5387218 17.6919409,28.0680451 18.3669477,28.0530075 C18.9419812,28.0424812 19.647055,27.9319549 20.851243,26.6567669 C21.4059812,26.0672932 22.1313503,25.1996241 22.8522094,23.9597744 L22.9882631,24.0402256 C25.7093369,26.2229323 26.0874309,30.2454887 24.8276188,33.3154135 C23.3460617,36.9349624 19.8387329,39.4800752 16.8455517,41.7890977 C16.7237799,41.8853383 16.5982497,41.9808271 16.4772295,42.0718045 C15.3534711,42.9281955 14.1943839,43.7552632 12.9751624,44.456015 C12.1941691,44.9041353 10.2383034,45.5093985 10.0270819,46.5319549 C9.98649128,46.743985 8.54552483,54.1387218 16.2351893,56.4928571 L16.2118872,56.4921053 C6.21081342,59.9244361 -0.245347651,69.5131579 0.42289396,79.6139098 C0.700263087,83.7890977 2.16753826,87.7266917 4.54735034,91.0695489 L4.54735034,91.0778195 C6.92791409,94.412406 10.2127463,97.1357143 14.1169611,98.8725564" id="Stroke-17" stroke="#323C5D"></path>
                    <path d="M10.1325423,9.6437594 C10.3136966,8.54977444 10.9744215,5.45503759 13.6601664,2.99488722 C16.8502872,0.0813533835 20.6800859,0.0663157895 22.0909852,0.0663157895 C26.9490792,0.0512781955 30.3459114,2.67684211 31.2885154,3.42345865 C31.4944752,3.58962406 31.8477638,3.87157895 32.2559248,4.26556391 C37.2147436,9.06857143 36.413455,17.3159398 36.0353611,21.2377444 C35.7677638,23.964812 35.4858846,26.8888722 34.2561396,27.1655639 C33.7171866,27.2866165 32.3107973,27.4324812 27.427898,20.2595489 C25.190153,16.9783459 22.1315758,16.2324812 18.4325691,15.5715789 C15.3634685,15.0219549 11.9012403,14.3009023 10.5001128,11.1512782 C10.3445154,10.8031579 10.1423141,9.78962406 10.1423141,9.78962406 C10.112247,9.90616541 10.0866899,10.0219549 10.0671463,10.1324812" id="Stroke-19" stroke="#323C5D"></path>
                    <path d="M24.3740564,20.5724812 C23.9155329,21.923609 23.3810899,23.042406 22.8519087,23.9596992" id="Stroke-21" stroke="#323C5D"></path>
                    <path d="M24.2628832,70.1209023 C23.5698362,69.4968421 22.7565208,69.0081203 21.8146685,68.9103759 C20.4075275,68.7637594 18.9590443,69.4178947 17.9788564,70.4171429 C16.9986685,69.4178947 15.5501852,68.7637594 14.1430443,68.9103759 C13.2019436,69.0081203 12.3878765,69.4968421 11.6948295,70.1209023 C10.1223195,71.5381955 10.1614067,73.9427068 11.0716886,75.7028571 C11.5565208,76.6396992 12.3134604,77.3742857 13.0696483,78.0938346 C14.0137557,78.9923308 15.0458094,79.784812 16.0455409,80.6141353 C16.6769503,81.1374436 17.9653262,82.2291729 17.9788564,82.2178947 C17.9923866,82.2291729 19.2815141,81.1374436 19.9121718,80.6141353 C20.912655,79.784812 21.943957,78.9923308 22.8888161,78.0938346 C23.6442523,77.3742857 24.4011919,76.6396992 24.8860242,75.7028571 C25.796306,73.9427068 25.8353933,71.5381955 24.2628832,70.1209023 Z" id="Stroke-23" stroke="#1B74BB"></path>
                </g>
            </g>
        </g>
    </g>
</svg>