<?xml version="1.0" encoding="UTF-8"?>
<svg width="24px" height="18px" viewBox="0 0 24 18" version="1.1" xmlns="http://www.w3.org/2000/svg" xmlns:xlink="http://www.w3.org/1999/xlink">
    <!-- Generator: sketchtool 55.2 (78181) - https://sketchapp.com -->
    <title>6B8A3F47-A4C5-4C4B-9FE0-D0A58B346634</title>
    <desc>Created with sketchtool.</desc>
    <g id="main-pages" stroke="none" stroke-width="1" fill="none" fill-rule="evenodd">
        <g id="GPCL_main_burger" transform="translate(-754.000000, -464.000000)">
            <g id="menu" transform="translate(725.000000, 30.000000)">
                <g id="icon_software" transform="translate(25.000000, 427.000000)">
                    <rect id="mask" stroke="#979797" opacity="0" x="0.5" y="0.5" width="31" height="31"></rect>
                    <g id="shape" transform="translate(4.000000, 7.000000)" fill-rule="nonzero">
                        <path d="M23.998875,16.3125228 C23.9986406,16.3090964 23.9986875,16.3057157 23.9983594,16.3022893 C23.9970937,16.2887208 23.9950781,16.2754264 23.9922187,16.2624061 C23.9919375,16.2611269 23.9915156,16.2598477 23.9911875,16.2585685 C23.9884219,16.246599 23.985,16.2349036 23.9809687,16.2234822 C23.9798906,16.2204213 23.9787187,16.2174518 23.9775469,16.2144365 C23.9736094,16.204066 23.9691563,16.1939695 23.9642344,16.1841472 C23.9633906,16.1824112 23.9628281,16.1806294 23.9619375,16.1788934 L22.0816875,12.5643655 L22.0816875,0.67248731 C22.0816875,0.306730964 21.7763906,0.00918274112 21.4011094,0.00918274112 L2.59879688,0.00918274112 C2.22351563,0.00918274112 1.91821875,0.306730964 1.91821875,0.67248731 L1.91821875,12.5642741 L0.038015625,16.1788477 C0.037125,16.1805838 0.0365625,16.1823655 0.03571875,16.1841015 C0.030796875,16.1939239 0.026390625,16.2040203 0.02240625,16.2143452 C0.021234375,16.2173604 0.0200625,16.2203756 0.018984375,16.2234365 C0.015,16.2349036 0.01153125,16.2466447 0.008765625,16.2586142 C0.008484375,16.2598477 0.0080625,16.2610812 0.00778125,16.2623147 C0.004921875,16.2753807 0.00290625,16.2886751 0.001640625,16.3022437 C0.0013125,16.3056244 0.0013125,16.3090508 0.001125,16.3124315 C0.00065625,16.3195584 0,16.3265939 0,16.3338122 L0,17.2030203 C0,17.6374416 0.362578125,17.9908173 0.8083125,17.9908173 L23.1916875,17.9908173 C23.6374219,17.9908173 24,17.6374416 24,17.2030203 L24,16.3338122 C24,16.3265939 23.9993438,16.3195584 23.998875,16.3125228 Z M2.62139063,0.694553299 L21.3786094,0.694553299 L21.3786094,12.3035939 L2.62139063,12.3035939 L2.62139063,0.694553299 Z M2.48573438,12.9888274 L21.5142188,12.9888274 L23.076,15.9911269 L15.3519375,15.9911269 L14.9642344,14.6210711 C14.8852969,14.3421624 14.6228906,14.1473604 14.3260313,14.1473604 L9.673875,14.1473604 C9.37701563,14.1473604 9.1145625,14.3421624 9.03567188,14.6210254 L8.64796875,15.9911269 L0.923953125,15.9911269 L2.48573438,12.9888274 Z M14.6225625,15.9911726 L9.3774375,15.9911726 L9.70523437,14.8326853 L14.2947656,14.8326853 L14.6225625,15.9911726 Z M23.296875,17.2029746 C23.296875,17.2594873 23.2496719,17.3054924 23.1916875,17.3054924 L0.8083125,17.3054924 C0.750328125,17.3054924 0.703125,17.2594873 0.703125,17.2029746 L0.703125,16.6764061 L23.296875,16.6764061 L23.296875,17.2029746 Z" id="Shape" fill="#222222"></path>
                        <path d="M20.2770469,7.07007107 C20.0828437,7.07007107 19.9254844,7.22343655 19.9254844,7.41271066 L19.9254844,10.8873046 L4.07451562,10.8873046 L4.07451562,7.41271066 C4.07451562,7.22343655 3.91715625,7.07007107 3.72295312,7.07007107 C3.52875,7.07007107 3.37139062,7.22343655 3.37139062,7.41271066 L3.37139062,11.0352792 C3.37139062,11.3315482 3.61865625,11.5725838 3.9226875,11.5725838 L20.0773594,11.5725838 C20.3813437,11.5725838 20.6286562,11.3315939 20.6286562,11.0352792 L20.6286562,7.41271066 C20.6286562,7.22352792 20.47125,7.07007107 20.2770469,7.07007107 Z" id="Path" fill="#0BA6BF"></path>
                        <path d="M20.0773125,1.42551777 L3.9226875,1.42551777 C3.61870312,1.42551777 3.37139063,1.66650761 3.37139063,1.96282234 L3.37139063,5.58539086 C3.37139063,5.77466497 3.52875,5.92803046 3.72295313,5.92803046 C3.91715625,5.92803046 4.07451563,5.77466497 4.07451563,5.58539086 L4.07451563,2.11079695 L19.9254844,2.11079695 L19.9254844,5.58539086 C19.9254844,5.77466497 20.0828438,5.92803046 20.2770469,5.92803046 C20.47125,5.92803046 20.6286094,5.77466497 20.6286094,5.58539086 L20.6286094,1.96282234 C20.6286094,1.66646193 20.3813437,1.42551777 20.0773125,1.42551777 Z" id="Path" fill="#0BA6BF"></path>
                    </g>
                </g>
            </g>
        </g>
    </g>
</svg>