<?xml version="1.0" encoding="UTF-8"?>
<svg width="10px" height="10px" viewBox="0 0 10 10" version="1.1" xmlns="http://www.w3.org/2000/svg" xmlns:xlink="http://www.w3.org/1999/xlink">
    <!-- Generator: sketchtool 54.1 (76490) - https://sketchapp.com -->
    <title>6E955208-4E84-4971-B06A-FFDEDD200EBC</title>
    <desc>Created with sketchtool.</desc>
    <g id="main-pages" stroke="none" stroke-width="1" fill="none" fill-rule="evenodd">
        <g id="GPCL_main_about_popup" transform="translate(-974.000000, -74.000000)" fill-rule="nonzero">
            <g id="Group" transform="translate(435.000000, 50.000000)">
                <g id="burger-menu-close" transform="translate(499.000000, 20.000000)">
                    <g id="icon_close" transform="translate(39.000000, 3.000000)">
                        <g id="Icon" transform="translate(1.125000, 1.125000)" fill="#222222">
                            <path d="M6.63984375,6.11015625 L5.4046875,4.875 L6.63984375,3.63984375 C6.78515625,3.49453125 6.78515625,3.25546875 6.63984375,3.11015625 C6.49453125,2.96484375 6.25546875,2.96484375 6.11015625,3.11015625 L4.875,4.3453125 L3.63984375,3.11015625 C3.49453125,2.96484375 3.27421875,2.94375 3.11015625,3.11015625 C2.94375,3.2765625 2.96953125,3.49921875 3.11015625,3.63984375 L4.3453125,4.875 L3.11015625,6.11015625 C2.953125,6.2671875 2.96015625,6.4921875 3.11015625,6.63984375 C3.26015625,6.78984375 3.49453125,6.78515625 3.63984375,6.63984375 L4.875,5.4046875 L6.11015625,6.63984375 C6.25546875,6.78515625 6.49453125,6.78515625 6.63984375,6.63984375 C6.7875,6.49453125 6.7875,6.25546875 6.63984375,6.11015625 L6.63984375,6.11015625 Z" id="Icon-Path"></path>
                            <path d="M4.875,0.65625 C6.00234375,0.65625 7.06171875,1.09453125 7.85859375,1.89140625 C8.65546875,2.68828125 9.09375,3.74765625 9.09375,4.875 C9.09375,6.00234375 8.65546875,7.06171875 7.85859375,7.85859375 C7.06171875,8.65546875 6.00234375,9.09375 4.875,9.09375 C3.74765625,9.09375 2.68828125,8.65546875 1.89140625,7.85859375 C1.09453125,7.06171875 0.65625,6.00234375 0.65625,4.875 C0.65625,3.74765625 1.09453125,2.68828125 1.89140625,1.89140625 C2.68828125,1.09453125 3.74765625,0.65625 4.875,0.65625 L4.875,0.65625 Z M4.875,0 C2.18203125,0 0,2.18203125 0,4.875 C0,7.56796875 2.18203125,9.75 4.875,9.75 C7.56796875,9.75 9.75,7.56796875 9.75,4.875 C9.75,2.18203125 7.56796875,0 4.875,0 Z" id="Icon-Shape"></path>
                        </g>
                        <rect id="ViewBox" x="0" y="0" width="12" height="12"></rect>
                    </g>
                </g>
            </g>
        </g>
    </g>
</svg>