<?xml version="1.0" encoding="UTF-8"?>
<svg width="50px" height="50px" viewBox="0 0 50 50" version="1.1" xmlns="http://www.w3.org/2000/svg" xmlns:xlink="http://www.w3.org/1999/xlink">
    <!-- Generator: sketchtool 53.2 (72643) - https://sketchapp.com -->
    <title>3BBE5D8B-C52C-4284-A841-A781753DAEDD</title>
    <desc>Created with sketchtool.</desc>
    <g id="icons" stroke="none" stroke-width="1" fill="none" fill-rule="evenodd">
        <g transform="translate(-526.000000, -598.000000)" id="icon_cardio">
            <g transform="translate(527.000000, 599.000000)">
                <circle id="Oval" stroke="#204156" cx="24" cy="24" r="24"></circle>
                <g id="shape" transform="translate(10.000000, 13.000000)" fill="#204156" fill-rule="nonzero">
                    <path d="M14.3549296,20.5935484 L14.3549296,20.5935484 C14.2694836,20.5935484 14.1840376,20.5548387 14.1248826,20.4903226 C13.1192488,19.3806452 12.1201878,18.4 11.1539906,17.4580645 C10.9568075,17.2645161 10.7596244,17.0709677 10.5624413,16.8774194 C10.4704225,16.7870968 10.4441315,16.6516129 10.5032864,16.5354839 C10.5558685,16.4193548 10.6807512,16.3483871 10.8056338,16.3612903 C11.8441315,16.4387097 12.9220657,16.4774194 13.9934272,16.4774194 C15.3408451,16.4774194 16.6751174,16.4129032 17.9568075,16.2967742 C18.0882629,16.283871 18.2131455,16.3548387 18.2657277,16.4709677 C18.3248826,16.5870968 18.2985915,16.7225806 18.2065728,16.8193548 C17.9962441,17.0322581 17.77277,17.2451613 17.5558685,17.4645161 C16.5896714,18.4129032 15.5906103,19.3935484 14.5784038,20.5032258 C14.5323944,20.5548387 14.4469484,20.5935484 14.3549296,20.5935484 Z M11.5877934,17.0129032 C11.5877934,17.0129032 11.5943662,17.0193548 11.5943662,17.0193548 C12.4882629,17.9032258 13.4150235,18.8064516 14.3549296,19.8258065 C15.2948357,18.8064516 16.2215962,17.8967742 17.1220657,17.0129032 C17.141784,16.9935484 17.1549296,16.9806452 17.1746479,16.9612903 C16.1361502,17.0387097 15.0713615,17.0774194 14,17.0774194 C13.1915493,17.083871 12.3830986,17.0580645 11.5877934,17.0129032 Z" id="Shape"></path>
                    <path d="M22.6037559,9.55483871 C22.5971831,9.55483871 22.5840376,9.55483871 22.5774648,9.55483871 C22.4065728,9.54193548 22.2816901,9.39354839 22.2948357,9.22580645 C22.314554,9.01935484 22.3211268,8.81290323 22.3211268,8.6 C22.3211268,6.20645161 20.6056338,4.26451613 18.4957746,4.26451613 C16.7408451,4.26451613 15.7286385,5.12903226 14.6441315,7.56129032 C14.5915493,7.67096774 14.4798122,7.74193548 14.3615023,7.74193548 C14.2431925,7.74193548 14.1248826,7.67096774 14.0788732,7.56129032 C12.9943662,5.12258065 11.9887324,4.26451613 10.22723,4.26451613 C8.11737089,4.26451613 6.40187793,6.21290323 6.40187793,8.6 C6.40187793,8.7483871 6.4084507,8.90322581 6.41502347,9.06451613 C6.42816901,9.23225806 6.29671362,9.37419355 6.1258216,9.38709677 C5.95492958,9.4 5.81032864,9.27096774 5.7971831,9.10322581 C5.78403756,8.93548387 5.78403756,8.76774194 5.78403756,8.60645161 C5.78403756,5.87741935 7.77558685,3.65806452 10.22723,3.65806452 C12.3305164,3.65806452 13.4215962,4.81290323 14.3615023,6.71612903 C15.2948357,4.81290323 16.3924883,3.65806452 18.4957746,3.65806452 C20.9474178,3.65806452 22.9455399,5.87741935 22.9455399,8.60645161 C22.9455399,8.83225806 22.9389671,9.05806452 22.9192488,9.28387097 C22.8995305,9.43870968 22.7615023,9.55483871 22.6037559,9.55483871 Z" id="Path"></path>
                    <path d="M10.7859155,16.9612903 C10.7793427,16.9612903 10.77277,16.9612903 10.7596244,16.9612903 C7.80187793,16.7419355 5.11361502,16.2064516 3.1943662,15.4645161 C1.11737089,14.6580645 0.0197183099,13.6451613 0.0197183099,12.5419355 C0.0197183099,10.9935484 2.2084507,9.62580645 6.03380282,8.78709677 C6.11924883,8.76774194 6.21784038,8.78709677 6.29014085,8.83870968 C6.36244131,8.89032258 6.4084507,8.97419355 6.41502347,9.06451613 C6.45446009,9.70322581 6.58591549,10.3096774 6.8028169,10.916129 C6.83568075,11 6.82253521,11.0903226 6.77652582,11.1677419 C6.73051643,11.2451613 6.65164319,11.2967742 6.56619718,11.316129 C4.16056338,11.7741935 3.52300469,12.316129 3.52300469,12.5419355 C3.52300469,12.9096774 4.91643192,13.6516129 8.64319249,14.0709677 C8.81408451,14.0903226 8.93239437,14.2387097 8.91267606,14.4064516 C8.89295775,14.5741935 8.74178404,14.6967742 8.57089202,14.6709677 C5.98122066,14.3741935 2.89859155,13.7677419 2.89859155,12.5354839 C2.89859155,11.8 3.95023474,11.2258065 6.09953052,10.7806452 C5.96150235,10.3419355 5.86948357,9.90322581 5.82347418,9.4516129 C2.61596244,10.2064516 0.644131455,11.3741935 0.644131455,12.5354839 C0.644131455,13.3548387 1.63004695,14.1935484 3.42441315,14.8903226 C5.28450704,15.6129032 7.90704225,16.1290323 10.8056338,16.3483871 C10.9765258,16.3612903 11.1079812,16.5096774 11.0948357,16.6774194 C11.0816901,16.8387097 10.9502347,16.9612903 10.7859155,16.9612903 Z" id="Path"></path>
                    <path d="M17.9962441,16.8967742 C17.8384977,16.8967742 17.7004695,16.7806452 17.6873239,16.6193548 C17.6676056,16.4516129 17.799061,16.3032258 17.9633803,16.283871 C23.4056338,15.7677419 27.3492958,14.1935484 27.3492958,12.5354839 C27.3492958,11.4645161 25.6798122,10.3870968 22.8666667,9.63225806 C22.8075117,10.0774194 22.7023474,10.5032258 22.5643192,10.9354839 C24.2666667,11.3612903 25.0948357,11.883871 25.0948357,12.5354839 C25.0948357,13.0322581 24.6215962,13.4516129 23.6356808,13.8129032 C22.8206573,14.116129 21.6441315,14.3741935 20.2309859,14.5741935 C20.0600939,14.6 19.9023474,14.483871 19.8826291,14.316129 C19.856338,14.1483871 19.9746479,13.9935484 20.1455399,13.9741935 C23.6948357,13.483871 24.4704225,12.7741935 24.4704225,12.5419355 C24.4704225,12.3419355 23.9643192,11.883871 22.084507,11.4516129 C21.999061,11.4322581 21.9201878,11.3741935 21.8807512,11.2967742 C21.8413146,11.2193548 21.8347418,11.1290323 21.8610329,11.0451613 C22.0910798,10.4451613 22.229108,9.84516129 22.2882629,9.21935484 C22.2948357,9.12903226 22.3408451,9.0516129 22.4197183,9 C22.4920188,8.9483871 22.5906103,8.92903226 22.6760563,8.95483871 C26.0938967,9.81290323 27.9737089,11.083871 27.9737089,12.5419355 C27.9737089,13.6 26.9615023,14.5741935 25.0488263,15.3677419 C23.2676056,16.1032258 20.8356808,16.6322581 18.0225352,16.8967742 C18.0159624,16.8967742 18.0028169,16.8967742 17.9962441,16.8967742 Z" id="Path"></path>
                    <path d="M14,17.083871 C12.9089202,17.083871 11.8178404,17.0451613 10.7661972,16.9677419 C10.5953052,16.9548387 10.4638498,16.8064516 10.4769953,16.6387097 C10.4901408,16.4709677 10.6413146,16.3483871 10.8122066,16.3548387 C11.8507042,16.4322581 12.9286385,16.4709677 14,16.4709677 C15.3474178,16.4709677 16.6816901,16.4064516 17.9633803,16.2903226 C18.1342723,16.2774194 18.285446,16.4 18.3051643,16.5612903 C18.3248826,16.7290323 18.1934272,16.8774194 18.029108,16.8967742 C16.7211268,17.0193548 15.3671362,17.083871 14,17.083871 Z" id="Path"></path>
                    <path d="M14,14.9612903 C12.0938967,14.9612903 10.2140845,14.8645161 8.57089202,14.6774194 C8.4,14.6580645 8.27511737,14.5096774 8.29483568,14.3419355 C8.31455399,14.1741935 8.4657277,14.0580645 8.63661972,14.0774194 C10.2535211,14.2645161 12.1070423,14.3612903 13.9934272,14.3612903 C16.2084507,14.3612903 18.3380282,14.2322581 20.1455399,13.9806452 C20.3164319,13.9548387 20.4741784,14.0709677 20.4938967,14.2387097 C20.5201878,14.4064516 20.4018779,14.5612903 20.2309859,14.5806452 C18.4037559,14.8322581 16.2478873,14.9612903 14,14.9612903 Z" id="Path"></path>
                    <path d="M6.50704225,11.3225806 C6.38215962,11.3225806 6.257277,11.2451613 6.21126761,11.1225806 C5.97464789,10.4645161 5.83661972,9.8 5.79061033,9.10967742 C5.77746479,8.94193548 5.90892019,8.8 6.07981221,8.78709677 C6.25070423,8.78064516 6.39530516,8.90322581 6.4084507,9.07096774 C6.44788732,9.70967742 6.57934272,10.316129 6.79624413,10.9225806 C6.85539906,11.083871 6.76995305,11.2580645 6.6056338,11.3096774 C6.57934272,11.316129 6.54647887,11.3225806 6.50704225,11.3225806 Z" id="Path"></path>
                    <path d="M22.1568075,11.4580645 C22.1173709,11.4580645 22.084507,11.4516129 22.0450704,11.4387097 C21.8873239,11.3806452 21.8018779,11.2064516 21.8610329,11.0451613 C22.0910798,10.4451613 22.229108,9.84516129 22.2882629,9.21935484 C22.3014085,9.0516129 22.4525822,8.92903226 22.6234742,8.94193548 C22.7943662,8.95483871 22.9192488,9.10322581 22.9061033,9.27096774 C22.8469484,9.95483871 22.6957746,10.6064516 22.4460094,11.2580645 C22.4,11.3870968 22.2816901,11.4580645 22.1568075,11.4580645 Z" id="Path"></path>
                    <path d="M20.1915493,14.5806452 C20.0798122,14.5806452 19.9746479,14.5225806 19.9220657,14.4258065 C19.856338,14.316129 19.8694836,14.1806452 19.9549296,14.083871 C20.8882629,12.9870968 21.4929577,12.0258065 21.8676056,11.0516129 C21.9201878,10.9096774 22.0779343,10.8258065 22.229108,10.8645161 C24.1615023,11.3032258 25.1014085,11.8516129 25.1014085,12.5483871 C25.1014085,13.0451613 24.628169,13.4645161 23.6422535,13.8258065 C22.82723,14.1290323 21.6507042,14.3870968 20.2375587,14.5870968 C20.2244131,14.5806452 20.2112676,14.5806452 20.1915493,14.5806452 Z M22.3474178,11.516129 C22.0253521,12.283871 21.5652582,13.0387097 20.9342723,13.8580645 C23.8197183,13.3806452 24.4769953,12.7612903 24.4769953,12.5419355 C24.4769953,12.3483871 24.0169014,11.9225806 22.3474178,11.516129 Z" id="Shape"></path>
                    <path d="M8.61032864,14.6774194 C8.5971831,14.6774194 8.58403756,14.6774194 8.57746479,14.6774194 C5.98779343,14.3806452 2.90516432,13.7741935 2.90516432,12.5419355 C2.90516432,11.7677419 4.0685446,11.1741935 6.45446009,10.716129 C6.6056338,10.6903226 6.75680751,10.7741935 6.8028169,10.916129 C7.17746479,11.9612903 7.82816901,13 8.84694836,14.1806452 C8.93239437,14.2774194 8.94553991,14.4129032 8.88638498,14.5225806 C8.82723005,14.6193548 8.72206573,14.6774194 8.61032864,14.6774194 Z M6.30985915,11.3677419 C4.11455399,11.8129032 3.52300469,12.3290323 3.52300469,12.5419355 C3.52300469,12.883871 4.71924883,13.5483871 7.88075117,13.9806452 C7.15774648,13.0645161 6.65164319,12.2193548 6.30985915,11.3677419 Z" id="Shape"></path>
                    <path d="M14,14.9612903 C12.0938967,14.9612903 10.2140845,14.8645161 8.57089202,14.6774194 C8.49201878,14.6709677 8.41971831,14.6322581 8.36713615,14.5741935 C7.29577465,13.3354839 6.61220657,12.2387097 6.21126761,11.1225806 C6.15211268,10.9612903 6.23755869,10.7870968 6.40187793,10.7354839 C6.56619718,10.6774194 6.74366197,10.7612903 6.79624413,10.9225806 C7.16431925,11.9419355 7.78873239,12.9483871 8.76150235,14.0903226 C10.3521127,14.2645161 12.1596244,14.3548387 13.9934272,14.3548387 C16.1624413,14.3548387 18.2460094,14.2258065 20.02723,13.9870968 C20.914554,12.9290323 21.4995305,11.9935484 21.8610329,11.0451613 C21.9201878,10.8903226 22.0976526,10.8064516 22.2619718,10.8645161 C22.4197183,10.9225806 22.5051643,11.0967742 22.4460094,11.2580645 C22.0450704,12.2967742 21.4075117,13.316129 20.428169,14.4645161 C20.3755869,14.5225806 20.3098592,14.5612903 20.2309859,14.5677419 C18.4037559,14.8322581 16.2478873,14.9612903 14,14.9612903 Z" id="Path"></path>
                    <path d="M13.7042254,9.75483871 C10.9765258,9.75483871 9.06384977,9.23225806 8.94553991,9.2 C8.78122066,9.15483871 8.68262911,8.98709677 8.73521127,8.82580645 C8.78122066,8.66451613 8.95211268,8.56774194 9.11643192,8.61935484 L9.11643192,8.61935484 C9.15586854,8.63225806 13.4478873,9.8 18.2723005,8.61935484 C18.4366197,8.58064516 18.6075117,8.67741935 18.6469484,8.83870968 C18.686385,9 18.5877934,9.16774194 18.4234742,9.20645161 C16.7276995,9.61290323 15.1107981,9.75483871 13.7042254,9.75483871 Z" id="Path"></path>
                    <path d="M13.0600939,12.3354839 C11.3511737,12.3354839 10.2469484,12.1870968 10.22723,12.1806452 C10.056338,12.1548387 9.93802817,12 9.96431925,11.8387097 C9.99061033,11.6709677 10.1483568,11.5548387 10.3126761,11.5806452 C10.3586854,11.5870968 14.6638498,12.1677419 19.5079812,10.9741935 C19.6723005,10.9354839 19.8431925,11.0322581 19.8826291,11.1935484 C19.9220657,11.3548387 19.8234742,11.5225806 19.6591549,11.5612903 C17.1615023,12.1806452 14.7953052,12.3354839 13.0600939,12.3354839 Z" id="Path"></path>
                    <path d="M5.30422535,3.04516129 C4.44976526,3.04516129 3.75305164,2.36129032 3.75305164,1.52258065 C3.75305164,0.683870968 4.44976526,0 5.30422535,0 C6.15868545,0 6.85539906,0.683870968 6.85539906,1.52258065 C6.85539906,2.36129032 6.15868545,3.04516129 5.30422535,3.04516129 Z M5.30422535,0.606451613 C4.7915493,0.606451613 4.37089202,1.01935484 4.37089202,1.52258065 C4.37089202,2.02580645 4.7915493,2.43870968 5.30422535,2.43870968 C5.81690141,2.43870968 6.23755869,2.02580645 6.23755869,1.52258065 C6.23755869,1.01290323 5.81690141,0.606451613 5.30422535,0.606451613 Z" id="Shape"></path>
                    <path d="M25.7981221,7.30967742 C24.943662,7.30967742 24.2469484,6.62580645 24.2469484,5.78709677 C24.2469484,4.9483871 24.943662,4.26451613 25.7981221,4.26451613 C26.6525822,4.26451613 27.3492958,4.9483871 27.3492958,5.78709677 C27.3492958,6.62580645 26.6591549,7.30967742 25.7981221,7.30967742 Z M25.7981221,4.87096774 C25.285446,4.87096774 24.8647887,5.28387097 24.8647887,5.78709677 C24.8647887,6.29032258 25.285446,6.70322581 25.7981221,6.70322581 C26.3107981,6.70322581 26.7314554,6.29032258 26.7314554,5.78709677 C26.7314554,5.28387097 26.3107981,4.87096774 25.7981221,4.87096774 Z" id="Shape"></path>
                    <path d="M22.6957746,21.9419355 C21.8413146,21.9419355 21.1446009,21.2580645 21.1446009,20.4193548 C21.1446009,19.5806452 21.8413146,18.8967742 22.6957746,18.8967742 C23.5502347,18.8967742 24.2469484,19.5806452 24.2469484,20.4193548 C24.2469484,21.2580645 23.5502347,21.9419355 22.6957746,21.9419355 Z M22.6957746,19.5032258 C22.1830986,19.5032258 21.7624413,19.916129 21.7624413,20.4193548 C21.7624413,20.9225806 22.1830986,21.3354839 22.6957746,21.3354839 C23.2084507,21.3354839 23.629108,20.9225806 23.629108,20.4193548 C23.629108,19.916129 23.2084507,19.5032258 22.6957746,19.5032258 Z" id="Shape"></path>
                    <path d="M8.41314554,21.3290323 C7.55868545,21.3290323 6.86197183,20.6451613 6.86197183,19.8064516 C6.86197183,18.9677419 7.55868545,18.283871 8.41314554,18.283871 C9.26760563,18.283871 9.96431925,18.9677419 9.96431925,19.8064516 C9.96431925,20.6451613 9.26760563,21.3290323 8.41314554,21.3290323 Z M8.41314554,18.8903226 C7.90046948,18.8903226 7.47981221,19.3032258 7.47981221,19.8064516 C7.47981221,20.3096774 7.90046948,20.7225806 8.41314554,20.7225806 C8.9258216,20.7225806 9.34647887,20.3096774 9.34647887,19.8064516 C9.34647887,19.3032258 8.9258216,18.8903226 8.41314554,18.8903226 Z" id="Shape"></path>
                </g>
            </g>
        </g>
    </g>
</svg>