<?xml version="1.0" encoding="UTF-8"?>
<svg width="59px" height="59px" viewBox="0 0 59 59" version="1.1" xmlns="http://www.w3.org/2000/svg" xmlns:xlink="http://www.w3.org/1999/xlink">
    <!-- Generator: Sketch 55 (78076) - https://sketchapp.com -->
    <title>icon_pgt-sr</title>
    <desc>Created with Sketch.</desc>
    <g id="main-pages" stroke="none" stroke-width="1" fill="none" fill-rule="evenodd">
        <g id="gpcl_homepage" transform="translate(-758.000000, -938.000000)">
            <g id="01-become-a-patient" transform="translate(0.000000, 717.000000)">
                <g id="our-tests" transform="translate(244.000000, 69.000000)">
                    <g id="pgt-sr" transform="translate(501.000000, 133.000000)">
                        <g id="icon_pgt-sr" transform="translate(0.000000, 6.000000)">
                            <rect id="mask" stroke="#979797" stroke-width="1.13513514" opacity="0" x="0.567567568" y="0.567567568" width="82.8648649" height="82.8648649"></rect>
                            <g id="shape" transform="translate(13.000000, 13.000000)" fill-rule="nonzero">
                                <polygon id="Path" fill="#222222" points="11.4193548 28.5483871 13.3225806 28.5483871 13.3225806 36.1612903 11.4193548 36.1612903"></polygon>
                                <polygon id="Path" fill="#222222" points="7.61290323 38.0645161 9.51612903 38.0645161 9.51612903 45.6774194 7.61290323 45.6774194"></polygon>
                                <polygon id="Path" fill="#222222" points="11.4193548 38.0645161 13.3225806 38.0645161 13.3225806 45.6774194 11.4193548 45.6774194"></polygon>
                                <polygon id="Path" fill="#222222" points="15.2258065 38.0645161 17.1290323 38.0645161 17.1290323 45.6774194 15.2258065 45.6774194"></polygon>
                                <polygon id="Path" fill="#222222" points="19.0322581 38.0645161 20.9354839 38.0645161 20.9354839 45.6774194 19.0322581 45.6774194"></polygon>
                                <path d="M19.0322581,28.5483871 L17.1290323,28.5483871 C16.0793772,28.5483871 15.2258065,29.4019578 15.2258065,30.4516129 L15.2258065,34.2580645 C15.2258065,35.3077196 16.0793772,36.1612903 17.1290323,36.1612903 L19.0322581,36.1612903 C20.0819131,36.1612903 20.9354839,35.3077196 20.9354839,34.2580645 L20.9354839,30.4516129 C20.9354839,29.4019578 20.0819131,28.5483871 19.0322581,28.5483871 Z M17.1290323,34.2580645 L17.1290323,30.4516129 L19.0322581,30.4516129 L19.0331873,34.2580645 L17.1290323,34.2580645 Z" id="Shape" fill="#222222"></path>
                                <path d="M7.61290323,28.5483871 L5.70967742,28.5483871 C4.66002234,28.5483871 3.80645161,29.4019578 3.80645161,30.4516129 L3.80645161,34.2580645 C3.80645161,35.3077196 4.66002234,36.1612903 5.70967742,36.1612903 L7.61290323,36.1612903 C8.66255831,36.1612903 9.51612903,35.3077196 9.51612903,34.2580645 L9.51612903,30.4516129 C9.51612903,29.4019578 8.66255831,28.5483871 7.61290323,28.5483871 Z M5.70967742,34.2580645 L5.70967742,30.4516129 L7.61290323,30.4516129 L7.61383248,34.2580645 L5.70967742,34.2580645 Z" id="Shape" fill="#222222"></path>
                                <path d="M24.7419355,36.1612903 L26.6451613,36.1612903 C27.6948164,36.1612903 28.5483871,35.3077196 28.5483871,34.2580645 L28.5483871,30.4516129 C28.5483871,29.4019578 27.6948164,28.5483871 26.6451613,28.5483871 L24.7419355,28.5483871 C23.6922804,28.5483871 22.8387097,29.4019578 22.8387097,30.4516129 L22.8387097,34.2580645 C22.8387097,35.3077196 23.6922804,36.1612903 24.7419355,36.1612903 Z M24.7419355,30.4516129 L26.6451613,30.4516129 L26.6460905,34.2580645 L24.7419355,34.2580645 L24.7419355,30.4516129 Z" id="Shape" fill="#222222"></path>
                                <path d="M28.5483871,39.9677419 C28.5483871,38.9180869 27.6948164,38.0645161 26.6451613,38.0645161 L24.7419355,38.0645161 C23.6922804,38.0645161 22.8387097,38.9180869 22.8387097,39.9677419 L22.8387097,43.7741935 C22.8387097,44.8238486 23.6922804,45.6774194 24.7419355,45.6774194 L26.6451613,45.6774194 C27.6948164,45.6774194 28.5483871,44.8238486 28.5483871,43.7741935 L28.5483871,39.9677419 Z M24.7419355,43.7741935 L24.7419355,39.9677419 L26.6451613,39.9677419 L26.6460905,43.7741935 L24.7419355,43.7741935 Z" id="Shape" fill="#222222"></path>
                                <path d="M4.22975211,17.2888735 L5.28544767,18.8724168 L7.61290323,17.3213994 L10.4677419,19.2246252 L13.3225806,17.3213994 L15.2258065,18.5899068 L15.2258065,21.8870968 L17.1290323,21.8870968 L17.1290323,18.5899068 L19.983871,16.6866809 L19.983871,12.8802293 L22.4154092,11.2595136 L21.3597136,9.67597026 L19.0322581,11.2269877 L17.1290323,9.95848034 L17.1290323,7.17055192 L19.5605705,5.54983619 L18.5048749,3.96629284 L16.1774194,5.5173103 L13.3225806,3.61408449 L9.51612903,6.15202873 L9.51612903,9.95848034 L7.61290323,11.2269877 L5.28637692,9.67597026 L4.23068136,11.2595136 L6.66129032,12.8802293 L6.66129032,15.6681578 L4.22975211,17.2888735 Z M18.0806452,15.6681578 L16.1774194,16.9366651 L14.2741935,15.6681578 L14.2741935,12.8802293 L16.1774194,11.6107926 L18.0806452,12.8793001 L18.0806452,15.6681578 Z M11.4193548,7.17055192 L13.3225806,5.90204454 L15.2258065,7.17055192 L15.2258065,9.95848034 L13.3225806,11.2279171 L11.4193548,9.95848034 L11.4193548,7.17055192 Z M8.56451613,12.8802293 L10.4677419,11.611722 L12.3709677,12.8811586 L12.3709677,15.669087 L10.4677419,16.9375945 L8.56451613,15.669087 L8.56451613,12.8802293 Z" id="Shape" fill="#222222"></path>
                                <path d="M29.5,0 C26.1540213,0 22.8777407,0.562232173 19.746897,1.65881735 C17.8408833,0.604051159 15.6509656,0 13.3225806,0 C5.97592455,0 0,5.97592455 0,13.3225806 C0,15.6509656 0.604051159,17.8408833 1.65881735,19.746897 C0.562232173,22.8777407 0,26.1540213 0,29.5 C0,45.7657038 13.2342962,59 29.5,59 C45.7657038,59 59,45.7657038 59,29.5 C59,13.2342962 45.7657038,0 29.5,0 Z M30.8028919,48.5322581 L45.3340395,48.5322581 C45.4121015,49.1469963 45.4776178,49.7817146 45.5301238,50.4354839 L30.6058783,50.4354839 C30.6579196,49.7817146 30.7239005,49.1479256 30.8028919,48.5322581 Z M31.0928364,46.6290323 C31.2108587,45.9743338 31.3414268,45.3386861 31.487793,44.7258065 L44.6361281,44.7258065 C44.7838883,45.3405447 44.9200321,45.9715458 45.0389837,46.6290323 L31.0928364,46.6290323 Z M32.0026304,42.8225806 C32.2033612,42.1641649 32.4254662,41.5350223 32.657329,40.9193548 L43.4754205,40.9193548 C43.7058893,41.5313051 43.9177718,42.1678821 44.1175734,42.8225806 L32.0026304,42.8225806 Z M33.444454,39.016129 C33.7395098,38.3632892 34.0466466,37.7276415 34.3714403,37.1129032 L41.7557334,37.1129032 C42.0805271,37.7285707 42.3904518,38.3623598 42.6864368,39.016129 L33.444454,39.016129 Z M35.445722,35.2096774 C36.2737367,33.8222184 37.1565808,32.4956291 38.0645161,31.1746157 C38.9724514,32.4956291 39.8562248,33.8222184 40.6842396,35.2096774 L35.445722,35.2096774 Z M38.0645161,27.8253843 C37.1565808,26.5043709 36.2737367,25.1777816 35.445722,23.7903226 L40.6842396,23.7903226 C39.8552955,25.1777816 38.9724514,26.5043709 38.0645161,27.8253843 Z M41.7557334,21.8870968 L34.3714403,21.8870968 C34.0466466,21.2723585 33.7395098,20.6367108 33.444454,19.983871 L42.6855075,19.983871 C42.3904518,20.6376402 42.0805271,21.2714293 41.7557334,21.8870968 Z M43.4754205,18.0806452 L32.657329,18.0806452 C32.4254662,17.4649777 32.2042906,16.8358351 32.0026304,16.1774194 L44.1175734,16.1774194 C43.9177718,16.8321179 43.7058893,17.4686949 43.4754205,18.0806452 L43.4754205,18.0806452 Z M44.6351987,14.2741935 L31.487793,14.2741935 C31.3414268,13.6613139 31.2108587,13.0256662 31.0928364,12.3709677 L45.0380544,12.3709677 C44.9191028,13.0284542 44.782959,13.6594553 44.6351987,14.2741935 Z M45.3321809,10.4677419 L30.8028919,10.4677419 C30.7248299,9.85207444 30.6579196,9.21828538 30.6058783,8.56451613 L45.5291945,8.56451613 C45.4766885,9.21921462 45.4102429,9.85207444 45.3321809,10.4677419 Z M13.3225806,1.90322581 C19.6195817,1.90322581 24.7419355,7.02557964 24.7419355,13.3225806 C24.7419355,19.6195817 19.6195817,24.7419355 13.3225806,24.7419355 C7.02557964,24.7419355 1.90322581,19.6195817 1.90322581,13.3225806 C1.90322581,7.02557964 7.02557964,1.90322581 13.3225806,1.90322581 Z M1.90322581,29.5 C1.90322581,26.8593671 2.29167717,24.2670583 3.02304367,21.7616399 C5.46805696,24.7410062 9.17646639,26.6451613 13.3225806,26.6451613 C20.6692367,26.6451613 26.6451613,20.6692367 26.6451613,13.3225806 C26.6451613,9.17646639 24.7410062,5.46805696 21.7616399,3.02304367 C24.2670583,2.29167717 26.8593671,1.90322581 29.5,1.90322581 C35.2305869,1.90322581 40.5569241,3.66008534 44.9730028,6.66129032 L30.4925025,6.66129032 C30.4688051,6.04190559 30.4516129,5.41276301 30.4516129,4.75806452 L28.5483871,4.75806452 C28.5483871,17.0584047 32.7344616,23.4608824 36.9084551,29.5 C32.7344616,35.5391176 28.5483871,41.9415953 28.5483871,54.2419355 L30.4516129,54.2419355 C30.4516129,53.587237 30.4688051,52.9580944 30.4925025,52.3387097 L44.9730028,52.3387097 C40.5569241,55.3399147 35.2305869,57.0967742 29.5,57.0967742 C14.2825573,57.0967742 1.90322581,44.7174427 1.90322581,29.5 Z M47.4352083,50.4480296 C46.6708511,40.565288 42.940603,34.8811665 39.2205771,29.5 C42.940603,24.1179041 46.6717805,18.4356414 47.4361375,8.55197042 C53.3437579,13.6176364 57.0967742,21.1269216 57.0967742,29.5 C57.0967742,37.8740077 53.3428285,45.3832929 47.4352083,50.4480296 Z" id="Shape" fill="#0BA6BF"></path>
                            </g>
                        </g>
                    </g>
                </g>
            </g>
        </g>
    </g>
</svg>