<?xml version="1.0" encoding="UTF-8"?>
<svg width="24px" height="16px" viewBox="0 0 24 16" version="1.1" xmlns="http://www.w3.org/2000/svg" xmlns:xlink="http://www.w3.org/1999/xlink">
    <!-- Generator: sketchtool 54.1 (76490) - https://sketchapp.com -->
    <title>3775D8A4-49A3-49AE-BBA1-0D7D356585F5</title>
    <desc>Created with sketchtool.</desc>
    <g id="main-pages" stroke="none" stroke-width="1" fill="none" fill-rule="evenodd">
        <g id="GPCL_main_burger" transform="translate(-754.000000, -149.000000)">
            <g id="Group" transform="translate(725.000000, 30.000000)">
                <g id="icon_news" transform="translate(25.000000, 111.000000)">
                    <rect id="mask" stroke="#979797" opacity="0" x="0.5" y="0.5" width="31" height="31"></rect>
                    <g id="shape" transform="translate(4.000000, 8.000000)" fill-rule="nonzero">
                        <path d="M16.8,0 C15.9176,0 15.2,0.7176 15.2,1.6 L15.2,2.1068 L2.782,6.0204 C2.6924,5.334 2.1104,4.8 1.4,4.8 C0.628,4.8 0,5.428 0,6.2 L0,9.8 C0,10.572 0.628,11.2 1.4,11.2 C2.1104,11.2 2.6924,10.666 2.782,9.9796 L3.6356,10.2484 C3.5092,10.3868 3.408,10.5516 3.3464,10.7412 C3.1152,11.4544 3.5072,12.2232 4.2212,12.4544 L8.7872,13.9336 L8.7876,13.9336 C8.9264,13.9784 9.0668,14 9.2052,14 C9.7792,14 10.314,13.6332 10.5004,13.0584 C10.5688,12.8464 10.5768,12.6312 10.5432,12.4248 L15.2,13.8932 L15.2,14.4 C15.2,15.2824 15.9176,16 16.8,16 C17.6824,16 18.4,15.2824 18.4,14.4 L18.4,1.6 C18.4,0.7176 17.6824,0 16.8,0 Z M9.7392,12.8124 C9.644,13.1064 9.3272,13.2684 9.0336,13.1728 L4.4676,11.6936 C4.1736,11.5984 4.0116,11.282 4.1072,10.988 C4.2028,10.6944 4.5188,10.5332 4.8124,10.628 L9.3792,12.1072 C9.6728,12.2024 9.834,12.5188 9.7392,12.8124 Z M2,9.8 C2,10.1308 1.7308,10.4 1.4,10.4 C1.0692,10.4 0.8,10.1308 0.8,9.8 L0.8,6.2 C0.8,5.8692 1.0692,5.6 1.4,5.6 C1.7308,5.6 2,5.8692 2,6.2 L2,6.2668 L2,9.7332 L2,9.8 Z M2.8,9.1464 L2.8,6.8536 L15.2,2.9452 L15.2,13.0544 L2.8,9.1464 Z M17.6,14.4 C17.6,14.8412 17.2412,15.2 16.8,15.2 C16.3588,15.2 16,14.8412 16,14.4 L16,14.1452 L16,1.8548 L16,1.6 C16,1.1588 16.3588,0.8 16.8,0.8 C17.2412,0.8 17.6,1.1588 17.6,1.6 L17.6,14.4 Z" id="Shape" fill="#222222"></path>
                        <path d="M22,7.6 L21.6,7.6 C21.3788,7.6 21.2,7.7788 21.2,8 C21.2,8.2212 21.3788,8.4 21.6,8.4 L22,8.4 C22.2212,8.4 22.4,8.2212 22.4,8 C22.4,7.7788 22.2212,7.6 22,7.6 Z" id="Path" fill="#0BA6BF"></path>
                        <path d="M20,8.4 L20.4,8.4 C20.6212,8.4 20.8,8.2212 20.8,8 C20.8,7.7788 20.6212,7.6 20.4,7.6 L20,7.6 C19.7788,7.6 19.6,7.7788 19.6,8 C19.6,8.2212 19.7788,8.4 20,8.4 Z" id="Path" fill="#0BA6BF"></path>
                        <path d="M23.6,7.6 L23.2,7.6 C22.9788,7.6 22.8,7.7788 22.8,8 C22.8,8.2212 22.9788,8.4 23.2,8.4 L23.6,8.4 C23.8212,8.4 24,8.2212 24,8 C24,7.7788 23.8212,7.6 23.6,7.6 Z" id="Path" fill="#0BA6BF"></path>
                        <path d="M21.1312,2.6144 C21.2336,2.6144 21.336,2.5752 21.414,2.4972 L21.6968,2.2144 C21.8532,2.058 21.8532,1.8052 21.6968,1.6488 C21.5404,1.4924 21.2876,1.4924 21.1312,1.6488 L20.8484,1.9316 C20.692,2.088 20.692,2.3408 20.8484,2.4972 C20.9264,2.5752 21.0288,2.6144 21.1312,2.6144 Z" id="Path" fill="#0BA6BF"></path>
                        <path d="M22.2628,1.4828 C22.3652,1.4828 22.4676,1.4436 22.5456,1.3656 L22.8284,1.0828 C22.9848,0.9264 22.9848,0.6736 22.8284,0.5172 C22.672,0.3608 22.4192,0.3608 22.2628,0.5172 L21.98,0.8 C21.8236,0.9564 21.8236,1.2092 21.98,1.3656 C22.0584,1.4436 22.1604,1.4828 22.2628,1.4828 Z" id="Path" fill="#0BA6BF"></path>
                        <path d="M20,3.7456 C20.1024,3.7456 20.2048,3.7064 20.2828,3.6284 L20.5656,3.3456 C20.722,3.1892 20.722,2.9364 20.5656,2.78 C20.4092,2.6236 20.1564,2.6236 20,2.78 L19.7172,3.0628 C19.5608,3.2192 19.5608,3.472 19.7172,3.6284 C19.7952,3.7068 19.8976,3.7456 20,3.7456 Z" id="Path" fill="#0BA6BF"></path>
                        <path d="M20.2528,5.24 L19.8736,5.3664 C19.664,5.4364 19.5508,5.6628 19.6208,5.8724 C19.6768,6.04 19.8324,6.146 20,6.146 C20.0416,6.146 20.0848,6.1392 20.1264,6.1252 L20.5056,5.9988 C20.7152,5.9288 20.8284,5.7024 20.7584,5.4928 C20.6884,5.2832 20.462,5.1696 20.2528,5.24 Z" id="Path" fill="#0BA6BF"></path>
                        <path d="M21.518,5.64 C21.5596,5.64 21.6028,5.6332 21.6444,5.6192 L22.0236,5.4928 C22.2332,5.4228 22.3464,5.1964 22.2764,4.9868 C22.2064,4.7772 21.9804,4.6636 21.7704,4.734 L21.3912,4.8604 C21.1816,4.9304 21.0684,5.1568 21.1384,5.3664 C21.1944,5.534 21.3504,5.64 21.518,5.64 Z" id="Path" fill="#0BA6BF"></path>
                        <path d="M22.6564,4.8596 C22.7124,5.0276 22.8684,5.1336 23.036,5.1336 C23.0776,5.1336 23.1204,5.1268 23.162,5.1132 L23.5412,4.9872 C23.7508,4.9172 23.8644,4.6908 23.7948,4.4812 C23.7248,4.2716 23.498,4.1588 23.2888,4.2276 L22.9096,4.3536 C22.7,4.424 22.5868,4.6504 22.6564,4.8596 Z" id="Path" fill="#0BA6BF"></path>
                        <path d="M22.5456,14.6344 C22.3892,14.478 22.1364,14.478 21.98,14.6344 C21.8236,14.7908 21.8236,15.0436 21.98,15.2 L22.2628,15.4828 C22.3412,15.5608 22.4432,15.6 22.5456,15.6 C22.648,15.6 22.7504,15.5608 22.8284,15.4828 C22.9848,15.3264 22.9848,15.0736 22.8284,14.9172 L22.5456,14.6344 Z" id="Path" fill="#0BA6BF"></path>
                        <path d="M21.414,13.5028 C21.2576,13.3464 21.0048,13.3464 20.8484,13.5028 C20.692,13.6592 20.692,13.912 20.8484,14.0684 L21.1312,14.3512 C21.2092,14.4292 21.3116,14.4684 21.414,14.4684 C21.5164,14.4684 21.6188,14.4292 21.6968,14.3512 C21.8532,14.1948 21.8532,13.942 21.6968,13.7856 L21.414,13.5028 Z" id="Path" fill="#0BA6BF"></path>
                        <path d="M20.2828,12.3716 C20.1264,12.2152 19.8736,12.2152 19.7172,12.3716 C19.5608,12.528 19.5608,12.7808 19.7172,12.9372 L20,13.22 C20.078,13.298 20.1804,13.3372 20.2828,13.3372 C20.3852,13.3372 20.4876,13.298 20.5656,13.22 C20.722,13.0636 20.722,12.8108 20.5656,12.6544 L20.2828,12.3716 Z" id="Path" fill="#0BA6BF"></path>
                        <path d="M21.3916,11.1396 L21.7708,11.266 C21.8124,11.28 21.8556,11.2868 21.8972,11.2868 C22.0648,11.2868 22.2208,11.1808 22.2764,11.0132 C22.3464,10.804 22.2336,10.5772 22.0236,10.5072 L21.6444,10.3808 C21.4356,10.31 21.2084,10.424 21.1384,10.6336 C21.0684,10.8432 21.1816,11.0696 21.3916,11.1396 Z" id="Path" fill="#0BA6BF"></path>
                        <path d="M20.506,10.0016 L20.1268,9.8752 C19.9176,9.8044 19.6908,9.9184 19.6208,10.128 C19.5508,10.3376 19.6636,10.564 19.8736,10.634 L20.2528,10.7604 C20.2944,10.7744 20.3376,10.7812 20.3792,10.7812 C20.5468,10.7812 20.7028,10.6752 20.7584,10.5076 C20.8284,10.298 20.7156,10.0716 20.506,10.0016 Z" id="Path" fill="#0BA6BF"></path>
                        <path d="M23.5416,11.0128 L23.1624,10.8868 C22.9536,10.8176 22.726,10.9304 22.6564,11.1404 C22.5868,11.3496 22.7,11.5764 22.91,11.6464 L23.2892,11.7724 C23.3308,11.786 23.3736,11.7928 23.4152,11.7928 C23.5828,11.7928 23.7392,11.6868 23.7948,11.5188 C23.8644,11.3092 23.7512,11.0828 23.5416,11.0128 Z" id="Path" fill="#0BA6BF"></path>
                    </g>
                </g>
            </g>
        </g>
    </g>
</svg>