<?xml version="1.0" encoding="UTF-8"?>
<svg width="24px" height="26px" viewBox="0 0 24 26" version="1.1" xmlns="http://www.w3.org/2000/svg" xmlns:xlink="http://www.w3.org/1999/xlink">
    <!-- Generator: sketchtool 54.1 (76490) - https://sketchapp.com -->
    <title>B7AFA876-8B67-4F03-A23D-AEF2E5D0C255</title>
    <desc>Created with sketchtool.</desc>
    <g id="main-pages" stroke="none" stroke-width="1" fill="none" fill-rule="evenodd">
        <g id="GPCL_main_burger" transform="translate(-754.000000, -393.000000)">
            <g id="Group" transform="translate(725.000000, 30.000000)">
                <g id="icon_contacts" transform="translate(25.000000, 361.000000)">
                    <rect id="mask" stroke="#979797" opacity="0" x="0.5" y="0.5" width="31" height="31"></rect>
                    <g id="shape" transform="translate(4.000000, 4.000000)" fill="#222222" fill-rule="nonzero">
                        <path d="M11.9817879,0.00249480249 C7.18927235,0.0017962578 2.85789605,2.8584948 0.971575884,7.26416632 L0.822286902,7.3136632 L0.88016632,7.48730146 C-1.60345946,13.6128399 1.34883992,20.5919501 7.47437838,23.0755759 C8.90504782,23.6556674 10.4344116,23.953447 11.9782453,23.9525988 C18.5918669,23.9535967 23.9540956,18.5929647 23.9550936,11.979343 C23.9560915,5.36572141 18.5954595,0.00344282744 11.9817879,0.00249480249 Z M21.374869,18.0151684 L20.7599501,17.4006486 L20.7599501,15.9692308 C20.7606486,15.9074595 20.7469771,15.8463867 20.7200333,15.7908025 L19.1632765,12.6816798 L19.1632765,11.17921 C19.1632765,11.0457879 19.0966653,10.9211476 18.9856466,10.8471019 L17.7881414,10.0487651 C17.6942869,9.98609563 17.5782786,9.96608732 17.4688067,9.99367983 L16.002262,10.3601164 L13.5389938,9.3031185 L13.2000998,6.92886486 L14.139343,5.99002079 L16.1555426,5.99002079 L16.8341289,7.00989605 C16.8954012,7.10160499 16.9919501,7.16392516 17.1007734,7.18193763 L19.4957838,7.58110603 C19.5599501,7.59188358 19.6257131,7.58664449 19.6873846,7.56593763 L21.8931892,6.83066944 C23.7432848,10.3810229 23.5453971,14.6511767 21.374869,18.0151684 Z M19.728499,3.93590021 L19.0794511,4.36859875 L17.2700208,4.00655301 L16.0960665,3.61576715 C16.0242162,3.59136798 15.9468773,3.58827443 15.8733306,3.60698545 L14.3892225,3.97781289 L13.738578,3.76106445 L14.2207734,2.7966736 L15.5707609,2.7966736 C15.6326819,2.79672349 15.6937547,2.78240333 15.7491892,2.75476091 L17.1303119,2.06419958 C18.0814304,2.56066528 18.9564075,3.19095218 19.728499,3.93590021 Z M7.60615385,1.69217464 L8.564158,2.33084407 C8.61125988,2.36217879 8.66444906,2.38313514 8.72023285,2.39231601 L10.6546029,2.71484407 L10.4657963,3.27966736 L9.45789605,3.61616632 C9.3676341,3.64620374 9.29104366,3.70747609 9.24194595,3.78900624 L8.0955343,5.6994262 L6.25417048,6.80432432 L3.53982536,7.19191684 C3.34308524,7.21970894 3.19679002,7.38800832 3.19654054,7.58669439 L3.19654054,8.78419958 C3.19654054,8.890079 3.23865281,8.99156757 3.31349688,9.06641164 L3.99487734,9.7477921 L3.99487734,10.4335634 L2.3343368,9.32627027 L1.73199168,7.51923493 C2.87800416,4.90069023 4.97847817,2.81703119 7.60615385,1.69217464 Z M6.46972141,14.7797089 L4.66548025,14.4184615 L3.99487734,13.0808482 L3.99487734,12.1428025 L5.48217879,10.655501 L6.03263202,11.7568067 C6.10024116,11.8921247 6.23860291,11.9775967 6.38988773,11.9775468 L8.95813721,11.9775468 L10.0394844,13.7797921 C10.1116341,13.8998919 10.2414636,13.9733389 10.3815717,13.9733888 L11.4912599,13.9733888 L11.211842,15.3732723 L9.70059044,16.8845239 C9.62559667,16.9593181 9.58338462,17.0608067 9.58323493,17.166736 L9.58323493,18.164657 L8.14622869,19.2424116 C8.04573805,19.3178046 7.98656133,19.4361081 7.98656133,19.5617464 L7.98656133,21.0035426 L7.48999584,20.8390852 L6.78905613,19.0859376 L6.78905613,15.170894 C6.78910603,14.9811892 6.6555842,14.8176299 6.46972141,14.7797089 Z M5.26982121,20.9159751 C1.50621206,18.0924075 -0.0854220374,13.2137713 1.28891476,8.71394595 L1.6206237,9.7086736 C1.64856549,9.79284823 1.70375052,9.86534719 1.77749688,9.91464449 L3.76735135,11.2410811 L3.31349688,11.6953347 C3.23865281,11.7701788 3.19654054,11.8716674 3.19654054,11.9775468 L3.19654054,13.175052 C3.19649064,13.236973 3.21081081,13.2980457 3.23845322,13.3534802 L4.03679002,14.9501538 C4.09207484,15.0604241 4.19520998,15.1389605 4.3162079,15.1629106 L5.99271518,15.4978129 L5.99271518,19.162578 C5.99266528,19.2132723 6.00229522,19.2635676 6.02105613,19.3106694 L6.81939293,21.3065114 C6.86310187,21.4155343 6.95261538,21.4998087 7.06408316,21.5368316 L8.26158836,21.936 C8.30160499,21.9495717 8.34351767,21.9565572 8.38572973,21.9567568 C8.60617048,21.9567568 8.78489813,21.7780291 8.78489813,21.5575884 L8.78489813,19.7613306 L10.2219044,18.6835759 C10.322395,18.608183 10.3815717,18.4898794 10.3815717,18.3642412 L10.3815717,17.3319917 L11.861289,15.8522744 C11.9169231,15.7965405 11.9548441,15.7255385 11.970262,15.6482994 L12.3694304,13.6524574 C12.4126403,13.4362578 12.2724324,13.2259958 12.0562328,13.1827859 C12.0305364,13.1776466 12.0044407,13.175052 11.9782453,13.175052 L10.607501,13.175052 L9.52615385,11.3728067 C9.45400416,11.2527069 9.32417464,11.1792599 9.18406653,11.17921 L6.6365738,11.17921 L5.95080249,9.80327651 C5.89337214,9.6884158 5.78419958,9.60818295 5.65741372,9.58772557 C5.53067775,9.56582121 5.4012973,9.6076341 5.31133472,9.69949272 L4.79321414,10.2156175 L4.79321414,9.58253638 C4.79321414,9.47665696 4.75110187,9.3751684 4.6762578,9.30032432 L3.99487734,8.61894387 L3.99487734,7.93277339 L6.44656965,7.5827027 C6.49920998,7.57506861 6.54985447,7.55700624 6.59545946,7.52961331 L8.59130146,6.33210811 C8.64728482,6.29847817 8.69418711,6.25157588 8.72781705,6.19559252 L9.84948025,4.3262869 L10.9068773,3.97342204 C11.0262786,3.93425364 11.1199834,3.84059875 11.1591518,3.72114761 L11.5583202,2.52364241 C11.6274761,2.31432848 11.5138628,2.08854886 11.3045489,2.01939293 C11.2852391,2.01300624 11.2654304,2.00811642 11.2453721,2.00472349 L8.93498545,1.61952599 L8.52903119,1.34888981 C11.040948,0.531293139 13.76158,0.632482328 16.2058378,1.63429522 L15.4765572,1.9983368 L13.9740873,1.9983368 C13.8220541,1.99748857 13.6827942,2.08311019 13.6148358,2.21907692 L12.816499,3.81575052 C12.7181538,4.0130395 12.7983368,4.25274012 12.9956258,4.35108524 C13.0124407,4.35946778 13.0298046,4.36665281 13.0476175,4.37259044 L14.2451227,4.77175884 C14.316973,4.796158 14.3943119,4.79925156 14.4678586,4.78054054 L15.9519667,4.4097131 L17.0393015,4.77175884 C17.054869,4.77734719 17.0708857,4.78163825 17.0872017,4.78453222 L19.0830437,5.18370062 C19.1868274,5.20485655 19.2948025,5.18360083 19.3828191,5.1246237 L20.2913264,4.51868607 C20.7384449,5.01669854 21.1402578,5.55358004 21.4920249,6.12294387 L19.5281164,6.77758004 L17.4017464,6.4231185 L16.69921,5.36931393 C16.6255634,5.25889397 16.5018212,5.19233264 16.3690977,5.19168399 L13.9740873,5.19168399 C13.8682079,5.19168399 13.7667193,5.23379626 13.6918753,5.30864033 L12.4943701,6.50614553 C12.4054553,6.5950104 12.3635925,6.72059875 12.3814054,6.8450395 L12.7805738,9.6392183 C12.8006819,9.77738046 12.8914927,9.89498545 13.0200748,9.94937214 L15.8142536,11.1468773 C15.8942869,11.1815551 15.9836008,11.1886902 16.0681247,11.1672349 L17.4935551,10.8107775 L18.3649397,11.3927651 L18.3649397,12.7758836 C18.3642412,12.8376549 18.3779127,12.8987277 18.4048565,12.9543119 L19.9616133,16.0634345 L19.9616133,17.5659044 C19.9616133,17.6717838 20.0037256,17.7732723 20.0785696,17.8481164 L20.9136299,18.6835759 C17.2101954,23.6199418 10.2061871,24.6194595 5.26982121,20.9159751 Z" id="Shape"></path>
                    </g>
                    <g id="pin" transform="translate(6.000000, 2.000000)" fill="#0BA6BF" fill-rule="nonzero">
                        <path d="M7.79081879,2.98053828 C7.74971812,2.82077958 7.66625503,2.6505522 7.60451007,2.50151276 C6.86566443,0.659972158 5.25130201,0 3.94778523,0 C2.20279195,0 0.280885906,1.21353132 0.024295302,3.71490487 L0.024295302,4.22594896 C0.024295302,4.2472761 0.0313825503,4.43885847 0.0414496644,4.53469142 C0.185288591,5.72678422 1.09226846,6.99371694 1.76963758,8.18580974 C2.49838926,9.46301624 3.25457718,10.7194246 4.00375839,11.9753039 C4.46571812,11.1557401 4.92601342,10.3254014 5.37744966,9.52705336 C5.50048322,9.29276102 5.64330201,9.05860789 5.7664698,8.83497912 C5.84856376,8.68607889 6.00539597,8.53717865 6.07704698,8.39863573 C6.80577181,7.01490487 7.97873826,5.6204826 7.97873826,4.24724826 L7.97873826,3.68310905 C7.9787651,3.53423666 7.80083221,3.01264037 7.79081879,2.98053828 Z M3.97973154,5.5459768 C3.46679195,5.5459768 2.90534228,5.27997216 2.62821477,4.54535499 C2.58692617,4.42841763 2.59025503,4.19406961 2.59025503,4.17260325 L2.59025503,3.84261717 C2.59025503,2.90611601 3.35696644,2.4802413 4.02397315,2.4802413 C4.84512752,2.4802413 5.48021477,3.16159629 5.48021477,4.01323434 C5.48021477,4.86484455 4.80088591,5.5459768 3.97973154,5.5459768 Z" id="Facebook_Places"></path>
                    </g>
                </g>
            </g>
        </g>
    </g>
</svg>