<?xml version="1.0" encoding="UTF-8"?>
<svg width="261px" height="261px" viewBox="0 0 261 261" version="1.1" xmlns="http://www.w3.org/2000/svg" xmlns:xlink="http://www.w3.org/1999/xlink">
    <!-- Generator: sketchtool 56 (101010) - https://sketch.com -->
    <title>BC11E6E6-8051-46C4-801F-B38E1B709C34</title>
    <desc>Created with sketchtool.</desc>
    <g id="main-pages" stroke="none" stroke-width="1" fill="none" fill-rule="evenodd">
        <g id="PGT-M" transform="translate(-393.000000, -1506.000000)">
            <g id="02--how-it-works" transform="translate(0.000000, 1241.000000)">
                <g id="icon_pgtm_works1" transform="translate(402.000000, 274.000000)">
                    <circle id="Oval" stroke="#0BA6BF" stroke-width="9" cx="121.5" cy="121.5" r="126"></circle>
                    <path d="M121.5,243 C188.602597,243 243,188.602597 243,121.5 C243,80.5712439 220.898926,30.7807617 165.119629,8 C143.327637,8 98.6251514,7.99003829 77.6625977,8 C22.2177734,30 0,80.4135735 0,121.5 C0,188.602597 54.3974029,243 121.5,243 Z" id="Oval-Copy" fill="#0BA6BF" opacity="0.144289438"></path>
                    <text id="99%" font-family="Roboto-Bold, Roboto" font-size="20" font-weight="bold" line-spacing="27" fill="#0BA6BF">
                        <tspan x="102.142578" y="216">99%</tspan>
                    </text>
                    <g id="icon_works01" transform="translate(45.000000, 48.000000)">
                        <rect id="mask" stroke="#979797" stroke-width="1.75238085" opacity="0" x="0.876190424" y="0.876190424" width="145.247619" height="145.247619"></rect>
                        <g id="shape" transform="translate(8.750000, 12.550846)" stroke="#FFFFFF" stroke-linecap="round" stroke-linejoin="round" stroke-width="2.70158714">
                            <path d="M4.32826771,116.16657 C5.83370521,116.489033 7.34184062,116.824107 8.84907674,117.160982 C27.209299,121.267434 45.6180837,125.565743 59.1823094,111.449419 C72.6008476,97.4817169 67.8534135,79.4498971 63.1149726,61.4279853 C58.3756323,43.4060735 53.6281983,25.3742537 67.0566288,11.4155588 C78.8060559,-0.811922794 94.1967712,0.770669118 110.032643,4.07636765" id="Stroke-3"></path>
                            <path d="M71.0055694,63.2466599 C86.3980833,66.5901893 101.317562,68.016954 112.942885,56.2362371 C126.691469,42.3009614 121.948531,23.968296 117.389052,5.68697243 C116.927708,3.84406801 116.475358,1.99215625 116.031101,0.149251838" id="Stroke-5"></path>
                            <path d="M7.19921076,110.438524 C3.41133576,94.4567776 1.23501632,78.8542408 13.2965024,66.6285607 C25.1691344,54.5812261 40.4897038,56.3358585 56.2410406,59.8325129" id="Stroke-7"></path>
                            <path d="M4.56055833,84.5485092 L13.4555896,93.2370018" id="Stroke-9"></path>
                            <path d="M30.7045399,57.6979504 L39.5501094,66.3378033" id="Stroke-11"></path>
                            <path d="M13.2963226,66.6288309 L24.1320552,77.2133713" id="Stroke-13"></path>
                            <path d="M29.4605306,77.4807096 C31.042409,79.0254706 31.2213708,81.4106176 29.8607215,82.8085588 C28.5000722,84.2065 26.1142146,84.0867022 24.5323361,82.5419412 C22.9504576,80.9962794 22.7714958,78.6111324 24.1321451,77.2131912" id="Stroke-15"></path>
                            <path d="M44.8783149,66.6050515 C46.4601934,68.1507132 46.6391552,70.5358603 45.2785059,71.9329007 C43.9178566,73.3308419 41.531999,73.2110441 39.9501205,71.6662831 C38.368242,70.1206213 38.1892802,67.7354743 39.5499295,66.3375331" id="Stroke-17"></path>
                            <path d="M59.0537986,80.4520551 C57.4719201,78.9063934 55.0869618,78.7865956 53.7254132,80.1845368 C52.3647639,81.5824779 52.544625,83.967625 54.1265035,85.5132868 C55.7074826,87.0580478 58.0933403,87.1778456 59.4539896,85.7799044" id="Stroke-19"></path>
                            <path d="M48.4702313,96.0495478 C46.8883528,94.503886 44.5024951,94.3840882 43.1418458,95.7820294 C41.7811965,97.1799706 41.9601583,99.5651176 43.5429361,101.109879 C45.1239153,102.65554 47.5097729,102.775338 48.8704222,101.377397" id="Stroke-21"></path>
                            <path d="M33.1297872,107.516358 C31.5479087,105.971597 29.162051,105.8518 27.8014017,107.249741 C26.4407524,108.647682 26.6197142,111.032829 28.202492,112.57759 C29.7834712,114.123252 32.1693288,114.24305 33.5299781,112.845108" id="Stroke-23"></path>
                            <path d="M18.7838851,93.5039798 C20.3657635,95.0487408 20.5447253,97.4338879 19.184076,98.831829 C17.8234267,100.22977 15.4375691,100.109972 13.8556906,98.5652114 C12.2738122,97.0195496 12.0948503,94.6344026 13.4554997,93.2364614" id="Stroke-25"></path>
                            <path d="M41.516441,120.646557 L33.5306076,112.845289" id="Stroke-27"></path>
                            <path d="M59.1819497,111.449149 L48.8705122,101.377127" id="Stroke-29"></path>
                            <path d="M67.6208531,93.7563658 L59.4542594,85.7803548" id="Stroke-31"></path>
                            <path d="M58.7261816,29.3318143 L67.4143726,37.819443" id="Stroke-33"></path>
                            <path d="M84.6637726,2.2798511 L93.509342,10.9206048" id="Stroke-35"></path>
                            <path d="M67.2555552,11.2115423 L78.0921872,21.7960827" id="Stroke-37"></path>
                            <path d="M83.4202128,22.0626103 C85.0020913,23.6082721 85.1810531,25.9934191 83.8195045,27.3913603 C82.4597545,28.7893015 80.0729976,28.6695037 78.4920184,27.1238419 C76.9101399,25.5790809 76.7311781,23.1939338 78.0918274,21.7959926" id="Stroke-39"></path>
                            <path d="M98.8375476,11.1869522 C100.419426,12.732614 100.598388,15.117761 99.2377385,16.5157022 C97.8770892,17.9136434 95.4912316,17.7938456 93.9102524,16.2481838 C92.3274747,14.7034228 92.1485128,12.3182757 93.5091622,10.9203346" id="Stroke-41"></path>
                            <path d="M113.012941,25.0339559 C111.431063,23.4891949 109.046105,23.3693971 107.684556,24.7673382 C106.324806,26.1652794 106.503768,28.5504265 108.085646,30.0951875 C109.666625,31.6408493 112.053382,31.7606471 113.413132,30.3627059" id="Stroke-43"></path>
                            <path d="M102.429464,40.6315386 C100.847585,39.0867776 98.4626271,38.9669798 97.1010785,40.364921 C95.7413285,41.7619614 95.9202903,44.1480092 97.5021687,45.6927702 C99.0831479,47.238432 101.469006,47.3582298 102.829655,45.9602886" id="Stroke-45"></path>
                            <path d="M87.0894694,52.0991599 C85.507591,50.5543989 83.1217333,50.4346011 81.761084,51.8316415 C80.4004347,53.2295827 80.5793965,55.6147298 82.161275,57.1603915 C83.7431535,58.7051526 86.1290111,58.8249504 87.4887611,57.4279099" id="Stroke-47"></path>
                            <path d="M72.7426681,38.0858805 C74.3254458,39.6315423 74.5044076,42.0166893 73.142859,43.4146305 C71.783109,44.8125717 69.3963521,44.6927739 67.8153729,43.1471121 C66.2334944,41.6023511 66.0545326,39.217204 67.4142826,37.8192629" id="Stroke-49"></path>
                            <path d="M95.1428406,64.902932 L87.488851,57.4277298" id="Stroke-51"></path>
                            <path d="M113.141182,56.0319504 L102.829745,45.9599283" id="Stroke-53"></path>
                            <path d="M121.580086,38.3391673 L113.413492,30.3631562" id="Stroke-55"></path>
                            <path d="M46.5253931,40.6279357 C46.5253931,42.9013915 44.6845146,44.7451967 42.4137681,44.7451967 C40.1439208,44.7451967 38.3030424,42.9013915 38.3030424,40.6279357 C38.3030424,38.3544798 40.1439208,36.5106746 42.4137681,36.5106746 C44.6845146,36.5106746 46.5253931,38.3544798 46.5253931,40.6279357 Z" id="Stroke-57"></path>
                            <path d="M8.67155382,50.9961195 C8.67155382,53.2695754 6.83157465,55.1133805 4.56082813,55.1133805 C2.2900816,55.1133805 0.449203125,53.2695754 0.449203125,50.9961195 C0.449203125,48.7217629 2.2900816,46.8788585 4.56082813,46.8788585 C6.83157465,46.8788585 8.67155382,48.7217629 8.67155382,50.9961195 Z" id="Stroke-59"></path>
                            <path d="M129.353323,71.9214614 C129.353323,74.1949173 127.513344,76.0387224 125.242598,76.0387224 C122.971851,76.0387224 121.130973,74.1949173 121.130973,71.9214614 C121.130973,69.6471048 122.971851,67.8042004 125.242598,67.8042004 C127.513344,67.8042004 129.353323,69.6471048 129.353323,71.9214614 Z" id="Stroke-61"></path>
                            <path d="M93.432901,75.6150165 L93.432901,77.8479393" id="Stroke-63"></path>
                            <path d="M88.7976104,80.5998658 L91.1124229,80.5998658" id="Stroke-65"></path>
                            <path d="M93.5856931,85.3824099 L93.5856931,83.3368401" id="Stroke-67"></path>
                            <path d="M98.2209837,80.3966599 L96.1426885,80.3966599" id="Stroke-69"></path>
                            <path d="M87.4134892,106.565452 L87.4134892,108.798375" id="Stroke-71"></path>
                            <path d="M82.7773892,111.551202 L85.093101,111.551202" id="Stroke-73"></path>
                            <path d="M87.5654719,116.332846 L87.5654719,114.287276" id="Stroke-75"></path>
                            <path d="M92.2015719,111.347996 L90.1223774,111.347996" id="Stroke-77"></path>
                            <path d="M33.4538969,9.71794301 L33.4538969,11.9508658" id="Stroke-79"></path>
                            <path d="M28.8181566,14.703693 L31.1338684,14.703693" id="Stroke-81"></path>
                            <path d="M33.6062392,19.4853364 L33.6062392,17.4397665" id="Stroke-83"></path>
                            <path d="M38.2419795,14.4995864 L36.1636844,14.4995864" id="Stroke-85"></path>
                        </g>
                    </g>
                </g>
            </g>
        </g>
    </g>
</svg>