<?xml version="1.0" encoding="UTF-8"?>
<svg width="60px" height="59px" viewBox="0 0 60 59" version="1.1" xmlns="http://www.w3.org/2000/svg" xmlns:xlink="http://www.w3.org/1999/xlink">
    <!-- Generator: Sketch 55 (78076) - https://sketchapp.com -->
    <title>icon_pgtp</title>
    <desc>Created with Sketch.</desc>
    <g id="main-pages" stroke="none" stroke-width="1" fill="none" fill-rule="evenodd">
        <g id="gpcl_homepage" transform="translate(-256.000000, -1140.000000)">
            <g id="01-become-a-patient" transform="translate(0.000000, 717.000000)">
                <g id="our-tests" transform="translate(244.000000, 69.000000)">
                    <g id="pgt-p" transform="translate(0.000000, 335.000000)">
                        <g id="icon_pgtp" transform="translate(0.742188, 6.000000)">
                            <rect id="mask" stroke="#979797" stroke-width="1.13513514" opacity="0" x="0.567567568" y="0.567567568" width="82.8648649" height="82.8648649"></rect>
                            <g id="shape" transform="translate(12.000000, 13.000000)" fill-rule="nonzero">
                                <path d="M29.5,15.2258065 C23.7285235,15.2258065 19.0322581,19.9220719 19.0322581,25.6935484 C19.0322581,31.4650249 23.7285235,36.1612903 29.5,36.1612903 C35.2714765,36.1612903 39.9677419,31.4650249 39.9677419,25.6935484 C39.9677419,19.9220719 35.2714765,15.2258065 29.5,15.2258065 Z M29.5,34.2580645 C24.7772492,34.2580645 20.9354839,30.4153698 20.9354839,25.6935484 C20.9354839,20.971727 24.7772492,17.1290323 29.5,17.1290323 C34.2227508,17.1290323 38.0645161,20.971727 38.0645161,25.6935484 C38.0645161,30.4153698 34.2227508,34.2580645 29.5,34.2580645 Z" id="Shape" fill="#000000"></path>
                                <path d="M58.0483871,0 C50.9758774,0 47.2191438,3.53044676 43.7741935,7.1751984 C40.3292433,3.53044676 36.5725097,0 29.5,0 C22.4274903,0 18.6707567,3.53044676 15.2258065,7.1751984 C11.7808562,3.53044676 8.02412264,0 0.951612903,0 L0,0 L0,17.1290323 L0.951612903,17.1290323 C8.02412264,17.1290323 11.7808562,13.5985855 15.2258065,9.95383385 C16.8139963,11.63449 18.4909353,13.2998126 20.5321636,14.6036337 C17.2995606,17.2224278 15.2258065,21.2189232 15.2258065,25.6935484 C15.2258065,32.5871661 20.137207,38.3539961 26.6451613,39.6805854 L26.6451613,41.8709677 L24.7419355,41.8709677 L24.7419355,54.2419355 C24.7419355,56.8653762 26.8765593,59 29.5,59 C32.1234407,59 34.2580645,56.8653762 34.2580645,54.2419355 L34.2580645,41.8709677 L32.3548387,41.8709677 L32.3548387,39.6805854 C38.862793,38.3539961 43.7741935,32.5871661 43.7741935,25.6935484 C43.7741935,21.217994 41.7004394,17.2224278 38.4678364,14.6036337 C40.5090647,13.2998126 42.1860037,11.63449 43.7741935,9.95383385 C47.2191438,13.5985855 50.9758774,17.1290323 58.0483871,17.1290323 L59,17.1290323 L59,0 L58.0483871,0 Z M7.61290323,3.39616145 L7.61290323,13.7338001 C7.01349867,14.0344317 6.38342673,14.3006788 5.70967742,14.5195312 L5.70967742,2.61043026 C6.38342673,2.82835342 7.01349867,3.09460055 7.61290323,3.39616145 Z M1.90322581,1.92785248 C2.57232863,1.96316624 3.20332982,2.03844036 3.80645161,2.14391702 L3.80645161,14.9860446 C3.20332982,15.0915213 2.57232863,15.1667953 1.90322581,15.202109 L1.90322581,1.92785248 Z M9.51612903,12.5907494 L9.51612903,4.53828285 C11.1340568,5.67901027 12.5289504,7.08970193 13.9201267,8.56451613 C12.5289504,10.0393303 11.1340568,11.450022 9.51612903,12.5907494 Z M32.3548387,11.7065114 L32.3548387,2.14856351 C33.0258002,2.2656565 33.65866,2.42363911 34.2580645,2.61786473 L34.2580645,12.2529454 C33.639609,12.0322345 33.008608,11.8398673 32.3548387,11.7065114 Z M30.4516129,1.93249908 L30.4516129,11.4667497 C30.1356477,11.4467695 29.8215411,11.4193548 29.5,11.4193548 C29.1784589,11.4193548 28.8643523,11.4467695 28.5483871,11.4676789 L28.5483871,1.93249908 C28.8597058,1.91670076 29.1738123,1.90322581 29.5,1.90322581 C29.8261877,1.90322581 30.1402942,1.91670076 30.4516129,1.93249908 Z M24.7419355,12.2520161 L24.7419355,2.61693548 C25.34134,2.42270986 25.9741998,2.26472713 26.6451613,2.14763426 L26.6451613,11.7065114 C25.991392,11.8398673 25.360391,12.0322345 24.7419355,12.2520161 Z M16.5314862,8.56451613 C17.3488139,7.69747045 18.1680003,6.85365744 19.0322581,6.07210811 L19.0322581,11.0518129 C18.1721821,10.2744456 17.3534605,9.43620842 16.5314862,8.56451613 Z M20.9354839,12.5916788 L20.9354839,4.54200009 C21.5348884,4.11962885 22.1658896,3.7330361 22.8387097,3.3952322 L22.8387097,13.0781722 C22.6389081,13.1836488 22.4465411,13.3016712 22.2523153,13.4169056 C21.7964891,13.1608808 21.3559964,12.8885931 20.9354839,12.5916788 Z M32.3548387,43.7741935 L32.3548387,45.6774194 L26.6451613,45.6774194 L26.6451613,43.7741935 L32.3548387,43.7741935 Z M29.5,57.0967742 C27.9262144,57.0967742 26.6451613,55.8157211 26.6451613,54.2419355 L26.6451613,47.5806452 L32.3548387,47.5806452 L32.3548387,54.2419355 C32.3548387,55.8157211 31.0737856,57.0967742 29.5,57.0967742 Z M30.4516129,41.8709677 L28.5483871,41.8709677 L28.5483871,39.9194178 C28.8643523,39.9403273 29.1784589,39.9677419 29.5,39.9677419 C29.8215411,39.9677419 30.1356477,39.9403273 30.4516129,39.9194178 L30.4516129,41.8709677 Z M41.8709677,25.6935484 C41.8709677,32.5146799 36.3211316,38.0645161 29.5,38.0645161 C22.6788684,38.0645161 17.1290323,32.5146799 17.1290323,25.6935484 C17.1290323,18.8724168 22.6788684,13.3225806 29.5,13.3225806 C36.3211316,13.3225806 41.8709677,18.8724168 41.8709677,25.6935484 Z M36.1612903,13.0791016 L36.1612903,3.3952322 C36.8341104,3.7330361 37.4651116,4.1186996 38.0645161,4.54200009 L38.0645161,12.5916788 C37.6440036,12.8876638 37.2025816,13.1608808 36.7467553,13.4178348 C36.5525296,13.3026005 36.3610919,13.1845782 36.1612903,13.0791016 Z M39.9677419,11.0518129 L39.9677419,6.07210811 C40.8319997,6.85365744 41.6511861,7.69747045 42.4685138,8.56451613 C41.6465395,9.43620842 40.8278179,10.2744456 39.9677419,11.0518129 Z M53.2903226,2.61043026 L53.2903226,14.518602 C52.6165733,14.3006788 51.9865013,14.0344317 51.3870968,13.7328708 L51.3870968,3.3952322 C51.9865013,3.09460055 52.6165733,2.82835342 53.2903226,2.61043026 Z M45.0798733,8.56451613 C46.4710496,7.08970193 47.8659432,5.67901027 49.483871,4.53828285 L49.483871,12.5907494 C47.8659432,11.450022 46.4710496,10.0393303 45.0798733,8.56451613 Z M57.0967742,15.2011798 C56.4276714,15.165866 55.7966702,15.0905919 55.1935484,14.9851152 L55.1935484,2.14298765 C55.7966702,2.037511 56.4276714,1.96223699 57.0967742,1.92692323 L57.0967742,15.2011798 Z" id="Shape" fill="#222222"></path>
                                <polygon id="Path" fill="#0BA6BF" points="3.80645161 22.8387097 5.70967742 22.8387097 5.70967742 30.4516129 3.80645161 30.4516129"></polygon>
                                <path d="M13.3225806,28.5483871 L13.3225806,24.7419355 C13.3225806,23.6922804 12.4690099,22.8387097 11.4193548,22.8387097 L9.51612903,22.8387097 C8.46647395,22.8387097 7.61290323,23.6922804 7.61290323,24.7419355 L7.61290323,28.5483871 C7.61290323,29.5980422 8.46647395,30.4516129 9.51612903,30.4516129 L11.4193548,30.4516129 C12.4690099,30.4516129 13.3225806,29.5980422 13.3225806,28.5483871 Z M9.51612903,24.7419355 L11.4193548,24.7419355 L11.4202841,28.5483871 L9.51612903,28.5483871 L9.51612903,24.7419355 Z" id="Shape" fill="#0BA6BF"></path>
                                <polygon id="Path" fill="#0BA6BF" points="19.0322581 41.8709677 20.9354839 41.8709677 20.9354839 49.483871 19.0322581 49.483871"></polygon>
                                <path d="M51.3870968,28.5483871 L51.3870968,24.7419355 C51.3870968,23.6922804 50.5335261,22.8387097 49.483871,22.8387097 L47.5806452,22.8387097 C46.5309901,22.8387097 45.6774194,23.6922804 45.6774194,24.7419355 L45.6774194,28.5483871 C45.6774194,29.5980422 46.5309901,30.4516129 47.5806452,30.4516129 L49.483871,30.4516129 C50.5335261,30.4516129 51.3870968,29.5980422 51.3870968,28.5483871 Z M47.5806452,24.7419355 L49.483871,24.7419355 L49.4848002,28.5483871 L47.5806452,28.5483871 L47.5806452,24.7419355 Z" id="Shape" fill="#0BA6BF"></path>
                                <polygon id="Path" fill="#0BA6BF" points="53.2903226 22.8387097 55.1935484 22.8387097 55.1935484 30.4516129 53.2903226 30.4516129"></polygon>
                                <polygon id="Path" fill="#0BA6BF" points="11.4193548 32.3548387 13.3225806 32.3548387 13.3225806 39.9677419 11.4193548 39.9677419"></polygon>
                                <path d="M7.61290323,32.3548387 L5.70967742,32.3548387 C4.66002234,32.3548387 3.80645161,33.2084094 3.80645161,34.2580645 L3.80645161,38.0645161 C3.80645161,39.1141712 4.66002234,39.9677419 5.70967742,39.9677419 L7.61290323,39.9677419 C8.66255831,39.9677419 9.51612903,39.1141712 9.51612903,38.0645161 L9.51612903,34.2580645 C9.51612903,33.2084094 8.66255831,32.3548387 7.61290323,32.3548387 Z M5.70967742,38.0645161 L5.70967742,34.2580645 L7.61290323,34.2580645 L7.61383248,38.0645161 L5.70967742,38.0645161 Z" id="Shape" fill="#0BA6BF"></path>
                                <polygon id="Path" fill="#0BA6BF" points="49.483871 41.8709677 51.3870968 41.8709677 51.3870968 49.483871 49.483871 49.483871"></polygon>
                                <polygon id="Path" fill="#0BA6BF" points="53.2903226 41.8709677 55.1935484 41.8709677 55.1935484 49.483871 53.2903226 49.483871"></polygon>
                                <polygon id="Path" fill="#0BA6BF" points="38.0645161 41.8709677 39.9677419 41.8709677 39.9677419 49.483871 38.0645161 49.483871"></polygon>
                                <path d="M45.6774194,41.8709677 L43.7741935,41.8709677 C42.7245385,41.8709677 41.8709677,42.7245385 41.8709677,43.7741935 L41.8709677,47.5806452 C41.8709677,48.6303002 42.7245385,49.483871 43.7741935,49.483871 L45.6774194,49.483871 C46.7270744,49.483871 47.5806452,48.6303002 47.5806452,47.5806452 L47.5806452,43.7741935 C47.5806452,42.7245385 46.7270744,41.8709677 45.6774194,41.8709677 Z M43.7741935,47.5806452 L43.7741935,43.7741935 L45.6774194,43.7741935 L45.6783486,47.5806452 L43.7741935,47.5806452 Z" id="Shape" fill="#0BA6BF"></path>
                                <polygon id="Path" fill="#0BA6BF" points="3.80645161 41.8709677 5.70967742 41.8709677 5.70967742 49.483871 3.80645161 49.483871"></polygon>
                                <polygon id="Path" fill="#0BA6BF" points="7.61290323 41.8709677 9.51612903 41.8709677 9.51612903 49.483871 7.61290323 49.483871"></polygon>
                                <path d="M15.2258065,41.8709677 L13.3225806,41.8709677 C12.2729256,41.8709677 11.4193548,42.7245385 11.4193548,43.7741935 L11.4193548,47.5806452 C11.4193548,48.6303002 12.2729256,49.483871 13.3225806,49.483871 L15.2258065,49.483871 C16.2754615,49.483871 17.1290323,48.6303002 17.1290323,47.5806452 L17.1290323,43.7741935 C17.1290323,42.7245385 16.2754615,41.8709677 15.2258065,41.8709677 Z M13.3225806,47.5806452 L13.3225806,43.7741935 L15.2258065,43.7741935 L15.2267357,47.5806452 L13.3225806,47.5806452 Z" id="Shape" fill="#0BA6BF"></path>
                                <polygon id="Path" fill="#0BA6BF" points="45.6774194 32.3548387 47.5806452 32.3548387 47.5806452 39.9677419 45.6774194 39.9677419"></polygon>
                                <path d="M53.2903226,32.3548387 L51.3870968,32.3548387 C50.3374417,32.3548387 49.483871,33.2084094 49.483871,34.2580645 L49.483871,38.0645161 C49.483871,39.1141712 50.3374417,39.9677419 51.3870968,39.9677419 L53.2903226,39.9677419 C54.3399777,39.9677419 55.1935484,39.1141712 55.1935484,38.0645161 L55.1935484,34.2580645 C55.1935484,33.2084094 54.3399777,32.3548387 53.2903226,32.3548387 Z M51.3870968,38.0645161 L51.3870968,34.2580645 L53.2903226,34.2580645 L53.2912518,38.0645161 L51.3870968,38.0645161 Z" id="Shape" fill="#0BA6BF"></path>
                            </g>
                        </g>
                    </g>
                </g>
            </g>
        </g>
    </g>
</svg>