<?xml version="1.0" encoding="UTF-8"?>
<svg width="24px" height="19px" viewBox="0 0 24 19" version="1.1" xmlns="http://www.w3.org/2000/svg" xmlns:xlink="http://www.w3.org/1999/xlink">
    <!-- Generator: sketchtool 54.1 (76490) - https://sketchapp.com -->
    <title>1BE42294-294A-41DA-B549-9AC54EED6245</title>
    <desc>Created with sketchtool.</desc>
    <g id="main-pages" stroke="none" stroke-width="1" fill="none" fill-rule="evenodd">
        <g id="GPCL_main_burger" transform="translate(-754.000000, -274.000000)">
            <g id="Group" transform="translate(725.000000, 30.000000)">
                <g id="icon_aboutus" transform="translate(25.000000, 237.000000)">
                    <rect id="mask" stroke="#979797" opacity="0" x="0.5" y="0.5" width="31" height="31"></rect>
                    <g id="shape" transform="translate(4.000000, 7.000000)" fill-rule="nonzero">
                        <path d="M11.9841159,9.48577931 C13.636211,9.48577931 14.9756016,8.11682543 14.9756016,6.42805848 C14.9756016,4.73929157 13.636211,3.3701703 11.9841159,3.3701703 C10.3320207,3.3701703 8.99279384,4.73929157 8.99279384,6.42805848 C8.99459477,8.11598867 10.3326756,9.48393845 11.9841159,9.48577931 Z M11.9841159,4.33412804 C13.1154188,4.33412804 14.0325763,5.27164391 14.0325763,6.42805848 C14.0325763,7.58447308 13.1154188,8.52182157 11.9841159,8.52182157 C10.852813,8.52182157 9.93581912,7.58447308 9.93581912,6.42805848 C9.93696517,5.27214598 10.8531404,4.33529953 11.9841159,4.33412804 Z" id="Shape" fill="#222222"></path>
                        <path d="M19.8094248,8.08804058 L18.5363406,8.08804058 C16.868201,8.08804058 15.3598517,9.11709898 14.6836895,10.6525698 C14.0551696,10.2863998 13.3441351,10.093943 12.6208217,10.0946124 L11.3477375,10.0946124 C10.6278622,10.093943 9.92010203,10.2845589 9.29403803,10.6472145 C8.61853066,9.09802062 7.11787622,8.09674298 5.45857739,8.08820792 L4.18565702,8.08820792 C1.87491762,8.09071824 0.00261951466,10.004576 0,12.3664399 L0,16.4711259 C0,16.7375531 0.211198349,16.9531048 0.47151264,16.9531048 L7.16240797,16.9531048 L7.16240797,18.4776977 C7.16240797,18.7441249 7.3732789,18.9596765 7.63392061,18.9596765 L16.3344749,18.9596765 C16.5947891,18.9596765 16.8059875,18.7441249 16.8059875,18.4776977 L16.8059875,16.9531048 L23.5232417,16.9531048 C23.783556,16.9531048 23.9947543,16.7372184 23.9947543,16.4711259 L23.9947543,12.3664399 C23.9921348,10.004576 22.1200004,8.09071824 19.8094248,8.08804058 L19.8094248,8.08804058 Z M19.8094248,9.05199833 C19.8330004,9.05199833 19.8560849,9.0535045 19.8794968,9.05383923 L19.3105709,11.5487493 C19.2884688,11.6603743 19.1994053,11.7455573 19.0887308,11.7604518 C19.0823457,11.7607865 19.0741597,11.7607865 19.0697393,11.7609539 C18.9508788,11.7542597 18.8519922,11.6662317 18.8290714,11.5470758 L18.2632562,9.0640478 C18.3536295,9.05618216 18.4446576,9.05216567 18.5365044,9.05199833 L19.8094248,9.05199833 Z M12.6208217,11.0585701 C12.7071019,11.0585701 12.7923999,11.0630886 12.8768792,11.0697828 L12.1021578,13.650378 L11.3241619,11.0592395 C11.3320204,11.0592395 11.3395516,11.0585701 11.3474101,11.0585701 L12.6208217,11.0585701 Z M5.45841368,9.05199833 C5.49050274,9.05199833 5.52226433,9.05316981 5.55418968,9.05400657 L4.76751669,11.9766729 L3.98231717,9.05902721 C4.04944225,9.05484333 4.11722217,9.05199833 4.18532956,9.05199833 L5.45841368,9.05199833 Z M0.943025279,12.3664399 C0.944662455,10.980918 1.78781876,9.74233268 3.05795595,9.25901498 L4.29600405,13.8587335 L4.29600405,15.989147 L0.943025279,15.989147 L0.943025279,12.3664399 Z M5.23902933,15.989147 L5.23902933,13.8587335 L6.48591831,9.22554422 C7.42075763,9.54987582 8.16388116,10.2865671 8.50949339,11.2319486 C7.65045629,12.0402673 7.16175309,13.1792771 7.16208051,14.3728443 L7.16208051,15.989147 L5.23902933,15.989147 Z M8.10543325,14.3730116 C8.10707047,12.9230585 9.02897588,11.6419653 10.3827738,11.2085191 L11.6306451,15.3654195 L11.6306451,17.9957188 L8.10543325,17.9957188 L8.10543325,14.3730116 Z M15.8629622,17.9957188 L12.5736704,17.9957188 L12.5736704,15.3654195 L13.7984572,11.2860039 C15.0422355,11.7830446 15.861325,13.0077395 15.8629622,14.3728443 L15.8629622,17.9957188 Z M15.4656146,11.2386428 C15.796492,10.3471492 16.4785482,9.6385733 17.3454438,9.28579158 L17.9109315,11.7658071 C17.9950834,12.146537 18.2498313,12.4643418 18.5985541,12.6234953 L18.5985541,15.9894817 L16.8059875,15.9894817 L16.8059875,14.3728443 C16.8064787,13.1826242 16.3203949,12.0466268 15.4656146,11.2386428 Z M23.051729,15.9889797 L19.5415794,15.9889797 L19.5415794,12.6219891 C19.8883377,12.4619988 20.1424306,12.1462023 20.2288746,11.7674807 L20.8110617,9.21449885 C22.1460319,9.65949255 23.0499281,10.9312139 23.051729,12.3664399 L23.051729,15.9889797 Z" id="Shape" fill="#222222"></path>
                        <path d="M19.1463601,7.50648625 C20.5001581,7.50682093 21.6854884,6.57767277 22.0360122,5.24068348 C22.3863723,3.90402886 21.8143358,2.4934039 20.6417756,1.80173076 L20.6417756,1.3388302 C20.6417756,0.599293858 20.0554954,0 19.3320182,0 C18.608541,0 18.0222609,0.599293858 18.0222609,1.3388302 L18.0222609,1.61546598 C16.6961316,2.16522312 15.9366361,3.59827351 16.2107028,5.03400155 C16.4847695,6.46989694 17.7152865,7.50631886 19.1463601,7.50631886 L19.1463601,7.50648625 Z M19.1463601,6.5425285 C18.2917435,6.54152436 17.5275,5.99896344 17.2274019,5.18110553 C17.6055944,5.11567019 17.9749459,5.00471463 18.3280892,4.8509165 C18.7658756,4.65996585 19.169772,4.39554689 19.5225879,4.06837029 C19.856576,4.450941 20.3781869,4.90698003 21.0880754,5.12688291 C20.8107343,5.98021982 20.0258622,6.55240234 19.1463601,6.5425285 Z M21.1715724,4.13380559 C20.7036616,3.93532403 20.3582131,3.59124467 20.1465236,3.33000539 C20.2539237,3.16767225 20.3503546,2.99814289 20.4353251,2.82258875 C20.8320178,3.15060215 21.0946242,3.61835596 21.1715724,4.13380559 Z M18.9652862,1.3388302 C18.9652862,1.13181359 19.1293333,0.963957744 19.3320182,0.963957744 C19.5347032,0.963957744 19.6987503,1.13181359 19.6987503,1.3388302 L19.6987503,1.44359364 C19.516694,1.40844937 19.3316908,1.39070989 19.1463601,1.39054251 C19.0856201,1.39054251 19.0252076,1.39305282 18.9652862,1.39656724 L18.9652862,1.3388302 Z M19.1463601,2.35450025 C19.294199,2.35466764 19.4417104,2.37106828 19.5859474,2.40370228 C18.9446575,3.71458439 17.7668582,4.1085352 17.10936,4.22668694 C17.221508,3.162819 18.0993729,2.35600647 19.1463601,2.35450025 Z" id="Shape" fill="#222222"></path>
                        <path d="M4.82187162,7.50648625 C6.46774542,7.50648625 7.78192319,6.16715397 7.81335737,4.45763515 C7.81335737,4.45462276 7.81335737,4.45144307 7.81335737,4.44843068 C7.81335737,2.75966373 6.47413049,1.39070989 4.82187162,1.39070989 C3.16977645,1.39070989 1.83038587,2.75966373 1.83038587,4.44843068 C1.83038587,6.13736498 3.16977645,7.50648625 4.82187162,7.50648625 Z" id="Shape" stroke="#222222"></path>
                        <path d="M21.6895814,11.6745993 L20.7989464,11.6745993 C20.5386321,11.6745993 20.3274338,11.8904857 20.3274338,12.1565782 C20.3274338,12.4226707 20.5386321,12.6385571 20.7989464,12.6385571 L21.6895814,12.6385571 C21.9498957,12.6385571 22.1610941,12.4226707 22.1610941,12.1565782 C22.1610941,11.8904857 21.9498957,11.6745993 21.6895814,11.6745993 Z" id="Path" fill="#0BA6BF"></path>
                        <path d="M13.8310374,13.8167277 C13.5707231,13.8167277 13.3595248,14.032614 13.3595248,14.2987065 C13.3595248,14.5647991 13.5707231,14.7806854 13.8310374,14.7806854 L14.7216724,14.7806854 C14.9819867,14.7806854 15.1931851,14.5647991 15.1931851,14.2987065 C15.1931851,14.032614 14.9819867,13.8167277 14.7216724,13.8167277 L13.8310374,13.8167277 Z" id="Path" fill="#0BA6BF"></path>
                        <path d="M7.54420223,11.9959186 C7.54420223,11.7298261 7.33300389,11.5139397 7.07268959,11.5139397 L6.39161578,11.5139397 C6.13130149,11.5139397 5.92010314,11.7298261 5.92010314,11.9959186 C5.92010314,12.2620111 6.13130149,12.4778975 6.39161578,12.4778975 L7.07268959,12.4778975 C7.33300389,12.4778975 7.54420223,12.2620111 7.54420223,11.9959186 Z" id="Path" fill="#0BA6BF"></path>
                    </g>
                </g>
            </g>
        </g>
    </g>
</svg>