<svg xmlns="http://www.w3.org/2000/svg" width="26" height="26" viewBox="0 0 26 26">
    <g fill="none" fill-rule="nonzero">
        <g fill="#FFF">
            <path d="M17.706 16.294L14.413 13l3.293-3.294a1.003 1.003 0 0 0 0-1.412 1.003 1.003 0 0 0-1.412 0L13 11.587 9.706 8.294c-.387-.388-.975-.444-1.412 0-.444.444-.375 1.037 0 1.412L11.587 13l-3.293 3.294c-.419.418-.4 1.018 0 1.412.4.4 1.025.388 1.412 0L13 14.413l3.294 3.293a1.003 1.003 0 0 0 1.412 0 .992.992 0 0 0 0-1.412z"/>
            <path d="M13 1.75c3.006 0 5.831 1.169 7.956 3.294A11.176 11.176 0 0 1 24.25 13c0 3.006-1.169 5.831-3.294 7.956A11.176 11.176 0 0 1 13 24.25a11.176 11.176 0 0 1-7.956-3.294A11.176 11.176 0 0 1 1.75 13c0-3.006 1.169-5.831 3.294-7.956A11.176 11.176 0 0 1 13 1.75zM13 0C5.819 0 0 5.819 0 13s5.819 13 13 13 13-5.819 13-13S20.181 0 13 0z"/>
        </g>
        <path d="M-3-3h32v32H-3z"/>
    </g>
</svg>
