<?xml version="1.0" encoding="UTF-8"?>
<svg width="261px" height="261px" viewBox="0 0 261 261" version="1.1" xmlns="http://www.w3.org/2000/svg" xmlns:xlink="http://www.w3.org/1999/xlink">
    <!-- Generator: sketchtool 56 (101010) - https://sketch.com -->
    <title>6BB013FA-EF36-4059-A608-3366037F3ACC</title>
    <desc>Created with sketchtool.</desc>
    <g id="main-pages" stroke="none" stroke-width="1" fill="none" fill-rule="evenodd">
        <g id="PGT-M" transform="translate(-836.000000, -1506.000000)">
            <g id="02--how-it-works" transform="translate(0.000000, 1241.000000)">
                <g id="icon_pgtm_works2" transform="translate(845.000000, 274.000000)">
                    <circle id="Oval" stroke="#0BA6BF" stroke-width="9" cx="121.5" cy="121.5" r="126"></circle>
                    <path d="M121.5,243 C188.602597,243 243,188.602597 243,121.5 C243,80.5712439 222.357065,44.0146347 191.342773,22 C169.550781,22 72.5732422,22.0908203 51.6106884,22.100782 C20.3937104,44.0903533 0,80.4135735 0,121.5 C0,188.602597 54.3974029,243 121.5,243 Z" id="Oval-Copy" fill="#0BA6BF" opacity="0.144289438"></path>
                    <text id="95%" font-family="Roboto-Bold, Roboto" font-size="20" font-weight="bold" line-spacing="27" fill="#0BA6BF">
                        <tspan x="103.142578" y="216">95%</tspan>
                    </text>
                    <g id="icon_works02" transform="translate(36.000000, 46.000000)">
                        <rect id="mask" stroke="#979797" stroke-width="1.95238095" opacity="0" x="0.976190476" y="0.976190476" width="162.047619" height="162.047619"></rect>
                        <g id="Group-29" transform="translate(8.913043, 8.913043)" stroke="#FFFFFF" stroke-linecap="round" stroke-linejoin="round" stroke-width="5.09908999">
                            <path d="M105.072698,60.6688094 C102.368481,59.6631664 99.2308407,67.1409373 91.8201633,69.2218708 C91.3323504,69.3594672 90.6048802,69.665237 89.6598488,69.6516473 C87.8190774,69.6278652 86.2978488,62.6783966 86.5205091,62.5441976 C87.4468438,62.1772739 88.4445657,61.5606381 88.6927214,60.6280401 C88.7675081,60.3494498 88.7012199,60.1235199 88.684223,60.0283915 C88.0111431,56.1773905 90.4094151,52.9736023 92.0904151,49.7596217 C92.0904151,49.7596217 94.4852877,44.9590355 93.7680157,38.8912033 C92.7719934,30.4910268 83.2604909,22.6514283 73.3784545,21.6321956 C71.0039783,21.385881 64.4873413,21.1072907 58.5095081,25.3354079 C54.5424161,28.1450928 52.6727497,31.6189777 51.853496,33.1851987 C48.7396517,39.1392166 47.8048185,46.6645516 50.0093251,53.1757501 C51.9180844,58.8053122 56.1843231,62.359037 61.1185425,65.3895557 C62.0533756,65.9637235 58.7695617,71.9822928 58.3429378,72.8537368 C54.6902897,80.2839434 56.3423948,87.7956887 61.0318579,94.3884258 C61.2103261,94.6398365 61.4040915,94.8946447 61.6114545,95.1494529 C61.6947396,95.2513762 62.8488337,96.6596161 64.472044,97.8708043 C66.2278306,99.1856145 70.0317518,101.393952 75.1716345,101.523055 C77.488321,101.58251 81.5030046,101.686132 84.8310106,99.170326 C88.5601451,96.3487501 89.0921502,92.0017225 91.6569924,92.07137 C92.8484798,92.1036457 93.6898296,93.0719168 93.8699975,93.2791608 C95.3861269,95.0186514 94.3986031,97.3492969 94.1623453,101.713312 C93.9277872,106.041653 93.8105081,108.204126 95.1787639,109.729577 C97.6824171,112.522275 104.103871,112.080607 104.72596,110.519483 C104.899329,110.082911 104.510099,109.76525 102.781507,106.707552 C102.246103,105.757967 101.81098,104.952773 101.498236,104.368413 C101.972451,102.584756 102.54355,100.695778 103.230227,98.7252611 C104.129367,96.1449035 105.104992,93.7921746 106.087417,91.6738693 C106.087417,91.6738693 108.028471,86.9259434 106.792791,84.2113869 C106.112913,82.7334994 104.773552,81.6616063 103.177536,81.340548 C101.969052,81.0959322 100.577001,80.8020534 99.0421744,80.4470207" id="Stroke-25"></path>
                        </g>
                    </g>
                </g>
            </g>
        </g>
    </g>
</svg>