<?xml version="1.0" encoding="UTF-8"?>
<svg width="24px" height="24px" viewBox="0 0 24 24" version="1.1" xmlns="http://www.w3.org/2000/svg" xmlns:xlink="http://www.w3.org/1999/xlink">
    <!-- Generator: sketchtool 54.1 (76490) - https://sketchapp.com -->
    <title>38F2E249-5A17-4462-9B5B-829CC34D5275</title>
    <desc>Created with sketchtool.</desc>
    <g id="main-pages" stroke="none" stroke-width="1" fill="none" fill-rule="evenodd">
        <g id="GPCL_main_burger" transform="translate(-755.000000, -103.000000)">
            <g id="Group" transform="translate(725.000000, 30.000000)">
                <g id="icon_events" transform="translate(25.000000, 69.000000)">
                    <rect id="mask" stroke="#979797" opacity="0" x="0.5" y="0.5" width="31" height="31"></rect>
                    <g id="shape" transform="translate(5.004000, 4.000000)" fill-rule="nonzero">
                        <path d="M23.5812,17.6476 C23.5348,17.5008 23.4076,17.394 23.2556,17.3724 L20.1448,16.9368 L18.756,14.2248 C18.6192,13.9576 18.1808,13.9576 18.0444,14.2248 L16.6556,16.9368 L13.5448,17.3724 C13.3924,17.394 13.2656,17.5004 13.2192,17.6476 C13.1728,17.7948 13.2144,17.9548 13.3268,18.06 L15.5688,20.1668 L15.0404,23.1376 C15.014,23.2868 15.074,23.4384 15.1956,23.5288 C15.3176,23.6196 15.48,23.6336 15.6152,23.5644 L18.4008,22.1532 L21.1864,23.5644 C21.2436,23.5936 21.3056,23.6076 21.3672,23.6076 C21.4516,23.6076 21.5356,23.5812 21.606,23.5288 C21.7276,23.4384 21.7876,23.2872 21.7612,23.1376 L21.2328,20.1668 L23.4748,18.06 C23.5856,17.9548 23.6276,17.7944 23.5812,17.6476 Z M20.526,19.732 C20.4276,19.8244 20.3824,19.9604 20.406,20.0932 L20.8316,22.488 L18.5804,21.3472 C18.5232,21.3184 18.4616,21.304 18.3996,21.304 C18.3376,21.304 18.2756,21.3184 18.2188,21.3472 L15.9676,22.488 L16.3932,20.0932 C16.4172,19.9604 16.3716,19.8244 16.2732,19.732 L14.4816,18.0492 L16.9716,17.7004 C17.1004,17.6824 17.2128,17.6028 17.272,17.4868 L18.3992,15.2852 L19.5264,17.4868 C19.5856,17.6028 19.698,17.6824 19.8268,17.7004 L22.3168,18.0492 L20.526,19.732 Z" id="Shape" fill="#0BA6BF"></path>
                        <path d="M14.4,12.8 L18,12.8 L18,8.4 L14.4,8.4 L13.6,8.4 L10.8,8.4 L10,8.4 L7.2,8.4 L6.4,8.4 L2.8,8.4 L2.8,12 L2.8,12.8 L2.8,15.6 L2.8,16.4 L2.8,20 L6.4,20 L7.2,20 L10.8,20 L10.8,16.4 L14.4,16.4 L14.4,12.8 Z M14.4,9.2 L17.2,9.2 L17.2,12 L14.4,12 L14.4,9.2 Z M10.8,9.2 L13.6,9.2 L13.6,12 L10.8,12 L10.8,9.2 L10.8,9.2 Z M7.2,9.2 L10,9.2 L10,12 L7.2,12 L7.2,9.2 Z M10,15.6 L7.2,15.6 L7.2,12.8 L10,12.8 L10,15.6 Z M3.6,9.2 L6.4,9.2 L6.4,12 L3.6,12 L3.6,9.2 L3.6,9.2 Z M3.6,12.8 L6.4,12.8 L6.4,15.6 L3.6,15.6 L3.6,12.8 L3.6,12.8 Z M6.4,19.2 L3.6,19.2 L3.6,16.4 L6.4,16.4 L6.4,19.2 Z M10,19.2 L7.2,19.2 L7.2,16.4 L10,16.4 L10,19.2 Z M13.6,15.6 L10.8,15.6 L10.8,12.8 L13.6,12.8 L13.6,15.6 Z" id="Shape" fill="#222222"></path>
                        <path d="M10.4,22 L0.8,22 L0.8,6.4 L20,6.4 L20,13.2 C20,13.4212 20.1788,13.6 20.4,13.6 C20.6212,13.6 20.8,13.4212 20.8,13.2 L20.8,6 L20.8,2 C20.8,1.7788 20.6212,1.6 20.4,1.6 L18.4,1.6 L18.4,0.4 C18.4,0.1788 18.2212,9.05941988e-14 18,9.05941988e-14 L15.2,9.05941988e-14 C14.9788,9.05941988e-14 14.8,0.1788 14.8,0.4 L14.8,1.6 L6,1.6 L6,0.4 C6,0.1788 5.8212,9.05941988e-14 5.6,9.05941988e-14 L2.8,9.05941988e-14 C2.5788,9.05941988e-14 2.4,0.1788 2.4,0.4 L2.4,1.6 L0.4,1.6 C0.1788,1.6 -2.30926389e-14,1.7788 -2.30926389e-14,2 L-2.30926389e-14,6 L-2.30926389e-14,22.4 C-2.30926389e-14,22.6212 0.1788,22.8 0.4,22.8 L10.4,22.8 C10.6212,22.8 10.8,22.6212 10.8,22.4 C10.8,22.1788 10.6208,22 10.4,22 Z M15.6,0.8 L17.6,0.8 L17.6,2 L17.6,3.2 L15.6,3.2 L15.6,2 L15.6,0.8 Z M3.2,0.8 L5.2,0.8 L5.2,2 L5.2,3.2 L3.2,3.2 L3.2,2 L3.2,0.8 Z M0.8,2.4 L2.4,2.4 L2.4,3.6 C2.4,3.8212 2.5788,4 2.8,4 L5.6,4 C5.8212,4 6,3.8212 6,3.6 L6,2.4 L14.8,2.4 L14.8,3.6 C14.8,3.8212 14.9788,4 15.2,4 L18,4 C18.2212,4 18.4,3.8212 18.4,3.6 L18.4,2.4 L20,2.4 L20,5.6 L0.8,5.6 L0.8,2.4 Z" id="Shape" fill="#222222"></path>
                    </g>
                </g>
            </g>
        </g>
    </g>
</svg>