<?xml version="1.0" encoding="UTF-8"?>
<svg width="24px" height="24px" viewBox="0 0 24 24" version="1.1" xmlns="http://www.w3.org/2000/svg" xmlns:xlink="http://www.w3.org/1999/xlink">
    <!-- Generator: sketchtool 55.2 (78181) - https://sketchapp.com -->
    <title>72D35F50-3C3B-488C-B2D2-42032C3FC1EA</title>
    <desc>Created with sketchtool.</desc>
    <g id="main-pages" stroke="none" stroke-width="1" fill="none" fill-rule="evenodd">
        <g id="GPCL_main_burger" transform="translate(-754.000000, -294.000000)">
            <g id="menu" transform="translate(725.000000, 30.000000)">
                <g id="icon_aboutGP" transform="translate(25.000000, 260.000000)">
                    <rect id="mask" stroke="#979797" opacity="0" x="0.5" y="0.5" width="31" height="31"></rect>
                    <g id="shape" transform="translate(4.000000, 4.000000)" fill-rule="nonzero">
                        <path d="M11.4650602,12.6109091 C10.0481928,12.6109091 8.9060241,11.4472727 8.9060241,10.0363636 C8.9060241,8.62545455 10.0626506,7.46181818 11.4650602,7.46181818 C12.8674699,7.46181818 14.0240964,8.61090909 14.0240964,10.0363636 C14.0240964,11.4618182 12.8819277,12.6109091 11.4650602,12.6109091 L11.4650602,12.6109091 Z M15.513253,5.99272727 L11.4650602,5.99272727 C9.29638554,5.99272727 7.53253012,7.86909091 7.53253012,10.0509091 C7.53253012,12.2327273 9.33975904,14.0509091 11.5084337,14.0509091 C11.5228916,14.0509091 13.8795181,13.9927273 13.8506024,15.3163636 C13.8361446,16.1454545 11.2337349,17.8472727 11.2337349,17.8472727 L11.2337349,19.3890909 C11.2337349,19.3890909 15.0361446,17.1781818 15.3975904,15.4327273 C15.7301205,13.8618182 14.1975904,13.3527273 13.9373494,13.2218182 C14.8337349,12.4945455 15.3975904,11.2581818 15.3975904,10.0218182 C15.3975904,9.00363636 15.0072289,8.26181818 14.3855422,7.25818182 L15.513253,7.25818182 L15.513253,5.99272727 L15.513253,5.99272727 Z" id="Shape" fill="#0BA6BF"></path>
                        <path d="M4.88674699,4.20363636 C5.11807229,3.98545455 5.36385542,3.78181818 5.62409639,3.57818182 L4.81445783,2.45818182 C4.51084337,2.69090909 4.22168675,2.93818182 3.93253012,3.2 L4.88674699,4.20363636 Z" id="Path" fill="#222222"></path>
                        <path d="M6.02891566,3.28727273 C6.28915663,3.09818182 6.56385542,2.93818182 6.83855422,2.77818182 L6.18795181,1.55636364 C5.85542169,1.74545455 5.5373494,1.94909091 5.21927711,2.16727273 L6.02891566,3.28727273 Z" id="Path" fill="#222222"></path>
                        <path d="M3.65783133,5.57090909 C3.93253012,5.22181818 4.22168675,4.88727273 4.5253012,4.56727273 L3.57108434,3.56363636 C3.20963855,3.94181818 2.8626506,4.33454545 2.54457831,4.74181818 L3.65783133,5.57090909 Z" id="Path" fill="#222222"></path>
                        <path d="M1.56144578,10.7781818 C1.61927711,10.24 1.72048193,9.70181818 1.86506024,9.17818182 L0.534939759,8.77090909 C0.361445783,9.38181818 0.245783133,9.99272727 0.173493976,10.6327273 L1.56144578,10.7781818 Z" id="Path" fill="#222222"></path>
                        <path d="M2.77590361,6.90909091 C2.94939759,6.58909091 3.15180723,6.26909091 3.35421687,5.96363636 L2.24096386,5.14909091 C1.99518072,5.51272727 1.76385542,5.89090909 1.54698795,6.26909091 L2.77590361,6.90909091 Z" id="Path" fill="#222222"></path>
                        <path d="M2.00963855,8.69818182 C2.15421687,8.23272727 2.34216867,7.79636364 2.54457831,7.36 L1.31566265,6.72 C1.06987952,7.22909091 0.853012048,7.75272727 0.679518072,8.29090909 L2.00963855,8.69818182 Z" id="Path" fill="#222222"></path>
                        <path d="M7.27228916,2.53090909 C8.06746988,2.12363636 8.92048193,1.81818182 9.80240964,1.62909091 L9.54216867,0.261818182 C8.51566265,0.48 7.53253012,0.843636364 6.62168675,1.30909091 L7.27228916,2.53090909 Z" id="Path" fill="#222222"></path>
                        <path d="M20.2843373,18.5890909 C19.7204819,19.3018182 19.0554217,19.9563636 18.3180723,20.5090909 L19.113253,21.6436364 C19.9662651,21.0181818 20.7180723,20.2618182 21.3831325,19.4327273 L20.2843373,18.5890909 Z" id="Path" fill="#222222"></path>
                        <path d="M10.0481928,0.174545455 L10.3084337,1.54181818 C10.6843373,1.48363636 11.060241,1.44 11.4361446,1.41090909 L11.3927711,0.0145454545 C10.9301205,0.0436363636 10.4819277,0.101818182 10.0481928,0.174545455" id="Path" fill="#222222"></path>
                        <path d="M22.5686747,12 C22.5686747,13.0763636 22.4096386,14.1090909 22.1060241,15.0981818 L23.4216867,15.5345455 C23.7686747,14.4145455 23.9421687,13.2363636 23.9421687,12 C23.9421687,11.9854545 23.9421687,11.9709091 23.9421687,11.9563636 L22.5686747,12 L22.5686747,12" id="Path" fill="#222222"></path>
                        <path d="M23.2481928,7.91272727 L21.9614458,8.42181818 C22.3084337,9.38181818 22.5253012,10.4145455 22.5686747,11.4909091 L23.9566265,11.4618182 C23.8843373,10.2109091 23.6385542,9.01818182 23.2481928,7.91272727" id="Path" fill="#222222"></path>
                        <path d="M19.9807229,5.04727273 C20.7180723,5.90545455 21.339759,6.88 21.773494,7.94181818 L23.060241,7.43272727 C22.5542169,6.21090909 21.860241,5.07636364 20.9927711,4.10181818 L19.9807229,5.04727273 Z" id="Path" fill="#222222"></path>
                        <path d="M16.3807229,2.34181818 C17.6096386,2.90909091 18.7084337,3.69454545 19.6337349,4.66909091 L20.660241,3.72363636 C19.6048193,2.60363636 18.3325301,1.70181818 16.9301205,1.06181818 L16.3807229,2.34181818 Z" id="Path" fill="#222222"></path>
                        <path d="M15.6289157,23.4472727 L15.1807229,22.1236364 C14.4,22.3709091 13.5903614,22.5163636 12.7518072,22.5745455 L12.8096386,23.9709091 C13.7783133,23.9127273 14.7325301,23.7236364 15.6289157,23.4472727" id="Path" fill="#222222"></path>
                        <path d="M21.9614458,15.5781818 C21.6289157,16.5236364 21.1662651,17.3963636 20.5879518,18.1963636 L21.686747,19.04 C22.3518072,18.1236364 22.886747,17.1054545 23.2626506,16.0290909 L21.9614458,15.5781818 Z" id="Path" fill="#222222"></path>
                        <path d="M17.913253,20.8 C17.2192771,21.28 16.453012,21.6727273 15.6578313,21.9636364 L16.1060241,23.2872727 C17.0313253,22.9527273 17.913253,22.4872727 18.7228916,21.9345455 L17.913253,20.8 Z" id="Path" fill="#222222"></path>
                        <path d="M11.9421687,1.39636364 C11.9710843,1.39636364 12,1.39636364 12.0433735,1.39636364 C13.4168675,1.39636364 14.7325301,1.65818182 15.9325301,2.15272727 L16.4674699,0.872727273 C15.0939759,0.305454545 13.5903614,0 12.0289157,0 C11.9855422,0 11.9421687,0 11.8843373,0 L11.9421687,1.39636364 Z" id="Path" fill="#222222"></path>
                        <path d="M1.48915663,12 C1.48915663,11.7527273 1.50361446,11.52 1.51807229,11.2872727 L0.144578313,11.1563636 C0.130120482,11.4327273 0.115662651,11.7090909 0.115662651,12 C0.115662651,12.3345455 0.130120482,12.6690909 0.159036145,13.0036364 L1.53253012,12.8581818 C1.50361446,12.5818182 1.48915663,12.2909091 1.48915663,12" id="Path" fill="#222222"></path>
                        <path d="M12.2457831,22.6036364 C12.173494,22.6036364 12.1012048,22.6036364 12.0289157,22.6036364 C11.3204819,22.6036364 10.6409639,22.5309091 9.97590361,22.4 L9.67228916,23.7672727 C10.4385542,23.9272727 11.2192771,24 12.0289157,24 C12.1301205,24 12.2168675,24 12.3036145,24 L12.2457831,22.6036364 Z" id="Path" fill="#222222"></path>
                        <path d="M1.96626506,15.1709091 C1.77831325,14.5890909 1.64819277,13.9781818 1.57590361,13.3672727 L0.202409639,13.5127273 C0.289156627,14.24 0.448192771,14.9381818 0.665060241,15.6218182 L1.96626506,15.1709091 Z" id="Path" fill="#222222"></path>
                        <path d="M2.97831325,17.4254545 C2.64578313,16.8581818 2.35662651,16.2618182 2.13975904,15.6509091 L0.824096386,16.1018182 C1.08433735,16.8290909 1.41686747,17.5272727 1.80722892,18.1672727 L2.97831325,17.4254545 Z" id="Path" fill="#222222"></path>
                        <path d="M6.75180723,21.1781818 C6.08674699,20.7854545 5.46506024,20.32 4.90120482,19.7963636 L3.94698795,20.8 C4.59759036,21.4109091 5.32048193,21.9490909 6.10120482,22.4 L6.75180723,21.1781818 Z" id="Path" fill="#222222"></path>
                        <path d="M4.5253012,19.4472727 C4.04819277,18.9672727 3.61445783,18.4290909 3.23855422,17.8618182 L2.06746988,18.6036364 C2.50120482,19.2727273 3.00722892,19.8836364 3.55662651,20.4509091 L4.5253012,19.4472727 Z" id="Path" fill="#222222"></path>
                        <path d="M9.48433735,22.2981818 C8.6746988,22.0945455 7.90843373,21.8036364 7.18554217,21.4254545 L6.52048193,22.6472727 C7.35903614,23.0836364 8.24096386,23.4327273 9.18072289,23.6654545 L9.48433735,22.2981818 Z" id="Path" fill="#222222"></path>
                    </g>
                </g>
            </g>
        </g>
    </g>
</svg>