<?xml version="1.0" encoding="UTF-8"?>
<svg width="24px" height="24px" viewBox="0 0 24 24" version="1.1" xmlns="http://www.w3.org/2000/svg" xmlns:xlink="http://www.w3.org/1999/xlink">
    <!-- Generator: sketchtool 54.1 (76490) - https://sketchapp.com -->
    <title>DB70C41D-9012-4472-881E-7357E3C724BF</title>
    <desc>Created with sketchtool.</desc>
    <g id="main-pages" stroke="none" stroke-width="1" fill="none" fill-rule="evenodd">
        <g id="GPCL_main_burger" transform="translate(-754.000000, -437.000000)">
            <g id="Group" transform="translate(725.000000, 30.000000)">
                <g id="icon_careers" transform="translate(25.000000, 403.000000)">
                    <rect id="mask" stroke="#979797" opacity="0" x="0.5" y="0.5" width="31" height="31"></rect>
                    <g id="shape" transform="translate(4.000000, 4.000000)" fill="#222222" fill-rule="nonzero">
                        <path d="M21.6132656,17.0625 L20.5468594,17.0625 L20.5468594,16.2773438 C20.5468594,15.6764063 20.0579531,15.1875 19.4570156,15.1875 L17.3007656,15.1875 C16.6998281,15.1875 16.2109219,15.6764063 16.2109219,16.2773438 L16.2109219,16.6412344 C16.1382656,16.61925 16.0646719,16.5999375 15.9900937,16.583625 L13.0095,15.9319219 C12.9173437,15.9117656 12.8400469,15.8547656 12.7914375,15.7788281 C13.6782187,15.1177031 14.2536563,14.061 14.2536563,12.8723437 L14.2536563,10.2007031 C14.5584375,9.794625 14.7392812,9.2904375 14.7392812,8.74476562 L14.7392812,6.65625 C14.7392812,6.39735938 14.529375,6.1875 14.2705312,6.1875 L10.062,6.1875 C8.3773125,6.1875 7.0066875,7.558125 7.0066875,9.2428125 L7.0066875,10.7062031 C7.0066875,10.7416875 7.01095313,10.7760938 7.01840625,10.8093281 C7.01095313,10.8425625 7.0066875,10.8769687 7.0066875,10.9124531 L7.0066875,12.8723437 C7.0066875,14.0555156 7.57682813,15.1079062 8.45667188,15.7695937 C8.408625,15.8503125 8.32884375,15.91125 8.23289063,15.9322969 L5.26828125,16.5826406 C4.98276563,16.6452656 4.70967188,16.7515781 4.45804688,16.8951562 L4.45804688,13.7119219 L4.96875,13.7119219 C5.14153125,13.7119219 5.30029687,13.6169062 5.38185937,13.4646094 C5.46346875,13.3123125 5.45475,13.1274844 5.35907812,12.983625 L3.10907812,9.5998125 C3.02217187,9.469125 2.8756875,9.39060937 2.71875,9.39060937 C2.5618125,9.39060937 2.41528125,9.469125 2.32842187,9.5998125 L0.078421875,12.983625 C-0.01725,13.1274844 -0.026015625,13.3123125 0.055640625,13.4646094 C0.137203125,13.6169062 0.296015625,13.7119219 0.46875,13.7119219 L0.979453125,13.7119219 L0.979453125,17.25 C0.979453125,17.5088906 1.18935937,17.71875 1.44820313,17.71875 C1.70704687,17.71875 1.91695312,17.5088906 1.91695312,17.25 L1.91695312,13.2431719 C1.91695312,12.9842812 1.70704687,12.7744219 1.44820313,12.7744219 L1.34339062,12.7744219 L2.71875,10.7059688 L4.09415625,12.7744219 L3.98934375,12.7744219 C3.7305,12.7744219 3.52059375,12.9842812 3.52059375,13.2431719 L3.52059375,17.7515625 C3.18571875,18.2330625 3.002625,18.8106094 3.002625,19.3992187 L3.002625,23.0625 L1.91695312,23.0625 L1.91695312,21 C1.91695312,20.7411094 1.70704687,20.53125 1.44820313,20.53125 C1.18935937,20.53125 0.979453125,20.7411094 0.979453125,21 L0.979453125,23.53125 C0.979453125,23.7901406 1.18935937,24 1.44820313,24 L21.6132656,24 C22.2077812,24 22.6913906,23.5163438 22.6913906,22.921875 L22.6913906,18.140625 C22.6913906,17.5461562 22.2077812,17.0625 21.6132656,17.0625 Z M21.7538906,18.140625 L21.7538906,20.0625 L19.6836094,20.0625 L19.6836094,19.59375 C19.6836094,19.3348594 19.4737031,19.125 19.2148594,19.125 L17.3398594,19.125 C17.0810156,19.125 16.8711094,19.3348594 16.8711094,19.59375 L16.8711094,20.0625 L15.0038906,20.0625 L15.0038906,18.140625 C15.0038906,18.0630938 15.0669844,18 15.1445156,18 L16.6796719,18 L20.0781094,18 L21.6132656,18 C21.6907969,18 21.7538906,18.0630938 21.7538906,18.140625 Z M18.7461094,20.53125 C18.7461094,20.7897187 18.5358281,21 18.2773594,21 C18.0188906,21 17.8086094,20.7897187 17.8086094,20.53125 L17.8086094,20.0625 L18.7461094,20.0625 L18.7461094,20.53125 Z M13.6389375,17.0291719 L14.5656562,17.2318125 C14.2657969,17.4234844 14.0663906,17.7591094 14.0663906,18.140625 L14.0663906,22.921875 C14.0663906,22.9695469 14.0698125,23.0164219 14.0758594,23.0625 L11.3049844,23.0625 L13.6389375,17.0291719 Z M17.1484219,16.2773438 C17.1484219,16.1933438 17.2167656,16.125 17.3007656,16.125 L19.4570156,16.125 C19.5410156,16.125 19.6093594,16.1933438 19.6093594,16.2773438 L19.6093594,17.0625 L17.1484219,17.0625 L17.1484219,16.2773438 Z M7.94423438,9.2428125 C7.94423438,8.07501562 8.89429688,7.125 10.0620469,7.125 L13.8018281,7.125 L13.8018281,8.74476562 C13.8018281,9.56784375 13.1322188,10.2374531 12.3091406,10.2374531 L7.94423438,10.2374531 L7.94423438,9.2428125 L7.94423438,9.2428125 Z M7.94423438,12.8723438 L7.94423438,11.175 L12.3091406,11.175 C12.66825,11.175 13.009125,11.0960625 13.3161563,10.955625 L13.3161563,12.8723438 C13.3161563,14.3534063 12.1112344,15.5583281 10.6301719,15.5583281 C9.14910938,15.5583281 7.94423438,14.3534063 7.94423438,12.8723438 Z M10.6301719,16.4958281 C11.1051094,16.4958281 11.5585781,16.4030625 11.9745937,16.2361875 C12.1358906,16.5124687 12.3973594,16.726875 12.7137187,16.8224531 L11.0989219,20.9967656 L11.0989219,18.46425 C11.0989219,18.2053594 10.8890156,17.9955 10.6301719,17.9955 C10.3713281,17.9955 10.1614219,18.2053594 10.1614219,18.46425 L10.1614219,21.043875 L8.52857812,16.822875 C8.8471875,16.7265469 9.11029687,16.5097969 9.27126562,16.2304688 C9.69121875,16.401 10.14975,16.4958281 10.6301719,16.4958281 Z M3.940125,19.3992187 C3.940125,18.4921406 4.58320312,17.6927344 5.4691875,17.4983906 L7.60364062,17.0301563 L9.93717187,23.0625 L3.940125,23.0625 L3.940125,19.3992187 Z M21.6132656,23.0625 L17.7889688,23.0625 L15.1445156,23.0625 C15.0669844,23.0625 15.0038906,22.9994062 15.0038906,22.921875 L15.0038906,21 L16.9517344,21 C17.1452344,21.5455781 17.66625,21.9375 18.2773594,21.9375 C18.8884688,21.9375 19.4094844,21.5455781 19.6029844,21 L21.7538906,21 L21.7538906,22.921875 C21.7538906,22.9994062 21.6907969,23.0625 21.6132656,23.0625 Z" id="XMLID_139_"></path>
                        <path d="M23.9215781,3.59301562 L21.6715781,0.209203125 C21.5847187,0.078515625 21.4381875,0 21.28125,0 C21.1243125,0 20.9777812,0.078515625 20.8909219,0.209203125 L18.6409219,3.59301562 C18.54525,3.736875 18.5364844,3.92170312 18.6181406,4.074 C18.6997031,4.22629687 18.8585156,4.3213125 19.03125,4.3213125 L19.5419531,4.3213125 L19.5419531,7.203 C19.5419531,7.46189062 19.7518594,7.67175 20.0107031,7.67175 C20.2695469,7.67175 20.4794531,7.46189062 20.4794531,7.203 L20.4794531,3.8525625 C20.4794531,3.59367188 20.2695469,3.3838125 20.0107031,3.3838125 L19.9058906,3.3838125 L21.28125,1.31535938 L22.6566562,3.3838125 L22.5518437,3.3838125 C22.293,3.3838125 22.0830937,3.59367188 22.0830937,3.8525625 L22.0830937,13.265625 L20.4794531,13.265625 L20.4794531,10.953 C20.4794531,10.6941094 20.2695469,10.48425 20.0107031,10.48425 C19.7518594,10.48425 19.5419531,10.6941094 19.5419531,10.953 L19.5419531,13.734375 C19.5419531,13.9932656 19.7518594,14.203125 20.0107031,14.203125 L22.5518437,14.203125 C22.8106875,14.203125 23.0205937,13.9932656 23.0205937,13.734375 L23.0205937,4.3213125 L23.53125,4.3213125 C23.7040312,4.3213125 23.8627969,4.22629688 23.9443594,4.074 C24.0260156,3.92170312 24.01725,3.736875 23.9215781,3.59301562 Z" id="XMLID_903_"></path>
                        <path d="M4.99434375,3.46875 C5.2531875,3.46875 5.46309375,3.25889062 5.46309375,3 L5.46309375,2.32429687 C5.46309375,2.06540625 5.2531875,1.85554687 4.99434375,1.85554687 C4.7355,1.85554687 4.52559375,2.06540625 4.52559375,2.32429687 L4.52559375,3 C4.52559375,3.25889062 4.73545313,3.46875 4.99434375,3.46875 Z" id="XMLID_909_"></path>
                        <path d="M4.99434375,6.54304688 C5.2531875,6.54304688 5.46309375,6.3331875 5.46309375,6.07429688 L5.46309375,5.39864063 C5.46309375,5.13975 5.2531875,4.92989063 4.99434375,4.92989063 C4.7355,4.92989063 4.52559375,5.13975 4.52559375,5.39864063 L4.52559375,6.07429688 C4.52559375,6.3331875 4.73545313,6.54304688 4.99434375,6.54304688 Z" id="XMLID_922_"></path>
                        <path d="M6.19364062,4.66804687 L6.86934375,4.66804687 C7.1281875,4.66804687 7.33809375,4.4581875 7.33809375,4.19929687 C7.33809375,3.94040625 7.1281875,3.73054687 6.86934375,3.73054687 L6.19364062,3.73054687 C5.93479687,3.73054687 5.72489062,3.94040625 5.72489062,4.19929687 C5.72489062,4.4581875 5.93475,4.66804687 6.19364062,4.66804687 Z" id="XMLID_923_"></path>
                        <path d="M3.11934375,4.66804687 L3.795,4.66804687 C4.05384375,4.66804687 4.26375,4.4581875 4.26375,4.19929687 C4.26375,3.94040625 4.05384375,3.73054687 3.795,3.73054687 L3.11934375,3.73054687 C2.8605,3.73054687 2.65059375,3.94040625 2.65059375,4.19929687 C2.65059375,4.4581875 2.86045313,4.66804687 3.11934375,4.66804687 Z" id="XMLID_948_"></path>
                        <path d="M20.0108906,9.54703125 C20.1342187,9.54703125 20.2546406,9.496875 20.3422969,9.40921875 C20.4294844,9.32203125 20.4791719,9.2015625 20.4791719,9.0778125 C20.4791719,8.95453125 20.4294844,8.8340625 20.3422969,8.74640625 C20.2546406,8.65921875 20.1337031,8.6090625 20.0108906,8.6090625 C19.8871406,8.6090625 19.7666719,8.65921875 19.6790156,8.74640625 C19.591875,8.8340625 19.5416719,8.95453125 19.5416719,9.0778125 C19.5416719,9.2015625 19.5918281,9.32203125 19.6790156,9.40921875 C19.7666719,9.496875 19.8871875,9.54703125 20.0108906,9.54703125 Z" id="XMLID_962_"></path>
                        <path d="M1.449375,19.59375 C1.57265625,19.59375 1.69359375,19.5435937 1.78078125,19.4564063 C1.86792188,19.3692187 1.918125,19.2482812 1.918125,19.125 C1.918125,19.0017188 1.86796875,18.8807813 1.78078125,18.7935937 C1.69359375,18.7064063 1.57265625,18.65625 1.449375,18.65625 C1.325625,18.65625 1.20515625,18.7064063 1.11796875,18.7935937 C1.0303125,18.8807813 0.980625,19.0017188 0.980625,19.125 C0.980625,19.2482812 1.0303125,19.3692187 1.11796875,19.4564063 C1.20515625,19.5435937 1.325625,19.59375 1.449375,19.59375 Z" id="XMLID_963_"></path>
                    </g>
                </g>
            </g>
        </g>
    </g>
</svg>