<?xml version="1.0" encoding="UTF-8"?>
<svg width="20px" height="26px" viewBox="0 0 20 26" version="1.1" xmlns="http://www.w3.org/2000/svg" xmlns:xlink="http://www.w3.org/1999/xlink">
    <!-- Generator: sketchtool 55.2 (78181) - https://sketchapp.com -->
    <title>D5F32E22-00DC-404D-9891-784F3105C5F4</title>
    <desc>Created with sketchtool.</desc>
    <g id="main-pages" stroke="none" stroke-width="1" fill="none" fill-rule="evenodd">
        <g id="GPCL_main_burger" transform="translate(-757.000000, -376.000000)">
            <g id="menu" transform="translate(725.000000, 30.000000)">
                <g id="icon_research" transform="translate(25.000000, 344.000000)">
                    <rect id="mask" stroke="#979797" opacity="0" x="0.5" y="0.5" width="31" height="31"></rect>
                    <g id="shape" transform="translate(8.000000, 3.000000)" stroke-linecap="round" stroke-linejoin="round" stroke-width="0.5">
                        <path d="M12.305113,3.27787895 C11.9189739,3.00598421 11.4497217,2.84666842 10.9441565,2.84666842 C10.5206087,2.84666842 10.0997217,2.9613 9.73455652,3.17824737 C9.0230087,3.60124737 8.56126957,4.42261579 8.56126957,5.25203684 C8.56126957,6.35208947 9.29770435,7.28193158 10.2994435,7.5663" id="Stroke-1" stroke="#222222"></path>
                        <path d="M12.3427096,5.25202105 C12.3427096,5.42096842 12.313127,5.58517895 12.2570922,5.73596842 L12.2539617,5.74591579 L12.2505183,5.75428421 C12.2259443,5.82217895 12.1947965,5.88849474 12.1584835,5.94991579 L12.1536313,5.95970526 C11.9103965,6.37923158 11.4600835,6.66107368 10.9440313,6.66107368 C10.1734748,6.66107368 9.54738783,6.02949474 9.54738783,5.25202105 C9.54738783,5.01170526 9.60655304,4.78623158 9.71157913,4.58712632 L9.71314435,4.58712632 C9.94651826,4.14296842 10.4117009,3.84107368 10.9440313,3.84107368 C11.7164661,3.84107368 12.3427096,4.47281053 12.3427096,5.25202105 Z" id="Stroke-3" stroke="#0BA6BF"></path>
                        <path d="M13.9013687,16.9789421 C10.03716,16.9761 6.17561217,16.9761 2.31140348,16.9761" id="Stroke-5" stroke="#222222"></path>
                        <path d="M17.7706957,2.00268947 L15.3779478,7.09368947 L12.3048,5.63821579 L14.7024,0.535531579 C14.889913,0.137636842 15.3630783,-0.0330473684 15.7576696,0.155952632 L17.3944174,0.940215789 C17.7904174,1.12905789 17.9578957,1.60479474 17.7706957,2.00268947 Z" id="Stroke-7" stroke="#222222"></path>
                        <path d="M15.0564678,6.94152632 C15.233807,7.02552632 15.30972,7.23884211 15.2258243,7.41742105 L12.9852157,12.183 C12.7978591,12.5810526 12.3245374,12.7517368 11.9301026,12.5627368 L10.2933548,11.7803684 C9.89735478,11.5896316 9.72972,11.1138947 9.91707652,10.716 L12.1536157,5.95973684 L12.1584678,5.94994737 C12.1947809,5.88852632 12.2259287,5.82221053 12.2505026,5.75415789 L12.2539461,5.74594737 L12.2570765,5.736 L12.3048157,5.63826316 L15.0564678,6.94152632 Z" id="Stroke-9" stroke="#222222"></path>
                        <path d="M12.2505496,5.75423684 C12.2259757,5.82228947 12.1948278,5.88860526 12.1585148,5.94986842 L12.2505496,5.75423684 Z" id="Stroke-11" stroke="#222222"></path>
                        <path d="M8.70924522,4.43973158 C8.5118713,4.42315263 8.31152348,4.41478421 8.10929739,4.41478421 C3.92374957,4.41478421 0.533488696,7.83478421 0.533488696,12.0570474 C0.533488696,13.9320474 1.20058435,15.6477316 2.31157565,16.9757842 C3.70195826,18.6434684 5.78244522,19.6994684 8.10929739,19.6994684 C10.4331757,19.6994684 12.5119409,18.6434684 13.9006017,16.9791" id="Stroke-13" stroke="#222222"></path>
                        <path d="M5.68732696,16.0926474 L5.68732696,15.6511737 C5.68732696,15.4677 5.83461391,15.3191211 6.01649217,15.3191211 L12.6777443,15.3191211 C12.8594661,15.3191211 13.0069096,15.4677 13.0069096,15.6511737 L13.0069096,16.0926474" id="Stroke-15" stroke="#0BA6BF"></path>
                        <path d="M6.91794783,21.4766368 L6.91794783,19.6049526" id="Stroke-17" stroke="#222222"></path>
                        <path d="M9.29421391,21.4766368 L9.29421391,19.6065316" id="Stroke-19" stroke="#222222"></path>
                        <path d="M3.96972,16.8730105 C1.43892,14.3845895 1.3403113,10.0031684 3.91540696,7.50653684 C5.17274609,6.28632632 6.90481565,5.68616842 8.62217217,5.78911579" id="Stroke-21" stroke="#222222"></path>
                        <path d="M10.2292122,11.7454421 L9.86342087,13.3258105 C9.82569913,13.4890737 9.90568174,13.6569158 10.0557861,13.7290737 L10.4932643,13.9395474 C10.6403948,14.0101263 10.8161687,13.9704947 10.91916,13.8433895 L11.9515774,12.5710737" id="Stroke-23" stroke="#222222"></path>
                        <path d="M16.3311183,23.9566895 L0.078213913,23.9566895 L0.078213913,23.0494263 C0.078213913,22.1808474 0.77630087,21.4766368 1.63748348,21.4766368 L14.7718487,21.4766368 C15.6330313,21.4766368 16.3311183,22.1808474 16.3311183,23.0494263 L16.3311183,23.9566895 Z" id="Stroke-25" stroke="#222222"></path>
                        <path d="M5.00850783,22.7175947 L0.274507826,22.7175947" id="Stroke-27" stroke="#222222"></path>
                        <path d="M16.1356226,22.7175947 L13.9009617,22.7175947" id="Stroke-29" stroke="#222222"></path>
                    </g>
                </g>
            </g>
        </g>
    </g>
</svg>