<?xml version="1.0" encoding="UTF-8"?>
<svg width="65px" height="70px" viewBox="0 0 65 70" version="1.1" xmlns="http://www.w3.org/2000/svg" xmlns:xlink="http://www.w3.org/1999/xlink">
    <!-- Generator: sketchtool 57.1 (101010) - https://sketch.com -->
    <title>D5E4B4B1-8C33-4D4F-A741-AFC12BB8819D</title>
    <desc>Created with sketchtool.</desc>
    <g id="Main-pages" stroke="none" stroke-width="1" fill="none" fill-rule="evenodd">
        <g id="Order-Print-Brochure-Chosen-" transform="translate(-688.000000, -334.000000)">
            <g id="01---pgt-a-intro" transform="translate(381.000000, 242.000000)">
                <g id="pgt-a">
                    <g id="icon_pgtp-icon_order-brochure" transform="translate(298.000000, 85.000000)">
                        <g id="icon_pgtp" opacity="0" stroke="#979797" stroke-width="1.13513514">
                            <rect id="mask" x="0.567567568" y="0.567567568" width="82.8648649" height="82.8648649"></rect>
                        </g>
                        <path d="M39.975513,9.54504456 L67.4203768,24.8792053 C68.0529395,25.2326346 68.4448637,25.9005629 68.4448637,26.6251648 L68.4448637,57.1812869 C68.4448637,57.9058887 68.0529395,58.573817 67.4203768,58.9272463 L39.975513,74.261407 C39.3692754,74.6001278 38.6307246,74.6001278 38.024487,74.261407 L10.5796232,58.9272463 C9.94706049,58.573817 9.55513627,57.9058887 9.55513627,57.1812869 L9.55513627,26.6251648 C9.55513627,25.9005629 9.94706049,25.2326346 10.5796232,24.8792053 L38.024487,9.54504456 C38.6307246,9.2063238 39.3692754,9.2063238 39.975513,9.54504456 Z" id="Polygon" stroke="#2E384D" stroke-width="2" transform="translate(39.000000, 41.903226) rotate(60.000000) translate(-39.000000, -41.903226) "></path>
                        <path d="M42.2955511,32.8577147 L47.2531172,30.4108344 C47.8520202,30.115237 48.5589515,30.1380979 49.137505,30.4717722 L72.1957463,43.7703562 C72.8122265,44.1259043 73.1933357,44.7822596 73.1965208,45.4939142 L73.3112815,71.1347255 C73.314085,71.761117 73.0232537,72.3526409 72.5255023,72.7329272 L68.1506689,76.075337 L68.1506689,76.075337" id="Polygon-Copy" stroke="#2E384D" stroke-width="2" transform="translate(57.805642, 53.006550) rotate(60.000000) translate(-57.805642, -53.006550) "></path>
                        <g id="g-shape-copy" transform="translate(19.000000, 22.000000)" fill="#0BA6BF" fill-rule="nonzero">
                            <path d="M18.678457,20.4291011 C16.3701484,20.4291011 14.5093689,18.5440629 14.5093689,16.2584542 C14.5093689,13.9728454 16.3937025,12.0878072 18.678457,12.0878072 C20.9632116,12.0878072 22.8475452,13.9492824 22.8475452,16.2584542 C22.8475452,18.5676259 20.9867657,20.4291011 18.678457,20.4291011 L18.678457,20.4291011 Z M25.2736247,9.70794655 L18.678457,9.70794655 C15.1453315,9.70794655 12.2717227,12.7475706 12.2717227,16.2820171 C12.2717227,19.8164637 15.215994,22.7618358 18.7491196,22.7618358 C18.7726737,22.7618358 22.6120035,22.6675839 22.5648951,24.8118148 C22.541341,26.1549045 18.3015903,28.9117728 18.3015903,28.9117728 L18.3015903,31.4094484 C18.3015903,31.4094484 24.4963371,27.8278759 25.0851914,25.0003187 C25.6269373,22.4555171 23.1301952,21.6308129 22.7062202,21.4187461 C24.1665787,20.2405973 25.0851914,18.2377442 25.0851914,16.2348912 C25.0851914,14.5854828 24.4492288,13.383771 23.4363994,11.7579256 L25.2736247,11.7579256 L25.2736247,9.70794655 L25.2736247,9.70794655 Z" id="Shape"></path>
                            <path d="M7.96130956,6.80970037 C8.33817628,6.45625571 8.73859718,6.12637403 9.16257224,5.79649236 L7.84353871,3.98214312 C7.34890113,4.35915076 6.87781773,4.75972137 6.40673432,5.18385495 L7.96130956,6.80970037 Z" id="Path"></path>
                            <path d="M9.82208901,5.32523281 C10.2460641,5.01891411 10.6935933,4.75972137 11.1411225,4.50052862 L10.0811849,2.52123855 C9.53943897,2.82755725 9.02124722,3.15743893 8.50305548,3.51088358 L9.82208901,5.32523281 Z" id="Path"></path>
                            <path d="M5.95920508,9.02462021 C6.40673432,8.45910876 6.87781773,7.91716029 7.3724553,7.3987748 L5.81788006,5.77292938 C5.22902581,6.38556678 4.66372572,7.02176716 4.14553397,7.68153052 L5.95920508,9.02462021 Z" id="Path"></path>
                            <path d="M2.54385039,17.460166 C2.63806707,16.5883358 2.80294627,15.7165057 3.03848797,14.8682385 L0.871504301,14.2084752 C0.588854257,15.1981202 0.400420895,16.1877652 0.282650044,17.2245362 L2.54385039,17.460166 Z" id="Path"></path>
                            <path d="M4.5224007,11.1924141 C4.80505074,10.6740286 5.13480912,10.1556431 5.46456751,9.66082059 L3.6508964,8.34129388 C3.2504755,8.9303683 2.87360878,9.54300571 2.52029622,10.1556431 L4.5224007,11.1924141 Z" id="Path"></path>
                            <path d="M3.27402967,14.0906603 C3.50957137,13.336645 3.81577559,12.6297557 4.14553397,11.9228664 L2.1434295,10.8860954 C1.7430086,11.7107996 1.38969605,12.5590668 1.107046,13.4308969 L3.27402967,14.0906603 Z" id="Path"></path>
                            <path d="M11.8477477,4.09995801 C13.143227,3.44019465 14.5329231,2.94537213 15.9697275,2.63905343 L15.5457524,0.424133587 C13.8734063,0.777578243 12.2717227,1.36665267 10.78781,2.12066794 L11.8477477,4.09995801 Z" id="Path"></path>
                            <path d="M33.0465009,30.1134847 C32.1278883,31.2680706 31.0443964,32.3284045 29.8431338,33.2237977 L31.1386131,35.0617099 C32.5283092,34.0485018 33.753126,32.823227 34.8366179,31.4801373 L33.0465009,30.1134847 Z" id="Path"></path>
                            <path d="M16.3701484,0.282755725 L16.7941234,2.49767557 C17.4065318,2.40342366 18.0189403,2.33273473 18.6313487,2.28560877 L18.5606862,0.0235629771 C17.8069527,0.0706889312 17.0767735,0.164940839 16.3701484,0.282755725" id="Path"></path>
                            <path d="M36.7680598,19.4394561 C36.7680598,21.1831164 36.508964,22.8560877 36.0143264,24.4583702 L38.1577559,25.1652595 C38.723056,23.3509103 39.005706,21.4423091 39.005706,19.4394561 C39.005706,19.4158931 39.005706,19.3923301 39.005706,19.3687671 L36.7680598,19.4394561 L36.7680598,19.4394561" id="Path"></path>
                            <path d="M37.8751058,12.8182595 L35.7787847,13.6429637 C36.3440848,15.1981202 36.6973973,16.8710916 36.7680598,18.6147519 L39.0292602,18.5676259 C38.9114893,16.5412099 38.5110684,14.6090458 37.8751058,12.8182595" id="Path"></path>
                            <path d="M32.5518633,8.17635304 C33.753126,9.56656869 34.7659554,11.1452881 35.4725805,12.8653855 L37.5689016,12.0406813 C36.7445057,10.0613912 35.6139055,8.22347899 34.2006553,6.64475953 L32.5518633,8.17635304 Z" id="Path"></path>
                            <path d="M26.6868749,3.79363931 C28.6889794,4.71259541 30.4790964,5.98499617 31.9865633,7.56371564 L33.6589094,6.03212213 C31.9394549,4.21777289 29.8666879,2.75686832 27.5819334,1.72009733 L26.6868749,3.79363931 Z" id="Path"></path>
                            <path d="M25.4620581,37.983519 L24.7318788,35.8392881 C23.4599536,36.2398587 22.1409201,36.4754885 20.7747782,36.5697404 L20.8689949,38.8317862 C22.4471243,38.7375343 24.0016995,38.4312156 25.4620581,37.983519" id="Path"></path>
                            <path d="M35.7787847,25.2359484 C35.2370388,26.7675419 34.4833053,28.1813206 33.5411385,29.4772843 L35.3312554,30.843937 C36.4147473,29.3594694 37.2862516,27.710061 37.89866,25.9664007 L35.7787847,25.2359484 Z" id="Path"></path>
                            <path d="M29.183617,33.6950572 C28.0530168,34.4726354 26.8046458,35.1088358 25.5091664,35.5800954 L26.2393457,37.7243263 C27.7468126,37.1823778 29.183617,36.4283625 30.5026505,35.5329694 L29.183617,33.6950572 Z" id="Path"></path>
                            <path d="M19.4557447,2.2620458 C19.502853,2.2620458 19.5499613,2.2620458 19.6206239,2.2620458 C21.85827,2.2620458 24.0016995,2.68617938 25.9566957,3.4873206 L26.8282,1.41377862 C24.5905538,0.494822518 22.1409201,0 19.5970697,0 C19.5264072,0 19.4557447,0 19.361528,0 L19.4557447,2.2620458 Z" id="Path"></path>
                            <path d="M2.42607954,19.4394561 C2.42607954,19.0388855 2.44963371,18.6618778 2.47318788,18.2848702 L0.235541703,18.0728034 C0.211987533,18.5205 0.188433362,18.9681965 0.188433362,19.4394561 C0.188433362,19.9814045 0.211987533,20.523353 0.259095873,21.0653015 L2.49674205,20.8296717 C2.44963371,20.3819752 2.42607954,19.9107156 2.42607954,19.4394561" id="Path"></path>
                            <path d="M19.9503822,36.6168663 C19.8326114,36.6168663 19.7148405,36.6168663 19.5970697,36.6168663 C18.4429153,36.6168663 17.3358693,36.4990515 16.2523775,36.2869847 L15.7577399,38.5019045 C17.006111,38.7610973 18.2780361,38.8789121 19.5970697,38.8789121 C19.7619489,38.8789121 19.9032739,38.8789121 20.0445989,38.8789121 L19.9503822,36.6168663 Z" id="Path"></path>
                            <path d="M3.20336716,24.5761851 C2.89716295,23.633666 2.68517541,22.644021 2.56740456,21.6543759 L0.329758384,21.8900057 C0.471083406,23.0681545 0.730179279,24.1991774 1.08349183,25.3066374 L3.20336716,24.5761851 Z" id="Path"></path>
                            <path d="M4.85215908,28.2284465 C4.31041316,27.3094904 3.83932976,26.3434083 3.4860172,25.3537633 L1.34258771,26.0842156 C1.76656277,27.2623645 2.30830869,28.3933874 2.94427129,29.4301583 L4.85215908,28.2284465 Z" id="Path"></path>
                            <path d="M10.9997975,34.3076946 C9.91630569,33.6714942 8.90347637,32.9174789 7.98486373,32.0692118 L6.43028849,33.6950572 C7.49022615,34.6847022 8.66793467,35.5565324 9.93985986,36.2869847 L10.9997975,34.3076946 Z" id="Path"></path>
                            <path d="M7.3724553,31.5037003 C6.59516768,30.7261221 5.88854257,29.8542919 5.27613415,28.9353358 L3.36824635,30.1370477 C4.07487146,31.2209446 4.89926742,32.2105896 5.79432589,33.1295457 L7.3724553,31.5037003 Z" id="Path"></path>
                            <path d="M15.4515357,36.1220438 C14.1325022,35.7921621 12.8841312,35.3209026 11.7064226,34.7082652 L10.6229308,36.6875553 C11.9890727,37.3944446 13.4258771,37.959956 14.9568981,38.3369637 L15.4515357,36.1220438 Z" id="Path"></path>
                        </g>
                    </g>
                </g>
            </g>
        </g>
    </g>
</svg>