<?xml version="1.0" encoding="UTF-8"?>
<svg width="946px" height="442px" viewBox="0 0 946 442" version="1.1" xmlns="http://www.w3.org/2000/svg" xmlns:xlink="http://www.w3.org/1999/xlink">
    <!-- Generator: Sketch 55.2 (78181) - https://sketchapp.com -->
    <title>Artboard</title>
    <desc>Created with Sketch.</desc>
    <g id="Artboard" stroke="none" stroke-width="1" fill="none" fill-rule="evenodd">
        <g id="img_pgmt_technology">
            <g id="Group-3" transform="translate(387.000000, 62.000000)">
                <polygon id="Fill-1" fill="#0BA6BF" points="5 41.0898438 24 41.0898438 24 22.0898438 5 22.0898438"></polygon>
                <path d="M0,0.691842348 L0,75.5654178 C0,82.4320343 6.25577167,88 13.9961647,88 C21.726795,88 28,82.4320343 28,75.5654178 L28,0.691842348 C28,-0.301202104 0,-0.157221245 0,0.691842348 Z" id="Stroke-13" stroke="#0BA6BF" stroke-width="2" stroke-linecap="round" stroke-linejoin="round"></path>
                <path d="M4,6.60536205 L4,72.1197406 C4,78.12803 8.46840834,83 13.9972605,83 C19.5191393,83 24,78.12803 24,72.1197406 L24,6.60536205 C24,5.73644816 4,5.86243141 4,6.60536205 Z" id="Stroke-13-Copy-4" stroke="#0BA6BF" stroke-width="2" stroke-linecap="round" stroke-linejoin="round"></path>
            </g>
            <g id="Group-3-Copy-2" transform="translate(386.000000, 269.000000)">
                <polygon id="Fill-1" fill="#0BA6BF" points="5 41.0898438 24 41.0898438 24 22.0898438 5 22.0898438"></polygon>
                <path d="M23,21.0898438 L5,21.0898438" id="Line-8-Copy-2" stroke="#222222" stroke-width="2" stroke-linecap="square"></path>
                <path d="M0,0.691842348 L0,75.5654178 C0,82.4320343 6.25577167,88 13.9961647,88 C21.726795,88 28,82.4320343 28,75.5654178 L28,0.691842348 C28,-0.301202104 0,-0.157221245 0,0.691842348 Z" id="Stroke-13" stroke="#0BA6BF" stroke-width="2" stroke-linecap="round" stroke-linejoin="round"></path>
                <path d="M4,6.60536205 L4,72.1197406 C4,78.12803 8.46840834,83 13.9972605,83 C19.5191393,83 24,78.12803 24,72.1197406 L24,6.60536205 C24,5.73644816 4,5.86243141 4,6.60536205 Z" id="Stroke-13-Copy-4" stroke="#0BA6BF" stroke-width="2" stroke-linecap="round" stroke-linejoin="round"></path>
            </g>
            <g id="Group-3-Copy-4" transform="translate(664.000000, 269.000000)">
                <polygon id="Fill-1" fill="#0BA6BF" points="5 41.0898438 24 41.0898438 24 22.0898438 5 22.0898438"></polygon>
                <path d="M23,21.0898438 L5,21.0898438" id="Line-8-Copy-2" stroke="#222222" stroke-width="2" stroke-linecap="square"></path>
                <path d="M0,0.691842348 L0,75.5654178 C0,82.4320343 6.25577167,88 13.9961647,88 C21.726795,88 28,82.4320343 28,75.5654178 L28,0.691842348 C28,-0.301202104 0,-0.157221245 0,0.691842348 Z" id="Stroke-13" stroke="#0BA6BF" stroke-width="2" stroke-linecap="round" stroke-linejoin="round"></path>
                <path d="M4,6.60536205 L4,72.1197406 C4,78.12803 8.46840834,83 13.9972605,83 C19.5191393,83 24,78.12803 24,72.1197406 L24,6.60536205 C24,5.73644816 4,5.86243141 4,6.60536205 Z" id="Stroke-13-Copy-4" stroke="#0BA6BF" stroke-width="2" stroke-linecap="round" stroke-linejoin="round"></path>
            </g>
            <g id="Group-3-Copy-6" transform="translate(853.000000, 269.000000)">
                <polygon id="Fill-1" fill="#0BA6BF" points="5 41.0898438 24 41.0898438 24 22.0898438 5 22.0898438"></polygon>
                <path d="M23,21.0898438 L5,21.0898438" id="Line-8-Copy-2" stroke="#222222" stroke-width="2" stroke-linecap="square"></path>
                <path d="M0,0.691842348 L0,75.5654178 C0,82.4320343 6.25577167,88 13.9961647,88 C21.726795,88 28,82.4320343 28,75.5654178 L28,0.691842348 C28,-0.301202104 0,-0.157221245 0,0.691842348 Z" id="Stroke-13" stroke="#0BA6BF" stroke-width="2" stroke-linecap="round" stroke-linejoin="round"></path>
                <path d="M4,6.60536205 L4,72.1197406 C4,78.12803 8.46840834,83 13.9972605,83 C19.5191393,83 24,78.12803 24,72.1197406 L24,6.60536205 C24,5.73644816 4,5.86243141 4,6.60536205 Z" id="Stroke-13-Copy-4" stroke="#0BA6BF" stroke-width="2" stroke-linecap="round" stroke-linejoin="round"></path>
            </g>
            <g id="Group-3-Copy-7" transform="translate(899.000000, 269.000000)">
                <polygon id="Fill-1" fill="#0BA6BF" points="5 41.0898438 24 41.0898438 24 22.0898438 5 22.0898438"></polygon>
                <path d="M23,21.0898438 L5,21.0898438" id="Line-8-Copy-2" stroke="#222222" stroke-width="2" stroke-linecap="square"></path>
                <path d="M0,0.691842348 L0,75.5654178 C0,82.4320343 6.25577167,88 13.9961647,88 C21.726795,88 28,82.4320343 28,75.5654178 L28,0.691842348 C28,-0.301202104 0,-0.157221245 0,0.691842348 Z" id="Stroke-13" stroke="#0BA6BF" stroke-width="2" stroke-linecap="round" stroke-linejoin="round"></path>
                <path d="M4,6.60536205 L4,72.1197406 C4,78.12803 8.46840834,83 13.9972605,83 C19.5191393,83 24,78.12803 24,72.1197406 L24,6.60536205 C24,5.73644816 4,5.86243141 4,6.60536205 Z" id="Stroke-13-Copy-4" stroke="#0BA6BF" stroke-width="2" stroke-linecap="round" stroke-linejoin="round"></path>
            </g>
            <g id="Group-3-Copy-3" transform="translate(432.000000, 269.000000)" stroke-width="2">
                <path d="M23,21.0898438 L5,21.0898438" id="Line-8-Copy-2" stroke="#222222" stroke-linecap="square"></path>
                <path d="M0,0.691842348 L0,75.5654178 C0,82.4320343 6.25577167,88 13.9961647,88 C21.726795,88 28,82.4320343 28,75.5654178 L28,0.691842348 C28,-0.301202104 0,-0.157221245 0,0.691842348 Z" id="Stroke-13" stroke="#0BA6BF" stroke-linecap="round" stroke-linejoin="round"></path>
                <path d="M4,6.60536205 L4,72.1197406 C4,78.12803 8.46840834,83 13.9972605,83 C19.5191393,83 24,78.12803 24,72.1197406 L24,6.60536205 C24,5.73644816 4,5.86243141 4,6.60536205 Z" id="Stroke-13-Copy-4" stroke="#0BA6BF" stroke-linecap="round" stroke-linejoin="round"></path>
            </g>
            <g id="Group-3-Copy-8" transform="translate(153.000000, 269.000000)" stroke-width="2">
                <path d="M23,21.0898438 L5,21.0898438" id="Line-8-Copy-2" stroke="#222222" stroke-linecap="square"></path>
                <path d="M0,0.691842348 L0,75.5654178 C0,82.4320343 6.25577167,88 13.9961647,88 C21.726795,88 28,82.4320343 28,75.5654178 L28,0.691842348 C28,-0.301202104 0,-0.157221245 0,0.691842348 Z" id="Stroke-13" stroke="#0BA6BF" stroke-linecap="round" stroke-linejoin="round"></path>
                <path d="M4,6.60536205 L4,72.1197406 C4,78.12803 8.46840834,83 13.9972605,83 C19.5191393,83 24,78.12803 24,72.1197406 L24,6.60536205 C24,5.73644816 4,5.86243141 4,6.60536205 Z" id="Stroke-13-Copy-4" stroke="#0BA6BF" stroke-linecap="round" stroke-linejoin="round"></path>
            </g>
            <g id="Group-3-Copy-9" transform="translate(199.000000, 269.000000)" stroke-width="2">
                <path d="M23,21.0898438 L5,21.0898438" id="Line-8-Copy-2" stroke="#222222" stroke-linecap="square"></path>
                <path d="M0,0.691842348 L0,75.5654178 C0,82.4320343 6.25577167,88 13.9961647,88 C21.726795,88 28,82.4320343 28,75.5654178 L28,0.691842348 C28,-0.301202104 0,-0.157221245 0,0.691842348 Z" id="Stroke-13" stroke="#0BA6BF" stroke-linecap="round" stroke-linejoin="round"></path>
                <path d="M4,6.60536205 L4,72.1197406 C4,78.12803 8.46840834,83 13.9972605,83 C19.5191393,83 24,78.12803 24,72.1197406 L24,6.60536205 C24,5.73644816 4,5.86243141 4,6.60536205 Z" id="Stroke-13-Copy-4" stroke="#0BA6BF" stroke-linecap="round" stroke-linejoin="round"></path>
            </g>
            <g id="Group-3-Copy-5" transform="translate(618.000000, 269.000000)" stroke-width="2">
                <path d="M23,21.0898438 L5,21.0898438" id="Line-8-Copy-2" stroke="#222222" stroke-linecap="square"></path>
                <path d="M0,0.691842348 L0,75.5654178 C0,82.4320343 6.25577167,88 13.9961647,88 C21.726795,88 28,82.4320343 28,75.5654178 L28,0.691842348 C28,-0.301202104 0,-0.157221245 0,0.691842348 Z" id="Stroke-13" stroke="#0BA6BF" stroke-linecap="round" stroke-linejoin="round"></path>
                <path d="M4,6.60536205 L4,72.1197406 C4,78.12803 8.46840834,83 13.9972605,83 C19.5191393,83 24,78.12803 24,72.1197406 L24,6.60536205 C24,5.73644816 4,5.86243141 4,6.60536205 Z" id="Stroke-13-Copy-4" stroke="#0BA6BF" stroke-linecap="round" stroke-linejoin="round"></path>
            </g>
            <g id="Group-3-Copy" transform="translate(662.000000, 62.000000)">
                <polygon id="Fill-1" fill="#0BA6BF" points="5 41.0898438 24 41.0898438 24 22.0898438 5 22.0898438"></polygon>
                <path d="M0,0.691842348 L0,75.5654178 C0,82.4320343 6.25577167,88 13.9961647,88 C21.726795,88 28,82.4320343 28,75.5654178 L28,0.691842348 C28,-0.301202104 0,-0.157221245 0,0.691842348 Z" id="Stroke-13" stroke="#0BA6BF" stroke-width="2" stroke-linecap="round" stroke-linejoin="round"></path>
                <path d="M4,6.60536205 L4,72.1197406 C4,78.12803 8.46840834,83 13.9972605,83 C19.5191393,83 24,78.12803 24,72.1197406 L24,6.60536205 C24,5.73644816 4,5.86243141 4,6.60536205 Z" id="Stroke-13-Copy-4" stroke="#0BA6BF" stroke-width="2" stroke-linecap="round" stroke-linejoin="round"></path>
            </g>
            <g id="Group" transform="translate(433.000000, 62.000000)" stroke="#0BA6BF" stroke-linecap="round" stroke-linejoin="round" stroke-width="2">
                <path d="M0,0.691842348 L0,75.5654178 C0,82.4320343 6.25577167,88 13.9961647,88 C21.726795,88 28,82.4320343 28,75.5654178 L28,0.691842348 C28,-0.301202104 0,-0.157221245 0,0.691842348 Z" id="Stroke-13-Copy"></path>
                <path d="M4,6.60536205 L4,72.1197406 C4,78.12803 8.46840834,83 13.9972605,83 C19.5191393,83 24,78.12803 24,72.1197406 L24,6.60536205 C24,5.73644816 4,5.86243141 4,6.60536205 Z" id="Stroke-13-Copy-14"></path>
            </g>
            <g id="Group-Copy" transform="translate(616.000000, 62.000000)" stroke="#0BA6BF" stroke-linecap="round" stroke-linejoin="round" stroke-width="2">
                <path d="M0,0.691842348 L0,75.5654178 C0,82.4320343 6.25577167,88 13.9961647,88 C21.726795,88 28,82.4320343 28,75.5654178 L28,0.691842348 C28,-0.301202104 0,-0.157221245 0,0.691842348 Z" id="Stroke-13-Copy"></path>
                <path d="M4,6.60536205 L4,72.1197406 C4,78.12803 8.46840834,83 13.9972605,83 C19.5191393,83 24,78.12803 24,72.1197406 L24,6.60536205 C24,5.73644816 4,5.86243141 4,6.60536205 Z" id="Stroke-13-Copy-14"></path>
            </g>
            <path d="M507.5,103.493701 L570.7545,103.493701" id="Line-6" stroke="#0BA6BF" stroke-width="2" stroke-linecap="square"></path>
            <path d="M189,198.089844 L889,197.089844" id="Line-6-Copy" stroke="#0BA6BF" stroke-width="2" stroke-linecap="square"></path>
            <path d="M890.202013,198.089844 L890.797987,228.089844" id="Line-7" stroke="#0BA6BF" stroke-width="2" stroke-linecap="square"></path>
            <path d="M189.202013,198.089844 L189.797987,228.089844" id="Line-7-Copy" stroke="#0BA6BF" stroke-width="2" stroke-linecap="square"></path>
            <path d="M423.202013,198.089844 L423.202013,228.089844" id="Line-7-Copy-2" stroke="#0BA6BF" stroke-width="2" stroke-linecap="square"></path>
            <path d="M539.5,103.493701 L539.5,197" id="Line-7-Copy-4" stroke="#0BA6BF" stroke-width="2" stroke-linecap="square"></path>
            <path d="M656.202013,198.089844 L656.202013,228.089844" id="Line-7-Copy-3" stroke="#0BA6BF" stroke-width="2" stroke-linecap="square"></path>
            <text id="Chromosome-region-an" font-family="Roboto-Regular, Roboto" font-size="16" font-weight="normal" line-spacing="27" fill="#222222">
                <tspan x="29.3671875" y="288">Chromosome</tspan>
                <tspan x="12.671875" y="315">region analyzed</tspan>
                <tspan x="58.1171875" y="342">by PGT-M</tspan>
            </text>
            <text id="Carrier-Father" font-family="Roboto-Regular, Roboto" font-size="16" font-weight="normal" line-spacing="27" fill="#222222">
                <tspan x="378" y="37">Carrier Father</tspan>
            </text>
            <text id="Embryo-2-Carrier" font-family="Roboto-Regular, Roboto" font-size="16" font-weight="normal" line-spacing="27" fill="#222222">
                <tspan x="388.46875" y="389">Embryo 2</tspan>
                <tspan x="398.5625" y="416">Carrier</tspan>
            </text>
            <text id="Embryo-1-Unaffected" font-family="Roboto-Regular, Roboto" font-size="16" font-weight="normal" line-spacing="27" fill="#222222">
                <tspan x="155.96875" y="389">Embryo 1</tspan>
                <tspan x="150.191406" y="416">Unaffected</tspan>
            </text>
            <text id="Carrier-Mother" font-family="Roboto-Regular, Roboto" font-size="16" font-weight="normal" line-spacing="27" fill="#222222">
                <tspan x="609" y="37.3105469">Carrier Mother</tspan>
            </text>
            <text id="Embryo-3-Carrier" font-family="Roboto-Regular, Roboto" font-size="16" font-weight="normal" line-spacing="27" fill="#222222">
                <tspan x="620.96875" y="389.310547">Embryo 3</tspan>
                <tspan x="631.0625" y="416.310547">Carrier</tspan>
            </text>
            <text id="Embryo-3-Affected" font-family="Roboto-Regular, Roboto" font-size="16" font-weight="normal" line-spacing="27" fill="#222222">
                <tspan x="856.46875" y="389.310547">Embryo 3</tspan>
                <tspan x="859.871094" y="416.310547">Affected</tspan>
            </text>
        </g>
    </g>
</svg>