<?xml version="1.0" encoding="UTF-8"?>
<svg width="216px" height="56px" viewBox="0 0 216 56" version="1.1" xmlns="http://www.w3.org/2000/svg" xmlns:xlink="http://www.w3.org/1999/xlink">
    <!-- Generator: sketchtool 54.1 (76490) - https://sketchapp.com -->
    <title>1CE11B75-0780-4B17-90C3-257221764244</title>
    <desc>Created with sketchtool.</desc>
    <defs>
        <filter x="-1.0%" y="-12.0%" width="102.0%" height="124.0%" filterUnits="objectBoundingBox" id="filter-1">
            <feOffset dx="0" dy="2" in="SourceAlpha" result="shadowOffsetOuter1"></feOffset>
            <feGaussianBlur stdDeviation="2" in="shadowOffsetOuter1" result="shadowBlurOuter1"></feGaussianBlur>
            <feColorMatrix values="0 0 0 0 0   0 0 0 0 0   0 0 0 0 0  0 0 0 0.103501967 0" type="matrix" in="shadowBlurOuter1" result="shadowMatrixOuter1"></feColorMatrix>
            <feMerge>
                <feMergeNode in="shadowMatrixOuter1"></feMergeNode>
                <feMergeNode in="SourceGraphic"></feMergeNode>
            </feMerge>
        </filter>
        <polygon id="path-2" points="-2.13162821e-13 47.3883529 207.706877 47.3883529 207.706877 -2.45137244e-13 -2.13162821e-13 -2.45137244e-13"></polygon>
    </defs>
    <g id="UI-Design" stroke="none" stroke-width="1" fill="none" fill-rule="evenodd">
        <g id="News-List" transform="translate(-12.000000, -24.000000)">
            <g id="top" filter="url(#filter-1)">
                <g id="GPCL" transform="translate(16.000000, 26.000000)">
                    <path d="M30.8947671,12.1946471 L22.7788493,12.1946471 C18.4400548,12.1946471 14.9090411,15.9022941 14.9090411,20.2018235 C14.9090411,24.5027647 18.5287397,28.1052353 22.8693151,28.1052353 C22.8910411,28.1052353 27.6148493,27.9806471 27.5696164,30.5934706 C27.5425479,32.2159412 22.3201096,35.6038235 22.3201096,35.6038235 L22.3201096,38.6338235 C22.3201096,38.6338235 29.9299178,34.2651176 30.6596986,30.8324118 C31.3175342,27.7332353 28.2438356,26.7301765 27.7341644,26.4813529 C29.5231781,25.0494706 30.6596986,22.6092353 30.6596986,20.1601765 C30.6596986,18.1579412 29.8811233,16.6928824 28.6249315,14.6938235 L30.8947671,14.6938235 L30.8947671,12.1946471 Z M22.7788493,25.2548824 C19.9455616,25.2548824 17.6393973,22.9706471 17.6393973,20.1619412 C17.6393973,17.3535882 19.9455616,15.069 22.7788493,15.069 C25.6124932,15.069 27.9186575,17.3535882 27.9186575,20.1619412 C27.9186575,22.9706471 25.6124932,25.2548824 22.7788493,25.2548824 L22.7788493,25.2548824 Z" id="Fill-1" fill="#0BA6BF"></path>
                    <path d="M9.59132877,8.65888235 C10.0611096,8.22829412 10.5526164,7.82205882 11.0605068,7.43452941 L9.425,5.21382353 C8.81417808,5.67547059 8.22686301,6.16676471 7.66305479,6.68382353 L9.59132877,8.65888235 Z" id="Fill-3" fill="#0BA6BF"></path>
                    <path d="M11.8747342,6.84437647 C12.3968712,6.48472941 12.9371726,6.14731765 13.4938575,5.83461176 L12.1838849,3.41131765 C11.5150082,3.78543529 10.8664329,4.18990588 10.2410082,4.62367059 L11.8747342,6.84437647 Z" id="Fill-5" fill="#0BA6BF"></path>
                    <path d="M7.12948493,11.3336824 C7.66800548,10.6387412 8.24641644,9.97627059 8.86614247,9.35368235 L6.93786849,7.37685882 C6.20238904,8.11203529 5.51926575,8.8938 4.88493699,9.71685882 L7.12948493,11.3336824 Z" id="Fill-7" fill="#0BA6BF"></path>
                    <path d="M2.91791233,21.6398118 C3.04256986,20.5644 3.25056986,19.5126353 3.53407671,18.4926353 L0.877446575,17.7002824 C0.541583562,18.8953412 0.297610959,20.1264 0.154789041,21.3892235 L2.91791233,21.6398118 Z" id="Fill-9" fill="#0BA6BF"></path>
                    <path d="M5.36793151,14.0046706 C5.72409589,13.3612588 6.11623288,12.7404353 6.53543836,12.1422 L4.29267123,10.5253765 C3.79012329,11.2376118 3.32212329,11.9759647 2.90113699,12.7443176 L5.36793151,14.0046706 Z" id="Fill-11" fill="#0BA6BF"></path>
                    <path d="M3.82520548,17.5358118 C4.12687671,16.6262824 4.48482192,15.7425176 4.9040274,14.8933412 L2.4390137,13.6326353 C1.94394521,14.6321647 1.51939726,15.6719294 1.16679452,16.7438118 L3.82520548,17.5358118 Z" id="Fill-13" fill="#0BA6BF"></path>
                    <path d="M14.3816329,5.36107059 C15.970126,4.56236471 17.6722356,3.95530588 19.4576877,3.57448235 L18.9373315,0.871658824 C16.8719342,1.30754118 14.9037699,2.01130588 13.0713041,2.93848235 L14.3816329,5.36107059 Z" id="Fill-15" fill="#0BA6BF"></path>
                    <path d="M40.4531151,37.0621765 C39.3126767,38.4820588 37.9955808,39.7568824 36.5264027,40.8425294 L38.1273616,43.0858235 C39.8280466,41.8353529 41.3531425,40.3635882 42.6648959,38.7188824 L40.4531151,37.0621765 Z" id="Fill-17" fill="#0BA6BF"></path>
                    <path d="M19.9298192,0.688058824 L20.4501753,3.38770588 C21.1927781,3.26664706 21.9467781,3.18194118 22.7146685,3.13888235 L22.6224219,0.388764706 C21.7099288,0.437470588 20.813463,0.540882353 19.9298192,0.688058824" id="Fill-19" fill="#0BA6BF"></path>
                    <path d="M45.0474219,24.0474706 C45.0474219,26.1711176 44.7240247,28.2206471 44.1274493,30.1540588 L46.7641342,31.0184118 C47.4508192,28.8139412 47.8212301,26.4721765 47.8212301,24.0474706 C47.8212301,24.0164118 47.8194493,23.9871176 47.8194493,23.9557059 L45.0474219,24.0252353 L45.0474219,24.0474706" id="Fill-21" fill="#0BA6BF"></path>
                    <path d="M46.3887726,15.9680824 L43.7994575,16.9609059 C44.4950466,18.8703176 44.9178137,20.9074941 45.0207452,23.0258471 L47.7949096,22.9566706 C47.680937,20.5129059 47.1947726,18.1665529 46.3887726,15.9680824" id="Fill-23" fill="#0BA6BF"></path>
                    <path d="M39.8397288,10.3032706 C41.3288521,11.9963294 42.5504959,13.9248 43.4341397,16.0293882 L46.021674,15.0386824 C45.0115918,12.6139765 43.605811,10.3932706 41.8873178,8.44962353 L39.8397288,10.3032706 Z" id="Fill-25" fill="#0BA6BF"></path>
                    <path d="M32.6368027,4.97830588 C35.1000356,6.08865882 37.3082548,7.65395294 39.1588849,9.56477647 L41.2061178,7.71254118 C39.0883644,5.51301176 36.5528301,3.71583529 33.7209671,2.44842353 L32.6368027,4.97830588 Z" id="Fill-27" fill="#0BA6BF"></path>
                    <path d="M31.1135233,46.6407176 L30.2227562,44.0381294 C28.6684548,44.5206 27.0382904,44.8248353 25.3543452,44.9374235 L25.4768658,47.6854235 C27.4286466,47.5590706 29.3173863,47.2047176 31.1135233,46.6407176" id="Fill-29" fill="#0BA6BF"></path>
                    <path d="M43.8102137,31.1025176 C43.1377753,32.9582824 42.207474,34.6926353 41.0616932,36.2646353 L43.2752548,37.9234588 C44.5998301,36.1125176 45.6733096,34.1116941 46.443337,31.9672235 L43.8102137,31.1025176 Z" id="Fill-31" fill="#0BA6BF"></path>
                    <path d="M35.7031288,41.4212118 C34.3044712,42.3568588 32.7864986,43.1315647 31.1780603,43.7160353 L32.0688274,46.3203882 C33.9340603,45.6480353 35.6903068,44.7519176 37.3058685,43.6641529 L35.7031288,41.4212118 Z" id="Fill-33" fill="#0BA6BF"></path>
                    <path d="M23.7227562,3.10747059 C23.7861534,3.10747059 23.8474137,3.10252941 23.910811,3.10252941 C26.664674,3.10252941 29.2942356,3.63335294 31.7083178,4.58629412 L32.7946192,2.05605882 C30.0457425,0.961235294 27.0496877,0.352764706 23.910811,0.352764706 C23.8167836,0.352764706 23.724537,0.359470588 23.6326466,0.361588235 L23.7227562,3.10747059 Z" id="Fill-35" fill="#0BA6BF"></path>
                    <path d="M2.77391507,24.0474706 C2.77391507,23.5720588 2.7956411,23.1033529 2.82805205,22.6346471 L0.0649287671,22.3840588 C0.0253945205,22.9357059 -0.000249315068,23.4873529 -0.000249315068,24.0474706 C-0.000249315068,24.7152353 0.0342986301,25.3755882 0.0902164384,26.0295882 L2.84977808,25.7405294 C2.80276438,25.1818235 2.77391507,24.6181765 2.77391507,24.0474706" id="Fill-38" fill="#0BA6BF"></path>
                    <path d="M24.3460438,44.9811529 C24.2014411,44.9846824 24.0568384,44.9917412 23.9104548,44.9917412 C22.5011123,44.9917412 21.1220438,44.8512706 19.7885644,44.5886824 L19.1830849,47.2745647 C20.7117425,47.5788 22.2931123,47.7411529 23.9104548,47.7411529 C24.0985096,47.7411529 24.2830027,47.7309176 24.4689205,47.7273882 L24.3460438,44.9811529 Z" id="Fill-41" fill="#0BA6BF"></path>
                    <path d="M3.73929863,30.3078706 C3.37423014,29.1562235 3.11423014,27.9629294 2.95324384,26.7350471 L0.195463014,27.0237529 C0.376394521,28.4556353 0.683408219,29.8497529 1.11365479,31.1916353 L3.73929863,30.3078706 Z" id="Fill-43" fill="#0BA6BF"></path>
                    <path d="M5.76063836,34.7656588 C5.09211781,33.6570706 4.51904932,32.4828353 4.06351507,31.2549529 L1.43609041,32.1387176 C1.96392603,33.5723647 2.62710411,34.9403647 3.41137808,36.2289529 L5.76063836,34.7656588 Z" id="Fill-45" fill="#0BA6BF"></path>
                    <path d="M13.3153836,42.1588235 C11.9762055,41.3858824 10.7274932,40.4745882 9.59631507,39.4404706 L7.66839726,41.4151765 C8.97836986,42.6190588 10.4258219,43.6771765 11.9819041,44.5697647 L13.3153836,42.1588235 Z" id="Fill-47" fill="#0BA6BF"></path>
                    <path d="M8.87063014,38.7453882 C7.91646575,37.7857412 7.05454795,36.7378588 6.29912329,35.6119765 L3.95164384,37.0731529 C4.82638356,38.3857412 5.82756164,39.6100941 6.94235616,40.7222118 L8.87063014,38.7453882 Z" id="Fill-49" fill="#0BA6BF"></path>
                    <path d="M18.8043041,44.3703882 C17.1866055,43.9708588 15.645126,43.3863882 14.199811,42.6409765 L12.8659753,45.0519176 C14.537811,45.9180353 16.3250438,46.5963882 18.1988247,47.0527412 L18.8043041,44.3703882 Z" id="Fill-51" fill="#0BA6BF"></path>
                    <g id="genomic-prediction" transform="translate(0.000000, 0.352941)">
                        <path d="M65.0468712,17.7059294 C64.5881315,18.2505176 63.9388438,18.6733412 63.0990082,18.9740471 C62.2598849,19.2747529 61.3302959,19.4251059 60.3095288,19.4251059 C59.237474,19.4251059 58.2975562,19.1935765 57.4894192,18.7291059 C56.6819945,18.2656941 56.0572822,17.5929882 55.6181315,16.7109882 C55.1789808,15.8286353 54.9531726,14.7916941 54.9417753,13.6005176 L54.9417753,12.7658118 C54.9417753,11.5411059 55.1504877,10.4801647 55.5668438,9.5844 C55.9842685,8.68792941 56.585474,8.00287059 57.3704603,7.52745882 C58.1558027,7.0524 59.0757753,6.81522353 60.1310904,6.81522353 C61.5992,6.81522353 62.7478301,7.16216471 63.5759123,7.8564 C64.4036384,8.55063529 64.8937205,9.56075294 65.0468712,10.8864 L62.563337,10.8864 C62.4497205,10.1840471 62.1986247,9.67016471 61.8107616,9.3444 C61.4221863,9.01792941 60.8879397,8.85522353 60.2073096,8.85522353 C59.339337,8.85522353 58.6786521,9.17851765 58.2252548,9.82404706 C57.7718575,10.4706353 57.5421315,11.4320471 57.536789,12.7068706 L57.536789,13.4914588 C57.536789,14.7775765 57.7828986,15.7499294 58.2765425,16.4078118 C58.7698301,17.0646353 59.4932,17.3939294 60.4452274,17.3939294 C61.4040219,17.3939294 62.0871452,17.1913412 62.4953096,16.7868706 L62.4953096,14.6706353 L60.1731178,14.6706353 L60.1731178,12.8085176 L65.0468712,12.8085176 L65.0468712,17.7059294 Z" id="Fill-53" fill="#000000"></path>
                        <path d="M70.9072356,11.9313176 C70.4196466,11.9313176 70.0243041,12.0954353 69.7208521,12.4226118 C69.4170438,12.7501412 69.2229342,13.2188471 69.137811,13.8280235 L72.5577014,13.8280235 L72.5577014,13.6332 C72.5463041,13.0914353 72.3984959,12.6724941 72.1153452,12.3763765 C71.8314822,12.0799059 71.4290164,11.9313176 70.9072356,11.9313176 M71.1882493,19.4249647 C69.8383863,19.4249647 68.7399753,19.0152 67.8919479,18.1939059 C67.0442767,17.3736706 66.6204411,16.2809647 66.6204411,14.9157882 L66.6204411,14.6796706 C66.6204411,13.7637882 66.7988795,12.9442588 67.1561123,12.2224941 C67.5137014,11.5007294 68.0201671,10.9444941 68.6744411,10.5534353 C69.3297836,10.1630824 70.0763041,9.96755294 70.9154274,9.96755294 C72.1748247,9.96755294 73.1653178,10.3607294 73.8886877,11.1474353 C74.6117014,11.9341412 74.9732082,13.0501412 74.9732082,14.4940235 L74.9732082,15.4889647 L69.1128795,15.4889647 C69.1919479,16.0847294 69.4316466,16.5622588 69.8316192,16.9212 C70.2308795,17.2812 70.736989,17.4608471 71.3492356,17.4608471 C72.296989,17.4608471 73.0367425,17.1213176 73.5699205,16.4412 L74.7773178,17.7813176 C74.4090438,18.2987294 73.9097014,18.7017882 73.2807151,18.9912 C72.6510164,19.2799059 71.9536466,19.4249647 71.1882493,19.4249647" id="Fill-55" fill="#000000"></path>
                        <path d="M78.6311945,10.1361176 L78.7077699,11.19 C79.3656055,10.3750588 80.2478247,9.96741176 81.3533589,9.96741176 C82.3281808,9.96741176 83.0540438,10.2518824 83.5302356,10.8190588 C84.0071397,11.3862353 84.2504,12.2350588 84.2617973,13.3644706 L84.2617973,19.2561176 L81.8039068,19.2561176 L81.8039068,13.4234118 C81.8039068,12.9070588 81.6899342,12.5315294 81.4634137,12.2985882 C81.236537,12.0649412 80.8600712,11.9484706 80.3318795,11.9484706 C79.6405644,11.9484706 79.1212767,12.2410588 78.7757973,12.8248235 L78.7757973,19.2561176 L76.3179068,19.2561176 L76.3179068,10.1361176 L78.6311945,10.1361176 Z" id="Fill-57" fill="#000000"></path>
                        <path d="M88.2005123,14.7850235 C88.2005123,15.6518471 88.3647041,16.3143176 88.6938,16.7727882 C89.0225397,17.2319647 89.4930329,17.4610235 90.1056356,17.4610235 C90.7011425,17.4610235 91.1662932,17.2347882 91.5007315,16.7816118 C91.8351699,16.3287882 92.002211,15.6038471 92.002211,14.6082 C92.002211,13.7579647 91.8351699,13.0997294 91.5007315,12.6320824 C91.1662932,12.1651412 90.6954438,11.9314941 90.0881836,11.9314941 C89.4869781,11.9314941 89.0225397,12.1640824 88.6938,12.6278471 C88.3647041,13.0930235 88.2005123,13.8116118 88.2005123,14.7850235 L88.2005123,14.7850235 Z M85.7419096,14.6117294 C85.7419096,13.7071412 85.918211,12.9010235 86.269389,12.1933765 C86.6209233,11.4850235 87.1270329,10.9372588 87.7877178,10.5497294 C88.4484027,10.1614941 89.2152247,9.96737647 90.0881836,9.96737647 C91.3304849,9.96737647 92.3441288,10.3443176 93.1291151,11.0974941 C93.9148137,11.8499647 94.3532521,12.8727882 94.4437178,14.1656118 L94.4608137,14.7889059 C94.4608137,16.1883176 94.0661836,17.3110235 93.2783479,18.1566706 C92.4901562,19.0023176 91.4327041,19.4247882 90.1056356,19.4247882 C88.7792795,19.4247882 87.7200466,19.0030235 86.9290055,18.1602 C86.1376082,17.3177294 85.7419096,16.1710235 85.7419096,14.7214941 L85.7419096,14.6117294 Z" id="Fill-59" fill="#000000"></path>
                        <path d="M98.2798932,10.1361176 L98.3561123,11.1564706 C99.0082493,10.3637647 99.8897562,9.96741176 101.001345,9.96741176 C102.186304,9.96741176 103.000496,10.4315294 103.442852,11.3587059 C104.08929,10.4315294 105.010332,9.96741176 106.207044,9.96741176 C107.205373,9.96741176 107.947975,10.2554118 108.435208,10.8317647 C108.92351,11.4081176 109.16677,12.2749412 109.16677,13.4315294 L109.16677,19.2561176 L106.700688,19.2561176 L106.700688,13.4407059 C106.700688,12.9232941 106.598112,12.5456471 106.39403,12.3067059 C106.189592,12.0681176 105.829866,11.9484706 105.31414,11.9484706 C104.576523,11.9484706 104.066496,12.2971765 103.782633,12.9935294 L103.791537,19.2561176 L101.332934,19.2561176 L101.332934,13.4488235 C101.332934,12.9211765 101.228222,12.5389412 101.018797,12.3024706 C100.80866,12.0663529 100.451784,11.9484706 99.9470986,11.9484706 C99.2493726,11.9484706 98.7446877,12.2350588 98.4330438,12.8082353 L98.4330438,19.2561176 L95.9740849,19.2561176 L95.9740849,10.1361176 L98.2798932,10.1361176 Z" id="Fill-61" fill="#000000"></path>
                        <mask id="mask-3" fill="white">
                            <use xlink:href="#path-2"></use>
                        </mask>
                        <g id="Clip-64"></g>
                        <path d="M111.182767,19.2561176 L113.648849,19.2561176 L113.648849,10.1361176 L111.182767,10.1361176 L111.182767,19.2561176 Z M111.038164,7.77670588 C111.038164,7.41070588 111.161397,7.11 111.407863,6.87423529 C111.655041,6.63811765 111.990548,6.52023529 112.415808,6.52023529 C112.835014,6.52023529 113.169808,6.63811765 113.419836,6.87423529 C113.669151,7.11 113.793452,7.41070588 113.793452,7.77670588 C113.793452,8.14694118 113.66737,8.45082353 113.415205,8.68658824 C113.162685,8.92235294 112.830027,9.04058824 112.415808,9.04058824 C112.002301,9.04058824 111.668219,8.92235294 111.416055,8.68658824 C111.163534,8.45082353 111.038164,8.14694118 111.038164,7.77670588 L111.038164,7.77670588 Z" id="Fill-63" fill="#000000" mask="url(#mask-3)"></path>
                        <path d="M119.501414,17.4610235 C119.954811,17.4610235 120.323441,17.3378471 120.607304,17.0900824 C120.890455,16.8430235 121.037907,16.5144353 121.04966,16.1039647 L123.3544,16.1039647 C123.349414,16.7219647 123.178811,17.2884353 122.844729,17.8019647 C122.509222,18.3165529 122.051195,18.7157294 121.470647,18.9994941 C120.88903,19.2832588 120.247222,19.4247882 119.543797,19.4247882 C118.228482,19.4247882 117.190619,19.0107882 116.430564,18.1820824 C115.671222,17.3526706 115.290838,16.2077294 115.290838,14.7469059 L115.290838,14.5863176 C115.290838,13.1823176 115.668016,12.0613765 116.422016,11.2238471 C117.176373,10.3863176 118.211386,9.96737647 119.527058,9.96737647 C120.678181,9.96737647 121.601003,10.2920824 122.295523,10.9414941 C122.990044,11.5902 123.343003,12.4545529 123.3544,13.5331412 L121.04966,13.5331412 C121.037907,13.0584353 120.890455,12.6733765 120.607304,12.3762 C120.323441,12.0797294 119.949112,11.9314941 119.484318,11.9314941 C118.911962,11.9314941 118.479578,12.1386706 118.187167,12.5523176 C117.894756,12.9659647 117.749441,13.6369059 117.749441,14.5654941 L117.749441,14.8185529 C117.749441,15.7584353 117.894044,16.4339647 118.183249,16.8444353 C118.471742,17.2556118 118.911962,17.4610235 119.501414,17.4610235" id="Fill-65" fill="#000000" mask="url(#mask-3)"></path>
                        <path d="M131.809956,12.8838353 L134.089052,12.8838353 C134.76434,12.8838353 135.278641,12.7271294 135.632668,12.4119529 C135.987408,12.0978353 136.164778,11.6478353 136.164778,11.0633647 C136.164778,10.4623059 135.985984,9.97630588 135.629107,9.60536471 C135.271162,9.23442353 134.777518,9.04348235 134.148532,9.03218824 L131.809956,9.03218824 L131.809956,12.8838353 Z M131.809956,14.9319529 L131.809956,19.2561882 L129.257682,19.2561882 L129.257682,6.98407059 L134.089052,6.98407059 C135.018997,6.98407059 135.836751,7.15277647 136.543381,7.48983529 C137.248942,7.82654118 137.792449,8.30583529 138.171764,8.92701176 C138.551792,9.54783529 138.741984,10.2540706 138.741984,11.0467765 C138.741984,12.2492471 138.32634,13.1972471 137.495408,13.8914824 C136.664833,14.5857176 135.515134,14.9319529 134.046312,14.9319529 L131.809956,14.9319529 Z" id="Fill-66" fill="#000000" mask="url(#mask-3)"></path>
                        <path d="M145.504192,12.4202471 C145.169753,12.3754235 144.874137,12.3531882 144.619836,12.3531882 C143.689534,12.3531882 143.080137,12.6651882 142.790932,13.2881294 L142.790932,19.2563647 L140.332329,19.2563647 L140.332329,10.1360118 L142.654521,10.1360118 L142.722192,11.2237765 C143.215479,10.3862471 143.898959,9.96730588 144.77263,9.96730588 C145.04474,9.96730588 145.30011,10.0040118 145.538027,10.0770706 L145.504192,12.4202471 Z" id="Fill-67" fill="#000000" mask="url(#mask-3)"></path>
                        <path d="M150.479381,11.9313176 C149.992148,11.9313176 149.596449,12.0954353 149.292997,12.4226118 C148.989189,12.7501412 148.795079,13.2188471 148.709956,13.8280235 L152.129847,13.8280235 L152.129847,13.6332 C152.118805,13.0914353 151.970641,12.6724941 151.687847,12.3763765 C151.403627,12.0799059 151.001518,11.9313176 150.479381,11.9313176 M150.760395,19.4249647 C149.410532,19.4249647 148.312121,19.0152 147.464093,18.1939059 C146.616778,17.3736706 146.192586,16.2809647 146.192586,14.9157882 L146.192586,14.6796706 C146.192586,13.7637882 146.371381,12.9442588 146.728258,12.2224941 C147.086203,11.5007294 147.592312,10.9444941 148.246586,10.5534353 C148.901929,10.1630824 149.648449,9.96755294 150.487573,9.96755294 C151.747326,9.96755294 152.737819,10.3607294 153.460833,11.1474353 C154.183847,11.9341412 154.54571,13.0501412 154.54571,14.4940235 L154.54571,15.4889647 L148.685025,15.4889647 C148.764449,16.0847294 149.003792,16.5622588 149.403764,16.9212 C149.803025,17.2812 150.309134,17.4608471 150.921381,17.4608471 C151.869134,17.4608471 152.608888,17.1213176 153.142422,16.4412 L154.349463,17.7813176 C153.981189,18.2987294 153.482203,18.7017882 152.85286,18.9912 C152.223162,19.2799059 151.525792,19.4249647 150.760395,19.4249647" id="Fill-68" fill="#000000" mask="url(#mask-3)"></path>
                        <path d="M158.015855,14.8103647 C158.015855,15.6658941 158.1658,16.3213059 158.466403,16.7773059 C158.766649,17.2333059 159.203663,17.4609529 159.776019,17.4609529 C160.536074,17.4609529 161.071745,17.1429529 161.383745,16.5069529 L161.383745,12.9023647 C161.0778,12.2663647 160.547471,11.9487176 159.793471,11.9487176 C158.6078,11.9487176 158.015855,12.9023647 158.015855,14.8103647 M155.557252,14.6289529 C155.557252,13.2069529 155.878868,12.0747176 156.522814,11.2318941 C157.166047,10.3890706 158.046841,9.96730588 159.163773,9.96730588 C160.05917,9.96730588 160.799636,10.2997765 161.383745,10.9626 L161.383745,6.31012941 L163.85054,6.31012941 L163.85054,19.2563647 L161.630567,19.2563647 L161.511608,18.2875412 C160.899362,19.0456588 160.110814,19.4250706 159.147389,19.4250706 C158.063937,19.4250706 157.19454,19.0022471 156.53991,18.1566 C155.884923,17.3109529 155.557252,16.1346 155.557252,14.6289529" id="Fill-69" fill="#000000" mask="url(#mask-3)"></path>
                        <path d="M165.883562,19.2561176 L168.35,19.2561176 L168.35,10.1361176 L165.883562,10.1361176 L165.883562,19.2561176 Z M165.739315,7.77670588 C165.739315,7.41070588 165.862548,7.11 166.109014,6.87423529 C166.355836,6.63811765 166.691699,6.52023529 167.116959,6.52023529 C167.536164,6.52023529 167.870603,6.63811765 168.12063,6.87423529 C168.369945,7.11 168.494603,7.41070588 168.494603,7.77670588 C168.494603,8.14694118 168.368521,8.45082353 168.116,8.68658824 C167.863836,8.92235294 167.531178,9.04058824 167.116959,9.04058824 C166.703452,9.04058824 166.36937,8.92235294 166.117205,8.68658824 C165.864685,8.45082353 165.739315,8.14694118 165.739315,7.77670588 L165.739315,7.77670588 Z" id="Fill-70" fill="#000000" mask="url(#mask-3)"></path>
                        <path d="M174.202564,17.4610235 C174.655962,17.4610235 175.024592,17.3378471 175.308099,17.0900824 C175.591605,16.8430235 175.739058,16.5144353 175.750811,16.1039647 L178.055551,16.1039647 C178.050208,16.7219647 177.879962,17.2884353 177.545523,17.8019647 C177.210373,18.3165529 176.752345,18.7157294 176.171441,18.9994941 C175.590181,19.2832588 174.948373,19.4247882 174.244592,19.4247882 C172.929633,19.4247882 171.89177,19.0107882 171.131715,18.1820824 C170.372373,17.3526706 169.991989,16.2077294 169.991989,14.7469059 L169.991989,14.5863176 C169.991989,13.1823176 170.369167,12.0613765 171.123167,11.2238471 C171.877523,10.3863176 172.912181,9.96737647 174.228208,9.96737647 C175.379332,9.96737647 176.302153,10.2920824 176.996674,10.9414941 C177.690838,11.5902 178.044153,12.4545529 178.055551,13.5331412 L175.750811,13.5331412 C175.739058,13.0584353 175.591605,12.6733765 175.308099,12.3762 C175.024592,12.0797294 174.650263,11.9314941 174.185112,11.9314941 C173.612756,11.9314941 173.180373,12.1386706 172.888318,12.5523176 C172.595907,12.9659647 172.450592,13.6369059 172.450592,14.5654941 L172.450592,14.8185529 C172.450592,15.7584353 172.595195,16.4339647 172.8844,16.8444353 C173.172893,17.2556118 173.612756,17.4610235 174.202564,17.4610235" id="Fill-71" fill="#000000" mask="url(#mask-3)"></path>
                        <path d="M182.402003,7.89455294 L182.402003,10.1360824 L183.975537,10.1360824 L183.975537,11.9230235 L182.402003,11.9230235 L182.402003,16.4749059 C182.402003,16.8123176 182.467537,17.0533765 182.597893,17.1998471 C182.727893,17.3459647 182.977208,17.4190235 183.346195,17.4190235 C183.618304,17.4190235 183.859427,17.3989059 184.069564,17.3600824 L184.069564,19.2052588 C183.587318,19.3517294 183.091181,19.4247882 182.581153,19.4247882 C180.856962,19.4247882 179.977592,18.5629059 179.944112,16.8370235 L179.944112,11.9230235 L178.599948,11.9230235 L178.599948,10.1360824 L179.944112,10.1360824 L179.944112,7.89455294 L182.402003,7.89455294 Z" id="Fill-72" fill="#000000" mask="url(#mask-3)"></path>
                        <path d="M185.472959,19.2561176 L187.939397,19.2561176 L187.939397,10.1361176 L185.472959,10.1361176 L185.472959,19.2561176 Z M185.328,7.77670588 C185.328,7.41070588 185.451589,7.11 185.698411,6.87423529 C185.945233,6.63811765 186.281096,6.52023529 186.706,6.52023529 C187.125562,6.52023529 187.46,6.63811765 187.710027,6.87423529 C187.959342,7.11 188.083644,7.41070588 188.083644,7.77670588 C188.083644,8.14694118 187.957918,8.45082353 187.705397,8.68658824 C187.453233,8.92235294 187.120219,9.04058824 186.706,9.04058824 C186.292493,9.04058824 185.958767,8.92235294 185.706247,8.68658824 C185.454082,8.45082353 185.328,8.14694118 185.328,7.77670588 L185.328,7.77670588 Z" id="Fill-73" fill="#000000" mask="url(#mask-3)"></path>
                        <path d="M192.039989,14.7850235 C192.039989,15.6518471 192.204181,16.3143176 192.533277,16.7727882 C192.86166,17.2319647 193.33251,17.4610235 193.945112,17.4610235 C194.540619,17.4610235 195.005414,17.2347882 195.339852,16.7816118 C195.67429,16.3287882 195.841688,15.6038471 195.841688,14.6082 C195.841688,13.7579647 195.67429,13.0997294 195.339852,12.6320824 C195.005414,12.1651412 194.534564,11.9314941 193.92766,11.9314941 C193.326455,11.9314941 192.86166,12.1640824 192.533277,12.6278471 C192.204181,13.0930235 192.039989,13.8116118 192.039989,14.7850235 L192.039989,14.7850235 Z M189.581386,14.6117294 C189.581386,13.7071412 189.757688,12.9010235 190.10851,12.1933765 C190.460044,11.4850235 190.966153,10.9372588 191.627195,10.5497294 C192.287523,10.1614941 193.054701,9.96737647 193.92766,9.96737647 C195.169605,9.96737647 196.183605,10.3443176 196.968592,11.0974941 C197.753934,11.8499647 198.192373,12.8727882 198.282838,14.1656118 L198.30029,14.7889059 C198.30029,16.1883176 197.90566,17.3110235 197.117468,18.1566706 C196.329633,19.0023176 195.272181,19.4247882 193.945112,19.4247882 C192.6184,19.4247882 191.559167,19.0030235 190.768482,18.1602 C189.976729,17.3177294 189.581386,16.1710235 189.581386,14.7214941 L189.581386,14.6117294 Z" id="Fill-74" fill="#000000" mask="url(#mask-3)"></path>
                        <path d="M202.076238,10.1361176 L202.15317,11.19 C202.811005,10.3750588 203.692868,9.96741176 204.798759,9.96741176 C205.773225,9.96741176 206.499444,10.2518824 206.975636,10.8190588 C207.45254,11.3862353 207.695444,12.2350588 207.707197,13.3644706 L207.707197,19.2561176 L205.248951,19.2561176 L205.248951,13.4234118 C205.248951,12.9070588 205.135334,12.5315294 204.908458,12.2985882 C204.681581,12.0649412 204.305115,11.9484706 203.776923,11.9484706 C203.085608,11.9484706 202.566677,12.2410588 202.220841,12.8248235 L202.220841,19.2561176 L199.762951,19.2561176 L199.762951,10.1361176 L202.076238,10.1361176 Z" id="Fill-75" fill="#000000" mask="url(#mask-3)"></path>
                    </g>
                    <g id="clinical-laboratory" transform="translate(54.943948, 27.523659)" fill="#0BA6BF">
                        <path d="M6.62964384,6.55747059 C6.52778082,7.48676471 6.19191781,8.19723529 5.62312329,8.69064706 C5.05468493,9.18335294 4.29747945,9.42970588 3.35150685,9.42970588 C2.69082192,9.42970588 2.10706849,9.26629412 1.59917808,8.93947059 C1.09164384,8.61158824 0.699150685,8.14817647 0.422054795,7.54817647 C0.14460274,6.94852941 0.00391780822,6.26276471 1.17239551e-13,5.49088235 L1.17239551e-13,4.34488235 C1.17239551e-13,3.56135294 0.138547945,2.86641176 0.416,2.26041176 C0.69309589,1.65405882 1.09164384,1.18676471 1.61128767,0.857823529 C2.13128767,0.527823529 2.73,0.363705882 3.40635616,0.363705882 C4.36087671,0.363705882 5.11416438,0.618176471 5.66621918,1.12711765 C6.2189863,1.63641176 6.53989041,2.34158824 6.62964384,3.24264706 L5.8710137,3.24264706 C5.68367123,1.743 4.86235616,0.993352941 3.40635616,0.993352941 C2.59893151,0.993352941 1.95569863,1.29264706 1.47665753,1.89158824 C0.997616438,2.49017647 0.757917808,3.31641176 0.757917808,4.37205882 L0.757917808,5.45205882 C0.757917808,6.471 0.991205479,7.28382353 1.45849315,7.88982353 C1.92542466,8.49688235 2.55654795,8.80005882 3.35150685,8.80005882 C4.13863014,8.80005882 4.73128767,8.61335294 5.13126027,8.23923529 C5.53052055,7.86547059 5.77769863,7.30464706 5.8710137,6.55747059 L6.62964384,6.55747059 Z" id="Fill-76"></path>
                        <polygon id="Fill-77" points="8.37281918 9.30892941 9.10723014 9.30892941 9.10723014 0.000105882353 8.37281918 0.000105882353"></polygon>
                        <path d="M11.1801068,9.30892941 L11.9145178,9.30892941 L11.9145178,2.75128235 L11.1801068,2.75128235 L11.1801068,9.30892941 Z M11.0518877,0.857752941 C11.0518877,0.721164706 11.0964082,0.6054 11.1861616,0.511164706 C11.2759151,0.416576471 11.3984356,0.369635294 11.5537233,0.369635294 C11.7079425,0.369635294 11.8315315,0.416576471 11.9234219,0.511164706 C12.0153123,0.6054 12.0605452,0.721164706 12.0605452,0.857752941 C12.0605452,0.993635294 12.0153123,1.10834118 11.9234219,1.20045882 C11.8315315,1.29292941 11.7079425,1.33916471 11.5537233,1.33916471 C11.3984356,1.33916471 11.2759151,1.29292941 11.1861616,1.20045882 C11.0964082,1.10834118 11.0518877,0.993635294 11.0518877,0.857752941 L11.0518877,0.857752941 Z" id="Fill-78"></path>
                        <path d="M14.5982877,2.75149412 L14.6232192,3.87243529 C14.8718219,3.46867059 15.1813288,3.16055294 15.5528082,2.94843529 C15.9232192,2.73667059 16.3331644,2.62972941 16.7819315,2.62972941 C17.4917671,2.62972941 18.0196027,2.82843529 18.3661507,3.22372941 C18.7126986,3.62008235 18.8879315,4.21372941 18.8918493,5.00572941 L18.8918493,9.30914118 L18.1642055,9.30914118 L18.1642055,4.99972941 C18.1599315,4.41384706 18.0345616,3.97796471 17.7877397,3.69067059 C17.541274,3.40372941 17.1466438,3.26043529 16.6042055,3.26043529 C16.1522329,3.26043529 15.7515479,3.40090588 15.402863,3.68149412 C15.0541781,3.96208235 14.7963151,4.34114118 14.629274,4.81831765 L14.629274,9.30914118 L13.9016301,9.30914118 L13.9016301,2.75149412 L14.5982877,2.75149412 Z" id="Fill-79"></path>
                        <path d="M20.8677781,9.30892941 L21.602189,9.30892941 L21.602189,2.75128235 L20.8677781,2.75128235 L20.8677781,9.30892941 Z M20.7395589,0.857752941 C20.7395589,0.721164706 20.7840795,0.6054 20.8738329,0.511164706 C20.9632301,0.416576471 21.0861068,0.369635294 21.2413945,0.369635294 C21.3959699,0.369635294 21.5192027,0.416576471 21.6110932,0.511164706 C21.7029836,0.6054 21.7482164,0.721164706 21.7482164,0.857752941 C21.7482164,0.993635294 21.7029836,1.10834118 21.6110932,1.20045882 C21.5192027,1.29292941 21.3959699,1.33916471 21.2413945,1.33916471 C21.0861068,1.33916471 20.9632301,1.29292941 20.8738329,1.20045882 C20.7840795,1.10834118 20.7395589,0.993635294 20.7395589,0.857752941 L20.7395589,0.857752941 Z" id="Fill-80"></path>
                        <path d="M26.035011,8.81781176 C26.5450384,8.81781176 26.9720795,8.67592941 27.3164904,8.39075294 C27.6612575,8.10557647 27.8475315,7.73675294 27.8760247,7.28463529 L28.5798055,7.28463529 C28.5591479,7.68487059 28.4327096,8.04981176 28.2008466,8.37875294 C27.9679151,8.70804706 27.6591205,8.96534118 27.2741068,9.15134118 C26.8883808,9.33734118 26.4755863,9.42981176 26.035011,9.42981176 C25.1666822,9.42981176 24.4789288,9.13122353 23.9710384,8.53334118 C23.4635041,7.93545882 23.2095589,7.13075294 23.2095589,6.12063529 L23.2095589,5.90287059 C23.2095589,5.25663529 23.3242438,4.68487059 23.552189,4.18757647 C23.7804904,3.69063529 24.1074493,3.30663529 24.5337781,3.03592941 C24.9601068,2.76557647 25.4580247,2.62969412 26.0289562,2.62969412 C26.7551753,2.62969412 27.3531753,2.84392941 27.8240247,3.2724 C28.294874,3.70087059 28.5473945,4.26451765 28.5798055,4.96334118 L27.8760247,4.96334118 C27.8436137,4.45016471 27.6569836,4.03616471 27.3164904,3.72098824 C26.9759973,3.40616471 26.5471753,3.2484 26.0289562,3.2484 C25.3682712,3.2484 24.8561068,3.48451765 24.4910384,3.95745882 C24.126326,4.43004706 23.9439699,5.09287059 23.9439699,5.94557647 L23.9439699,6.15734118 C23.9439699,6.99345882 24.126326,7.64675294 24.4910384,8.11475294 C24.8561068,8.58345882 25.3707644,8.81781176 26.035011,8.81781176" id="Fill-81"></path>
                        <path d="M31.9188466,8.78784706 C32.4085726,8.78784706 32.8452301,8.67067059 33.2309562,8.43631765 C33.6159699,8.20196471 33.8962712,7.88855294 34.0715041,7.49643529 L34.0715041,6.05431765 L32.7633123,6.05431765 C32.0331753,6.06278824 31.4622438,6.19478824 31.0505178,6.45137647 C30.6391479,6.70831765 30.4325726,7.06055294 30.4325726,7.50914118 C30.4325726,7.87655294 30.5704082,8.18184706 30.8453671,8.42431765 C31.1210384,8.66608235 31.4789836,8.78784706 31.9188466,8.78784706 L31.9188466,8.78784706 Z M34.2186,9.30914118 C34.1452301,9.10302353 34.0978603,8.79772941 34.0775589,8.39361176 C33.8207644,8.72537647 33.4938055,8.98055294 33.096326,9.16055294 C32.6984904,9.3402 32.2782164,9.42984706 31.8337233,9.42984706 C31.1972575,9.42984706 30.6826,9.25443529 30.2886822,8.90290588 C29.8954767,8.55137647 29.698874,8.10702353 29.698874,7.56984706 C29.698874,6.93137647 29.9670658,6.42631765 30.5034493,6.05431765 C31.0391205,5.68267059 31.7859973,5.49667059 32.7444356,5.49667059 L34.0715041,5.49667059 L34.0715041,4.75090588 C34.0715041,4.2822 33.926189,3.91372941 33.6348466,3.64478824 C33.3431479,3.37690588 32.9175315,3.24278824 32.3594219,3.24278824 C31.8493945,3.24278824 31.4276959,3.37161176 31.0932575,3.62996471 C30.7588192,3.88902353 30.5914219,4.19961176 30.5914219,4.56384706 L29.8577233,4.55714118 C29.8577233,4.0362 30.1027644,3.58443529 30.5914219,3.20290588 C31.0811479,2.82067059 31.6823534,2.62972941 32.396463,2.62972941 C33.1337233,2.62972941 33.7160521,2.81255294 34.1423808,3.1782 C34.5679973,3.5442 34.7873945,4.05455294 34.7991479,4.70855294 L34.7991479,7.81231765 C34.7991479,8.4462 34.8671753,8.92055294 35.0010932,9.23643529 L35.0010932,9.30914118 L34.2186,9.30914118 Z" id="Fill-82"></path>
                        <polygon id="Fill-83" points="36.8360521 9.30892941 37.570463 9.30892941 37.570463 0.000105882353 36.8360521 0.000105882353"></polygon>
                        <polygon id="Fill-84" points="43.5333315 8.67892941 47.9308932 8.67892941 47.9308932 9.30892941 42.7747014 9.30892941 42.7747014 0.484341176 43.5333315 0.484341176"></polygon>
                        <path d="M51.0802767,8.78784706 C51.5700027,8.78784706 52.0070164,8.67067059 52.3927425,8.43631765 C52.7774,8.20196471 53.0577014,7.88855294 53.2332904,7.49643529 L53.2332904,6.05431765 L51.9247425,6.05431765 C51.1946055,6.06278824 50.6240301,6.19478824 50.2119479,6.45137647 C49.8005781,6.70831765 49.5940027,7.06055294 49.5940027,7.50914118 C49.5940027,7.87655294 49.7318384,8.18184706 50.0067973,8.42431765 C50.2828247,8.66608235 50.6404137,8.78784706 51.0802767,8.78784706 L51.0802767,8.78784706 Z M53.3800301,9.30914118 C53.3070164,9.10302353 53.2592904,8.79772941 53.2393452,8.39361176 C52.9821945,8.72537647 52.6552356,8.98055294 52.2577562,9.16055294 C51.8599205,9.3402 51.4396466,9.42984706 50.9951534,9.42984706 C50.3586877,9.42984706 49.8440301,9.25443529 49.4501123,8.90290588 C49.0569068,8.55137647 48.8606603,8.10702353 48.8606603,7.56984706 C48.8606603,6.93137647 49.1284959,6.42631765 49.6648795,6.05431765 C50.2005507,5.68267059 50.9477836,5.49667059 51.9058658,5.49667059 L53.2332904,5.49667059 L53.2332904,4.75090588 C53.2332904,4.2822 53.0879753,3.91372941 52.7959205,3.64478824 C52.5045781,3.37690588 52.0793178,3.24278824 51.5208521,3.24278824 C51.0111808,3.24278824 50.589126,3.37161176 50.2546877,3.62996471 C49.9202493,3.88902353 49.7528521,4.19961176 49.7528521,4.56384706 L49.0191534,4.55714118 C49.0191534,4.0362 49.2641945,3.58443529 49.7528521,3.20290588 C50.2425781,2.82067059 50.8437836,2.62972941 51.5578932,2.62972941 C52.2951534,2.62972941 52.8774822,2.81255294 53.303811,3.1782 C53.7294274,3.5442 53.9488247,4.05455294 53.9609342,4.70855294 L53.9609342,7.81231765 C53.9609342,8.4462 54.0286055,8.92055294 54.1625233,9.23643529 L54.1625233,9.30914118 L53.3800301,9.30914118 Z" id="Fill-85"></path>
                        <path d="M60.505063,5.96929412 C60.505063,5.10494118 60.3362411,4.43682353 59.9971726,3.96670588 C59.6591726,3.49552941 59.1822685,3.26047059 58.5664603,3.26047059 C58.0977479,3.26047059 57.6999123,3.37447059 57.3736658,3.60317647 C57.0477753,3.83082353 56.8013096,4.16505882 56.6342685,4.60552941 L56.6342685,7.56388235 C57.0007616,8.388 57.649337,8.79988235 58.578926,8.79988235 C59.1822685,8.79988235 59.6538301,8.56341176 59.9943233,8.09082353 C60.3348164,7.61823529 60.505063,6.91129412 60.505063,5.96929412 L60.505063,5.96929412 Z M61.2398301,6.09705882 C61.2398301,7.11882353 61.0104603,7.93023529 60.5542137,8.53023529 C60.0972548,9.12988235 59.4835836,9.42988235 58.7132,9.42988235 C57.7918027,9.42988235 57.0944329,9.09105882 56.6214466,8.41164706 L56.5911726,9.30882353 L55.9066247,9.30882353 L55.9066247,2.16715534e-13 L56.6342685,2.16715534e-13 L56.6342685,3.70305882 C57.099063,2.988 57.7871726,2.62976471 58.7010904,2.62976471 C59.4835836,2.62976471 60.1029534,2.92588235 60.557063,3.51811765 C61.0122411,4.11 61.2398301,4.93305882 61.2398301,5.988 L61.2398301,6.09705882 Z" id="Fill-86"></path>
                        <path d="M63.1843096,6.13284706 C63.1843096,6.91743529 63.3891041,7.56084706 63.7994055,8.06308235 C64.2089945,8.56637647 64.7460904,8.81767059 65.4110493,8.81767059 C66.0706658,8.81767059 66.606337,8.56637647 67.0162822,8.06308235 C67.4258712,7.56084706 67.6306658,6.89661176 67.6306658,6.07249412 L67.6306658,5.93343529 C67.6306658,5.43190588 67.5369945,4.97343529 67.3489397,4.55696471 C67.1615973,4.1412 66.8987479,3.81896471 66.5603918,3.59025882 C66.2223918,3.36261176 65.8341726,3.24861176 65.3982274,3.24861176 C64.7460904,3.24861176 64.214337,3.50167059 63.8018986,4.0092 C63.3901726,4.51602353 63.1843096,5.17955294 63.1843096,6.00014118 L63.1843096,6.13284706 Z M62.450611,5.93343529 C62.450611,5.30272941 62.5734877,4.73555294 62.8206658,4.23014118 C63.0671315,3.72472941 63.4154603,3.33190588 63.8660082,3.05167059 C64.3165562,2.77072941 64.8272959,2.62990588 65.3982274,2.62990588 C66.2786658,2.62990588 66.9927753,2.93590588 67.5391315,3.54861176 C68.0851315,4.16061176 68.3583096,4.97131765 68.3583096,5.98108235 L68.3583096,6.13284706 C68.3583096,6.76708235 68.2350767,7.33849412 67.988611,7.84531765 C67.741789,8.35284706 67.3941726,8.7432 66.9457616,9.01778824 C66.4973507,9.29237647 65.9858986,9.42967059 65.4110493,9.42967059 C64.5341726,9.42967059 63.8218438,9.12402353 63.2733507,8.51167059 C62.7248575,7.89967059 62.450611,7.08896471 62.450611,6.07849412 L62.450611,5.93343529 Z" id="Fill-87"></path>
                        <path d="M72.9269726,3.36945882 C72.7723973,3.34087059 72.607137,3.32675294 72.4319041,3.32675294 C71.9749452,3.32675294 71.5885068,3.45310588 71.272589,3.70616471 C70.9566712,3.95816471 70.7312192,4.32487059 70.5973014,4.80557647 L70.5973014,9.30910588 L69.8696575,9.30910588 L69.8696575,2.75145882 L70.5851918,2.75145882 L70.5973014,3.79334118 C70.9844521,3.01792941 71.6066712,2.62969412 72.4621781,2.62969412 C72.6666164,2.62969412 72.8276027,2.65651765 72.9458493,2.70875294 L72.9269726,3.36945882 Z" id="Fill-88"></path>
                        <path d="M75.7157753,8.78784706 C76.2051452,8.78784706 76.6421589,8.67067059 77.0278849,8.43631765 C77.4128986,8.20196471 77.6932,7.88855294 77.8684329,7.49643529 L77.8684329,6.05431765 L76.5598849,6.05431765 C75.8301041,6.06278824 75.2591726,6.19478824 74.8474466,6.45137647 C74.4357205,6.70831765 74.2295014,7.06055294 74.2295014,7.50914118 C74.2295014,7.87655294 74.367337,8.18184706 74.6422959,8.42431765 C74.9179671,8.66608235 75.2759123,8.78784706 75.7157753,8.78784706 L75.7157753,8.78784706 Z M78.0155288,9.30914118 C77.9421589,9.10302353 77.894789,8.79772941 77.8748438,8.39361176 C77.6176932,8.72537647 77.2907342,8.98055294 76.8932548,9.16055294 C76.495063,9.3402 76.0751452,9.42984706 75.6306521,9.42984706 C74.9941863,9.42984706 74.4795288,9.25443529 74.085611,8.90290588 C73.6924055,8.55137647 73.4958027,8.10702353 73.4958027,7.56984706 C73.4958027,6.93137647 73.7639945,6.42631765 74.3000219,6.05431765 C74.8356932,5.68267059 75.5832822,5.49667059 76.5410082,5.49667059 L77.8684329,5.49667059 L77.8684329,4.75090588 C77.8684329,4.2822 77.7231178,3.91372941 77.4314192,3.64478824 C77.1400767,3.37690588 76.7144603,3.24278824 76.1563507,3.24278824 C75.6463233,3.24278824 75.2246247,3.37161176 74.8901863,3.62996471 C74.5557479,3.88902353 74.3883507,4.19961176 74.3883507,4.56384706 L73.6546521,4.55714118 C73.6546521,4.0362 73.899337,3.58443529 74.3883507,3.20290588 C74.8777205,2.82067059 75.4792822,2.62972941 76.1933918,2.62972941 C76.9306521,2.62972941 77.5129808,2.81255294 77.9393096,3.1782 C78.3645699,3.5442 78.5843233,4.05455294 78.5960767,4.70855294 L78.5960767,7.81231765 C78.5960767,8.4462 78.6637479,8.92055294 78.7980219,9.23643529 L78.7980219,9.30914118 L78.0155288,9.30914118 Z" id="Fill-89"></path>
                        <path d="M81.6853753,1.07258824 L81.6853753,2.75152941 L83.0555397,2.75152941 L83.0555397,3.34552941 L81.6853753,3.34552941 L81.6853753,7.71952941 C81.6853753,8.08411765 81.7516219,8.35482353 81.8841151,8.53270588 C82.0169644,8.71094118 82.2374301,8.79988235 82.5476493,8.79988235 C82.6698137,8.79988235 82.8678411,8.77976471 83.140663,8.73952941 L83.1716493,9.32823529 C82.9793205,9.396 82.7186082,9.42988235 82.3888,9.42988235 C81.8869644,9.42988235 81.5218959,9.28588235 81.2935945,8.99682353 C81.0652932,8.70811765 80.9506082,8.28247059 80.9506082,7.72129412 L80.9506082,3.34552941 L79.7343068,3.34552941 L79.7343068,2.75152941 L80.9506082,2.75152941 L80.9506082,1.07258824 L81.6853753,1.07258824 Z" id="Fill-90"></path>
                        <path d="M84.7795534,6.13284706 C84.7795534,6.91743529 84.9843479,7.56084706 85.3946493,8.06308235 C85.8042384,8.56637647 86.3413342,8.81767059 87.0062932,8.81767059 C87.6659096,8.81767059 88.2015808,8.56637647 88.611526,8.06308235 C89.0211151,7.56084706 89.2259096,6.89661176 89.2259096,6.07249412 L89.2259096,5.93343529 C89.2259096,5.43190588 89.1322384,4.97343529 88.9441836,4.55696471 C88.7568411,4.1412 88.4939918,3.81896471 88.1556356,3.59025882 C87.8176356,3.36261176 87.4294164,3.24861176 86.9934712,3.24861176 C86.3413342,3.24861176 85.8095808,3.50167059 85.3971425,4.0092 C84.9854164,4.51602353 84.7795534,5.17955294 84.7795534,6.00014118 L84.7795534,6.13284706 Z M84.0458548,5.93343529 C84.0458548,5.30272941 84.1687315,4.73555294 84.4159096,4.23014118 C84.6623753,3.72472941 85.0107041,3.33190588 85.4612521,3.05167059 C85.9118,2.77072941 86.4225397,2.62990588 86.9934712,2.62990588 C87.8739096,2.62990588 88.5880192,2.93590588 89.1343753,3.54861176 C89.6803753,4.16061176 89.9535534,4.97131765 89.9535534,5.98108235 L89.9535534,6.13284706 C89.9535534,6.76708235 89.8303205,7.33849412 89.5838548,7.84531765 C89.3370329,8.35284706 88.9894164,8.7432 88.5410055,9.01778824 C88.0925945,9.29237647 87.5811425,9.42967059 87.0062932,9.42967059 C86.1294164,9.42967059 85.4170877,9.12402353 84.8685945,8.51167059 C84.3201014,7.89967059 84.0458548,7.08896471 84.0458548,6.07849412 L84.0458548,5.93343529 Z" id="Fill-91"></path>
                        <path d="M94.5222521,3.36945882 C94.3676767,3.34087059 94.2024164,3.32675294 94.0271836,3.32675294 C93.5702247,3.32675294 93.1837863,3.45310588 92.8678685,3.70616471 C92.5519507,3.95816471 92.3264986,4.32487059 92.1925808,4.80557647 L92.1925808,9.30910588 L91.464937,9.30910588 L91.464937,2.75145882 L92.1804712,2.75145882 L92.1925808,3.79334118 C92.5797315,3.01792941 93.2019507,2.62969412 94.0574575,2.62969412 C94.2618959,2.62969412 94.4228822,2.65651765 94.5411288,2.70875294 L94.5222521,3.36945882 Z" id="Fill-92"></path>
                        <path d="M97.8863315,8.2662 L99.8185233,2.75149412 L100.60814,2.75149412 L97.7823315,10.4240824 L97.6355918,10.7639647 C97.2723041,11.5594941 96.7120575,11.9572588 95.9534274,11.9572588 C95.7781945,11.9572588 95.5904959,11.9290235 95.3906877,11.8722 L95.384989,11.2729059 L95.7635918,11.3085529 C96.1222493,11.3085529 96.4128795,11.2213765 96.635126,11.0452588 C96.8573726,10.8698471 97.0457836,10.5673765 97.2007151,10.1389059 L97.525537,9.25443529 L95.0298932,2.75149412 L95.8309068,2.75149412 L97.8863315,8.2662 Z" id="Fill-93"></path>
                    </g>
                </g>
            </g>
        </g>
    </g>
</svg>