<?xml version="1.0" encoding="UTF-8"?>
<svg width="105px" height="35px" viewBox="0 0 105 35" version="1.1" xmlns="http://www.w3.org/2000/svg" xmlns:xlink="http://www.w3.org/1999/xlink">
    <!-- Generator: Sketch 55 (78076) - https://sketchapp.com -->
    <title>logo_gpcl_white</title>
    <desc>Created with Sketch.</desc>
    <defs>
        <polygon id="path-1" points="0.0917945444 0.189379132 6.77730661 0.189379132 6.77730661 3.28829863 0.0917945444 3.28829863"></polygon>
        <polygon id="path-3" points="0 0.0399168838 2.07948949 0.0399168838 2.07948949 2.70853496 0 2.70853496"></polygon>
    </defs>
    <g id="Symbols" stroke="none" stroke-width="1" fill="none" fill-rule="evenodd">
        <g id="menu-main" transform="translate(-80.000000, -75.000000)">
            <g id="menu">
                <g id="top2" transform="translate(80.000000, 75.000000)">
                    <g id="logo_gpcl_white">
                        <path d="M22.5439812,8.92678454 L16.6217777,8.92678454 C13.4557496,8.92678454 10.8791609,11.6408743 10.8791609,14.7882366 C10.8791609,17.9366324 13.5204631,20.5737303 16.6877908,20.5737303 C16.7036443,20.5737303 20.1506178,20.4825286 20.1176113,22.3951804 C20.0978593,23.5828691 16.2870343,26.0628832 16.2870343,26.0628832 L16.2870343,28.2809184 C16.2870343,28.2809184 21.8399285,25.0829172 22.3724512,22.5700912 C22.8524753,20.3014171 20.6095905,19.5671531 20.2376823,19.3850081 C21.5431296,18.3368347 22.3724512,16.5505218 22.3724512,14.7577499 C22.3724512,13.2920639 21.804323,12.2196045 20.887677,10.7562438 L22.5439812,10.7562438 L22.5439812,8.92678454 Z M16.6217777,18.4872012 C14.5543213,18.4872012 12.8715079,16.8150842 12.8715079,14.7590417 C12.8715079,12.7032576 14.5543213,11.0308823 16.6217777,11.0308823 C18.689494,11.0308823 20.3723073,12.7032576 20.3723073,14.7590417 C20.3723073,16.8150842 18.689494,18.4872012 16.6217777,18.4872012 L16.6217777,18.4872012 Z" id="Fill-1" fill="#FFFFFF"></path>
                        <path d="M6.99881422,6.33851695 C7.34161435,6.02331567 7.700268,5.72594134 8.07087678,5.44226019 L6.87744375,3.81664832 C6.43172562,4.15458544 6.00316049,4.51422494 5.59174836,4.89272484 L6.99881422,6.33851695 Z" id="Fill-3" fill="#FFFFFF"></path>
                        <path d="M8.66502035,5.01025358 C9.04602488,4.746983 9.44028401,4.49998921 9.84649826,4.27108073 L8.8906083,2.49716925 C8.40252745,2.77103266 7.92926056,3.06711518 7.47288678,3.38464171 L8.66502035,5.01025358 Z" id="Fill-5" fill="#FFFFFF"></path>
                        <path d="M5.20240123,8.29653699 C5.59536088,7.78782279 6.01742866,7.30287786 6.46964414,6.84712781 L5.06257828,5.40004389 C4.52589726,5.93821132 4.02742066,6.5104825 3.56454953,7.11298201 L5.20240123,8.29653699 Z" id="Fill-7" fill="#FFFFFF"></path>
                        <path d="M2.1292072,15.8408797 C2.22017009,15.0536516 2.37194816,14.2837337 2.57882374,13.5370684 L0.640274744,12.9570463 C0.395194746,13.8318591 0.217167388,14.7330247 0.112949912,15.6574429 L2.1292072,15.8408797 Z" id="Fill-9" fill="#FFFFFF"></path>
                        <path d="M3.91699172,10.2517667 C4.17688567,9.78077333 4.46302892,9.32631508 4.7689241,8.88839199 L3.13237187,7.70483701 C2.76566151,8.22621093 2.42416085,8.76670362 2.1169662,9.32915706 L3.91699172,10.2517667 Z" id="Fill-11" fill="#FFFFFF"></path>
                        <path d="M2.79126106,12.8366498 C3.01139124,12.1708516 3.27258466,11.5239139 3.57847985,10.9022957 L1.77975379,9.97942764 C1.4185012,10.711108 1.10870761,11.4722416 0.851412592,12.2568861 L2.79126106,12.8366498 Z" id="Fill-13" fill="#FFFFFF"></path>
                        <path d="M10.4943099,3.92443683 C11.653437,3.33976429 12.8954702,2.89538215 14.1983186,2.61660987 L13.8186135,0.638075909 C12.3114885,0.957152618 10.8753145,1.47232586 9.53816007,2.15104207 L10.4943099,3.92443683 Z" id="Fill-15" fill="#FFFFFF"></path>
                        <path d="M29.5187293,27.1304337 C28.6865488,28.1698229 27.725461,29.1030254 26.6533984,29.897746 L27.8216217,31.539893 C29.0626154,30.6245175 30.1754813,29.5471491 31.1326707,28.3431836 L29.5187293,27.1304337 Z" id="Fill-17" fill="#FFFFFF"></path>
                        <path d="M14.542834,0.503676149 L14.922539,2.47988485 C15.4644179,2.39126678 16.0146134,2.32925997 16.5749448,2.29773985 L16.5076323,0.284585421 C15.841784,0.320239337 15.1876309,0.395939317 14.542834,0.503676149" id="Fill-19" fill="#FFFFFF"></path>
                        <path d="M32.8712053,17.6033458 C32.8712053,19.1579082 32.6352216,20.6582146 32.1998992,22.07352 L34.1238942,22.7062478 C34.6249697,21.0925206 34.8952594,19.3782907 34.8952594,17.6033458 C34.8952594,17.5806099 34.89396,17.5591659 34.89396,17.5361717 L32.8712053,17.587069 L32.8712053,17.6033458" id="Fill-21" fill="#FFFFFF"></path>
                        <path d="M33.8499919,11.6890329 L31.9605629,12.4158044 C32.4681358,13.8135412 32.7766299,15.304805 32.8517393,16.855492 L34.8760533,16.8048531 C34.7928872,15.0159566 34.438132,13.298368 33.8499919,11.6890329" id="Fill-23" fill="#FFFFFF"></path>
                        <path d="M29.0711399,7.54224998 C30.1577565,8.7816111 31.0491928,10.1932995 31.6939897,11.7339103 L33.5821192,11.008689 C32.84506,9.23374408 31.8192586,7.60813222 30.5652702,6.1853343 L29.0711399,7.54224998 Z" id="Fill-25" fill="#FFFFFF"></path>
                        <path d="M23.8151485,3.64424356 C25.6125751,4.45704949 27.2239176,5.60288366 28.5743266,7.00165395 L30.068197,5.64577171 C28.5228676,4.03566154 26.6726825,2.72008373 24.6062657,1.79230684 L23.8151485,3.64424356 Z" id="Fill-27" fill="#FFFFFF"></path>
                        <path d="M22.7036081,34.1421638 L22.0536133,32.2370046 C20.9194361,32.590185 19.7299015,32.8128928 18.5011228,32.8953102 L18.5905264,34.9069144 C20.0147452,34.8144209 21.3929629,34.5550258 22.7036081,34.1421638" id="Fill-29" fill="#FFFFFF"></path>
                        <path d="M31.9684117,22.7678154 C31.4777319,24.1262813 30.7988889,25.3958707 29.9628101,26.5466138 L31.578051,27.7609138 C32.5445966,26.4352599 33.327917,24.9706074 33.8898077,23.4008016 L31.9684117,22.7678154 Z" id="Fill-31" fill="#FFFFFF"></path>
                        <path d="M26.0526535,30.3213558 C25.03205,31.0062727 23.924382,31.5733767 22.7507009,32.0012237 L23.4006956,33.9076747 C24.7617603,33.4154956 26.0432974,32.7595153 27.2221763,31.9632445 L26.0526535,30.3213558 Z" id="Fill-33" fill="#FFFFFF"></path>
                        <g id="Group-37" transform="translate(17.153001, 0.068983)">
                            <mask id="mask-2" fill="white">
                                <use xlink:href="#path-1"></use>
                            </mask>
                            <g id="Clip-36"></g>
                            <path d="M0.157547715,2.20576308 C0.203808838,2.20576308 0.248510598,2.20214601 0.294771722,2.20214601 C2.30427177,2.20214601 4.22306883,2.59072202 5.98463005,3.28829863 L6.77730661,1.43610355 C4.77144507,0.634665535 2.58521713,0.189249951 0.294771722,0.189249951 C0.226159718,0.189249951 0.158847184,0.194158823 0.0917945444,0.195708993 L0.157547715,2.20576308 Z" id="Fill-35" fill="#FFFFFF" mask="url(#mask-2)"></path>
                        </g>
                        <g id="Group-40" transform="translate(0.000000, 16.345770)">
                            <mask id="mask-4" fill="white">
                                <use xlink:href="#path-3"></use>
                            </mask>
                            <g id="Clip-39"></g>
                            <path d="M2.02413208,1.25757561 C2.02413208,0.909562391 2.03998561,0.566458044 2.06363596,0.223353696 L0.0473786677,0.0399168838 C0.0185304389,0.443736233 -0.000181925767,0.847555582 -0.000181925767,1.25757561 C-0.000181925767,1.74639596 0.0250277877,2.22979072 0.0658311384,2.70853496 L2.07948949,2.49693672 C2.04518349,2.08795014 2.02413208,1.67534649 2.02413208,1.25757561" id="Fill-38" fill="#FFFFFF" mask="url(#mask-4)"></path>
                        </g>
                        <path d="M17.7653631,32.9273212 C17.6598461,32.9299048 17.5543292,32.9350721 17.4475128,32.9350721 C16.4191124,32.9350721 15.412803,32.8322441 14.43976,32.640023 L13.9979403,34.6061556 C15.1134052,34.8288634 16.2673343,34.9477098 17.4475128,34.9477098 C17.5847368,34.9477098 17.7193618,34.9402173 17.8550265,34.9376336 L17.7653631,32.9273212 Z" id="Fill-41" fill="#FFFFFF"></path>
                        <path d="M2.72857464,22.1861141 C2.46218334,21.3430798 2.27246075,20.4695589 2.15498868,19.5707185 L0.142629802,19.7820584 C0.27465593,20.8302318 0.498684518,21.8507606 0.812636414,22.8330518 L2.72857464,22.1861141 Z" id="Fill-43" fill="#FFFFFF"></path>
                        <path d="M4.20355079,25.4493258 C3.71572984,24.6378116 3.29756047,23.7782422 2.96515611,22.8794019 L1.04791841,23.5263396 C1.43308125,24.5758048 1.91700379,25.5772148 2.48929028,26.5204934 L4.20355079,25.4493258 Z" id="Fill-45" fill="#FFFFFF"></path>
                        <path d="M9.7162654,30.861306 C8.73906413,30.2954938 7.82787593,29.6284039 7.00245274,28.8714041 L5.59564677,30.3169379 C6.55153673,31.1982096 7.60774575,31.972778 8.74322244,32.6261748 L9.7162654,30.861306 Z" id="Fill-47" fill="#FFFFFF"></path>
                        <path d="M6.47291881,28.3625865 C5.77666291,27.6601011 5.14771954,26.8930252 4.59648446,26.0688513 L2.88352341,27.1384688 C3.52182296,28.099316 4.25238487,28.9955727 5.06585294,29.8096705 L6.47291881,28.3625865 Z" id="Fill-49" fill="#FFFFFF"></path>
                        <path d="M13.7215431,32.4802263 C12.5411048,32.1877608 11.4162837,31.7599138 10.3616341,31.2142539 L9.38833121,32.9791227 C10.6082734,33.6131424 11.9124213,34.1097136 13.2797234,34.4437752 L13.7215431,32.4802263 Z" id="Fill-51" fill="#FFFFFF"></path>
                        <text id="GPC-Laboratory" font-family="Roboto-Medium, Roboto" font-size="13.121999" font-weight="400" line-spacing="14.5799988" fill="#FFFFFF">
                            <tspan x="40.8239968" y="16.9159998">GPC</tspan>
                            <tspan x="40.8239968" y="31.4959986">Laboratory</tspan>
                        </text>
                    </g>
                </g>
            </g>
        </g>
    </g>
</svg>