<?xml version="1.0" encoding="utf-8"?>
<!-- Generator: Adobe Illustrator 21.0.0, SVG Export Plug-In . SVG Version: 6.00 Build 0)  -->
<svg version="1.1" id="Layer_1" xmlns="http://www.w3.org/2000/svg" xmlns:xlink="http://www.w3.org/1999/xlink" x="0px" y="0px"
	 viewBox="0 0 47.2 47" style="enable-background:new 0 0 47.2 47;" xml:space="preserve">
<style type="text/css">
	g{fill:#0BA6BF;}
	.st1{fill:none;}
</style>
<title>logo_azure</title>
<desc>Created with Sketch.</desc>
<g id="Symbols">
	<g id="bottom" transform="translate(-32.000000, -32.000000)">
		<g id="logo_azure">
			<g transform="translate(32.000000, 32.000000)">
				<g id="Group">
					<path id="Shape" className="st0" d="M22.6,24.7c-2.8,0-5-2.3-5-5s2.3-5,5-5s5,2.3,5,5S25.4,24.7,22.6,24.7L22.6,24.7z M30.6,11.7
						h-8c-4.3,0-7.7,3.7-7.7,7.9s3.6,7.8,7.8,7.8c0,0,4.7-0.1,4.6,2.5c0,1.6-5.2,5-5.2,5v3c0,0,7.5-4.3,8.2-7.7
						c0.7-3.1-2.4-4.1-2.9-4.3c1.8-1.4,2.9-3.8,2.9-6.3c0-2-0.8-3.4-2-5.4h2.2V11.7L30.6,11.7z"/>
					<path id="Path" className="st0" d="M9.6,8.2c0.5-0.4,0.9-0.8,1.5-1.2L9.5,4.8C8.9,5.3,8.3,5.8,7.7,6.3L9.6,8.2z"/>
					<path id="Path_1_" className="st0" d="M11.9,6.4c0.5-0.4,1.1-0.7,1.6-1L12.2,3c-0.7,0.4-1.3,0.8-1.9,1.2L11.9,6.4z"/>
					<path id="Path_2_" className="st0" d="M7.2,10.9c0.5-0.7,1.1-1.3,1.7-2L7,7C6.3,7.7,5.6,8.5,5,9.3L7.2,10.9z"/>
					<path id="Path_3_" className="st0" d="M3.1,21.1C3.2,20.1,3.4,19,3.7,18l-2.6-0.8c-0.3,1.2-0.6,2.4-0.7,3.6L3.1,21.1z"/>
					<path id="Path_4_" className="st0" d="M5.5,13.5c0.3-0.6,0.7-1.3,1.1-1.9l-2.2-1.6c-0.5,0.7-0.9,1.5-1.4,2.2L5.5,13.5z"/>
					<path id="Path_5_" className="st0" d="M4,17c0.3-0.9,0.7-1.8,1.1-2.6l-2.4-1.3c-0.5,1-0.9,2-1.3,3.1L4,17z"/>
					<path id="Path_6_" className="st0" d="M14.3,5c1.6-0.8,3.2-1.4,5-1.8l-0.5-2.7c-2,0.4-4,1.1-5.8,2.1L14.3,5z"/>
					<path id="Path_7_" className="st0" d="M39.9,36.4c-1.1,1.4-2.4,2.7-3.9,3.8l1.6,2.2c1.7-1.2,3.2-2.7,4.5-4.3L39.9,36.4z"/>
					<path id="Path_8_" className="st0" d="M19.8,0.3L20.3,3c0.7-0.1,1.5-0.2,2.2-0.3L22.4,0C21.5,0.1,20.6,0.2,19.8,0.3"/>
					<path id="Path_9_" className="st0" d="M44.4,23.5c0,2.1-0.3,4.1-0.9,6.1l2.6,0.9c0.7-2.2,1-4.5,1-6.9c0,0,0-0.1,0-0.1L44.4,23.5
						L44.4,23.5"/>
					<path id="Path_10_" className="st0" d="M45.8,15.5l-2.5,1c0.7,1.9,1.1,3.9,1.2,6l2.7-0.1C47,20,46.6,17.7,45.8,15.5"/>
					<path id="Path_11_" className="st0" d="M39.4,9.9c1.5,1.7,2.7,3.6,3.5,5.7l2.5-1c-1-2.4-2.4-4.6-4.1-6.5L39.4,9.9z"/>
					<path id="Path_12_" className="st0" d="M32.3,4.6c2.4,1.1,4.6,2.6,6.4,4.6l2-1.9c-2.1-2.2-4.6-4-7.3-5.2L32.3,4.6z"/>
					<path id="Path_13_" className="st0" d="M30.8,45.9l-0.9-2.6c-1.5,0.5-3.1,0.8-4.8,0.9l0.1,2.7C27.1,46.8,29,46.5,30.8,45.9"/>
					<path id="Path_14_" className="st0" d="M43.3,30.5c-0.7,1.9-1.6,3.6-2.7,5.1l2.2,1.7c1.3-1.8,2.4-3.8,3.1-5.9L43.3,30.5z"/>
					<path id="Path_15_" className="st0" d="M35.3,40.7c-1.4,0.9-2.9,1.7-4.4,2.3l0.9,2.6c1.8-0.7,3.6-1.6,5.2-2.6L35.3,40.7z"/>
					<path id="Path_16_" className="st0" d="M23.5,2.7c0.1,0,0.1,0,0.2,0c2.7,0,5.3,0.5,7.7,1.5l1.1-2.5C29.7,0.6,26.8,0,23.7,0
						c-0.1,0-0.2,0-0.3,0L23.5,2.7z"/>
					<path id="Path_17_" className="st0" d="M2.9,23.5c0-0.5,0-0.9,0.1-1.4l-2.7-0.3c0,0.5-0.1,1.1-0.1,1.7c0,0.7,0,1.3,0.1,2L3,25.2
						C3,24.6,2.9,24.1,2.9,23.5"/>
					<path id="Path_18_" className="st0" d="M24.1,44.3c-0.1,0-0.3,0-0.4,0c-1.4,0-2.7-0.1-4-0.4L19,46.5c1.5,0.3,3,0.5,4.6,0.5
						c0.2,0,0.4,0,0.5,0L24.1,44.3z"/>
					<path id="Path_19_" className="st0" d="M3.9,29.7c-0.4-1.1-0.6-2.3-0.8-3.5l-2.7,0.3c0.2,1.4,0.5,2.8,0.9,4.1L3.9,29.7z"/>
					<path id="Path_20_" className="st0" d="M5.9,34.1c-0.7-1.1-1.2-2.3-1.7-3.5l-2.6,0.9c0.5,1.4,1.2,2.8,1.9,4L5.9,34.1z"/>
					<path id="Path_21_" className="st0" d="M13.3,41.5c-1.3-0.8-2.5-1.7-3.6-2.7l-1.9,2c1.3,1.2,2.7,2.3,4.2,3.1L13.3,41.5z"/>
					<path id="Path_22_" className="st0" d="M8.9,38.1c-0.9-0.9-1.8-2-2.5-3.1l-2.3,1.5C4.9,37.7,5.9,38.9,7,40L8.9,38.1z"/>
					<path id="Path_23_" className="st0" d="M18.7,43.7c-1.6-0.4-3.1-1-4.5-1.7l-1.3,2.4c1.7,0.9,3.4,1.5,5.2,2L18.7,43.7z"/>
				</g>
			</g>
		</g>
	</g>
</g>
</svg>
