<?xml version="1.0" encoding="UTF-8"?>
<svg width="131px" height="48px" viewBox="0 0 131 48" version="1.1" xmlns="http://www.w3.org/2000/svg" xmlns:xlink="http://www.w3.org/1999/xlink">
    <!-- Generator: Sketch 55 (78076) - https://sketchapp.com -->
    <title>logo_white</title>
    <desc>Created with Sketch.</desc>
    <g id="Symbols" stroke="none" stroke-width="1" fill="none" fill-rule="evenodd">
        <g id="menu-internal" transform="translate(-82.000000, -68.000000)" fill="#FFFFFF" fill-rule="nonzero">
            <g id="top2">
                <g transform="translate(0.000000, 42.000000)">
                    <g id="logo_white" transform="translate(82.000000, 26.000000)">
                        <g id="Group">
                            <path d="M22.9301205,25.2218182 C20.0963855,25.2218182 17.8120482,22.8945455 17.8120482,20.0727273 C17.8120482,17.2509091 20.1253012,14.9236364 22.9301205,14.9236364 C25.7349398,14.9236364 28.0481928,17.2218182 28.0481928,20.0727273 C28.0481928,22.9236364 25.7638554,25.2218182 22.9301205,25.2218182 L22.9301205,25.2218182 Z M31.026506,11.9854545 L22.9301205,11.9854545 C18.5927711,11.9854545 15.0650602,15.7381818 15.0650602,20.1018182 C15.0650602,24.4654545 18.6795181,28.1018182 23.0168675,28.1018182 C23.0457831,28.1018182 27.7590361,27.9854545 27.7012048,30.6327273 C27.6722892,32.2909091 22.4674699,35.6945455 22.4674699,35.6945455 L22.4674699,38.7781818 C22.4674699,38.7781818 30.0722892,34.3563636 30.7951807,30.8654545 C31.460241,27.7236364 28.3951807,26.7054545 27.8746988,26.4436364 C29.6674699,24.9890909 30.7951807,22.5163636 30.7951807,20.0436364 C30.7951807,18.0072727 30.0144578,16.5236364 28.7710843,14.5163636 L31.026506,14.5163636 L31.026506,11.9854545 L31.026506,11.9854545 Z" id="Shape"></path>
                            <path d="M9.77349398,8.40727273 C10.2361446,7.97090909 10.7277108,7.56363636 11.2481928,7.15636364 L9.62891566,4.91636364 C9.02168675,5.38181818 8.44337349,5.87636364 7.86506024,6.4 L9.77349398,8.40727273 Z" id="Path"></path>
                            <path d="M12.0578313,6.57454545 C12.5783133,6.19636364 13.1277108,5.87636364 13.6771084,5.55636364 L12.3759036,3.11272727 C11.7108434,3.49090909 11.0746988,3.89818182 10.4385542,4.33454545 L12.0578313,6.57454545 Z" id="Path"></path>
                            <path d="M7.31566265,11.1418182 C7.86506024,10.4436364 8.44337349,9.77454545 9.05060241,9.13454545 L7.14216867,7.12727273 C6.41927711,7.88363636 5.7253012,8.66909091 5.08915663,9.48363636 L7.31566265,11.1418182 Z" id="Path"></path>
                            <path d="M3.12289157,21.5563636 C3.23855422,20.48 3.44096386,19.4036364 3.73012048,18.3563636 L1.06987952,17.5418182 C0.722891566,18.7636364 0.491566265,19.9854545 0.346987952,21.2654545 L3.12289157,21.5563636 Z" id="Path"></path>
                            <path d="M5.55180723,13.8181818 C5.89879518,13.1781818 6.30361446,12.5381818 6.70843373,11.9272727 L4.48192771,10.2981818 C3.99036145,11.0254545 3.52771084,11.7818182 3.0939759,12.5381818 L5.55180723,13.8181818 Z" id="Path"></path>
                            <path d="M4.01927711,17.3963636 C4.30843373,16.4654545 4.68433735,15.5927273 5.08915663,14.72 L2.6313253,13.44 C2.13975904,14.4581818 1.7060241,15.5054545 1.35903614,16.5818182 L4.01927711,17.3963636 Z" id="Path"></path>
                            <path d="M14.5445783,5.06181818 C16.1349398,4.24727273 17.8409639,3.63636364 19.6048193,3.25818182 L19.0843373,0.523636364 C17.0313253,0.96 15.0650602,1.68727273 13.2433735,2.61818182 L14.5445783,5.06181818 Z" id="Path"></path>
                            <path d="M40.5686747,37.1781818 C39.4409639,38.6036364 38.1108434,39.9127273 36.6361446,41.0181818 L38.226506,43.2872727 C39.9325301,42.0363636 41.4361446,40.5236364 42.7662651,38.8654545 L40.5686747,37.1781818 Z" id="Path"></path>
                            <path d="M20.0963855,0.349090909 L20.6168675,3.08363636 C21.3686747,2.96727273 22.1204819,2.88 22.8722892,2.82181818 L22.7855422,0.0290909091 C21.860241,0.0872727273 20.9638554,0.203636364 20.0963855,0.349090909" id="Path"></path>
                            <path d="M45.1373494,24 C45.1373494,26.1527273 44.8192771,28.2181818 44.2120482,30.1963636 L46.8433735,31.0690909 C47.5373494,28.8290909 47.8843373,26.4727273 47.8843373,24 C47.8843373,23.9709091 47.8843373,23.9418182 47.8843373,23.9127273 L45.1373494,24 L45.1373494,24" id="Path"></path>
                            <path d="M46.4963855,15.8254545 L43.9228916,16.8436364 C44.6168675,18.7636364 45.0506024,20.8290909 45.1373494,22.9818182 L47.913253,22.9236364 C47.7686747,20.4218182 47.2771084,18.0363636 46.4963855,15.8254545" id="Path"></path>
                            <path d="M39.9614458,10.0945455 C41.4361446,11.8109091 42.6795181,13.76 43.546988,15.8836364 L46.1204819,14.8654545 C45.1084337,12.4218182 43.7204819,10.1527273 41.9855422,8.20363636 L39.9614458,10.0945455 Z" id="Path"></path>
                            <path d="M32.7614458,4.68363636 C35.2192771,5.81818182 37.4168675,7.38909091 39.2674699,9.33818182 L41.3204819,7.44727273 C39.2096386,5.20727273 36.6650602,3.40363636 33.860241,2.12363636 L32.7614458,4.68363636 Z" id="Path"></path>
                            <path d="M31.2578313,46.8945455 L30.3614458,44.2472727 C28.8,44.7418182 27.1807229,45.0327273 25.5036145,45.1490909 L25.6192771,47.9418182 C27.5566265,47.8254545 29.4650602,47.4472727 31.2578313,46.8945455" id="Path"></path>
                            <path d="M43.9228916,31.1563636 C43.2578313,33.0472727 42.3325301,34.7927273 41.1759036,36.3927273 L43.373494,38.08 C44.7036145,36.2472727 45.773494,34.2109091 46.5253012,32.0581818 L43.9228916,31.1563636 Z" id="Path"></path>
                            <path d="M35.826506,41.6 C34.4385542,42.56 32.9060241,43.3454545 31.3156627,43.9272727 L32.2120482,46.5745455 C34.0626506,45.9054545 35.826506,44.9745455 37.4457831,43.8690909 L35.826506,41.6 Z" id="Path"></path>
                            <path d="M23.8843373,2.79272727 C23.9421687,2.79272727 24,2.79272727 24.086747,2.79272727 C26.8337349,2.79272727 29.4650602,3.31636364 31.8650602,4.30545455 L32.9349398,1.74545455 C30.1879518,0.610909091 27.1807229,0 24.0578313,0 C23.9710843,0 23.8843373,0 23.7686747,0 L23.8843373,2.79272727 Z" id="Path"></path>
                            <path d="M2.97831325,24 C2.97831325,23.5054545 3.00722892,23.04 3.03614458,22.5745455 L0.289156627,22.3127273 C0.260240964,22.8654545 0.231325301,23.4181818 0.231325301,24 C0.231325301,24.6690909 0.260240964,25.3381818 0.318072289,26.0072727 L3.06506024,25.7163636 C3.00722892,25.1636364 2.97831325,24.5818182 2.97831325,24" id="Path"></path>
                            <path d="M24.4915663,45.2072727 C24.346988,45.2072727 24.2024096,45.2072727 24.0578313,45.2072727 C22.6409639,45.2072727 21.2819277,45.0618182 19.9518072,44.8 L19.3445783,47.5345455 C20.8771084,47.8545455 22.4385542,48 24.0578313,48 C24.260241,48 24.4337349,48 24.6072289,48 L24.4915663,45.2072727 Z" id="Path"></path>
                            <path d="M3.93253012,30.3418182 C3.55662651,29.1781818 3.29638554,27.9563636 3.15180723,26.7345455 L0.404819277,27.0254545 C0.578313253,28.48 0.896385542,29.8763636 1.33012048,31.2436364 L3.93253012,30.3418182 Z" id="Path"></path>
                            <path d="M5.95662651,34.8509091 C5.29156627,33.7163636 4.71325301,32.5236364 4.27951807,31.3018182 L1.64819277,32.2036364 C2.1686747,33.6581818 2.83373494,35.0545455 3.61445783,36.3345455 L5.95662651,34.8509091 Z" id="Path"></path>
                            <path d="M13.5036145,42.3563636 C12.173494,41.5709091 10.9301205,40.64 9.80240964,39.5927273 L7.8939759,41.6 C9.19518072,42.8218182 10.6409639,43.8981818 12.2024096,44.8 L13.5036145,42.3563636 Z" id="Path"></path>
                            <path d="M9.05060241,38.8945455 C8.09638554,37.9345455 7.22891566,36.8581818 6.47710843,35.7236364 L4.13493976,37.2072727 C5.00240964,38.5454545 6.01445783,39.7672727 7.11325301,40.9018182 L9.05060241,38.8945455 Z" id="Path"></path>
                            <path d="M18.9686747,44.5963636 C17.3493976,44.1890909 15.8168675,43.6072727 14.3710843,42.8509091 L13.0409639,45.2945455 C14.7180723,46.1672727 16.4819277,46.8654545 18.3614458,47.3309091 L18.9686747,44.5963636 Z" id="Path"></path>
                        </g>
                        <g id="Group" transform="translate(52.000000, 1.000000)">
                            <path d="M10.2571429,11.0217391 C9.8,11.5586957 9.17142857,11.9826087 8.31428571,12.2652174 C7.48571429,12.5478261 6.54285714,12.7173913 5.57142857,12.7173913 C4.51428571,12.7173913 3.6,12.4913043 2.77142857,12.0391304 C1.97142857,11.5869565 1.37142857,10.9086957 0.914285714,10.0608696 C0.457142857,9.18478261 0.257142857,8.1673913 0.257142857,7.00869565 L0.257142857,6.18913043 C0.257142857,5.00217391 0.457142857,3.92826087 0.885714286,3.05217391 C1.31428571,2.17608696 1.91428571,1.49782609 2.65714286,1.0173913 C3.42857143,0.565217391 4.34285714,0.310869565 5.37142857,0.310869565 C6.82857143,0.310869565 7.97142857,0.65 8.8,1.32826087 C9.62857143,2.00652174 10.1142857,3.02391304 10.2571429,4.32391304 L7.8,4.32391304 C7.68571429,3.64565217 7.42857143,3.13695652 7.05714286,2.79782609 C6.65714286,2.48695652 6.14285714,2.3173913 5.48571429,2.3173913 C4.62857143,2.3173913 3.97142857,2.62826087 3.54285714,3.27826087 C3.11428571,3.92826087 2.88571429,4.86086957 2.88571429,6.1326087 L2.88571429,6.92391304 C2.88571429,8.19565217 3.14285714,9.15652174 3.62857143,9.80652174 C4.11428571,10.4565217 4.82857143,10.7956522 5.77142857,10.7956522 C6.71428571,10.7956522 7.4,10.5978261 7.8,10.2021739 L7.8,8.11086957 L5.48571429,8.11086957 L5.48571429,6.2173913 L10.3142857,6.2173913 L10.2571429,11.0217391 L10.2571429,11.0217391 Z" id="Path"></path>
                            <path d="M16.3142857,12.7456522 C14.9714286,12.7456522 13.8857143,12.3217391 13.0571429,11.5304348 C12.2285714,10.7108696 11.8,9.63695652 11.8,8.30869565 L11.8,8.05434783 C11.8,7.15 11.9714286,6.33043478 12.3142857,5.62391304 C12.6571429,4.9173913 13.1714286,4.35217391 13.8285714,3.98478261 C14.4857143,3.58913043 15.2285714,3.39130435 16.0571429,3.39130435 C17.2857143,3.39130435 18.2857143,3.78695652 19,4.57826087 C19.7142857,5.36956522 20.0571429,6.47173913 20.0571429,7.88478261 L20.0571429,8.87391304 L14.2571429,8.87391304 C14.3428571,9.4673913 14.5714286,9.91956522 14.9714286,10.2869565 C15.3714286,10.6543478 15.8571429,10.823913 16.4857143,10.823913 C17.4285714,10.823913 18.1428571,10.4847826 18.6857143,9.80652174 L19.8857143,11.1347826 C19.5142857,11.6434783 19.0285714,12.0391304 18.4,12.3217391 C17.8,12.576087 17.0857143,12.7456522 16.3142857,12.7456522 Z M16.0571429,5.31304348 C15.6,5.31304348 15.2,5.4826087 14.8857143,5.79347826 C14.5714286,6.10434783 14.4,6.58478261 14.3142857,7.17826087 L17.7142857,7.17826087 L17.7142857,6.98043478 C17.7142857,6.44347826 17.5714286,6.01956522 17.2571429,5.73695652 C16.9714286,5.45434783 16.5714286,5.31304348 16.0571429,5.31304348 Z" id="Shape"></path>
                            <path d="M23.7142857,3.56086957 L23.8,4.60652174 C24.4571429,3.78695652 25.3142857,3.41956522 26.4285714,3.41956522 C27.4,3.41956522 28.1142857,3.70217391 28.5714286,4.23913043 C29.0285714,4.80434783 29.2857143,5.62391304 29.2857143,6.75434783 L29.2857143,12.576087 L26.8571429,12.576087 L26.8571429,6.81086957 C26.8571429,6.30217391 26.7428571,5.93478261 26.5142857,5.70869565 C26.2857143,5.4826087 25.9142857,5.36956522 25.4,5.36956522 C24.7142857,5.36956522 24.2,5.65217391 23.8571429,6.2173913 L23.8571429,12.5478261 L21.4285714,12.5478261 L21.4285714,3.56086957 L23.7142857,3.56086957 Z" id="Path"></path>
                            <path d="M30.7428571,7.96956522 C30.7428571,7.09347826 30.9142857,6.27391304 31.2571429,5.59565217 C31.6,4.88913043 32.0857143,4.35217391 32.7714286,3.98478261 C33.4285714,3.58913043 34.1714286,3.41956522 35.0571429,3.41956522 C36.2857143,3.41956522 37.2857143,3.78695652 38.0857143,4.55 C38.8857143,5.31304348 39.2857143,6.30217391 39.4,7.57391304 L39.4285714,8.19565217 C39.4285714,9.58043478 39.0285714,10.6826087 38.2571429,11.5304348 C37.4857143,12.3782609 36.4285714,12.773913 35.1142857,12.773913 C33.8,12.773913 32.7714286,12.35 31.9714286,11.5304348 C31.1714286,10.7108696 30.8,9.58043478 30.8,8.13913043 L30.7428571,7.96956522 L30.7428571,7.96956522 Z M33.1714286,8.1673913 C33.1714286,9.01521739 33.3428571,9.69347826 33.6571429,10.1173913 C33.9714286,10.5695652 34.4571429,10.7956522 35.0571429,10.7956522 C35.6571429,10.7956522 36.0857143,10.5695652 36.4571429,10.1456522 C36.7714286,9.69347826 36.9428571,8.95869565 36.9428571,7.99782609 C36.9428571,7.17826087 36.7714286,6.5 36.4571429,6.04782609 C36.1428571,5.59565217 35.6571429,5.36956522 35.0571429,5.36956522 C34.4571429,5.36956522 34,5.59565217 33.6571429,6.04782609 C33.3428571,6.47173913 33.1714286,7.17826087 33.1714286,8.1673913 Z" id="Shape"></path>
                            <path d="M43.1428571,3.56086957 L43.2285714,4.57826087 C43.8857143,3.78695652 44.7428571,3.39130435 45.8571429,3.39130435 C47.0285714,3.39130435 47.8285714,3.84347826 48.2571429,4.77608696 C48.9142857,3.87173913 49.8285714,3.39130435 50.9714286,3.39130435 C51.9714286,3.39130435 52.7142857,3.67391304 53.1714286,4.23913043 C53.6285714,4.80434783 53.8857143,5.65217391 53.8857143,6.81086957 L53.8857143,12.576087 L51.4571429,12.576087 L51.4571429,6.81086957 C51.4571429,6.30217391 51.3714286,5.93478261 51.1714286,5.68043478 C50.9714286,5.42608696 50.6285714,5.31304348 50.1142857,5.31304348 C49.4,5.31304348 48.8857143,5.65217391 48.6,6.33043478 L48.6,12.4913043 L46.1714286,12.4913043 L46.1714286,6.83913043 C46.1714286,6.33043478 46.0857143,5.93478261 45.8571429,5.70869565 C45.6571429,5.45434783 45.2857143,5.36956522 44.8,5.36956522 C44.1142857,5.36956522 43.6,5.65217391 43.3142857,6.2173913 L43.3142857,12.576087 L40.8571429,12.576087 L40.8571429,3.5326087 L43.1428571,3.5326087 L43.1428571,3.56086957 Z" id="Path"></path>
                            <path d="M55.7714286,1.21521739 C55.7714286,0.847826087 55.8857143,0.565217391 56.1428571,0.339130435 C56.4,0.0847826087 56.7142857,1.77635684e-15 57.1428571,1.77635684e-15 C57.5714286,1.77635684e-15 57.8857143,0.113043478 58.1428571,0.339130435 C58.4,0.593478261 58.5142857,0.876086957 58.5142857,1.21521739 C58.5142857,1.5826087 58.4,1.86521739 58.1428571,2.11956522 C57.8857143,2.37391304 57.5714286,2.45869565 57.1428571,2.45869565 C56.7142857,2.45869565 56.4,2.34565217 56.1428571,2.11956522 C55.8857143,1.89347826 55.7714286,1.5826087 55.7714286,1.21521739 Z M58.3428571,12.576087 L55.9142857,12.576087 L55.9142857,3.56086957 L58.3428571,3.56086957 L58.3428571,12.576087 Z" id="Shape"></path>
                            <path d="M64.1428571,10.7673913 C64.6,10.7673913 64.9714286,10.6543478 65.2285714,10.4 C65.5142857,10.1456522 65.6571429,9.83478261 65.6857143,9.41086957 L67.9714286,9.41086957 C67.9714286,10.0326087 67.8,10.5978261 67.4857143,11.0782609 C67.1714286,11.5869565 66.6857143,11.9826087 66.1142857,12.2652174 C65.5428571,12.5478261 64.9142857,12.6891304 64.2,12.6891304 C62.8857143,12.6891304 61.8857143,12.2652174 61.1428571,11.473913 C60.4,10.6826087 60,9.52391304 60,8.0826087 L60,7.94130435 C60,6.55652174 60.3714286,5.45434783 61.1142857,4.60652174 C61.8571429,3.78695652 62.8857143,3.36304348 64.1714286,3.36304348 C65.3142857,3.36304348 66.2285714,3.67391304 66.9142857,4.32391304 C67.6,4.97391304 67.9428571,5.82173913 67.9428571,6.8673913 L65.6571429,6.8673913 C65.6571429,6.41521739 65.5142857,6.01956522 65.2,5.70869565 C64.9142857,5.42608696 64.5428571,5.25652174 64.0857143,5.25652174 C63.5142857,5.25652174 63.0857143,5.45434783 62.8,5.87826087 C62.5142857,6.30217391 62.3428571,6.95217391 62.3428571,7.85652174 L62.3428571,8.11086957 C62.3428571,9.04347826 62.4857143,9.69347826 62.7714286,10.1173913 C63.1142857,10.5695652 63.5714286,10.7673913 64.1428571,10.7673913 Z" id="Path"></path>
                        </g>
                        <g id="Group" transform="translate(53.000000, 17.000000)">
                            <path d="M2.52352941,9.05531915 L2.52352941,13.5531915 L0,13.5531915 L0,0.804255319 L4.78897059,0.804255319 C5.70661765,0.804255319 6.53823529,0.982978723 7.22647059,1.3106383 C7.91470588,1.66808511 8.45955882,2.17446809 8.83235294,2.8 C9.20514706,3.42553191 9.40588235,4.2 9.40588235,5.03404255 C9.40588235,6.28510638 8.97573529,7.26808511 8.17279412,8.01276596 C7.36985294,8.75744681 6.22279412,9.08510638 4.73161765,9.08510638 L2.52352941,9.05531915 L2.52352941,9.05531915 Z M2.52352941,6.94042553 L4.78897059,6.94042553 C5.44852941,6.94042553 5.99338235,6.79148936 6.3375,6.46382979 C6.68161765,6.13617021 6.85367647,5.65957447 6.85367647,5.06382979 C6.85367647,4.43829787 6.68161765,3.93191489 6.3375,3.54468085 C5.99338235,3.15744681 5.50588235,2.94893617 4.875,2.94893617 L2.55220588,2.94893617 L2.52352941,6.94042553 L2.52352941,6.94042553 Z" id="Shape"></path>
                            <path d="M16.1161765,6.46382979 C15.8007353,6.40425532 15.4852941,6.37446809 15.2558824,6.37446809 C14.3382353,6.37446809 13.7360294,6.70212766 13.4492647,7.35744681 L13.4492647,13.5829787 L11.0117647,13.5829787 L11.0117647,4.08085106 L13.3345588,4.08085106 L13.4205882,5.21276596 C13.9080882,4.34893617 14.5963235,3.90212766 15.4566176,3.90212766 C15.7433824,3.90212766 15.9727941,3.93191489 16.2308824,3.99148936 L16.1161765,6.46382979 Z" id="Path"></path>
                            <path d="M21.3352941,13.7319149 C19.9875,13.7319149 18.8977941,13.2851064 18.0661765,12.4510638 C17.2345588,11.587234 16.8044118,10.4553191 16.8044118,9.05531915 L16.8044118,8.78723404 C16.8044118,7.83404255 16.9764706,6.97021277 17.3205882,6.22553191 C17.6647059,5.48085106 18.1808824,4.88510638 18.8404412,4.49787234 C19.5,4.08085106 20.2455882,3.87234043 21.0772059,3.87234043 C22.3102941,3.87234043 23.3139706,4.2893617 24.0308824,5.12340426 C24.7477941,5.95744681 25.0919118,7.11914894 25.0919118,8.60851064 L25.0919118,9.65106383 L19.2705882,9.65106383 C19.3566176,10.2765957 19.5860294,10.7531915 19.9875,11.1404255 C20.3889706,11.5276596 20.8764706,11.706383 21.5073529,11.706383 C22.4536765,11.706383 23.1705882,11.3489362 23.7154412,10.6340426 L24.9198529,12.0340426 C24.5470588,12.5702128 24.0595588,12.987234 23.4286765,13.2851064 C22.7977941,13.612766 22.1095588,13.7319149 21.3352941,13.7319149 Z M21.0485294,5.95744681 C20.5897059,5.95744681 20.1882353,6.13617021 19.8727941,6.46382979 C19.5860294,6.79148936 19.3852941,7.29787234 19.2992647,7.92340426 L22.7117647,7.92340426 L22.7117647,7.71489362 C22.7117647,7.14893617 22.5683824,6.70212766 22.2529412,6.40425532 C21.9661765,6.10638298 21.5647059,5.95744681 21.0485294,5.95744681 Z" id="Shape"></path>
                            <path d="M26.0955882,8.75744681 C26.0955882,7.29787234 26.4110294,6.10638298 27.0705882,5.21276596 C27.7301471,4.34893617 28.5904412,3.90212766 29.6801471,3.90212766 C30.5691176,3.90212766 31.2860294,4.22978723 31.8882353,4.94468085 L31.8882353,0.119148936 L34.3544118,0.119148936 L34.3544118,13.5829787 L32.1463235,13.5829787 L32.0316176,12.5702128 C31.4294118,13.3744681 30.6264706,13.7617021 29.6801471,13.7617021 C28.6191176,13.7617021 27.7301471,13.3148936 27.0992647,12.4510638 C26.4110294,11.5574468 26.0955882,10.3361702 26.0955882,8.75744681 Z M28.5330882,8.93617021 C28.5330882,9.8 28.6764706,10.5148936 28.9919118,10.9617021 C29.3073529,11.4085106 29.7088235,11.6765957 30.2823529,11.6765957 C31.0279412,11.6765957 31.5727941,11.3489362 31.8595588,10.693617 L31.8595588,6.94042553 C31.5727941,6.25531915 31.0279412,5.95744681 30.2823529,5.95744681 C29.1352941,5.95744681 28.5330882,6.94042553 28.5330882,8.93617021 Z" id="Shape"></path>
                            <path d="M36.2183824,1.63829787 C36.2183824,1.25106383 36.3330882,0.953191489 36.5911765,0.714893617 C36.8492647,0.446808511 37.1647059,0.357446809 37.5948529,0.357446809 C38.025,0.357446809 38.3404412,0.476595745 38.5985294,0.714893617 C38.8566176,0.982978723 38.9713235,1.28085106 38.9713235,1.63829787 C38.9713235,2.02553191 38.8566176,2.32340426 38.5985294,2.59148936 C38.3404412,2.85957447 38.025,2.94893617 37.5948529,2.94893617 C37.1647059,2.94893617 36.8492647,2.82978723 36.5911765,2.59148936 C36.3330882,2.32340426 36.2183824,2.02553191 36.2183824,1.63829787 Z M38.7992647,13.5829787 L36.3617647,13.5829787 L36.3617647,4.08085106 L38.7992647,4.08085106 L38.7992647,13.5829787 Z" id="Shape"></path>
                            <path d="M44.6205882,11.706383 C45.0794118,11.706383 45.4522059,11.587234 45.7102941,11.3191489 C45.9970588,11.0510638 46.1404412,10.7234043 46.1691176,10.2765957 L48.4632353,10.2765957 C48.4632353,10.9319149 48.2911765,11.5276596 47.9757353,12.0340426 C47.6602941,12.5702128 47.1727941,12.987234 46.5992647,13.2851064 C46.0257353,13.5829787 45.3948529,13.7319149 44.6779412,13.7319149 C43.3588235,13.7319149 42.3551471,13.2851064 41.6095588,12.4510638 C40.8639706,11.587234 40.4625,10.3957447 40.4625,8.87659574 L40.4625,8.72765957 C40.4625,7.26808511 40.8352941,6.10638298 41.5808824,5.21276596 C42.3264706,4.31914894 43.3588235,3.90212766 44.6492647,3.90212766 C45.7963235,3.90212766 46.7139706,4.22978723 47.4022059,4.91489362 C48.0904412,5.6 48.4345588,6.49361702 48.4345588,7.59574468 L46.1404412,7.59574468 C46.1404412,7.11914894 45.9970588,6.70212766 45.6816176,6.37446809 C45.3948529,6.07659574 45.0220588,5.89787234 44.5632353,5.89787234 C43.9897059,5.89787234 43.5595588,6.10638298 43.2727941,6.55319149 C42.9860294,7 42.8139706,7.68510638 42.8139706,8.63829787 L42.8139706,8.90638298 C42.8139706,9.8893617 42.9573529,10.5744681 43.2441176,11.0212766 C43.5882353,11.4978723 44.0470588,11.706383 44.6205882,11.706383 Z" id="Path"></path>
                            <path d="M52.7647059,1.75744681 L52.7647059,4.08085106 L54.3419118,4.08085106 L54.3419118,5.95744681 L52.7647059,5.95744681 L52.7647059,10.693617 C52.7647059,11.0510638 52.8507353,11.2893617 52.9654412,11.4382979 C53.0801471,11.587234 53.3382353,11.6765957 53.7110294,11.6765957 C53.9977941,11.6765957 54.1985294,11.6468085 54.4279412,11.6170213 L54.4279412,13.5234043 C53.9691176,13.6723404 53.4529412,13.7617021 52.9654412,13.7617021 C51.2448529,13.7617021 50.3845588,12.8680851 50.3558824,11.0808511 L50.3558824,5.95744681 L49.0080882,5.95744681 L49.0080882,4.1106383 L50.3558824,4.1106383 L50.3558824,1.78723404 L52.7647059,1.75744681 L52.7647059,1.75744681 Z" id="Path"></path>
                            <path d="M55.6610294,1.63829787 C55.6610294,1.25106383 55.7757353,0.953191489 56.0338235,0.714893617 C56.2919118,0.446808511 56.6073529,0.357446809 57.0375,0.357446809 C57.4676471,0.357446809 57.7830882,0.476595745 58.0411765,0.714893617 C58.2992647,0.982978723 58.4139706,1.28085106 58.4139706,1.63829787 C58.4139706,2.02553191 58.2992647,2.32340426 58.0411765,2.59148936 C57.7830882,2.85957447 57.4676471,2.94893617 57.0375,2.94893617 C56.6073529,2.94893617 56.2919118,2.82978723 56.0338235,2.59148936 C55.8044118,2.32340426 55.6610294,2.02553191 55.6610294,1.63829787 Z M58.2419118,13.5829787 L55.8044118,13.5829787 L55.8044118,4.08085106 L58.2419118,4.08085106 L58.2419118,13.5829787 Z" id="Shape"></path>
                            <path d="M59.9051471,8.72765957 C59.9051471,7.80425532 60.0772059,6.94042553 60.4213235,6.22553191 C60.7654412,5.48085106 61.2529412,4.91489362 61.9411765,4.52765957 C62.6007353,4.1106383 63.3463235,3.93191489 64.2352941,3.93191489 C65.4683824,3.93191489 66.4720588,4.31914894 67.275,5.12340426 C68.0492647,5.89787234 68.4794118,6.97021277 68.5941176,8.3106383 L68.6227941,8.96595745 C68.6227941,10.4255319 68.2213235,11.587234 67.4470588,12.4808511 C66.6727941,13.3744681 65.6117647,13.7914894 64.2926471,13.7914894 C62.9735294,13.7914894 61.9411765,13.3446809 61.1382353,12.4808511 C60.3352941,11.6170213 59.9625,10.4255319 59.9625,8.90638298 L59.9625,8.75744681 L59.9051471,8.72765957 L59.9051471,8.72765957 Z M62.3426471,8.90638298 C62.3426471,9.8 62.5147059,10.5148936 62.8301471,10.9617021 C63.1455882,11.4382979 63.6330882,11.6765957 64.2352941,11.6765957 C64.8375,11.6765957 65.2676471,11.4382979 65.6404412,10.9914894 C65.9558824,10.5148936 66.1279412,9.74042553 66.1279412,8.72765957 C66.1279412,7.86382979 65.9558824,7.14893617 65.6404412,6.67234043 C65.325,6.19574468 64.8375,5.95744681 64.2352941,5.95744681 C63.6330882,5.95744681 63.1742647,6.19574468 62.8301471,6.67234043 C62.4860294,7.14893617 62.3426471,7.89361702 62.3426471,8.90638298 Z" id="Shape"></path>
                            <path d="M72.2933824,4.08085106 L72.3794118,5.18297872 C73.0389706,4.31914894 73.8992647,3.93191489 75.0176471,3.93191489 C75.9926471,3.93191489 76.7095588,4.22978723 77.1683824,4.79574468 C77.6272059,5.39148936 77.8852941,6.25531915 77.8852941,7.44680851 L77.8852941,13.5829787 L75.4477941,13.5829787 L75.4477941,7.53617021 C75.4477941,7 75.3330882,6.61276596 75.1036765,6.37446809 C74.8742647,6.13617021 74.5014706,6.01702128 73.9852941,6.01702128 C73.2970588,6.01702128 72.7808824,6.31489362 72.4367647,6.9106383 L72.4367647,13.5829787 L69.9992647,13.5829787 L69.9992647,4.05106383 L72.2933824,4.08085106 L72.2933824,4.08085106 Z" id="Path"></path>
                        </g>
                        <g id="Group" transform="translate(52.000000, 36.000000)">
                            <path d="M5.44927007,5.5 C5.36277372,6.23529412 5.10328467,6.82352941 4.6419708,7.20588235 C4.18065693,7.61764706 3.6040146,7.79411765 2.85437956,7.79411765 C2.33540146,7.79411765 1.87408759,7.67647059 1.47043796,7.41176471 C1.06678832,7.14705882 0.778467153,6.76470588 0.547810219,6.29411765 C0.317153285,5.82352941 0.230656934,5.23529412 0.230656934,4.64705882 L0.230656934,3.73529412 C0.230656934,3.08823529 0.317153285,2.52941176 0.547810219,2.05882353 C0.778467153,1.58823529 1.06678832,1.20588235 1.47043796,0.941176471 C1.87408759,0.676470588 2.33540146,0.529411765 2.88321168,0.529411765 C3.63284672,0.529411765 4.20948905,0.735294118 4.67080292,1.14705882 C5.10328467,1.55882353 5.33394161,2.11764706 5.42043796,2.85294118 L4.8149635,2.85294118 C4.67080292,1.64705882 4.00766423,1.02941176 2.88321168,1.02941176 C2.24890511,1.02941176 1.75875912,1.26470588 1.38394161,1.73529412 C1.00912409,2.20588235 0.80729927,2.88235294 0.80729927,3.73529412 L0.80729927,4.58823529 C0.80729927,5.41176471 0.980291971,6.05882353 1.35510949,6.55882353 C1.72992701,7.02941176 2.19124088,7.29411765 2.82554745,7.29411765 C3.45985401,7.29411765 3.89233577,7.14705882 4.23832117,6.82352941 C4.52664234,6.52941176 4.72846715,6.05882353 4.8149635,5.47058824 L5.44927007,5.5 L5.44927007,5.5 Z" id="Path"></path>
                            <polygon id="Path" points="7.3810219 7.70588235 6.80437956 7.70588235 6.80437956 0.205882353 7.3810219 0.205882353"></polygon>
                            <path d="M8.90912409,0.911764706 C8.90912409,0.823529412 8.94758563,0.705882353 9.0245087,0.617647059 C9.13989332,0.529411765 9.25527793,0.529411765 9.40912409,0.529411765 C9.56297024,0.529411765 9.7168164,0.558823529 9.79373947,0.617647059 C9.90912409,0.705882353 9.90912409,0.794117647 9.90912409,0.911764706 C9.90912409,1 9.87066255,1.11764706 9.79373947,1.20588235 C9.67835486,1.29411765 9.56297024,1.29411765 9.40912409,1.29411765 C9.25527793,1.29411765 9.10143178,1.26470588 9.0245087,1.20588235 C8.94758563,1.11764706 8.90912409,1.02941176 8.90912409,0.911764706 Z M9.79373947,7.70588235 L9.0245087,7.70588235 L9.0245087,2.44117647 L9.79373947,2.44117647 L9.79373947,7.70588235 Z" id="Shape"></path>
                            <path d="M11.6770073,2.41176471 L11.7058394,3.29411765 C11.9076642,2.97058824 12.1383212,2.70588235 12.4266423,2.55882353 C12.7149635,2.38235294 13.0321168,2.29411765 13.3781022,2.29411765 C13.9259124,2.29411765 14.3583942,2.44117647 14.6178832,2.76470588 C14.9062044,3.05882353 15.0215328,3.55882353 15.0215328,4.20588235 L15.0215328,7.67647059 L14.4448905,7.67647059 L14.4448905,4.20588235 C14.4448905,3.73529412 14.3583942,3.38235294 14.1565693,3.14705882 C13.9547445,2.91176471 13.6664234,2.79411765 13.2339416,2.79411765 C12.8879562,2.79411765 12.5708029,2.88235294 12.2824818,3.11764706 C11.9941606,3.35294118 11.8211679,3.64705882 11.6770073,4.02941176 L11.6770073,7.64705882 L11.100365,7.64705882 L11.100365,2.38235294 L11.6770073,2.41176471 L11.6770073,2.41176471 Z" id="Path"></path>
                            <path d="M16.4631387,0.911764706 C16.4631387,0.823529412 16.5016002,0.705882353 16.5785233,0.617647059 C16.6554464,0.529411765 16.8092925,0.529411765 16.9631387,0.529411765 C17.1169848,0.529411765 17.270831,0.558823529 17.3477541,0.617647059 C17.4631387,0.705882353 17.4631387,0.794117647 17.4631387,0.911764706 C17.4631387,1 17.4246771,1.11764706 17.3477541,1.20588235 C17.2323695,1.29411765 17.1169848,1.29411765 16.9631387,1.29411765 C16.8092925,1.29411765 16.6554464,1.26470588 16.5785233,1.20588235 C16.5016002,1.11764706 16.4631387,1.02941176 16.4631387,0.911764706 Z M17.3862156,7.70588235 L16.6169848,7.70588235 L16.6169848,2.44117647 L17.3862156,2.44117647 L17.3862156,7.70588235 Z" id="Shape"></path>
                            <path d="M20.6149635,7.32352941 C21.0186131,7.32352941 21.3357664,7.23529412 21.6240876,7 C21.9124088,6.76470588 22.0565693,6.47058824 22.0565693,6.11764706 L22.6043796,6.11764706 C22.5755474,6.44117647 22.4890511,6.73529412 22.3160584,7 C22.1430657,7.26470588 21.8835766,7.47058824 21.5952555,7.61764706 C21.3069343,7.76470588 20.9609489,7.85294118 20.6149635,7.85294118 C19.9518248,7.85294118 19.4040146,7.61764706 19.0291971,7.14705882 C18.6255474,6.67647059 18.4237226,6.02941176 18.4237226,5.20588235 L18.4237226,5 C18.4237226,4.5 18.510219,4.02941176 18.7120438,3.61764706 C18.8850365,3.20588235 19.1445255,2.91176471 19.4905109,2.70588235 C19.8076642,2.47058824 20.2113139,2.38235294 20.6726277,2.38235294 C21.2492701,2.38235294 21.7105839,2.55882353 22.0854015,2.88235294 C22.460219,3.20588235 22.6620438,3.67647059 22.6908759,4.23529412 L22.1430657,4.23529412 C22.1142336,3.82352941 21.970073,3.5 21.7105839,3.23529412 C21.4222628,2.97058824 21.1051095,2.85294118 20.7014599,2.85294118 C20.1824818,2.85294118 19.7788321,3.02941176 19.4905109,3.41176471 C19.2021898,3.79411765 19.0580292,4.32352941 19.0580292,5.02941176 L19.0580292,5.20588235 C19.0580292,5.88235294 19.2021898,6.41176471 19.4905109,6.79411765 C19.6923358,7.14705882 20.0959854,7.32352941 20.6149635,7.32352941 Z" id="Path"></path>
                            <path d="M27.0156934,7.70588235 C26.9580292,7.55882353 26.9291971,7.29411765 26.9291971,6.97058824 C26.7273723,7.23529412 26.4678832,7.44117647 26.1507299,7.58823529 C25.8624088,7.73529412 25.4875912,7.79411765 25.170438,7.79411765 C24.680292,7.79411765 24.2766423,7.64705882 23.9594891,7.35294118 C23.6711679,7.05882353 23.4981752,6.70588235 23.4981752,6.29411765 C23.4981752,5.79411765 23.7,5.38235294 24.1324818,5.05882353 C24.5649635,4.76470588 25.1416058,4.58823529 25.8912409,4.58823529 L26.9291971,4.58823529 L26.9291971,3.97058824 C26.9291971,3.58823529 26.8138686,3.29411765 26.5832117,3.08823529 C26.3525547,2.88235294 26.0354015,2.76470588 25.5740876,2.76470588 C25.170438,2.76470588 24.8532847,2.85294118 24.5649635,3.05882353 C24.2766423,3.26470588 24.1613139,3.52941176 24.1613139,3.82352941 L23.5846715,3.82352941 C23.5846715,3.41176471 23.7864964,3.02941176 24.1613139,2.73529412 C24.5361314,2.44117647 24.9974453,2.26470588 25.5740876,2.26470588 C26.1507299,2.26470588 26.6120438,2.41176471 26.9580292,2.70588235 C27.2751825,3 27.4481752,3.41176471 27.4481752,3.94117647 L27.4481752,6.44117647 C27.4481752,6.94117647 27.5058394,7.32352941 27.5923358,7.58823529 L27.5923358,7.64705882 L27.0156934,7.70588235 L27.0156934,7.70588235 Z M25.2281022,7.29411765 C25.6029197,7.29411765 25.9489051,7.20588235 26.2660584,7 C26.5543796,6.82352941 26.7850365,6.55882353 26.9291971,6.23529412 L26.9291971,5.05882353 L25.8912409,5.05882353 C25.3145985,5.05882353 24.8532847,5.14705882 24.5361314,5.38235294 C24.2189781,5.58823529 24.0748175,5.85294118 24.0748175,6.23529412 C24.0748175,6.52941176 24.1613139,6.76470588 24.3919708,6.97058824 C24.5937956,7.17647059 24.8821168,7.29411765 25.2281022,7.29411765 Z" id="Shape"></path>
                            <polygon id="Path" points="29.6105839 7.70588235 29.0339416 7.70588235 29.0339416 0.205882353 29.6105839 0.205882353"></polygon>
                            <polygon id="Path" points="34.2813869 7.20588235 37.7412409 7.20588235 37.7412409 7.70588235 33.7047445 7.70588235 33.7047445 0.617647059 34.310219 0.617647059"></polygon>
                            <path d="M41.979562,7.70588235 C41.9218978,7.55882353 41.8930657,7.29411765 41.8930657,6.97058824 C41.6912409,7.23529412 41.4317518,7.44117647 41.1145985,7.58823529 C40.8262774,7.73529412 40.4514599,7.79411765 40.1343066,7.79411765 C39.6441606,7.79411765 39.2405109,7.64705882 38.9233577,7.35294118 C38.6350365,7.05882353 38.4620438,6.70588235 38.4620438,6.29411765 C38.4620438,5.79411765 38.6638686,5.38235294 39.0963504,5.05882353 C39.5288321,4.76470588 40.1054745,4.58823529 40.8551095,4.58823529 L41.8930657,4.58823529 L41.8930657,3.97058824 C41.8930657,3.58823529 41.7777372,3.29411765 41.5470803,3.08823529 C41.3164234,2.85294118 40.9992701,2.76470588 40.5379562,2.76470588 C40.1343066,2.76470588 39.8171533,2.85294118 39.5288321,3.05882353 C39.2693431,3.26470588 39.1251825,3.52941176 39.1251825,3.82352941 L38.5485401,3.82352941 C38.5485401,3.41176471 38.750365,3.02941176 39.1251825,2.73529412 C39.5,2.44117647 39.9613139,2.26470588 40.5379562,2.26470588 C41.1145985,2.26470588 41.5759124,2.41176471 41.9218978,2.70588235 C42.2390511,3 42.4120438,3.41176471 42.4120438,3.94117647 L42.4120438,6.44117647 C42.4120438,6.94117647 42.469708,7.32352941 42.5562044,7.58823529 L42.5562044,7.64705882 L41.979562,7.70588235 L41.979562,7.70588235 Z M40.1919708,7.29411765 C40.5667883,7.29411765 40.9127737,7.20588235 41.229927,7 C41.5182482,6.82352941 41.7489051,6.55882353 41.8930657,6.23529412 L41.8930657,5.05882353 L40.8551095,5.05882353 C40.2784672,5.05882353 39.8171533,5.14705882 39.5,5.38235294 C39.1828467,5.58823529 39.0386861,5.85294118 39.0386861,6.23529412 C39.0386861,6.52941176 39.1251825,6.76470588 39.3558394,6.97058824 C39.5576642,7.17647059 39.8459854,7.29411765 40.1919708,7.29411765 Z" id="Shape"></path>
                            <path d="M48.1208029,5.11764706 C48.1208029,5.94117647 47.9478102,6.58823529 47.6018248,7.08823529 C47.2558394,7.55882353 46.7656934,7.79411765 46.160219,7.79411765 C45.4394161,7.79411765 44.8916058,7.5 44.5456204,6.97058824 L44.5167883,7.67647059 L43.9978102,7.67647059 L43.9978102,0.176470588 L44.5744526,0.176470588 L44.5744526,3.17647059 C44.920438,2.58823529 45.4682482,2.32352941 46.1890511,2.32352941 C46.8233577,2.32352941 47.2846715,2.55882353 47.6306569,3.02941176 C47.9766423,3.5 48.149635,4.17647059 48.149635,5.02941176 L48.1208029,5.11764706 L48.1208029,5.11764706 Z M47.5441606,5.02941176 C47.5441606,4.35294118 47.4288321,3.79411765 47.1405109,3.41176471 C46.8521898,3.02941176 46.4773723,2.85294118 46.0160584,2.85294118 C45.6412409,2.85294118 45.3529197,2.94117647 45.0934307,3.14705882 C44.8339416,3.32352941 44.6321168,3.61764706 44.5167883,3.97058824 L44.5167883,6.35294118 C44.8051095,7.02941176 45.3240876,7.35294118 46.0448905,7.35294118 C46.5062044,7.35294118 46.8810219,7.17647059 47.1405109,6.79411765 C47.4,6.35294118 47.5441606,5.79411765 47.5441606,5.02941176 Z" id="Shape"></path>
                            <path d="M49.0722628,5 C49.0722628,4.5 49.1587591,4.02941176 49.3605839,3.61764706 C49.5624088,3.20588235 49.8218978,2.91176471 50.1967153,2.67647059 C50.5715328,2.44117647 50.9463504,2.35294118 51.4076642,2.35294118 C52.099635,2.35294118 52.6474453,2.61764706 53.079927,3.08823529 C53.5124088,3.55882353 53.7430657,4.23529412 53.7430657,5.05882353 L53.7430657,5.17647059 C53.7430657,5.67647059 53.6565693,6.14705882 53.4547445,6.55882353 C53.2529197,6.97058824 52.9934307,7.26470588 52.6186131,7.5 C52.2437956,7.73529412 51.8689781,7.82352941 51.4076642,7.82352941 C50.7445255,7.82352941 50.1678832,7.55882353 49.7354015,7.08823529 C49.3029197,6.61764706 49.0722628,5.94117647 49.0722628,5.11764706 L49.0722628,5 Z M49.6489051,5.14705882 C49.6489051,5.79411765 49.7930657,6.29411765 50.110219,6.70588235 C50.4273723,7.11764706 50.859854,7.32352941 51.35,7.32352941 C51.8689781,7.32352941 52.2726277,7.11764706 52.589781,6.70588235 C52.9069343,6.29411765 53.0510949,5.76470588 53.0510949,5.08823529 L53.0510949,5 C53.0510949,4.58823529 52.9645985,4.23529412 52.820438,3.91176471 C52.6762774,3.58823529 52.4744526,3.32352941 52.1861314,3.11764706 C51.8978102,2.94117647 51.6094891,2.82352941 51.2923358,2.82352941 C50.8021898,2.82352941 50.369708,3.02941176 50.0525547,3.44117647 C49.7354015,3.85294118 49.5912409,4.38235294 49.5912409,5.05882353 L49.6489051,5.14705882 L49.6489051,5.14705882 Z" id="Shape"></path>
                            <path d="M57.2605839,2.94117647 C57.1452555,2.91176471 57.0010949,2.91176471 56.8857664,2.91176471 C56.539781,2.91176471 56.2226277,3 55.9919708,3.20588235 C55.7324818,3.41176471 55.5594891,3.67647059 55.4729927,4.08823529 L55.4729927,7.70588235 L54.8963504,7.70588235 L54.8963504,2.44117647 L55.4441606,2.44117647 L55.4441606,3.29411765 C55.7324818,2.64705882 56.2514599,2.35294118 56.8857664,2.35294118 C57.029927,2.35294118 57.1740876,2.38235294 57.2605839,2.41176471 L57.2605839,2.94117647 L57.2605839,2.94117647 Z" id="Path"></path>
                            <path d="M61.2105839,7.70588235 C61.1529197,7.55882353 61.1240876,7.29411765 61.1240876,6.97058824 C60.9222628,7.23529412 60.6627737,7.44117647 60.3456204,7.58823529 C60.0572993,7.73529412 59.6824818,7.79411765 59.3653285,7.79411765 C58.8751825,7.79411765 58.4715328,7.64705882 58.1543796,7.35294118 C57.8660584,7.05882353 57.6930657,6.70588235 57.6930657,6.29411765 C57.6930657,5.79411765 57.8948905,5.38235294 58.3273723,5.05882353 C58.759854,4.76470588 59.3364964,4.58823529 60.0861314,4.58823529 L61.1240876,4.58823529 L61.1240876,3.97058824 C61.1240876,3.58823529 61.0087591,3.29411765 60.7781022,3.08823529 C60.5474453,2.88235294 60.230292,2.76470588 59.7689781,2.76470588 C59.3653285,2.76470588 59.0481752,2.85294118 58.759854,3.05882353 C58.500365,3.26470588 58.3562044,3.52941176 58.3562044,3.82352941 L57.779562,3.82352941 C57.779562,3.41176471 57.9813869,3.02941176 58.3562044,2.73529412 C58.7310219,2.44117647 59.1923358,2.26470588 59.7689781,2.26470588 C60.3456204,2.26470588 60.8069343,2.41176471 61.1529197,2.70588235 C61.470073,3 61.6430657,3.41176471 61.6430657,3.94117647 L61.6430657,6.44117647 C61.6430657,6.94117647 61.7007299,7.32352941 61.7872263,7.58823529 L61.7872263,7.64705882 L61.2105839,7.70588235 L61.2105839,7.70588235 Z M59.4229927,7.29411765 C59.7978102,7.29411765 60.1437956,7.20588235 60.4609489,7 C60.7492701,6.82352941 60.979927,6.55882353 61.1240876,6.23529412 L61.1240876,5.05882353 L60.0861314,5.05882353 C59.5094891,5.05882353 59.0481752,5.14705882 58.7310219,5.38235294 C58.4138686,5.58823529 58.269708,5.85294118 58.269708,6.23529412 C58.269708,6.52941176 58.3562044,6.76470588 58.5868613,6.97058824 C58.8175182,7.17647059 59.1058394,7.29411765 59.4229927,7.29411765 Z" id="Shape"></path>
                            <path d="M64.0937956,1.08823529 L64.0937956,2.44117647 L65.1605839,2.44117647 L65.1605839,2.91176471 L64.0937956,2.91176471 L64.0937956,6.44117647 C64.0937956,6.73529412 64.1514599,6.94117647 64.2379562,7.11764706 C64.3244526,7.26470588 64.5262774,7.32352941 64.7569343,7.32352941 C64.8434307,7.32352941 65.0164234,7.29411765 65.2182482,7.26470588 L65.2470803,7.73529412 C65.1029197,7.79411765 64.9010949,7.82352941 64.6127737,7.82352941 C64.2091241,7.82352941 63.949635,7.70588235 63.7766423,7.47058824 C63.6036496,7.23529412 63.4883212,6.88235294 63.4883212,6.44117647 L63.4883212,2.91176471 L62.5368613,2.91176471 L62.5368613,2.44117647 L63.4883212,2.44117647 L63.4883212,1.08823529 L64.0937956,1.08823529 L64.0937956,1.08823529 Z" id="Path"></path>
                            <path d="M65.9390511,5 C65.9390511,4.5 66.0255474,4.02941176 66.2273723,3.61764706 C66.4291971,3.20588235 66.6886861,2.91176471 67.0635036,2.67647059 C67.4383212,2.44117647 67.8131387,2.35294118 68.2744526,2.35294118 C68.9664234,2.35294118 69.5142336,2.61764706 69.9467153,3.08823529 C70.3791971,3.55882353 70.609854,4.23529412 70.609854,5.05882353 L70.609854,5.17647059 C70.609854,5.67647059 70.5233577,6.14705882 70.3215328,6.55882353 C70.119708,6.97058824 69.860219,7.26470588 69.4854015,7.5 C69.1105839,7.73529412 68.7357664,7.82352941 68.2744526,7.82352941 C67.6113139,7.82352941 67.0346715,7.55882353 66.6021898,7.08823529 C66.169708,6.61764706 65.9390511,5.94117647 65.9390511,5.11764706 L65.9390511,5 Z M66.5156934,5.14705882 C66.5156934,5.79411765 66.659854,6.29411765 66.9770073,6.70588235 C67.2941606,7.11764706 67.7266423,7.32352941 68.2167883,7.32352941 C68.7357664,7.32352941 69.1394161,7.11764706 69.4565693,6.70588235 C69.7737226,6.29411765 69.9178832,5.76470588 69.9178832,5.08823529 L69.9178832,5 C69.9178832,4.58823529 69.8313869,4.23529412 69.6872263,3.91176471 C69.5430657,3.58823529 69.3412409,3.32352941 69.0529197,3.11764706 C68.7645985,2.94117647 68.4762774,2.82352941 68.1591241,2.82352941 C67.6689781,2.82352941 67.2364964,3.02941176 66.9193431,3.44117647 C66.6021898,3.85294118 66.4580292,4.38235294 66.4580292,5.05882353 L66.5156934,5.14705882 L66.5156934,5.14705882 Z" id="Shape"></path>
                            <path d="M74.1273723,2.94117647 C74.0120438,2.91176471 73.8678832,2.91176471 73.7525547,2.91176471 C73.4065693,2.91176471 73.0894161,3 72.8587591,3.20588235 C72.5992701,3.41176471 72.4262774,3.67647059 72.339781,4.08823529 L72.339781,7.70588235 L71.7343066,7.70588235 L71.7343066,2.44117647 L72.2821168,2.44117647 L72.2821168,3.29411765 C72.570438,2.64705882 73.0894161,2.35294118 73.7237226,2.35294118 C73.8678832,2.35294118 74.0120438,2.38235294 74.0985401,2.41176471 L74.1273723,2.94117647 Z" id="Path"></path>
                            <path d="M76.7510949,6.88235294 L78.250365,2.44117647 L78.8846715,2.44117647 L76.6934307,8.61764706 L76.5781022,8.91176471 C76.289781,9.55882353 75.8572993,9.88235294 75.2518248,9.88235294 C75.1364964,9.88235294 74.9635036,9.85294118 74.7905109,9.79411765 L74.7905109,9.32352941 L75.0788321,9.35294118 C75.3671533,9.35294118 75.5689781,9.26470588 75.7419708,9.14705882 C75.9149635,9 76.0591241,8.76470588 76.2032847,8.41176471 L76.4627737,7.70588235 L74.5021898,2.47058824 L75.1364964,2.47058824 L76.7510949,6.88235294 Z" id="Path"></path>
                        </g>
                    </g>
                </g>
            </g>
        </g>
    </g>
</svg>