<?xml version="1.0" encoding="UTF-8"?>
<svg width="832px" height="90px" viewBox="0 0 832 90" version="1.1" xmlns="http://www.w3.org/2000/svg" xmlns:xlink="http://www.w3.org/1999/xlink">
    <!-- Generator: Sketch 55.2 (78181) - https://sketchapp.com -->
    <title>pgtsr_method1</title>
    <desc>Created with Sketch.</desc>
    <g id="main-pages" stroke="none" stroke-width="1" fill="none" fill-rule="evenodd">
        <g id="PGT-SR" transform="translate(-328.000000, -4656.000000)">
            <g id="04---wich-dosorders" transform="translate(0.000000, 3998.000000)">
                <g id="pgtsr_method1" transform="translate(329.000000, 659.000000)">
                    <g id="Group-3-Copy-9" stroke="#0BA6BF" stroke-linecap="round" stroke-linejoin="round" stroke-width="2">
                        <path d="M0,0.691842348 L0,75.5654178 C0,82.4320343 6.25577167,88 13.9961647,88 C21.726795,88 28,82.4320343 28,75.5654178 L28,0.691842348 C28,-0.301202104 0,-0.157221245 0,0.691842348 Z" id="Stroke-13"></path>
                        <path d="M4,6.60536205 L4,72.1197406 C4,78.12803 8.46840834,83 13.9972605,83 C19.5191393,83 24,78.12803 24,72.1197406 L24,6.60536205 C24,5.73644816 4,5.86243141 4,6.60536205 Z" id="Stroke-13-Copy-4"></path>
                    </g>
                    <g id="Group-3-Copy-10" transform="translate(46.000000, 0.000000)" stroke="#0BA6BF" stroke-linecap="round" stroke-linejoin="round" stroke-width="2">
                        <path d="M0,0.691842348 L0,75.5654178 C0,82.4320343 6.25577167,88 13.9961647,88 C21.726795,88 28,82.4320343 28,75.5654178 L28,0.691842348 C28,-0.301202104 0,-0.157221245 0,0.691842348 Z" id="Stroke-13"></path>
                        <path d="M4,6.60536205 L4,72.1197406 C4,78.12803 8.46840834,83 13.9972605,83 C19.5191393,83 24,78.12803 24,72.1197406 L24,6.60536205 C24,5.73644816 4,5.86243141 4,6.60536205 Z" id="Stroke-13-Copy-4"></path>
                    </g>
                    <g id="Group-3-Copy-13" transform="translate(315.000000, 0.000000)" stroke="#0BA6BF" stroke-linecap="round" stroke-linejoin="round" stroke-width="2">
                        <path d="M0,0.691842348 L0,75.5654178 C0,82.4320343 6.25577167,88 13.9961647,88 C21.726795,88 28,82.4320343 28,75.5654178 L28,0.691842348 C28,-0.301202104 0,-0.157221245 0,0.691842348 Z" id="Stroke-13"></path>
                        <path d="M4,6.60536205 L4,72.1197406 C4,78.12803 8.46840834,83 13.9972605,83 C19.5191393,83 24,78.12803 24,72.1197406 L24,6.60536205 C24,5.73644816 4,5.86243141 4,6.60536205 Z" id="Stroke-13-Copy-4"></path>
                    </g>
                    <g id="Group-3-Copy-19" transform="translate(627.000000, 0.000000)" stroke="#0BA6BF" stroke-linecap="round" stroke-linejoin="round" stroke-width="2">
                        <path d="M0,0.691842348 L0,75.5654178 C0,82.4320343 6.25577167,88 13.9961647,88 C21.726795,88 28,82.4320343 28,75.5654178 L28,0.691842348 C28,-0.301202104 0,-0.157221245 0,0.691842348 Z" id="Stroke-13"></path>
                        <path d="M4,6.60536205 L4,72.1197406 C4,78.12803 8.46840834,83 13.9972605,83 C19.5191393,83 24,78.12803 24,72.1197406 L24,6.60536205 C24,5.73644816 4,5.86243141 4,6.60536205 Z" id="Stroke-13-Copy-4"></path>
                    </g>
                    <g id="Group-3-Copy-15" transform="translate(361.000000, 67.000000)" stroke="#0BA6BF" stroke-linecap="round" stroke-linejoin="round" stroke-width="2">
                        <path d="M0,0.440263313 L0,13.0870841 C0,17.4567491 6.25577167,21 13.9961647,21 C21.726795,21 28,17.4567491 28,13.0870841 L28,0.440263313 C28,-0.191674066 0,-0.100049883 0,0.440263313 Z" id="Stroke-13"></path>
                        <path d="M4,5.2987501 L4,10.6305213 C4,13.5956512 8.46840834,16 13.9972605,16 C19.5191393,16 24,13.5956512 24,10.6305213 L24,5.2987501 C24,4.86993546 4,4.93210901 4,5.2987501 Z" id="Stroke-13-Copy-4"></path>
                    </g>
                    <g id="Group-3-Copy-17" transform="translate(441.000000, 67.000000)" stroke="#0B42BF" stroke-linecap="round" stroke-linejoin="round" stroke-width="2">
                        <path d="M0,0.440263313 L0,13.0870841 C0,17.4567491 6.25577167,21 13.9961647,21 C21.726795,21 28,17.4567491 28,13.0870841 L28,0.440263313 C28,-0.191674066 0,-0.100049883 0,0.440263313 Z" id="Stroke-13"></path>
                        <path d="M4,5.2987501 L4,10.6305213 C4,13.5956512 8.46840834,16 13.9972605,16 C19.5191393,16 24,13.5956512 24,10.6305213 L24,5.2987501 C24,4.86993546 4,4.93210901 4,5.2987501 Z" id="Stroke-13-Copy-4"></path>
                    </g>
                    <g id="Group-3-Copy-14" transform="translate(361.000000, 0.000000)" stroke="#0BA6BF" stroke-linecap="round" stroke-linejoin="round" stroke-width="2">
                        <path d="M0,0.438453685 L0,47.8894303 C0,49.4323418 28,49.3067062 28,47.8894303 L28,0.438453685 C28,-0.190886222 0,-0.099638645 0,0.438453685 Z" id="Stroke-13"></path>
                        <path d="M4,5.35141631 L4,43.3829067 C4,44.2056978 24,44.2056978 24,43.3829067 L24,5.35141631 C24,4.84700657 4,4.92014061 4,5.35141631 Z" id="Stroke-13-Copy-4"></path>
                    </g>
                    <g id="Group-3-Copy-21" transform="translate(673.000000, 53.000000)" stroke="#0B42BF" stroke-linecap="round" stroke-linejoin="round" stroke-width="2">
                        <path d="M0,0.712807268 L0,21.1886123 C0,28.2633081 6.25577167,34 13.9961647,34 C21.726795,34 28,28.2633081 28,21.1886123 L28,0.712807268 C28,-0.31032944 0,-0.161985525 0,0.712807268 Z" id="Stroke-13"></path>
                        <path d="M4,5.65181841 L4,17.2847738 C4,23.7541481 8.46840834,29 13.9972605,29 C19.5191393,29 24,23.7541481 24,17.2847738 L24,5.65181841 C24,4.71622281 4,4.8518742 4,5.65181841 Z" id="Stroke-13-Copy-4"></path>
                    </g>
                    <g id="Group-3-Copy-23" transform="translate(756.000000, 53.000000)" stroke="#0BA6BF" stroke-linecap="round" stroke-linejoin="round" stroke-width="2">
                        <path d="M0,0.712807268 L0,21.1886123 C0,28.2633081 6.25577167,34 13.9961647,34 C21.726795,34 28,28.2633081 28,21.1886123 L28,0.712807268 C28,-0.31032944 0,-0.161985525 0,0.712807268 Z" id="Stroke-13"></path>
                        <path d="M4,5.65181841 L4,17.2847738 C4,23.7541481 8.46840834,29 13.9972605,29 C19.5191393,29 24,23.7541481 24,17.2847738 L24,5.65181841 C24,4.71622281 4,4.8518742 4,5.65181841 Z" id="Stroke-13-Copy-4"></path>
                    </g>
                    <g id="Group-3-Copy-20" transform="translate(673.000000, 0.000000)" stroke="#0BA6BF" stroke-linecap="round" stroke-linejoin="round" stroke-width="2">
                        <path d="M0,0.438453685 L0,47.8894303 C0,49.4323418 28,49.3067062 28,47.8894303 L28,0.438453685 C28,-0.190886222 0,-0.099638645 0,0.438453685 Z" id="Stroke-13"></path>
                        <path d="M4,5.35141631 L4,43.3829067 C4,44.2056978 24,44.2056978 24,43.3829067 L24,5.35141631 C24,4.84700657 4,4.92014061 4,5.35141631 Z" id="Stroke-13-Copy-4"></path>
                    </g>
                    <g id="Group-3-Copy-24" transform="translate(756.000000, 0.000000)" stroke="#0B42BF" stroke-linecap="round" stroke-linejoin="round" stroke-width="2">
                        <path d="M0,0.438453685 L0,47.8894303 C0,49.4323418 28,49.3067062 28,47.8894303 L28,0.438453685 C28,-0.190886222 0,-0.099638645 0,0.438453685 Z" id="Stroke-13"></path>
                        <path d="M4,5.35141631 L4,43.3829067 C4,44.2056978 24,44.2056978 24,43.3829067 L24,5.35141631 C24,4.84700657 4,4.92014061 4,5.35141631 Z" id="Stroke-13-Copy-4"></path>
                    </g>
                    <g id="Group-3-Copy-18" transform="translate(441.000000, 0.000000)" stroke="#0B42BF" stroke-linecap="round" stroke-linejoin="round" stroke-width="2">
                        <path d="M0,0.438453685 L0,47.8894303 C0,49.4323418 28,49.3067062 28,47.8894303 L28,0.438453685 C28,-0.190886222 0,-0.099638645 0,0.438453685 Z" id="Stroke-13"></path>
                        <path d="M4,5.35141631 L4,43.3829067 C4,44.2056978 24,44.2056978 24,43.3829067 L24,5.35141631 C24,4.84700657 4,4.92014061 4,5.35141631 Z" id="Stroke-13-Copy-4"></path>
                    </g>
                    <g id="Group-3-Copy-11" transform="translate(129.000000, 0.000000)" stroke="#0B42BF" stroke-linecap="round" stroke-linejoin="round" stroke-width="2">
                        <path d="M0,0.691842348 L0,75.5654178 C0,82.4320343 6.25577167,88 13.9961647,88 C21.726795,88 28,82.4320343 28,75.5654178 L28,0.691842348 C28,-0.301202104 0,-0.157221245 0,0.691842348 Z" id="Stroke-13"></path>
                        <path d="M4,6.60536205 L4,72.1197406 C4,78.12803 8.46840834,83 13.9972605,83 C19.5191393,83 24,78.12803 24,72.1197406 L24,6.60536205 C24,5.73644816 4,5.86243141 4,6.60536205 Z" id="Stroke-13-Copy-4"></path>
                    </g>
                    <g id="Group-3-Copy-12" transform="translate(175.000000, 0.000000)" stroke="#0B42BF" stroke-linecap="round" stroke-linejoin="round" stroke-width="2">
                        <path d="M0,0.691842348 L0,75.5654178 C0,82.4320343 6.25577167,88 13.9961647,88 C21.726795,88 28,82.4320343 28,75.5654178 L28,0.691842348 C28,-0.301202104 0,-0.157221245 0,0.691842348 Z" id="Stroke-13"></path>
                        <path d="M4,6.60536205 L4,72.1197406 C4,78.12803 8.46840834,83 13.9972605,83 C19.5191393,83 24,78.12803 24,72.1197406 L24,6.60536205 C24,5.73644816 4,5.86243141 4,6.60536205 Z" id="Stroke-13-Copy-4"></path>
                    </g>
                    <g id="Group-3-Copy-16" transform="translate(487.000000, 0.000000)" stroke="#0B42BF" stroke-linecap="round" stroke-linejoin="round" stroke-width="2">
                        <path d="M0,0.691842348 L0,75.5654178 C0,82.4320343 6.25577167,88 13.9961647,88 C21.726795,88 28,82.4320343 28,75.5654178 L28,0.691842348 C28,-0.301202104 0,-0.157221245 0,0.691842348 Z" id="Stroke-13"></path>
                        <path d="M4,6.60536205 L4,72.1197406 C4,78.12803 8.46840834,83 13.9972605,83 C19.5191393,83 24,78.12803 24,72.1197406 L24,6.60536205 C24,5.73644816 4,5.86243141 4,6.60536205 Z" id="Stroke-13-Copy-4"></path>
                    </g>
                    <g id="Group-3-Copy-22" transform="translate(802.000000, 0.000000)" stroke="#0B42BF" stroke-linecap="round" stroke-linejoin="round" stroke-width="2">
                        <path d="M0,0.691842348 L0,75.5654178 C0,82.4320343 6.25577167,88 13.9961647,88 C21.726795,88 28,82.4320343 28,75.5654178 L28,0.691842348 C28,-0.301202104 0,-0.157221245 0,0.691842348 Z" id="Stroke-13"></path>
                        <path d="M4,6.60536205 L4,72.1197406 C4,78.12803 8.46840834,83 13.9972605,83 C19.5191393,83 24,78.12803 24,72.1197406 L24,6.60536205 C24,5.73644816 4,5.86243141 4,6.60536205 Z" id="Stroke-13-Copy-4"></path>
                    </g>
                    <path id="Line-Copy-3" d="M586.107422,35.5 L547.369141,35.5 L547.369141,34.5 L586.107422,34.5 L586.107422,30.5 L595.107422,35 L586.107422,39.5 L586.107422,35.5 Z" fill="#979797" fill-rule="nonzero"></path>
                    <path id="Line-Copy" d="M424.669922,35.5 L399.556641,35.5 L399.556641,34.5 L424.669922,34.5 L424.669922,30.5 L433.669922,35 L424.669922,39.5 L424.669922,35.5 Z" fill="#979797" fill-rule="nonzero"></path>
                    <path id="Line-Copy-2" d="M424.669922,35.5 L399.556641,35.5 L399.556641,34.5 L424.669922,34.5 L424.669922,30.5 L433.669922,35 L424.669922,39.5 L424.669922,35.5 Z" fill="#979797" fill-rule="nonzero"></path>
                    <path id="Line" d="M273.738281,46 L235,46 L235,45 L273.738281,45 L273.738281,41 L282.738281,45.5 L273.738281,50 L273.738281,46 Z" fill="#979797" fill-rule="nonzero"></path>
                </g>
            </g>
        </g>
    </g>
</svg>