<?xml version="1.0" encoding="UTF-8"?>
<svg width="677px" height="171px" viewBox="0 0 677 171" version="1.1" xmlns="http://www.w3.org/2000/svg" xmlns:xlink="http://www.w3.org/1999/xlink">
    <!-- Generator: Sketch 55.2 (78181) - https://sketchapp.com -->
    <title>pgtsr_method2</title>
    <desc>Created with Sketch.</desc>
    <g id="main-pages" stroke="none" stroke-width="1" fill="none" fill-rule="evenodd">
        <g id="PGT-SR" transform="translate(-360.000000, -5149.000000)">
            <g id="04---wich-dosorders" transform="translate(0.000000, 3998.000000)">
                <g id="pgtsr_method2" transform="translate(360.000000, 1152.000000)">
                    <g id="Group-3-Copy-10" transform="translate(33.000000, 6.000000)" stroke="#0BA6BF" stroke-linecap="round" stroke-linejoin="round" stroke-width="2">
                        <path d="M0,0.691842348 L0,75.5654178 C0,82.4320343 6.25577167,88 13.9961647,88 C21.726795,88 28,82.4320343 28,75.5654178 L28,0.691842348 C28,-0.301202104 0,-0.157221245 0,0.691842348 Z" id="Stroke-13"></path>
                        <path d="M4,6.60536205 L4,72.1197406 C4,78.12803 8.46840834,83 13.9972605,83 C19.5191393,83 24,78.12803 24,72.1197406 L24,6.60536205 C24,5.73644816 4,5.86243141 4,6.60536205 Z" id="Stroke-13-Copy-4"></path>
                    </g>
                    <g id="Group-3-Copy-26" transform="translate(269.000000, 39.000000)" stroke="#0BA6BF" stroke-linecap="round" stroke-linejoin="round" stroke-width="2">
                        <path d="M0,0.432401468 L0,47.2283861 C0,51.5200215 6.25577167,55 13.9961647,55 C21.726795,55 28,51.5200215 28,47.2283861 L28,0.432401468 C28,-0.188251315 0,-0.098263278 0,0.432401468 Z" id="Stroke-13"></path>
                        <path d="M4,5.35378302 L4,43.6414068 C4,47.1527448 8.46840834,50 13.9972605,50 C19.5191393,50 24,47.1527448 24,43.6414068 L24,5.35378302 C24,4.8459762 4,4.91960277 4,5.35378302 Z" id="Stroke-13-Copy-4"></path>
                    </g>
                    <g id="Group-3-Copy-27" transform="translate(269.000000, 6.000000)" stroke="#0BA6BF" stroke-linecap="round" stroke-linejoin="round" stroke-width="2">
                        <path d="M0,0.188684277 L0,20.6087503 C0,22.4814639 6.25577167,24 13.9961647,24 C21.726795,24 28,22.4814639 28,20.6087503 L28,0.188684277 C28,-0.0821460282 0,-0.0428785213 0,0.188684277 Z" id="Stroke-13"></path>
                        <path d="M4,5.12578952 L4,18.7391669 C4,19.9876426 24,19.9876426 24,18.7391669 L24,5.12578952 C24,4.94523598 4,4.97141432 4,5.12578952 Z" id="Stroke-13-Copy-4"></path>
                    </g>
                    <g id="Group-3-Copy-29" transform="translate(396.000000, 39.000000)" stroke="#0B42BF" stroke-linecap="round" stroke-linejoin="round" stroke-width="2">
                        <path d="M0,0.432401468 L0,47.2283861 C0,51.5200215 6.25577167,55 13.9961647,55 C21.726795,55 28,51.5200215 28,47.2283861 L28,0.432401468 C28,-0.188251315 0,-0.098263278 0,0.432401468 Z" id="Stroke-13"></path>
                        <path d="M4,5.35378302 L4,43.6414068 C4,47.1527448 8.46840834,50 13.9972605,50 C19.5191393,50 24,47.1527448 24,43.6414068 L24,5.35378302 C24,4.8459762 4,4.91960277 4,5.35378302 Z" id="Stroke-13-Copy-4"></path>
                    </g>
                    <g id="Group-3-Copy-30" transform="translate(540.000000, 55.000000)" stroke="#0B42BF" stroke-linecap="round" stroke-linejoin="round" stroke-width="2">
                        <path d="M0,0.432401468 L0,47.2283861 C0,51.5200215 6.25577167,55 13.9961647,55 C21.726795,55 28,51.5200215 28,47.2283861 L28,0.432401468 C28,-0.188251315 0,-0.098263278 0,0.432401468 Z" id="Stroke-13"></path>
                        <path d="M4,5.35378302 L4,43.6414068 C4,47.1527448 8.46840834,50 13.9972605,50 C19.5191393,50 24,47.1527448 24,43.6414068 L24,5.35378302 C24,4.8459762 4,4.91960277 4,5.35378302 Z" id="Stroke-13-Copy-4"></path>
                    </g>
                    <g id="Group-3-Copy-31" transform="translate(554.000000, 27.500000) rotate(-180.000000) translate(-554.000000, -27.500000) translate(540.000000, 0.000000)" stroke="#0BA6BF" stroke-linecap="round" stroke-linejoin="round" stroke-width="2">
                        <path d="M0,0.432401468 L0,47.2283861 C0,51.5200215 6.25577167,55 13.9961647,55 C21.726795,55 28,51.5200215 28,47.2283861 L28,0.432401468 C28,-0.188251315 0,-0.098263278 0,0.432401468 Z" id="Stroke-13"></path>
                        <path d="M4,5.35378302 L4,43.6414068 C4,47.1527448 8.46840834,50 13.9972605,50 C19.5191393,50 24,47.1527448 24,43.6414068 L24,5.35378302 C24,4.8459762 4,4.91960277 4,5.35378302 Z" id="Stroke-13-Copy-4"></path>
                    </g>
                    <g id="Group-3-Copy-28" transform="translate(396.000000, 6.000000)" stroke="#0B42BF" stroke-linecap="round" stroke-linejoin="round" stroke-width="2">
                        <path d="M0,0.188684277 L0,20.6087503 C0,22.4814639 6.25577167,24 13.9961647,24 C21.726795,24 28,22.4814639 28,20.6087503 L28,0.188684277 C28,-0.0821460282 0,-0.0428785213 0,0.188684277 Z" id="Stroke-13"></path>
                        <path d="M4,5.12578952 L4,18.7391669 C4,19.9876426 24,19.9876426 24,18.7391669 L24,5.12578952 C24,4.94523598 4,4.97141432 4,5.12578952 Z" id="Stroke-13-Copy-4"></path>
                    </g>
                    <g id="Group-3-Copy-32" transform="translate(586.000000, 54.738281)" stroke="#0B42BF" stroke-linecap="round" stroke-linejoin="round" stroke-width="2">
                        <path d="M0,0.188684277 L0,20.6087503 C0,22.4814639 6.25577167,24 13.9961647,24 C21.726795,24 28,22.4814639 28,20.6087503 L28,0.188684277 C28,-0.0821460282 0,-0.0428785213 0,0.188684277 Z" id="Stroke-13"></path>
                        <path d="M4,5.12578952 L4,18.7391669 C4,19.9876426 24,19.9876426 24,18.7391669 L24,5.12578952 C24,4.94523598 4,4.97141432 4,5.12578952 Z" id="Stroke-13-Copy-4"></path>
                    </g>
                    <g id="Group-3-Copy-33" transform="translate(600.000000, 40.738281) rotate(-180.000000) translate(-600.000000, -40.738281) translate(586.000000, 28.738281)" stroke="#0BA6BF" stroke-linecap="round" stroke-linejoin="round" stroke-width="2">
                        <path d="M0,0.188684277 L0,20.6087503 C0,22.4814639 6.25577167,24 13.9961647,24 C21.726795,24 28,22.4814639 28,20.6087503 L28,0.188684277 C28,-0.0821460282 0,-0.0428785213 0,0.188684277 Z" id="Stroke-13"></path>
                        <path d="M4,5.12578952 L4,18.7391669 C4,19.9876426 24,19.9876426 24,18.7391669 L24,5.12578952 C24,4.94523598 4,4.97141432 4,5.12578952 Z" id="Stroke-13-Copy-4"></path>
                    </g>
                    <g id="Group-3-Copy-25" transform="translate(125.000000, 6.000000)" stroke="#0B42BF" stroke-linecap="round" stroke-linejoin="round" stroke-width="2">
                        <path d="M0,0.691842348 L0,75.5654178 C0,82.4320343 6.25577167,88 13.9961647,88 C21.726795,88 28,82.4320343 28,75.5654178 L28,0.691842348 C28,-0.301202104 0,-0.157221245 0,0.691842348 Z" id="Stroke-13"></path>
                        <path d="M4,6.60536205 L4,72.1197406 C4,78.12803 8.46840834,83 13.9972605,83 C19.5191393,83 24,78.12803 24,72.1197406 L24,6.60536205 C24,5.73644816 4,5.86243141 4,6.60536205 Z" id="Stroke-13-Copy-4"></path>
                    </g>
                    <path d="M93,31.5 L93,66.65625" id="Line-2" stroke="#979797" stroke-linecap="square"></path>
                    <path d="M93,31.5 L93,66.65625" id="Line-2-Copy" stroke="#979797" stroke-linecap="square" transform="translate(93.000000, 49.000000) rotate(-90.000000) translate(-93.000000, -49.000000) "></path>
                    <path id="Line" d="M226.107422,49.5039062 L187.369141,49.5039062 L187.369141,48.5039062 L226.107422,48.5039062 L226.107422,44.5039062 L235.107422,49.0039062 L226.107422,53.5039062 L226.107422,49.5039062 Z" fill="#979797" fill-rule="nonzero"></path>
                    <path id="Line-Copy-6" d="M497.107422,49.5 L458.369141,49.5 L458.369141,48.5 L497.107422,48.5 L497.107422,44.5 L506.107422,49 L497.107422,53.5 L497.107422,49.5 Z" fill="#979797" fill-rule="nonzero"></path>
                    <path id="Line-Copy-4" d="M364.107422,49.8105469 L325.369141,49.8105469 L325.369141,48.8105469 L364.107422,48.8105469 L364.107422,44.8105469 L373.107422,49.3105469 L364.107422,53.8105469 L364.107422,49.8105469 Z" fill="#979797" fill-rule="nonzero"></path>
                    <path id="Line-Copy-5" d="M364.107422,63.8105469 L325.369141,63.8105469 L325.369141,62.8105469 L364.107422,62.8105469 L364.107422,58.8105469 L373.107422,63.3105469 L364.107422,67.8105469 L364.107422,63.8105469 Z" fill="#979797" fill-rule="nonzero"></path>
                    <g id="text" transform="translate(0.000000, 135.000000)" fill="#222222" font-family="Roboto-Regular, Roboto" font-size="12" font-weight="normal" line-spacing="18">
                        <g id="Group-6">
                            <text id="NORMAL-NONHOMOLOGOUS">
                                <tspan x="8" y="13">NORMAL NONHOMOLOGOUS</tspan>
                            </text>
                            <text id="ACROCENTRIC-CHROMOSO">
                                <tspan x="0" y="33">ACROCENTRIC CHROMOSOMES</tspan>
                            </text>
                        </g>
                        <g id="Group-6-Copy" transform="translate(278.000000, 10.000000)">
                            <text id="BREAKAGE-AND-REJOINI">
                                <tspan x="0" y="13">BREAKAGE AND REJOINING</tspan>
                            </text>
                        </g>
                        <g id="Group-6-Copy-2" transform="translate(489.000000, 7.000000)">
                            <text id="ROBERTSONIAN-TRANSLO">
                                <tspan x="0" y="13.9902344">ROBERTSONIAN TRANSLOCATION</tspan>
                            </text>
                        </g>
                    </g>
                </g>
            </g>
        </g>
    </g>
</svg>