<?xml version="1.0" encoding="UTF-8"?>
<svg width="39px" height="58px" viewBox="0 0 39 58" version="1.1" xmlns="http://www.w3.org/2000/svg" xmlns:xlink="http://www.w3.org/1999/xlink">
    <!-- Generator: Sketch 57.1 (83088) - https://sketch.com -->
    <title>icon/services</title>
    <desc>Created with Sketch.</desc>
    <g id="GP-Locations" stroke="none" stroke-width="1" fill="none" fill-rule="evenodd">
        <g id="gpcl_services_locations-1" transform="translate(-700.000000, -341.000000)">
            <g id="content" transform="translate(246.000000, 242.000000)">
                <g id="icon/services" transform="translate(432.000000, 85.000000)">
                    <g id="icon_services">
                        <rect id="mask" stroke="#979797" stroke-width="1.13513514" opacity="0" x="0.567567568" y="0.567567568" width="82.8648649" height="82.8648649"></rect>
                        <g id="icon_pin" transform="translate(23.000000, 15.000000)" fill-rule="nonzero">
                            <path d="M18.5657146,0 C8.3487087,0 0.0361542863,8.31255441 0.0361542863,18.5295603 C0.0361542863,21.5967032 0.802994298,24.6377889 2.26078289,27.3351376 L17.5524174,54.9914294 C17.7559888,55.360138 18.1439146,55.5885723 18.5657146,55.5885723 C18.9875146,55.5885723 19.3754403,55.360138 19.5790117,54.9914294 L34.8762919,27.3260176 C36.3284348,24.6377889 37.0952748,21.5965946 37.0952748,18.5294517 C37.0952748,8.31255441 28.7827204,0 18.5657146,0 Z" id="Shape" stroke="#222222" stroke-width="1.08571429" fill="#FFFFFF"></path>
                            <g id="g-shape" transform="translate(7.000000, 7.000000)" fill="#0BA6BF">
                                <path d="M11.2070742,12.2574607 C9.82208901,12.2574607 8.70562134,11.1264378 8.70562134,9.7550725 C8.70562134,8.38370724 9.83622151,7.25268434 11.2070742,7.25268434 C12.5779269,7.25268434 13.7085271,8.36956945 13.7085271,9.7550725 C13.7085271,11.1405756 12.5920594,12.2574607 11.2070742,12.2574607 L11.2070742,12.2574607 Z M15.1641748,5.82476793 L11.2070742,5.82476793 C9.0871989,5.82476793 7.36303363,7.64854235 7.36303363,9.76921029 C7.36303363,11.8898782 9.12959641,13.6571015 11.2494717,13.6571015 C11.2636042,13.6571015 13.5672021,13.6005504 13.5389371,14.8870889 C13.5248046,15.6929427 10.9809542,17.3470637 10.9809542,17.3470637 L10.9809542,18.8456691 C10.9809542,18.8456691 14.6978023,16.6967255 15.0511148,15.0001912 C15.3761624,13.4733103 13.8781171,12.9784878 13.6237321,12.8512477 C14.4999472,12.1443584 15.0511148,10.9426465 15.0511148,9.74093472 C15.0511148,8.75128968 14.6695373,8.03026258 14.0618397,7.05475533 L15.1641748,7.05475533 L15.1641748,5.82476793 L15.1641748,5.82476793 Z" id="Shape"></path>
                                <path d="M4.77678574,4.08582022 C5.00290577,3.87375343 5.24315831,3.67582442 5.49754335,3.47789541 L4.70612322,2.38928587 C4.40934068,2.61549045 4.12669064,2.85583282 3.84404059,3.11031297 L4.77678574,4.08582022 Z" id="Path"></path>
                                <path d="M5.89325341,3.19513969 C6.14763845,3.01134847 6.41615599,2.85583282 6.68467353,2.70031717 L6.04871093,1.51274313 C5.72366338,1.69653435 5.41274833,1.89446336 5.10183329,2.10653015 L5.89325341,3.19513969 Z" id="Path"></path>
                                <path d="M3.57552305,5.41477213 C3.84404059,5.07546526 4.12669064,4.75029617 4.42347318,4.43926488 L3.49072804,3.46375763 C3.13741548,3.83134007 2.79823543,4.2130603 2.48732038,4.60891831 L3.57552305,5.41477213 Z" id="Path"></path>
                                <path d="M1.52631024,10.4760996 C1.58284024,9.95300151 1.68176776,9.42990342 1.82309278,8.92094311 L0.522902581,8.5250851 C0.353312554,9.11887212 0.240252537,9.71265914 0.169590026,10.3347217 L1.52631024,10.4760996 Z" id="Path"></path>
                                <path d="M2.71344042,6.71544846 C2.88303044,6.40441716 3.08088547,6.09338587 3.2787405,5.79649236 L2.19053784,5.00477633 C1.9502853,5.35822098 1.72416527,5.72580342 1.51217773,6.09338587 L2.71344042,6.71544846 Z" id="Path"></path>
                                <path d="M1.9644178,8.45439617 C2.10574282,8.00198701 2.28946535,7.57785342 2.48732038,7.15371983 L1.2860577,6.53165724 C1.04580516,7.02647976 0.833817628,7.53544006 0.664227602,8.05853815 L1.9644178,8.45439617 Z" id="Path"></path>
                                <path d="M7.10864859,2.4599748 C7.88593621,2.06411679 8.71975384,1.76722328 9.58183648,1.58343206 L9.32745144,0.254480152 C8.32404378,0.466546946 7.36303363,0.819991602 6.472686,1.27240076 L7.10864859,2.4599748 Z" id="Path"></path>
                                <path d="M19.8279006,18.0680908 C19.276733,18.7608423 18.6266379,19.3970427 17.9058803,19.9342786 L18.6831679,21.0370259 C19.5169855,20.4291011 20.2518756,19.6939362 20.9019707,18.8880824 L19.8279006,18.0680908 Z" id="Path"></path>
                                <path d="M9.82208901,0.169653435 L10.0764741,1.49860534 C10.4439191,1.4420542 10.8113642,1.39964084 11.1788092,1.37136526 L11.1364117,0.0141377862 C10.6841716,0.0424133587 10.2460641,0.0989645036 9.82208901,0.169653435" id="Path"></path>
                                <path d="M22.0608359,11.6636736 C22.0608359,12.7098698 21.9053784,13.7136526 21.6085958,14.6750221 L22.8946535,15.0991557 C23.2338336,14.0105462 23.4034236,12.8653855 23.4034236,11.6636736 C23.4034236,11.6495359 23.4034236,11.6353981 23.4034236,11.6212603 L22.0608359,11.6636736 L22.0608359,11.6636736" id="Path"></path>
                                <path d="M22.7250635,7.69095571 L21.4672708,8.18577823 C21.8064509,9.11887212 22.0184384,10.1226549 22.0608359,11.1688511 L23.4175561,11.1405756 C23.3468936,9.92472594 23.1066411,8.76542747 22.7250635,7.69095571" id="Path"></path>
                                <path d="M19.531118,4.90581182 C20.2518756,5.73994121 20.8595732,6.68717289 21.2835483,7.71923128 L22.541341,7.22440877 C22.0467034,6.03683472 21.3683433,4.9340874 20.5203932,3.98685572 L19.531118,4.90581182 Z" id="Path"></path>
                                <path d="M16.012125,2.27618358 C17.2133877,2.82755725 18.2874578,3.5909977 19.191938,4.53822938 L20.1953456,3.61927328 C19.163673,2.53066374 17.9200128,1.65412099 16.54916,1.0320584 L16.012125,2.27618358 Z" id="Path"></path>
                                <path d="M15.2772349,22.7901114 L14.8391273,21.5035729 C14.0759722,21.7439152 13.284552,21.8852931 12.4648669,21.9418442 L12.5213969,23.2990717 C13.4682746,23.2425206 14.4010197,23.0587293 15.2772349,22.7901114" id="Path"></path>
                                <path d="M21.4672708,15.1415691 C21.1422233,16.0605252 20.6899832,16.9087923 20.1246831,17.6863706 L21.1987533,18.5063622 C21.8488484,17.6156816 22.3717509,16.6260366 22.739196,15.5798404 L21.4672708,15.1415691 Z" id="Path"></path>
                                <path d="M17.5101702,20.2170343 C16.8318101,20.6835813 16.0827875,21.0653015 15.3054999,21.3480572 L15.7436074,22.6345958 C16.6480876,22.3094267 17.5101702,21.8570175 18.3015903,21.3197816 L17.5101702,20.2170343 Z" id="Path"></path>
                                <path d="M11.6734468,1.35722748 C11.7017118,1.35722748 11.7299768,1.35722748 11.7723743,1.35722748 C13.114962,1.35722748 14.4010197,1.61170763 15.5740174,2.09239236 L16.09692,0.848267174 C14.7543323,0.296893511 13.284552,0 11.7582418,0 C11.7158443,0 11.6734468,0 11.6169168,0 L11.6734468,1.35722748 Z" id="Path"></path>
                                <path d="M1.45564772,11.6636736 C1.45564772,11.4233313 1.46978023,11.1971267 1.48391273,10.9709221 L0.141325022,10.843682 C0.12719252,11.1123 0.113060017,11.3809179 0.113060017,11.6636736 C0.113060017,11.9888427 0.12719252,12.3140118 0.155457524,12.6391809 L1.49804523,12.497803 C1.46978023,12.2291851 1.45564772,11.9464294 1.45564772,11.6636736" id="Path"></path>
                                <path d="M11.9702293,21.9701198 C11.8995668,21.9701198 11.8289043,21.9701198 11.7582418,21.9701198 C11.0657492,21.9701198 10.4015216,21.8994309 9.7514265,21.7721908 L9.45464396,23.1011427 C10.2036666,23.2566584 10.9668217,23.3273473 11.7582418,23.3273473 C11.8571693,23.3273473 11.9419643,23.3273473 12.0267594,23.3273473 L11.9702293,21.9701198 Z" id="Path"></path>
                                <path d="M1.9220203,14.745711 C1.73829777,14.1801996 1.61110525,13.5864126 1.54044274,12.9926255 L0.19785503,13.1340034 C0.282650044,13.8408927 0.438107567,14.5195065 0.6500951,15.1839824 L1.9220203,14.745711 Z" id="Path"></path>
                                <path d="M2.91129545,16.9370679 C2.5862479,16.3856942 2.30359785,15.806045 2.09161032,15.212258 L0.805552624,15.6505294 C1.05993766,16.3574187 1.38498521,17.0360324 1.76656277,17.658095 L2.91129545,16.9370679 Z" id="Path"></path>
                                <path d="M6.59987852,20.5846168 C5.94978342,20.2028965 5.34208582,19.7504874 4.79091824,19.2415271 L3.85817309,20.2170343 C4.49413569,20.8108213 5.2007608,21.3339194 5.96391592,21.7721908 L6.59987852,20.5846168 Z" id="Path"></path>
                                <path d="M4.42347318,18.9022202 C3.95710061,18.4356732 3.53312554,17.9125752 3.16568049,17.3612015 L2.02094781,18.0822286 C2.44492288,18.7325668 2.93956045,19.3263538 3.47659554,19.8777274 L4.42347318,18.9022202 Z" id="Path"></path>
                                <path d="M9.27092143,21.6732263 C8.47950131,21.4752973 7.73047869,21.1925416 7.02385358,20.8249591 L6.37375848,22.0125332 C7.19344361,22.4366668 8.05552624,22.7759736 8.97413888,23.0021782 L9.27092143,21.6732263 Z" id="Path"></path>
                            </g>
                        </g>
                    </g>
                </g>
            </g>
        </g>
    </g>
</svg>