<svg xmlns="http://www.w3.org/2000/svg" xmlns:xlink="http://www.w3.org/1999/xlink" width="190" height="44" viewBox="0 0 190 44">
    <defs>
        <path id="a" d="M.115.237h8.369v3.88H.114z"/>
        <path id="c" d="M0 .05h2.603v3.342H0z"/>
        <path id="e" d="M0 43.763h189.732V.323H0z"/>
    </defs>
    <g fill="none" fill-rule="evenodd">
        <path fill="#FFF" d="M28.221 11.178h-7.413c-3.964 0-7.19 3.4-7.19 7.34 0 3.943 3.307 7.245 7.272 7.245.02 0 4.335-.114 4.294 2.281-.025 1.487-4.795 4.593-4.795 4.593v2.777s6.95-4.004 7.617-7.151c.601-2.84-2.206-3.76-2.672-3.988 1.634-1.313 2.672-3.55 2.672-5.795 0-1.835-.71-3.178-1.858-5.01h2.073v-2.292zM20.808 23.15c-2.588 0-4.695-2.094-4.695-4.668 0-2.575 2.107-4.669 4.695-4.669s4.695 2.094 4.695 4.669c0 2.574-2.107 4.668-4.695 4.668zM8.761 7.937c.43-.394.878-.767 1.342-1.122L8.61 4.779c-.558.424-1.094.874-1.61 1.348l1.762 1.81zM10.847 6.274c.477-.33.97-.639 1.48-.926L11.13 3.127c-.611.343-1.204.714-1.775 1.111l1.492 2.036zM6.513 10.39a19.486 19.486 0 0 1 1.586-1.816L6.337 6.762a22.097 22.097 0 0 0-1.875 2.145l2.05 1.482zM2.665 19.836c.114-.985.304-1.95.563-2.884l-2.426-.727a21.426 21.426 0 0 0-.66 3.382l2.523.23zM4.903 12.838c.326-.59.684-1.16 1.067-1.708L3.92 9.648a21.22 21.22 0 0 0-1.27 2.034l2.252 1.156zM3.494 16.074c.276-.833.603-1.643.986-2.422l-2.252-1.155c-.452.916-.84 1.869-1.162 2.851l2.428.726zM13.137 4.914a19.22 19.22 0 0 1 4.637-1.637L17.299.799a21.821 21.821 0 0 0-5.359 1.895l1.197 2.22zM36.952 33.974a19.408 19.408 0 0 1-3.587 3.465l1.463 2.056a21.936 21.936 0 0 0 4.145-4.003l-2.02-1.518zM18.205.63l.475 2.475a19.627 19.627 0 0 1 2.069-.228l-.084-2.52c-.834.044-1.653.139-2.46.274M41.15 22.044c0 1.946-.296 3.825-.841 5.597l2.408.793c.627-2.021.966-4.168.966-6.39l-.002-.085-2.532.064v.02M42.374 14.637l-2.365.91a18.958 18.958 0 0 1 1.116 5.56l2.534-.063a21.552 21.552 0 0 0-1.285-6.407M36.392 9.445a19.226 19.226 0 0 1 3.283 5.249l2.364-.909a21.764 21.764 0 0 0-3.777-6.04l-1.87 1.7zM29.812 4.563a19.392 19.392 0 0 1 5.958 4.205l1.87-1.698a21.933 21.933 0 0 0-6.837-4.826l-.99 2.32zM28.421 42.754l-.814-2.386c-1.42.443-2.909.721-4.447.825l.112 2.519a21.824 21.824 0 0 0 5.149-.958M40.019 28.51a19.077 19.077 0 0 1-2.51 4.733l2.021 1.52a21.656 21.656 0 0 0 2.894-5.46l-2.405-.792zM32.613 37.97a19.251 19.251 0 0 1-4.133 2.103l.814 2.387a21.772 21.772 0 0 0 4.783-2.435l-1.464-2.056z"/>
        <g transform="translate(21.473 .086)">
            <mask id="b" fill="#fff">
                <use xlink:href="#a"/>
            </mask>
            <path fill="#FFF" d="M.197 2.762c.058 0 .114-.004.172-.004 2.516 0 4.918.486 7.123 1.36l.992-2.32A21.815 21.815 0 0 0 .369.237c-.086 0-.17.006-.254.008l.082 2.517z" mask="url(#b)"/>
        </g>
        <g transform="translate(0 20.469)">
            <mask id="d" fill="#fff">
                <use xlink:href="#c"/>
            </mask>
            <path fill="#FFF" d="M2.534 1.575c0-.436.02-.866.05-1.295L.058.05C.023.556 0 1.061 0 1.575c0 .612.032 1.217.083 1.817l2.521-.265a18.547 18.547 0 0 1-.07-1.552" mask="url(#d)"/>
        </g>
        <path fill="#FFF" d="M22.24 41.233c-.133.003-.265.01-.399.01-1.287 0-2.547-.13-3.765-.37l-.553 2.462c1.396.279 2.84.428 4.318.428.172 0 .34-.01.51-.013l-.112-2.517zM3.416 27.782a19.052 19.052 0 0 1-.718-3.275l-2.52.265c.166 1.312.446 2.59.84 3.82l2.398-.81zM5.262 31.869a19.137 19.137 0 0 1-1.55-3.219l-2.4.81a21.525 21.525 0 0 0 1.804 3.75l2.146-1.341zM12.163 38.646a19.43 19.43 0 0 1-3.397-2.492l-1.761 1.81a22 22 0 0 0 3.94 2.892l1.218-2.21zM8.103 35.517a19.408 19.408 0 0 1-2.349-2.873l-2.144 1.34a21.787 21.787 0 0 0 2.732 3.345l1.761-1.812zM17.177 40.673a19.186 19.186 0 0 1-4.206-1.585l-1.218 2.21a21.76 21.76 0 0 0 4.87 1.834l.554-2.46zM59.418 16.554c-.42.5-1.012.887-1.78 1.162-.766.276-1.615.414-2.548.414-.979 0-1.837-.212-2.576-.638-.737-.425-1.308-1.042-1.709-1.85-.401-.809-.607-1.76-.618-2.851v-.765c0-1.123.19-2.096.571-2.917.381-.822.93-1.45 1.648-1.885.717-.436 1.557-.653 2.521-.653 1.342 0 2.39.318 3.147.954.756.637 1.204 1.563 1.344 2.778h-2.269c-.104-.644-.333-1.115-.687-1.414-.355-.299-.843-.448-1.465-.448-.793 0-1.396.296-1.81.888-.415.593-.624 1.474-.63 2.642v.72c0 1.179.225 2.07.676 2.673.451.602 1.112.904 1.981.904.876 0 1.5-.186 1.873-.557v-1.94h-2.121v-1.706h4.452v4.489zM64.771 11.26c-.445 0-.806.151-1.084.45-.277.301-.455.73-.532 1.29h3.124v-.18c-.01-.496-.146-.88-.404-1.151-.26-.272-.627-.408-1.104-.408m.257 6.869c-1.233 0-2.237-.376-3.011-1.129-.775-.752-1.162-1.753-1.162-3.005v-.216c0-.84.163-1.59.49-2.253a3.59 3.59 0 0 1 1.386-1.53c.6-.357 1.281-.537 2.048-.537 1.15 0 2.055.36 2.715 1.082.66.721.991 1.744.991 3.068v.912h-5.353c.072.546.291.984.656 1.313.365.33.828.494 1.387.494.866 0 1.541-.31 2.028-.934l1.103 1.228a3.364 3.364 0 0 1-1.367 1.11 4.519 4.519 0 0 1-1.911.397M71.827 9.615l.07.966c.6-.747 1.406-1.12 2.416-1.12.89 0 1.554.26 1.989.78.435.52.657 1.298.668 2.333v5.401h-2.245v-5.347c0-.473-.104-.817-.311-1.03-.208-.215-.551-.322-1.034-.322-.631 0-1.106.268-1.421.804v5.895h-2.246v-8.36h2.114zM80.568 13.876c0 .795.15 1.402.45 1.823.3.42.73.63 1.29.63.544 0 .969-.207 1.274-.622.306-.415.458-1.08.458-1.993 0-.779-.152-1.382-.458-1.811-.305-.428-.735-.642-1.29-.642-.55 0-.973.213-1.274.638-.3.426-.45 1.085-.45 1.977zm-2.246-.158c0-.83.161-1.569.482-2.217a3.511 3.511 0 0 1 1.387-1.507c.603-.356 1.304-.534 2.101-.534 1.135 0 2.06.346 2.778 1.036.718.69 1.118 1.628 1.2 2.813l.016.571c0 1.283-.36 2.312-1.08 3.087-.72.775-1.686 1.163-2.898 1.163-1.212 0-2.18-.387-2.902-1.16-.723-.772-1.084-1.823-1.084-3.152v-.1zM89.775 9.615l.07.935c.595-.726 1.4-1.09 2.416-1.09 1.082 0 1.826.426 2.23 1.276.59-.85 1.432-1.276 2.525-1.276.912 0 1.59.264 2.035.793.446.528.669 1.323.669 2.383v5.339h-2.253v-5.33c0-.475-.094-.821-.28-1.04-.187-.219-.515-.329-.987-.329-.673 0-1.14.32-1.399.958l.009 5.741h-2.246v-5.323c0-.484-.096-.834-.287-1.051-.192-.217-.518-.325-.98-.325-.637 0-1.098.263-1.382.788v5.911h-2.246v-8.36h2.106z"/>
        <mask id="f" fill="#fff">
            <use xlink:href="#e"/>
        </mask>
        <path fill="#FFF" d="M101.561 17.975h2.253v-8.36h-2.253v8.36zm-.132-10.523c0-.335.113-.611.338-.827.226-.217.532-.325.92-.325.383 0 .69.108.918.325.227.216.34.492.34.827 0 .34-.114.618-.345.834-.23.216-.534.325-.912.325s-.683-.109-.914-.325a1.092 1.092 0 0 1-.345-.834zM109.16 16.33c.414 0 .75-.113 1.01-.34.259-.227.393-.528.404-.905h2.106a2.848 2.848 0 0 1-.466 1.557 3.08 3.08 0 0 1-1.255 1.098c-.532.26-1.118.39-1.76.39-1.202 0-2.15-.38-2.844-1.14-.694-.76-1.041-1.81-1.041-3.148v-.148c0-1.287.344-2.314 1.033-3.082.69-.768 1.635-1.152 2.836-1.152 1.052 0 1.895.298 2.53.893.634.595.956 1.387.967 2.376h-2.106c-.01-.435-.145-.788-.404-1.06-.26-.272-.601-.408-1.026-.408-.522 0-.917.19-1.185.569-.267.379-.4.994-.4 1.845v.232c0 .862.133 1.481.397 1.857.263.377.666.565 1.204.565M120.403 12.134h2.082c.617 0 1.087-.144 1.41-.433.324-.288.486-.7.486-1.236 0-.551-.163-.997-.489-1.337-.327-.34-.778-.515-1.352-.525h-2.137v3.53zm0 1.877v3.964h-2.331V6.725h4.413c.85 0 1.597.155 2.242.464.645.309 1.141.748 1.488 1.318.347.569.52 1.216.52 1.943 0 1.102-.38 1.971-1.138 2.607-.759.637-1.81.954-3.15.954h-2.044zM132.912 11.709a6.154 6.154 0 0 0-.807-.062c-.85 0-1.407.286-1.671.857v5.471h-2.246v-8.36h2.121l.062.997c.45-.768 1.075-1.152 1.873-1.152.249 0 .482.034.7.1l-.032 2.149zM137.457 11.26c-.445 0-.806.151-1.084.45-.277.301-.454.73-.532 1.29h3.124v-.18c-.01-.496-.146-.88-.404-1.151-.26-.272-.627-.408-1.104-.408m.257 6.869c-1.233 0-2.237-.376-3.011-1.129-.774-.752-1.162-1.753-1.162-3.005v-.216c0-.84.164-1.59.49-2.253a3.592 3.592 0 0 1 1.387-1.53c.598-.357 1.28-.537 2.047-.537 1.15 0 2.055.36 2.716 1.082.66.721.99 1.744.99 3.068v.912h-5.353c.073.546.291.984.657 1.313.364.33.827.494 1.386.494.866 0 1.541-.31 2.029-.934l1.102 1.228a3.362 3.362 0 0 1-1.367 1.11 4.519 4.519 0 0 1-1.911.397M144.341 13.9c0 .784.137 1.385.412 1.803.274.418.673.626 1.196.626.695 0 1.184-.291 1.469-.874V12.15c-.28-.583-.764-.874-1.453-.874-1.083 0-1.624.874-1.624 2.623m-2.245-.167c0-1.303.293-2.341.882-3.114.587-.772 1.392-1.159 2.412-1.159.818 0 1.494.305 2.028.913V6.108h2.253v11.867h-2.028l-.108-.888c-.56.695-1.28 1.043-2.16 1.043-.99 0-1.784-.388-2.382-1.163-.598-.775-.897-1.853-.897-3.234M151.528 17.975h2.253v-8.36h-2.253v8.36zm-.132-10.523c0-.335.113-.611.338-.827.226-.217.532-.325.92-.325.384 0 .69.108.918.325.227.216.341.492.341.827 0 .34-.115.618-.346.834-.23.216-.534.325-.912.325s-.683-.109-.913-.325a1.092 1.092 0 0 1-.346-.834zM159.127 16.33c.415 0 .751-.113 1.01-.34.26-.227.394-.528.405-.905h2.105a2.849 2.849 0 0 1-.466 1.557 3.075 3.075 0 0 1-1.255 1.098c-.531.26-1.117.39-1.76.39-1.201 0-2.15-.38-2.844-1.14-.693-.76-1.04-1.81-1.04-3.148v-.148c0-1.287.344-2.314 1.032-3.082.69-.768 1.635-1.152 2.837-1.152 1.051 0 1.894.298 2.529.893.634.595.956 1.387.967 2.376h-2.105c-.011-.435-.146-.788-.405-1.06s-.6-.408-1.026-.408c-.522 0-.917.19-1.184.569-.267.379-.4.994-.4 1.845v.232c0 .862.132 1.481.396 1.857.264.377.666.565 1.204.565M166.617 7.56v2.055h1.438v1.638h-1.438v4.173c0 .309.06.53.18.664.118.134.346.201.683.201.248 0 .469-.018.66-.054v1.691c-.44.135-.893.202-1.36.202-1.574 0-2.377-.79-2.408-2.373v-4.504h-1.228V9.615h1.228V7.56h2.245zM169.422 17.975h2.253v-8.36h-2.253v8.36zm-.132-10.523c0-.335.113-.611.338-.827.226-.217.533-.325.92-.325.384 0 .69.108.918.325.228.216.341.492.341.827 0 .34-.115.618-.345.834-.23.216-.535.325-.913.325s-.683-.109-.913-.325a1.093 1.093 0 0 1-.346-.834zM175.421 13.876c0 .795.15 1.402.45 1.823.3.42.73.63 1.29.63.544 0 .969-.207 1.274-.622.306-.415.459-1.08.459-1.993 0-.779-.153-1.382-.459-1.811-.305-.428-.735-.642-1.29-.642-.549 0-.973.213-1.273.638-.3.426-.45 1.085-.45 1.977zm-2.246-.158c0-.83.161-1.569.482-2.217a3.51 3.51 0 0 1 1.387-1.507c.603-.356 1.304-.534 2.101-.534 1.135 0 2.061.346 2.778 1.036.718.69 1.118 1.628 1.2 2.813l.017.571c0 1.283-.36 2.312-1.08 3.087-.72.775-1.686 1.163-2.899 1.163-1.212 0-2.18-.387-2.901-1.16-.724-.772-1.085-1.823-1.085-3.152v-.1zM184.589 9.615l.07.966c.601-.747 1.407-1.12 2.417-1.12.89 0 1.553.26 1.988.78.436.52.658 1.298.669 2.333v5.401h-2.246v-5.347c0-.473-.104-.817-.311-1.03-.207-.215-.551-.322-1.034-.322-.631 0-1.105.268-1.421.804v5.895h-2.245v-8.36h2.113zM56.245 31.241c-.093.852-.4 1.503-.92 1.955-.519.452-1.21.678-2.074.678-.604 0-1.137-.15-1.601-.45-.464-.3-.822-.725-1.075-1.275-.254-.55-.382-1.178-.386-1.886v-1.05c0-.718.127-1.355.38-1.91.253-.557.617-.985 1.092-1.287.475-.302 1.022-.453 1.64-.453.872 0 1.56.234 2.064.7.505.467.798 1.113.88 1.94h-.693c-.171-1.375-.921-2.062-2.251-2.062-.738 0-1.325.274-1.763.823-.438.549-.656 1.306-.656 2.274v.99c0 .934.213 1.679.64 2.234.426.557 1.002.835 1.729.835.719 0 1.26-.171 1.625-.514.365-.343.59-.857.676-1.542h.693zM57.837 33.763h.671V25.23h-.67zM60.446 33.763h.922v-6.011h-.922v6.011zm-.161-7.747c0-.125.056-.231.168-.317.113-.087.267-.13.462-.13.194 0 .349.043.464.13a.385.385 0 0 1 .172.317c0 .125-.056.23-.172.314-.115.085-.27.128-.464.128-.195 0-.349-.043-.462-.128a.38.38 0 0 1-.168-.314zM63.524 27.752l.023 1.028c.227-.37.51-.653.85-.847a2.217 2.217 0 0 1 1.122-.292c.648 0 1.13.182 1.447.544.317.363.477.908.48 1.634v3.944h-.665v-3.95c-.003-.537-.118-.937-.343-1.2-.226-.263-.586-.394-1.082-.394-.412 0-.778.129-1.097.386-.318.257-.554.604-.707 1.042v4.116h-.664v-6.01h.636zM69.295 33.763h.922v-6.011h-.922v6.011zm-.161-7.747c0-.125.056-.231.169-.317.112-.087.266-.13.461-.13.194 0 .349.043.464.13a.385.385 0 0 1 .173.317c0 .125-.057.23-.173.314-.115.085-.27.128-.464.128-.195 0-.35-.043-.461-.128a.38.38 0 0 1-.169-.314zM73.971 33.313c.466 0 .856-.13 1.17-.391.316-.262.486-.6.512-1.014h.643a1.88 1.88 0 0 1-.346 1.003 2.174 2.174 0 0 1-.847.708c-.352.17-.73.255-1.132.255-.793 0-1.421-.274-1.885-.822-.464-.548-.696-1.285-.696-2.211v-.2c0-.592.105-1.117.313-1.572a2.4 2.4 0 0 1 .897-1.056c.39-.248.844-.372 1.366-.372.663 0 1.21.196 1.64.589.43.392.66.91.69 1.55h-.643c-.03-.47-.2-.85-.511-1.14-.311-.288-.703-.432-1.176-.432-.604 0-1.072.216-1.405.65-.333.433-.5 1.04-.5 1.822v.194c0 .767.167 1.366.5 1.795.333.43.803.644 1.41.644M79.346 33.286c.447 0 .846-.108 1.198-.323a1.9 1.9 0 0 0 .768-.861V30.78h-1.195c-.667.008-1.188.129-1.564.364-.376.235-.565.558-.565.97 0 .336.126.616.377.838.252.222.579.334.98.334zm2.1.477c-.066-.189-.11-.468-.128-.839a2.327 2.327 0 0 1-.897.703 2.76 2.76 0 0 1-1.153.247c-.581 0-1.051-.16-1.411-.483a1.57 1.57 0 0 1-.539-1.222c0-.585.245-1.048.735-1.39.49-.34 1.171-.51 2.047-.51h1.212v-.684c0-.43-.133-.767-.399-1.014-.266-.245-.655-.368-1.165-.368-.466 0-.85.118-1.156.354-.306.238-.459.523-.459.857l-.67-.007c0-.477.224-.891.67-1.241.448-.35.997-.525 1.65-.525.673 0 1.204.167 1.594.502.389.336.59.804.6 1.403v2.845c0 .581.062 1.016.184 1.306v.066h-.714zM83.838 33.763h.67V25.23h-.67zM89.955 33.186h4.017v.577h-4.71v-8.089h.693zM96.85 33.286c.446 0 .846-.108 1.198-.323.351-.215.607-.502.768-.861V30.78H97.62c-.667.008-1.188.129-1.564.364-.376.235-.565.558-.565.97 0 .336.126.616.377.838.253.222.58.334.981.334zm2.1.477c-.067-.189-.11-.468-.129-.839a2.33 2.33 0 0 1-.896.703 2.76 2.76 0 0 1-1.154.247c-.581 0-1.051-.16-1.411-.483a1.57 1.57 0 0 1-.538-1.222c0-.585.244-1.048.734-1.39.49-.34 1.172-.51 2.047-.51h1.213v-.684c0-.43-.133-.767-.4-1.014-.266-.245-.654-.368-1.165-.368-.465 0-.85.118-1.156.354-.306.238-.459.523-.459.857l-.67-.007c0-.477.224-.891.67-1.241.448-.35.997-.525 1.65-.525.673 0 1.205.167 1.594.502.389.336.59.804.6 1.403v2.845c0 .581.062 1.016.185 1.306v.066h-.715zM105.458 30.702c0-.792-.154-1.405-.464-1.836-.308-.432-.744-.647-1.307-.647-.428 0-.791.104-1.09.314-.297.209-.522.515-.675.919v2.712c.335.755.928 1.133 1.777 1.133.55 0 .982-.217 1.293-.65.31-.434.466-1.082.466-1.945zm.671.117c0 .937-.21 1.68-.626 2.23-.417.55-.978.825-1.682.825-.841 0-1.478-.31-1.91-.933l-.028.822h-.625V25.23h.664v3.394c.425-.655 1.054-.983 1.888-.983.715 0 1.28.271 1.696.814.416.543.623 1.297.623 2.264v.1zM107.906 30.852c0 .719.187 1.309.561 1.77.375.46.865.69 1.473.69.602 0 1.092-.23 1.466-.69.374-.461.561-1.07.561-1.826v-.127c0-.46-.085-.88-.257-1.262a2.059 2.059 0 0 0-.72-.886 1.853 1.853 0 0 0-1.062-.313 1.79 1.79 0 0 0-1.458.697c-.376.465-.564 1.073-.564 1.825v.122zm-.67-.183c0-.578.112-1.098.337-1.561.226-.464.544-.824.955-1.08a2.584 2.584 0 0 1 1.4-.387c.804 0 1.457.28 1.956.842.498.56.748 1.304.748 2.23v.139c0 .581-.113 1.105-.338 1.57a2.512 2.512 0 0 1-.952 1.074c-.41.252-.877.378-1.402.378-.801 0-1.452-.28-1.953-.842-.501-.56-.752-1.304-.752-2.23v-.133zM116.805 28.319a2.48 2.48 0 0 0-.452-.04c-.417 0-.77.116-1.059.348-.289.231-.495.567-.617 1.008v4.128h-.665v-6.01h.654l.011.954c.354-.71.922-1.066 1.704-1.066.186 0 .333.024.441.072l-.017.606zM119.353 33.286c.447 0 .846-.108 1.198-.323a1.9 1.9 0 0 0 .768-.861V30.78h-1.195c-.667.008-1.188.129-1.565.364-.376.235-.564.558-.564.97 0 .336.126.616.377.838.252.222.579.334.98.334zm2.1.477c-.067-.189-.11-.468-.128-.839a2.33 2.33 0 0 1-.897.703 2.761 2.761 0 0 1-1.153.247c-.582 0-1.052-.16-1.411-.483a1.57 1.57 0 0 1-.54-1.222c0-.585.246-1.048.735-1.39.49-.34 1.173-.51 2.047-.51h1.213v-.684c0-.43-.133-.767-.4-1.014-.265-.245-.654-.368-1.164-.368-.466 0-.851.118-1.157.354-.305.238-.458.523-.458.857l-.67-.007c0-.477.223-.891.67-1.241.447-.35.997-.525 1.649-.525.673 0 1.205.167 1.595.502.388.336.589.804.6 1.403v2.845c0 .581.061 1.016.184 1.306v.066h-.715zM124.806 26.213v1.54h1.251v.544h-1.251v4.01c0 .333.06.582.181.745.122.163.323.245.606.245.112 0 .293-.019.542-.056l.028.54c-.175.062-.414.093-.715.093-.458 0-.792-.132-1-.397-.209-.265-.314-.655-.314-1.17v-4.01h-1.11v-.545h1.11v-1.539h.672zM127.632 30.852c0 .719.187 1.309.562 1.77.374.46.865.69 1.472.69.603 0 1.092-.23 1.466-.69.375-.461.562-1.07.562-1.826v-.127c0-.46-.086-.88-.258-1.262a2.059 2.059 0 0 0-.72-.886 1.853 1.853 0 0 0-1.062-.313 1.79 1.79 0 0 0-1.458.697c-.376.465-.564 1.073-.564 1.825v.122zm-.67-.183c0-.578.112-1.098.338-1.561.225-.464.543-.824.955-1.08a2.584 2.584 0 0 1 1.4-.387c.804 0 1.456.28 1.955.842.499.56.748 1.304.748 2.23v.139c0 .581-.112 1.105-.337 1.57a2.512 2.512 0 0 1-.953 1.074c-.41.252-.877.378-1.402.378-.8 0-1.452-.28-1.953-.842-.5-.56-.751-1.304-.751-2.23v-.133zM136.532 28.319a2.48 2.48 0 0 0-.453-.04c-.417 0-.77.116-1.059.348-.288.231-.494.567-.616 1.008v4.128h-.665v-6.01h.653l.012.954c.353-.71.922-1.066 1.703-1.066.187 0 .334.024.442.072l-.017.606zM139.605 32.807l1.765-5.055h.72l-2.58 7.033-.134.312c-.332.73-.844 1.094-1.537 1.094-.16 0-.332-.026-.514-.078l-.005-.55.346.033c.327 0 .593-.08.796-.241.203-.161.375-.438.516-.831l.297-.81-2.28-5.962h.732l1.878 5.055z" mask="url(#f)"/>
    </g>
</svg>
