<svg xmlns="http://www.w3.org/2000/svg" style="height: 512px; width: 512px;" width="495.16058396193023" height="215.5328471624665"><rect id="backgroundrect" width="100%" height="100%" x="0" y="0" fill="none" stroke="none"/><g class="currentLayer" style=""><title>Layer 1</title><g class="" style="touch-action: none;" id="svg_1"><path d="M-56.61956202030183,-247.6301650390625 c-6.176,0 -12.353,1.3840000000000001 -17.137,4.152 L-226.50956202030181,-155.1181650390625 c-9.57,5.536 -9.57,14.29 0,19.826 l152.753,88.36 c9.57,5.536 24.703,5.536 34.272,0 l152.753,-88.36 c9.57,-5.535 9.57,-14.29 0,-19.825 l-152.753,-88.36 c-4.785,-2.77 -10.96,-4.1530000000000005 -17.135,-4.1530000000000005 zm-117.313,82.61 a31.953,18.96 0 0 1 0.0020000000000000013,0 a31.953,18.96 0 0 1 21.195,5.536 a31.953,18.96 0 0 1 -45.19,26.813 a31.953,18.96 0 0 1 23.992,-32.348 zm118.24,0.24500000000000008 a31.953,18.96 0 0 1 22.125,32.362 a31.953,18.96 0 1 1 -45.187,-26.812 a31.953,18.96 0 0 1 23.06,-5.55 zm119.663,0.015000000000000008 a31.953,18.96 0 0 1 0.0020000000000000013,0 a31.953,18.96 0 0 1 21.195,5.535 a31.953,18.96 0 0 1 -45.19,26.812 a31.953,18.96 0 0 1 23.993,-32.347 zM-236.7095620203018,-118.5541650390625 c-5.753,-0.15500000000000008 -9.664,4.336 -9.664,12.28 v157.696 c0,11.052 7.57,24.163 17.14,29.69 l146.93,84.848 c9.57,5.526 17.14,1.1560000000000001 17.14,-9.895 V-1.634165039062509 c0,-11.052 -7.57,-24.16 -17.14,-29.688 l-146.93,-84.847 c-2.6900000000000004,-1.5550000000000002 -5.225,-2.327 -7.476,-2.387 zm360.773,0.0020000000000000013 c-2.25,0.06000000000000003 -4.783,0.8300000000000003 -7.474,2.3850000000000002 l-146.935,84.847 c-9.57,5.527 -17.14,18.638 -17.14,29.69 v157.7 c0,11.05 7.57,15.418 17.14,9.89 L116.59043797969821,81.11583496093749 c9.57,-5.527 17.137,-18.636 17.137,-29.688 v-157.7 c0,-7.942 -3.91,-12.432 -9.664,-12.278 zm-235.146,86.592 a31.236,18.008 58.094 0 1 33.818,41.183 a31.236,18.008 58.094 1 1 -45,-25.98 a31.236,18.008 58.094 0 1 11.182,-15.203 zM54.440437979698174,-3.2941650390624773 a18.008,31.236 31.906 0 1 0.0020000000000000013,0 a18.008,31.236 31.906 0 1 11.18,15.203 a18.008,31.236 31.906 0 1 -45,25.98 A18.008,31.236 31.906 0 1 54.440437979698174,-3.2941650390624773 zM-223.08256202030182,26.085834960937518 a31.236,18.008 58.094 0 1 33.818,41.184 a31.236,18.008 58.094 1 1 -45,-25.98 a31.236,18.008 58.094 0 1 11.182,-15.204 z" fill="#ffffff" fill-opacity="1" transform="translate(128,128) scale(0.5) " id="svg_2"/></g><g font-family="&quot;Times New Roman&quot;, Times, serif" font-size="62" font-style="normal" font-weight="bold" text-anchor="middle" class="" style="touch-action: none;" id="svg_3"><text stroke="rgba(255, 255, 255, 0)" stroke-width="15.5" y="126.80291748046875" x="360.5401459932327" id="svg_4"><tspan x="360.5401459932327" y="126.80291748046875" id="svg_5">Игроленд</tspan></text><text fill="rgba(255, 255, 255, 1)" y="126.80291748046875" x="360.5401459932327" id="svg_6"><tspan x="360.5401459932327" y="126.80291748046875" id="svg_7">Игроленд</tspan></text></g></g></svg>